<svg width="64" height="64" viewBox="0 0 64 64" fill="none" xmlns="http://www.w3.org/2000/svg">
<path d="M63.8009 13.4796C63.7194 11.5109 63.5247 9.5175 63.3362 7.58995C63.2429 6.63807 63.1467 5.65355 63.0655 4.68573C62.8632 2.27199 61.7443 1.0517 59.645 0.955322H59.6331L56.7494 0.956557C56.519 0.979324 56.289 1.00523 56.0588 1.03104C55.5759 1.08466 55.0766 1.14045 54.5876 1.16777C53.0941 1.2504 51.6004 1.32985 50.1067 1.40591C46.7762 1.57893 43.3324 1.75802 39.9481 1.99656C39.167 2.05145 37.7193 2.25855 36.802 3.02704L35.4993 4.11682C32.0021 7.03926 28.3861 10.0614 25.095 13.3112C19.9622 18.3805 14.8527 23.6437 9.91143 28.7335C7.823 30.885 5.73186 33.0336 3.63801 35.1794C3.5811 35.2376 3.52646 35.3009 3.47207 35.3644C3.38437 35.483 3.27568 35.5847 3.15135 35.6644C1.82887 36.3152 1.19394 37.5062 0.579758 38.6581L0.442657 38.9144C0.106322 39.4843 -0.0444083 40.1445 0.0113411 40.804C0.0670903 41.4632 0.326554 42.0888 0.753792 42.5942C5.50589 48.7259 10.2428 54.6462 15.9359 59.6747C17.6669 61.2031 19.688 62.4097 21.437 63.3887C21.9836 63.7304 22.609 63.9257 23.253 63.9553C24.1434 63.9553 24.8719 63.459 25.7009 62.6533C26.4057 61.9673 27.1074 61.2775 27.8056 60.5841C29.3562 59.0522 30.9597 57.4684 32.5908 55.9729C36.4358 52.4464 40.363 48.8785 44.1604 45.4281C47.636 42.2699 51.2298 39.0044 54.7523 35.779C56.799 33.905 58.8277 31.9454 60.7897 30.0499C61.3472 29.5116 61.905 28.9736 62.4635 28.4356C63.511 27.4283 64.0093 26.3158 63.9866 25.0342C63.9613 23.6779 63.9522 22.2972 63.9418 20.9616C63.9236 18.5091 63.9041 15.9718 63.8009 13.4796ZM60.563 23.6769C60.585 24.115 60.5066 24.5523 60.3343 24.9556C60.1618 25.3588 59.8995 25.7174 59.5676 26.0041C51.6533 33.3146 45.6007 38.9202 39.9428 44.1825C36.523 47.363 33.0572 50.6077 29.7055 53.7469C27.9009 55.4362 26.0966 57.1247 24.2922 58.8127C24.0243 59.0628 23.7493 59.3057 23.4134 59.6024C23.2808 59.7193 23.1387 59.845 22.9833 59.9818C22.587 59.7059 22.1787 59.4367 21.782 59.1752C20.7795 58.5493 19.8257 57.8486 18.9289 57.0789C13.1956 51.8823 8.2639 45.9034 4.19607 40.7405C3.77565 40.2068 3.72301 39.7494 4.02555 39.2572L4.1394 39.0717C4.47232 38.4755 4.87233 37.9193 5.3316 37.4138C6.77752 35.9578 8.22292 34.501 9.66783 33.0435C16.1889 26.4683 22.932 19.669 29.6443 13.0645C31.1699 11.5635 32.8657 10.1764 34.5059 8.83522C35.5684 7.96732 36.6644 7.06982 37.7097 6.14727C38.8409 5.14783 40.1707 5.07837 41.5787 5.00501C41.7471 4.99616 41.9151 4.98723 42.0823 4.97686C46.29 4.71353 50.5742 4.52153 54.7166 4.33384C55.9933 4.27649 57.2697 4.21841 58.5462 4.15955C58.5882 4.15752 58.6301 4.15684 58.6726 4.15684C58.8616 4.15684 59.0637 4.17447 59.3248 4.19724C59.4424 4.20761 59.5704 4.21907 59.7115 4.22995C59.794 5.38953 59.8788 6.53979 59.966 7.68097C60.1846 10.593 60.3912 13.3435 60.5291 16.1551C60.605 17.6779 60.587 19.2344 60.5706 20.7398C60.561 21.7023 60.5499 22.6972 60.563 23.6769Z" fill="#FF8500"/>
<path d="M47.6587 9.87598H47.5576C45.991 9.89561 44.495 10.5297 43.3916 11.6416C42.0934 12.9067 41.3504 14.6354 41.3259 16.4479C41.2961 20.0621 44.2881 22.9549 48.1376 23.0333C48.197 23.0347 48.256 23.0353 48.3147 23.0352C50.1881 23.0779 52.0041 22.3873 53.3756 21.1104C53.9941 20.5022 54.4851 19.7767 54.82 18.9766C55.1549 18.1764 55.3272 17.3175 55.3264 16.4501C55.377 12.6613 52.2231 9.95794 47.6587 9.87598ZM44.9283 14.5785C45.1529 14.0177 45.352 13.5775 45.6983 13.4416C45.7808 13.4099 45.8685 13.3943 45.9568 13.3954C46.1974 13.4083 46.4321 13.4733 46.6451 13.5859C46.6848 13.6046 46.7289 13.6129 46.7729 13.6101C46.8169 13.6072 46.8591 13.5932 46.8963 13.5695C46.9335 13.5457 46.9639 13.5129 46.9849 13.4742C47.0058 13.4355 47.0165 13.3921 47.0162 13.3481V13.3301C47.2378 13.4009 47.4607 13.4693 47.6835 13.5373C48.4323 13.7453 49.1641 14.0108 49.8721 14.3315C51.2184 14.9872 51.3011 16.1933 51.1331 17.0888C50.9136 18.2643 50.2359 18.9088 49.0009 19.1165C47.3041 19.4024 46.1127 19.0419 45.2511 17.9823C44.4904 17.0486 44.3857 15.9348 44.9283 14.5777V14.5785Z" fill="#FF8500"/>
</svg>
