<svg width="63" height="64" viewBox="0 0 63 64" fill="none" xmlns="http://www.w3.org/2000/svg">
<path d="M59.8386 4.37201L60.1234 4.31695C60.4499 4.25369 60.7579 4.19387 61.0588 4.12347C61.3854 4.05729 61.6802 3.88316 61.8959 3.62914C62.1117 3.37509 62.236 3.05587 62.2489 2.72263C62.2616 2.38939 62.1625 2.0615 61.9668 1.79158C61.7711 1.52165 61.4906 1.32533 61.1701 1.23416C60.5409 1.04655 59.8878 0.95258 59.2313 0.955383C57.5827 0.995351 55.9077 1.05371 54.2869 1.11008C52.086 1.18631 49.8103 1.26541 47.5726 1.29955C37.4517 1.45466 26.3962 1.59658 13.7734 1.73316C10.9803 1.7636 8.14295 1.69337 5.63956 1.63196C4.84212 1.61237 4.02855 1.54723 3.24221 1.4845C2.73746 1.44426 2.2327 1.40521 1.72769 1.37477C0.64918 1.31389 0.231683 1.90413 0.0738332 2.41232C-0.162016 3.17197 0.176427 3.89581 0.956685 4.30184C1.18711 4.41663 1.42397 4.51798 1.66608 4.60543L1.81414 4.66269C1.81414 5.173 1.81521 5.68046 1.81733 6.18514C1.82023 7.37252 1.82366 8.60019 1.81176 9.80054C1.77951 13.1147 1.70601 16.4849 1.63383 19.744C1.43156 28.9518 1.22267 38.4731 1.92467 47.842C2.04233 49.4118 2.54841 49.9645 4.00687 50.1167C5.23156 50.257 6.46374 50.3213 7.69637 50.3099C11.2457 50.2329 14.8535 50.1281 18.3426 50.0269C19.769 49.9851 21.1956 49.9441 22.6225 49.9041C22.8245 49.8983 23.0271 49.8994 23.2875 49.901C23.2013 50.0068 23.1175 50.1098 23.0366 50.209C22.6635 50.6662 22.3412 51.0605 22.0419 51.4756C20.1887 54.043 18.088 56.9546 16.0455 59.8648C15.6854 60.4164 15.4092 61.0183 15.2258 61.6509C15.1045 62.009 15.1046 62.3973 15.2262 62.7555C15.3478 63.1136 15.584 63.4214 15.8982 63.6313C16.1859 63.8444 16.5348 63.9579 16.8926 63.9553C17.3394 63.9492 17.7713 63.7941 18.1203 63.5148C18.4547 63.2451 18.7544 62.9346 19.0124 62.5908C21.6773 59.1576 24.3367 55.7201 27.0342 52.2336L28.9672 49.735L36.2997 49.4949L37.7539 51.8191C38.9514 53.7352 40.1288 55.6198 41.3107 57.5017C41.5162 57.8286 41.7205 58.156 41.9241 58.4839C42.6423 59.6377 43.385 60.8304 44.1755 61.9656C44.6155 62.5823 45.1766 63.103 45.8244 63.4953C46.1803 63.7327 46.6046 63.8446 47.0311 63.8134C47.4576 63.7824 47.8616 63.6101 48.1794 63.3237C48.525 63.0413 48.7693 62.6541 48.8756 62.22C48.9819 61.7862 48.9441 61.3296 48.768 60.9191C48.5229 60.318 48.217 59.7433 47.8547 59.2047C46.4211 57.0618 44.9814 54.9231 43.5351 52.7889C42.8255 51.7387 42.1164 50.6881 41.4078 49.6373C41.3771 49.5905 41.3493 49.5415 41.3253 49.4907C41.4456 49.4775 41.5548 49.4669 41.66 49.4642C42.9714 49.4391 44.2829 49.4158 45.5946 49.3941C48.621 49.3411 51.7505 49.2882 54.8281 49.2017C55.5991 49.1643 56.3672 49.0807 57.1285 48.9513C57.5251 48.8917 57.9362 48.83 58.3384 48.784C59.378 48.6651 60.016 48.018 60.2344 46.86C60.3108 46.3716 60.341 45.8772 60.3246 45.383V45.3224C60.3209 43.446 60.3196 41.5697 60.3206 39.6928C60.3206 34.8564 60.319 29.8557 60.2595 24.9368C60.2067 20.5342 60.0943 16.0593 59.9861 11.7319C59.9354 9.70354 59.8865 7.67511 59.8394 5.64671C59.8323 5.31982 59.8341 4.99249 59.8362 4.65157C59.8373 4.55999 59.8381 4.46676 59.8386 4.37201ZM6.2826 46.2239L6.26277 46.2184L6.24611 46.1162C6.21076 45.9238 6.18699 45.7292 6.17498 45.5339C6.12422 44.2369 6.0693 42.94 6.01026 41.643C5.87488 38.5623 5.73475 35.3768 5.68636 32.2442C5.61445 27.6202 5.58774 22.917 5.56236 18.3689C5.5457 15.4385 5.52851 12.4082 5.49943 9.42781C5.48965 8.41512 5.42169 7.40479 5.35004 6.33492C5.32201 5.91513 5.29319 5.4856 5.26702 5.04225C18.8135 5.49089 32.5476 5.20101 45.8323 4.91832C49.1902 4.84738 52.6584 4.77409 56.0825 4.71321V44.9471C39.2272 44.7059 22.5342 45.1467 6.46689 46.2591C6.40441 46.2536 6.34267 46.2419 6.2826 46.2239Z" fill="#FF8500"/>
<path d="M52.3159 13.1182C52.7417 12.6421 53.0422 12.0636 53.1888 11.4367C53.2631 11.1592 53.27 10.8673 53.2083 10.5865C53.147 10.3056 53.0189 10.0444 52.8359 9.82547C52.6526 9.60655 52.4199 9.43646 52.1575 9.33017C51.8954 9.22391 51.6115 9.18459 51.3309 9.21563C50.7943 9.27813 50.2817 9.47729 49.8402 9.79482C49.257 10.2244 48.7034 10.6942 48.1831 11.2008L48.0464 11.328C44.0638 15.0273 40.0747 18.7372 36.0794 22.4575L32.4889 25.7982L32.4801 25.794C31.1219 24.1997 29.4619 22.9439 27.8564 21.7297C27.0592 21.127 26.2348 20.5033 25.4627 19.8489C24.392 18.9424 23.5961 18.9168 22.421 19.7519C21.7793 20.2187 21.1953 20.7628 20.6816 21.3724C19.5366 22.7033 18.3869 24.0688 17.2752 25.3887C16.3722 26.4611 15.467 27.5313 14.5596 28.5991C13.7103 29.5938 12.8561 30.5845 11.9968 31.5708C10.8949 32.8425 9.75549 34.1575 8.65041 35.4658C8.17672 36.0048 7.80293 36.6271 7.54719 37.3026C7.48654 37.5625 7.48432 37.833 7.54071 38.094C7.5971 38.355 7.71062 38.5996 7.87279 38.8093C7.97644 38.9355 8.10645 39.0367 8.2533 39.1051C8.40014 39.1736 8.56011 39.2079 8.72156 39.2052C9.03277 39.1968 9.3353 39.0989 9.59441 38.9231C9.80368 38.7859 9.99557 38.6228 10.1657 38.4378L11.1179 37.4193C14.4612 33.8477 17.9182 30.1547 21.3072 26.5112C21.8706 25.9056 22.4212 25.268 23.0045 24.5925C23.2333 24.3277 23.4702 24.0532 23.7186 23.7671C24.1314 24.209 24.5388 24.6466 24.9409 25.0802C26.1547 26.3863 27.3013 27.6206 28.491 28.8475C29.0467 29.4226 29.677 29.9177 30.3644 30.3192C31.3066 30.8628 32.2066 30.8671 32.966 30.3318C33.5744 29.9163 34.161 29.4693 34.7239 28.9917L36.4696 27.4688C40.2588 24.163 44.1768 20.7447 47.9998 17.3462C49.5458 15.9705 50.9881 14.4998 52.3159 13.1182Z" fill="#FF8500"/>
</svg>
