<svg width="44" height="74" viewBox="0 0 44 74" fill="none" xmlns="http://www.w3.org/2000/svg">
<path d="M43.6372 40.71C43.6372 47.5991 43.6496 54.4882 43.6271 61.3773C43.6327 62.7931 43.5511 64.2078 43.3829 65.6134C43.299 66.4553 43.032 67.268 42.6009 67.9939C41.3347 69.928 39.3932 71.4871 37.0673 71.9768C35.1967 72.4064 33.2918 72.6661 31.375 72.7532C24.9113 72.9199 18.4441 72.9684 11.9777 73.0137C10.6716 73.0228 9.36233 72.8345 8.05673 72.7123C4.41654 72.372 2.51637 69.9768 1.51185 66.7757C1.01072 65.1781 0.916457 63.4436 0.707111 61.7624C-0.0244719 55.8893 0.134792 49.9887 0.209076 44.0909C0.270041 39.2313 0.321057 34.3716 0.362138 29.5119C0.402657 23.944 0.359609 18.3746 0.476381 12.8086C0.518492 10.9256 0.76581 9.05298 1.21387 7.22444C2.04254 3.84582 4.37799 2.10728 7.73793 1.42503C15.5403 -0.158932 23.3969 0.0538363 31.2681 0.46982C34.0537 0.616988 36.5501 1.61984 38.8723 3.13831C40.5142 4.19582 41.7222 5.81475 42.2742 7.6977C42.7219 9.23426 42.9976 10.8165 43.0961 12.4148C43.3589 17.4544 43.5449 22.4979 43.6547 27.5455C43.7439 31.9319 43.6732 36.3216 43.6732 40.71H43.6372ZM5.13068 57.8424C16.6103 56.8205 28.1386 56.4629 39.6588 56.7717C39.6923 56.1802 39.7384 55.7189 39.7413 55.2572C39.8127 44.0759 39.6006 32.611 39.6602 21.4285C39.665 20.8634 39.6276 20.2987 39.5477 19.7393C39.1729 17.1762 39.0865 14.895 38.6537 12.3418C38.4553 11.2344 38.1855 10.1411 37.8459 9.06897C37.6717 8.50503 37.3746 7.9875 36.9764 7.55411C36.5783 7.12072 36.089 6.7824 35.5442 6.564C33.9682 5.82816 32.258 5.42866 30.5213 5.39043C28.694 5.35669 26.8635 5.37875 25.0399 5.29311C19.5364 5.03451 14.0943 5.52787 8.67155 6.45171C6.94529 6.74576 6.00211 7.68917 5.63716 9.32276C5.4898 9.96599 5.39571 10.6204 5.35578 11.2793C5.28909 12.5034 5.26517 13.7308 5.25673 14.9569C5.18619 25.3352 5.11942 35.7143 5.05639 46.0937C5.0367 49.1128 4.99364 52.1318 4.98605 55.1509C4.98577 55.9851 5.07356 56.8196 5.13068 57.8424ZM39.4649 60.029L5.28994 60.435C5.51307 62.5901 5.40924 64.5776 6.01617 66.4678C6.48242 67.9193 7.48131 68.8457 9.10909 68.8732C9.71771 68.8837 10.3255 68.9325 10.9338 68.9347C12.901 68.9421 14.8678 68.9381 16.8349 68.9347C22.1271 68.9271 27.4198 68.9571 32.7107 68.8826C34.1111 68.8533 35.5028 68.6534 36.8554 68.2871C38.1019 67.9559 39.2792 67.163 39.4196 65.7722C39.6031 63.9605 39.4649 62.1168 39.4649 60.0292V60.029Z" fill="#FF8500"/>
<path d="M25.4057 64.2064C25.4014 65.7189 23.9802 67.034 22.3153 67.0658C21.9516 67.0754 21.5898 67.0108 21.2516 66.8755C20.9133 66.7406 20.6057 66.5381 20.3472 66.2801C20.0887 66.022 19.8847 65.7141 19.7474 65.3747C19.6101 65.0352 19.5423 64.6711 19.5482 64.3045C19.5731 63.5193 19.8924 62.7727 20.4419 62.2152C20.9913 61.6578 21.7301 61.3308 22.5092 61.3005C23.9698 61.2818 25.409 62.7265 25.4057 64.2064Z" fill="#FF8500"/>
</svg>
