<svg width="60" height="63" viewBox="0 0 60 63" fill="none" xmlns="http://www.w3.org/2000/svg">
<path d="M51.5901 22.1234C51.1719 22.8481 50.8959 23.5233 50.4513 24.0612C49.0043 25.813 47.4918 27.5109 46.0122 29.2362C36.8669 39.8979 26.7706 49.6514 16.7372 59.464C15.9428 60.2415 15.1066 60.9832 14.2404 61.6809C13.7505 62.0725 13.2082 62.3947 12.629 62.638C12.1838 62.8449 11.6825 62.9007 11.2022 62.797C10.722 62.6933 10.2894 62.4353 9.97111 62.0632C7.00757 59.0067 4.04752 55.9475 1.09081 52.8854C0.0768086 51.8291 -0.0304663 51.1567 0.861539 49.9417C2.23076 48.0766 3.59406 46.176 5.19904 44.5189C9.87669 39.6893 14.5863 34.8836 19.4461 30.2364C24.727 25.1866 30.1837 20.3183 35.5802 15.3889C36.7231 14.3458 37.9181 13.3555 39.1267 12.3857C40.1821 11.538 40.5354 11.6175 41.6901 12.3767C45.0476 14.5843 47.723 17.5179 50.4371 20.4088C50.8783 20.8807 51.1713 21.4927 51.5901 22.1234ZM11.7563 58.7181L39.4816 30.1109L32.881 22.9603C23.112 32.2585 13.0279 41.1953 4.0539 51.3484L11.7563 58.7181ZM42.2981 26.9868L46.9573 22.0455C44.9818 19.6439 42.7345 17.4761 40.2599 15.5851L35.3978 20.4215C37.8057 22.7125 40.0661 24.8635 42.2981 26.9868Z" fill="#FF8500"/>
<path d="M53.2282 6.12604C52.57 5.95858 52.0083 5.83621 51.459 5.67016C51.2224 5.60589 51.0147 5.46358 50.87 5.26658C50.7253 5.06956 50.6524 4.82957 50.6632 4.58597C50.6458 4.01004 50.8439 3.51162 51.4272 3.32698C52.065 3.12485 52.7323 3.01177 53.5318 2.82572C53.6368 2.39102 53.7571 1.89036 53.8788 1.38969C54.1038 0.46334 54.4511 0.121121 55.1788 0.108717C55.8938 0.0963131 56.2853 0.445011 56.529 1.35332C56.5948 1.66874 56.6442 1.98734 56.6765 2.30785C57.0383 2.34055 57.4099 2.35693 57.7759 2.41078C58.6745 2.54299 59.1582 2.99038 59.2481 3.7442C59.3395 4.51352 59.0147 5.081 58.2061 5.45228C57.8179 5.60795 57.4213 5.74132 57.0179 5.85171C56.9237 6.43165 56.7963 7.00579 56.6365 7.57135C56.3375 8.44526 55.7854 8.86815 55.088 8.8659C54.3529 8.8659 53.6958 8.33024 53.4487 7.46732C53.3491 7.02484 53.2756 6.577 53.2282 6.12604Z" fill="#FF8500"/>
<path d="M29.6112 10.1826C29.4489 12.0496 29.01 12.6862 27.9423 12.6772C26.9377 12.6687 26.4954 12.0367 26.2199 10.1721C25.7402 10.0382 25.2309 9.90684 24.7288 9.75348C24.467 9.6847 24.2395 9.52319 24.0893 9.29936C23.9391 9.07549 23.8764 8.80478 23.9131 8.53821C23.9199 8.29323 24.0131 8.05834 24.1763 7.8746C24.3395 7.69085 24.5624 7.56983 24.8062 7.53264C25.3146 7.39902 25.8468 7.35473 26.4358 7.26057C26.551 6.89635 26.6911 6.54399 26.7717 6.17864C26.9136 5.54012 27.2745 5.13558 27.9369 5.07666C28.5373 5.02338 28.9456 5.42958 29.1732 6.25726C29.2239 6.48068 29.2631 6.70648 29.2909 6.93387C29.8688 7.07031 30.4306 7.09594 30.8698 7.33979C31.2457 7.54812 31.7164 8.00484 31.7192 8.35468C31.6633 8.8602 31.4151 9.32538 31.0253 9.65481C30.6942 9.94715 30.1463 9.99708 29.6112 10.1826Z" fill="#FF8500"/>
<path d="M56.9401 28.1255C57.812 28.338 59.0008 28.1142 59.2031 29.416C59.3909 30.6262 58.3462 30.8594 57.7224 31.154C57.4826 31.9089 57.1963 32.6483 56.8652 33.3683C56.7498 33.5879 56.2873 33.7103 55.9749 33.7286C54.9913 33.785 54.528 33.1208 54.1333 31.1475C53.4416 30.821 52.2892 30.8923 52.3053 29.7275C52.3215 28.5627 53.3511 28.5367 54.1469 28.4124C54.5325 27.6271 54.3288 26.4926 55.5939 26.4704C56.2073 26.4594 56.3662 26.6683 56.9401 28.1255Z" fill="#FF8500"/>
</svg>
