<svg width="70" height="69" viewBox="0 0 70 69" fill="none" xmlns="http://www.w3.org/2000/svg">
<g clip-path="url(#clip0_1738_62)">
<path d="M15.0195 58.2045C15.3926 58.1792 15.7656 58.1476 16.1387 58.1169C16.9125 58.0526 17.7122 57.9858 18.494 57.9792C20.2823 57.9625 22.1026 57.992 23.8627 58.0193L25.2177 58.0398C25.3342 58.0472 25.4496 58.0671 25.5617 58.0995C24.9728 60.0914 24.0318 61.9621 22.7831 63.6241C22.1682 64.4611 21.5758 64.7577 20.735 64.6479C20.1686 64.5836 19.5955 64.6155 19.0396 64.7412C18.7122 64.8029 18.4141 64.9698 18.1906 65.2161C17.9671 65.4627 17.8306 65.7752 17.8018 66.1062C17.7513 66.5314 17.8696 67.1241 18.7207 67.5313C19.0952 67.7216 19.4983 67.8498 19.9141 67.911C20.235 67.9505 20.5559 67.992 20.8767 68.0336C22.0861 68.19 23.3365 68.3518 24.5772 68.3976C26.3909 68.4641 28.2345 68.4829 30.0174 68.5008C31.0832 68.5116 32.1488 68.5224 33.2141 68.5429C33.4796 68.5577 33.7432 68.5978 34.001 68.6621C34.1345 68.6905 34.268 68.7189 34.4003 68.7423C34.4169 68.7451 34.4334 68.7465 34.4502 68.7465H41.4786C41.5045 68.7465 41.5302 68.7431 41.555 68.7363C41.6437 68.7121 41.7324 68.6831 41.8206 68.6538C41.9689 68.5955 42.1243 68.5571 42.2826 68.5401C42.6868 68.5236 43.1021 68.5221 43.5034 68.5204C44.2255 68.5307 44.9474 68.5008 45.6662 68.4311C46.5669 68.347 47.4456 68.1044 48.2617 67.7148C48.5126 67.6107 48.7306 67.44 48.8914 67.2213C49.0523 67.0026 49.1501 66.7441 49.1744 66.4743C49.1649 66.1981 49.0799 65.9296 48.9288 65.6982C48.7773 65.4667 48.5654 65.281 48.3158 65.1609C47.8161 64.893 47.2702 64.7207 46.7069 64.6536C46.3253 64.6069 45.94 64.5964 45.5561 64.6217C45.4602 64.6252 45.3641 64.6286 45.2677 64.6305C44.997 63.917 44.6904 63.2265 44.3927 62.5568C43.7974 61.217 43.233 59.9464 42.9326 58.5068H44.1665C45.4785 58.5068 46.7266 58.5039 47.9753 58.5133C48.2953 58.5159 48.6262 58.5443 48.945 58.5702C49.1512 58.5878 49.3575 58.6052 49.564 58.6168C49.8458 58.6325 50.1276 58.6547 50.4096 58.6766C51.1059 58.7454 51.8058 58.7693 52.5051 58.7477C54.049 58.6643 55.5883 58.482 57.0218 58.2975C58.4916 58.1081 60.1781 57.8351 61.595 56.9864C66.6719 53.9435 69.1781 49.5983 69.0407 44.0712C68.9565 40.6906 68.9448 37.2501 68.9334 33.923L68.9277 32.302C68.9223 30.946 68.9374 29.5661 68.9517 28.2312C68.9802 25.6166 69.0087 22.913 68.8878 20.2554C68.7218 17.1556 68.3539 14.0698 67.786 11.0176C67.1827 7.60066 65.7823 5.10853 63.5046 3.39849C60.6458 1.20096 57.0718 0.13822 53.4729 0.415606C50.2468 0.637431 47.2925 0.785263 44.4417 0.86802C41.5157 0.953337 38.5377 0.942016 35.657 0.930924C31.4395 0.915567 27.0785 0.899024 22.7865 1.18171C21.0053 1.29916 19.1859 1.33925 17.4264 1.37792C15.8315 1.41347 14.1824 1.4496 12.5609 1.54345C9.44433 1.72346 6.76182 2.71548 4.58761 4.49149C3.4645 5.37099 2.52725 6.46365 1.82995 7.70629C1.13265 8.94893 0.689094 10.317 0.524948 11.7315C0.323833 13.7094 0.231571 15.6969 0.248572 17.6849L0.246866 17.851C0.23888 18.6638 0.294221 19.4844 0.347557 20.2785C0.39034 20.9104 0.433125 21.5639 0.44539 22.2035C0.542934 27.8771 0.629923 33.8792 0.718911 41.0925C0.716145 41.4201 0.693376 41.7477 0.650741 42.0728C0.606213 42.4169 0.582138 42.763 0.578601 43.1099C0.583735 43.6443 0.613674 44.1841 0.642766 44.7059C0.676993 45.3225 0.712631 45.9598 0.705785 46.5829C0.680971 48.8594 1.43965 51.0521 2.96101 53.1005C5.73903 56.8349 9.79658 58.5557 15.0195 58.2045ZM65.2259 33.0727L65.2279 36.0482C65.2304 39.0127 65.2333 42.0773 65.2119 45.0918C65.1999 45.7388 65.0975 46.381 64.9078 47.0001C64.4509 48.5466 63.6925 49.9882 62.6766 51.2423C61.1321 53.1435 59.0155 54.279 56.2053 54.7139C54.6417 54.9559 52.9911 55.1371 51.1592 55.2673C50.6683 55.2861 50.1766 55.2619 49.69 55.1951C49.3726 55.1612 49.044 55.1262 48.7169 55.1137C47.475 55.0659 46.2326 55.0301 44.9902 54.994C42.6195 54.9258 40.1677 54.8549 37.7648 54.6985C34.2737 54.471 30.745 54.4141 27.2559 54.4141C25.5101 54.4141 23.7737 54.4286 22.0572 54.4426C19.48 54.4636 16.8152 54.4847 14.196 54.4582C12.268 54.4386 10.729 54.134 9.35221 53.4995C8.33854 53.0493 7.42732 52.3984 6.67398 51.5859C5.92066 50.7737 5.34092 49.817 4.97008 48.7741C4.21483 46.7393 3.95927 44.878 4.18887 43.0832C4.24389 42.5565 4.26237 42.027 4.2442 41.4977C4.24249 41.3356 4.2405 41.1738 4.24078 41.0125C4.24346 39.6935 4.24725 38.3745 4.25222 37.0553C4.2642 33.5368 4.27643 29.8986 4.25048 26.3195C4.24021 24.9192 4.19118 23.4981 4.14384 22.1234C4.08679 20.5024 4.02972 18.827 4.03571 17.1818C4.02498 14.7575 4.56336 12.362 5.61068 10.1741C6.7179 7.88992 8.71956 6.46231 11.5643 5.93164C13.2366 5.61881 14.8988 5.45102 16.3044 5.32731C22.4309 4.78953 28.6828 4.73774 34.7272 4.68769C36.0817 4.67651 37.4362 4.66346 38.7904 4.64867C40.7128 4.62535 42.6352 4.60442 44.5572 4.58565C47.6059 4.55408 50.7582 4.5216 53.8588 4.47525C56.0247 4.43657 58.1482 5.11791 60.5483 6.59902C61.9247 7.4482 62.8871 8.85113 63.4085 10.7682C63.8257 12.3039 64.1278 13.9019 64.4198 15.4487L64.5747 16.2663C64.7689 17.2816 64.9349 18.3993 65.0827 19.6841C65.1722 20.4915 65.2167 21.3031 65.2156 22.1153C65.2259 24.7842 65.2281 27.4536 65.2227 30.1233V33.0218C65.2224 33.0385 65.2233 33.0553 65.2259 33.0721V33.0727ZM27.4721 63.9568C27.8604 63.1827 28.1989 62.3847 28.4855 61.568C28.7322 60.7523 28.9239 59.9213 29.0599 59.0807C29.1144 58.7849 29.1697 58.4863 29.231 58.1854L39.1093 58.3561C39.2736 60.6625 39.9912 62.7007 40.7829 64.5674H27.1843C27.2785 64.3641 27.3754 64.1605 27.4721 63.9568Z" fill="#FF8500"/>
<path d="M55.0753 15.1592C54.4236 14.7326 53.8249 15.145 53.5372 15.3424C52.9938 15.6974 52.4918 16.1118 52.0406 16.5779C50.6604 18.0794 49.2791 19.625 47.9435 21.1195L46.8961 22.2904C46.0279 23.2601 45.1606 24.2305 44.2935 25.2016C42.5528 27.1491 40.8099 29.0947 39.0643 31.0385C38.7506 31.388 38.404 31.7142 38.0375 32.0594C37.9197 32.1704 37.8005 32.2833 37.6802 32.3984C37.4266 32.2099 37.1796 32.0239 36.9369 31.8407C36.2717 31.3397 35.6434 30.8667 34.988 30.4188L34.7207 30.2365C32.921 29.0071 31.0594 27.7355 29.1821 26.5533C27.4424 25.4587 26.3896 25.6148 25.0066 27.1753C24.4239 27.8331 23.7893 28.5201 22.9491 29.4041C21.3225 31.115 19.6952 32.825 18.0669 34.5342C15.8613 36.8508 13.6566 39.1686 11.4528 41.4875C11.0827 41.8843 10.7361 42.302 10.4148 42.7389C10.3107 42.858 10.2319 42.9971 10.1834 43.1475C10.1349 43.298 10.1177 43.4566 10.1327 43.6139C10.1478 43.7712 10.1948 43.9239 10.271 44.0627C10.3471 44.2012 10.4508 44.3229 10.5757 44.4202C10.7916 44.6357 11.0823 44.7603 11.3877 44.7683C11.7204 44.7546 12.0363 44.6184 12.2742 44.386C12.7847 43.9341 13.2682 43.4427 13.7445 42.9587C15.0664 41.6141 16.3879 40.2689 17.709 38.9235C20.317 36.2676 22.9276 33.6145 25.5405 30.9637C25.9721 30.5266 26.4464 30.1105 26.9053 29.7092C27.0675 29.5673 27.2291 29.4251 27.3902 29.2827C27.4472 29.3168 27.5023 29.3495 27.5553 29.3811C27.7693 29.5085 27.9546 29.6182 28.1235 29.7417L29.7557 30.9267C31.7978 32.409 33.9096 33.9413 35.9697 35.4707C37.5281 36.6279 38.5703 36.6083 39.9516 35.3914C40.6864 34.7438 41.3809 34.0527 42.0317 33.3218C45.4392 29.5022 48.2951 26.2857 51.1587 23.0038C52.2562 21.7454 53.3592 20.3713 54.4387 18.9187C54.8891 18.2661 55.2473 17.555 55.5032 16.8053C55.765 16.1083 55.609 15.5079 55.0753 15.1592Z" fill="#FF8500"/>
</g>
<defs>
<clipPath id="clip0_1738_62">
<rect width="69.308" height="68.5379" fill="white" transform="translate(0 0.310303)"/>
</clipPath>
</defs>
</svg>
