<svg width="93" height="71" viewBox="0 0 93 71" fill="none" xmlns="http://www.w3.org/2000/svg">
<path d="M92.7604 39.5484C92.835 45.014 91.878 50.4449 89.9389 55.5596C86.5494 64.4743 80.1952 69.6151 70.5899 70.4933C61.1564 71.3572 52.1479 69.9759 44.1084 64.7543C34.3504 58.4078 29.414 45.9852 32.1018 34.6877C34.6463 23.9787 41.5496 17.4138 51.9951 14.1669C55.0442 13.1351 58.0122 11.8801 60.8748 10.4122C68.5991 6.70012 77.1303 9.29665 82.6586 13.9438C89.8817 20.0151 92.8702 28.9772 92.7604 39.5484Z" fill="#FF8500"/>
<g clip-path="url(#clip0_1334_5)">
<path d="M43.9226 25.4464C43.9226 29.7062 43.9303 33.966 43.9163 38.2258C43.9198 39.1012 43.8689 39.976 43.764 40.8451C43.7118 41.3657 43.5453 41.8682 43.2767 42.3171C42.4875 43.513 41.2774 44.477 39.8277 44.7798C38.6618 45.0455 37.4745 45.2061 36.2798 45.2599C32.2512 45.363 28.2203 45.393 24.19 45.421C23.3759 45.4267 22.5599 45.3102 21.7461 45.2347C19.4773 45.0243 18.2929 43.5432 17.6668 41.5638C17.3545 40.576 17.2958 39.5035 17.1653 38.4639C16.7093 34.8323 16.8086 31.1838 16.8549 27.5369C16.8929 24.532 16.9247 21.5271 16.9503 18.5222C16.9755 15.0793 16.9487 11.6355 17.0215 8.19384C17.0477 7.02952 17.2019 5.87162 17.4811 4.74096C17.9976 2.65183 19.4532 1.57682 21.5474 1.15496C26.4104 0.175534 31.3073 0.307097 36.2132 0.564316C37.9494 0.655316 39.5054 1.27542 40.9527 2.21435C41.9761 2.86825 42.729 3.8693 43.0731 5.0336C43.3521 5.98371 43.5239 6.96207 43.5853 7.95035C43.7491 11.0665 43.8651 14.1852 43.9335 17.3063C43.989 20.0185 43.945 22.7329 43.945 25.4464H43.9226ZM19.9224 36.04C27.0774 35.4081 34.2627 35.187 41.4429 35.378C41.4638 35.0122 41.4926 34.7269 41.4943 34.4415C41.5389 27.5276 41.4066 20.4384 41.4438 13.5239C41.4468 13.1744 41.4235 12.8253 41.3737 12.4794C41.1401 10.8945 41.0862 9.48396 40.8165 7.90524C40.6928 7.22046 40.5247 6.54445 40.313 5.88151C40.2044 5.5328 40.0192 5.21279 39.7711 4.94481C39.5229 4.67682 39.2179 4.46763 38.8784 4.33259C37.8961 3.87759 36.8302 3.63056 35.7477 3.60692C34.6089 3.58606 33.4679 3.5997 32.3313 3.54675C28.9011 3.38684 25.5092 3.69191 22.1293 4.26315C21.0534 4.44498 20.4655 5.02832 20.2381 6.03843C20.1462 6.43616 20.0876 6.84081 20.0627 7.24823C20.0211 8.00516 20.0062 8.76407 20.0009 9.52222C19.957 15.9395 19.9154 22.3573 19.8761 28.7753C19.8638 30.6421 19.837 32.5089 19.8322 34.3757C19.8321 34.8916 19.8868 35.4076 19.9224 36.04ZM41.3221 37.3921L20.0216 37.6431C20.1607 38.9757 20.096 40.2046 20.4743 41.3734C20.7649 42.271 21.3875 42.8438 22.402 42.8608C22.7814 42.8673 23.1602 42.8974 23.5393 42.8988C24.7654 42.9034 25.9913 42.9009 27.2173 42.8988C30.5158 42.8941 33.8147 42.9127 37.1124 42.8666C37.9852 42.8485 38.8526 42.7249 39.6957 42.4984C40.4726 42.2936 41.2063 41.8033 41.2939 40.9433C41.4082 39.8231 41.3221 38.6831 41.3221 37.3922V37.3921Z" fill="#363636"/>
<path d="M32.5592 39.9753C32.5566 40.9106 31.6708 41.7238 30.6331 41.7434C30.4064 41.7494 30.1809 41.7094 29.9701 41.6257C29.7593 41.5423 29.5676 41.4171 29.4064 41.2575C29.2453 41.098 29.1181 40.9076 29.0326 40.6977C28.947 40.4878 28.9047 40.2627 28.9084 40.036C28.9239 39.5505 29.123 39.0888 29.4654 38.7441C29.8079 38.3994 30.2683 38.1972 30.7539 38.1785C31.6643 38.1669 32.5613 39.0602 32.5592 39.9753Z" fill="#363636"/>
</g>
<g clip-path="url(#clip1_1334_5)">
<path d="M71.6332 32.8597C71.4065 25.6037 71.1371 18.1965 70.81 10.215C70.7251 8.14694 70.5549 6.04916 70.3905 4.02055C70.3507 3.53037 70.3113 3.04014 70.2724 2.54982C70.1538 1.04812 69.3451 0.308195 67.7997 0.290397C67.7377 0.288543 67.6746 0.291477 67.6122 0.293701L65.971 0.323213C64.5593 0.347932 63.1477 0.374378 61.7362 0.402558C61.3468 0.402368 60.9582 0.439181 60.5757 0.512501C59.653 0.711988 59.3675 1.03827 59.3024 1.96729C59.2682 2.57348 59.2653 3.18101 59.2939 3.78749C59.4565 8.67362 59.6228 13.5598 59.7975 18.6934L59.9462 23.0665C59.9599 23.9147 59.977 24.8072 59.9947 25.731C60.0383 28.0127 60.0834 30.3721 60.0939 32.7831C60.102 34.6323 60.0809 36.5135 60.0604 38.3326C60.0451 39.714 60.0293 41.1425 60.0261 42.5478C60.0215 44.5445 60.7873 45.3389 62.7572 45.381C62.9724 45.3857 63.1874 45.3879 63.4022 45.3877C64.5948 45.3877 65.7826 45.3226 66.9353 45.2592C68.2415 45.1877 69.2935 45.0894 70.2466 44.95C71.2731 44.8 71.6776 44.2907 71.6433 43.1915L71.6416 43.1323C71.6047 41.9734 71.5678 40.7748 71.5726 39.5979C71.5759 38.7689 71.5953 37.9246 71.6138 37.1081C71.645 35.7154 71.6776 34.2754 71.6332 32.8597ZM62.5136 39.4719C62.6367 39.4524 62.7563 39.4348 62.8733 39.4163C63.2374 39.3606 63.5811 39.3097 63.9192 39.2268C64.888 38.9898 65.0915 38.4122 65.0917 37.9694C65.0917 37.5119 64.886 36.9281 63.9031 36.7458C63.5909 36.6876 63.2737 36.6177 62.938 36.5435C62.8251 36.5187 62.7088 36.4929 62.5883 36.4668V34.0752C62.648 34.0689 62.7072 34.0629 62.7663 34.0566C63.03 34.0355 63.2924 33.9988 63.5518 33.9465L63.7231 33.9094C64.0903 33.8555 64.4444 33.734 64.7679 33.5511C64.9393 33.443 65.0768 33.2884 65.1643 33.105C65.2518 32.9216 65.2857 32.7171 65.2622 32.5153C65.2317 32.2846 65.1378 32.067 64.9909 31.8869C64.8441 31.7069 64.6501 31.5718 64.4309 31.4965C63.9881 31.3458 63.5335 31.2325 63.0718 31.1578C62.9078 31.1261 62.741 31.0942 62.5719 31.0584V28.761L62.8737 28.7031C63.2165 28.6371 63.5703 28.5691 63.9246 28.5053C64.1768 28.4597 64.9449 28.3214 64.9879 27.5227C65.0331 26.6769 64.2324 26.4836 63.931 26.4103C63.5668 26.3223 63.1967 26.265 62.8054 26.2042C62.679 26.1847 62.55 26.1645 62.4179 26.143V23.8109L62.4747 23.8048C62.6883 23.7855 62.9007 23.7542 63.1108 23.7104C63.1792 23.6952 63.2503 23.6817 63.3219 23.6679C63.6259 23.6388 63.9169 23.5296 64.1656 23.3515C64.425 23.1229 64.7648 22.6088 64.6703 22.2308C64.5972 22.0168 64.4778 21.8218 64.3205 21.6597C64.1633 21.4979 63.9722 21.3729 63.7611 21.2943C63.3799 21.1922 62.986 21.1462 62.5917 21.158C62.4702 21.1555 62.3463 21.1527 62.22 21.1471V18.5736C62.2961 18.5644 62.3738 18.5551 62.4525 18.5462C62.7832 18.5076 63.1254 18.4678 63.471 18.4077C64.2342 18.2749 64.6636 17.8473 64.6191 17.2638C64.5638 16.5309 64.0118 16.3413 63.4798 16.2523C63.3813 16.2358 63.2831 16.2169 63.1846 16.1982C63.0331 16.1692 62.8816 16.1401 62.729 16.1192C62.5566 16.0951 62.3837 16.0802 62.1835 16.0635L62.0433 16.0511V13.4832L62.2793 13.4174C62.5899 13.3308 62.9261 13.2375 63.2604 13.138C63.6254 13.0295 64.4802 12.7757 64.394 11.8673C64.3137 11.0157 63.5451 10.9106 63.0357 10.8411C62.7338 10.7999 62.4295 10.7829 62.1073 10.7651C62.0095 10.7594 61.9093 10.7538 61.8063 10.7466L61.6238 8.19515C61.746 8.17661 61.8657 8.15897 61.9835 8.14155C62.3647 8.08593 62.7249 8.03198 63.0849 7.96394C64.1803 7.75666 64.2911 7.10613 64.2593 6.73682C64.1844 5.85674 63.3931 5.72192 63.055 5.66426C62.8782 5.63441 62.6993 5.61276 62.5262 5.59199C62.4191 5.57902 62.3119 5.56604 62.2053 5.55121C62.0403 5.52822 61.8755 5.5028 61.6762 5.47239L61.4998 5.44533L61.3782 3.21962L68.0975 2.99255C68.1549 4.1954 68.2128 5.39725 68.2713 6.59814C68.8368 18.262 69.4214 30.3211 69.0541 42.2384L62.5142 42.4955L62.5136 39.4719Z" fill="#363636"/>
<path d="M47.9452 33.5272C47.9926 35.0767 48.122 36.6226 48.3327 38.1582C48.546 39.7808 49.5345 40.9965 51.1911 41.6743C51.7782 41.9216 52.4076 42.0517 53.0442 42.0575C54.0806 42.0619 55.0788 41.6642 55.8306 40.9475C57.0775 39.7812 57.7802 38.3117 57.8092 36.8106C57.8263 35.9149 57.776 35.0067 57.7273 34.1286C57.7005 33.6449 57.6719 33.1449 57.6567 32.654C57.5667 29.8916 57.4812 27.1271 57.3766 23.7498L57.2342 19.1588L57.2061 17.5312C57.1677 15.3446 57.1151 12.3501 57.0769 9.34535C57.0796 8.67367 56.8671 8.01895 56.4708 7.47803C56.0509 6.89014 55.6494 6.27149 55.2612 5.67322C55.055 5.35563 54.8489 5.03823 54.6391 4.72325L54.2934 4.20412C53.7533 3.39152 53.1946 2.55114 52.6281 1.7354C52.1732 1.08095 51.7037 0.952109 51.3906 0.962491C51.0774 0.972874 50.6218 1.12117 50.2096 1.78971C49.9842 2.18356 49.7979 2.59875 49.6536 3.02928L49.5894 3.20318C49.0182 4.74735 48.4268 6.34415 47.8811 7.92743C47.6848 8.44391 47.5742 8.98924 47.5536 9.5417C47.5387 11.4472 47.5525 13.4662 47.5988 16.0879L47.6272 17.6923C47.718 22.8819 47.8129 28.249 47.9452 33.5272ZM50.6674 7.19903L51.0501 6.04455C51.2317 6.03083 51.4104 6.00654 51.584 5.98281C52.0051 5.92497 52.403 5.87157 52.6585 6.00413C52.9433 6.15245 53.151 6.4986 53.392 6.89961C53.4511 6.99825 53.5112 7.09836 53.5745 7.19903H50.6674ZM53.6568 39.3412C53.3647 39.3907 53.0655 39.3778 52.7787 39.3032C52.4919 39.2287 52.2239 39.0943 51.9923 38.9087C51.2751 38.3184 50.9892 37.5288 50.794 36.4615L55.5029 36.0599C55.5363 36.9589 55.2944 37.8467 54.8098 38.6034C54.682 38.8027 54.5129 38.9717 54.3139 39.0991C54.1149 39.2265 53.8908 39.3092 53.657 39.3412H53.6568ZM50.8205 33.3969L50.21 10.244H54.1615L54.9019 33.3969H50.8205Z" fill="#363636"/>
</g>
<defs>
<clipPath id="clip0_1334_5">
<rect width="27.3587" height="45.2367" fill="white" transform="translate(16.7246 0.273926)"/>
</clipPath>
<clipPath id="clip1_1334_5">
<rect width="24.3582" height="45.2367" fill="white" transform="translate(47.3848 0.273926)"/>
</clipPath>
</defs>
</svg>
