<svg width="71" height="68" viewBox="0 0 71 68" fill="none" xmlns="http://www.w3.org/2000/svg">
<path d="M70.996 36.8599C71.0701 42.3178 70.1192 47.7411 68.1924 52.8486C64.8244 61.7508 58.5105 66.8844 48.9661 67.7614C39.5925 68.6241 30.6411 67.2447 22.6527 62.0304C12.9565 55.6928 8.05147 43.2876 10.7222 32.0059C13.2506 21.312 20.11 14.7563 30.4893 11.514C33.519 10.4836 36.4682 9.2303 39.3126 7.76448C46.988 4.05763 55.465 6.65052 60.9582 11.2912C68.1355 17.3539 71.1051 26.3034 70.996 36.8599Z" fill="#FF8500"/>
<g clip-path="url(#clip0_1334_2)">
<path d="M18.2328 12.4364C17.5854 16.1978 17.8771 19.949 19.1251 23.9054C19.8356 26.2127 20.8557 28.4131 22.1569 30.4468C21.7317 30.8293 21.3089 31.208 20.888 31.5829C19.8565 32.5033 18.8821 33.3746 17.9045 34.2856C13.1258 38.7377 8.5819 43.5676 4.18762 48.2385C3.38857 49.0875 2.58908 49.9361 1.78914 50.7842C1.18234 51.4492 0.651662 52.1794 0.206777 52.9618C0.103921 53.1548 0.0531707 53.3717 0.0594574 53.5903C0.056089 53.8191 0.103696 54.0458 0.198919 54.2542C0.25551 54.3669 0.334337 54.467 0.430456 54.5487C0.526575 54.6304 0.638189 54.6921 0.758562 54.7301C0.901842 54.7748 1.05253 54.7909 1.20233 54.7772C1.35189 54.7638 1.49719 54.7209 1.63037 54.6511C2.40358 54.2816 3.1348 53.8299 3.81145 53.3041C4.81688 52.4567 5.77559 51.5551 6.68311 50.6035C8.82849 48.3871 10.9997 46.1245 13.0995 43.9362C14.5552 42.4188 16.012 40.9024 17.4702 39.3873C18.9769 37.8233 20.457 36.3004 22.0264 34.6881C22.6651 34.0314 23.3074 33.3706 23.9532 32.7056L24.0478 32.7918C24.1848 32.9171 24.2912 33.0143 24.3916 33.1178C26.8328 35.6379 29.8868 37.0196 33.468 37.2246C39.687 37.5806 44.9663 35.485 49.1612 30.9968C51.2653 28.7979 52.5528 25.9453 52.8094 22.9134C53.0931 19.9646 52.755 16.9891 51.8168 14.1791C50.3512 9.87116 47.5395 6.21425 43.4596 3.31047C39.9446 0.808539 36.0443 -0.194279 31.8672 0.329904C29.1416 0.671802 26.5588 1.77451 23.492 3.90492C20.5952 5.91814 18.8749 8.70833 18.2328 12.4364ZM48.6092 16.8914C48.6943 17.8936 48.7821 18.9298 48.8157 19.9474C48.8211 20.1198 48.8239 20.2906 48.8241 20.4597C48.8241 25.0981 46.7191 28.6623 42.562 31.0592C38.8421 33.2044 35.2772 33.8112 31.6637 32.9148C30.3088 32.6075 29.0421 31.994 27.9615 31.1212C26.6439 30.038 25.5374 28.7216 24.6973 27.2375C22.7731 23.8493 21.7156 20.0383 21.6186 16.1432C21.6599 15.7697 21.6965 15.3952 21.7331 15.0208C21.8135 14.1955 21.897 13.342 22.032 12.5152C22.3419 10.4601 23.4028 8.59265 25.0094 7.27339C26.8855 5.66557 29.1026 4.5048 31.4931 3.87865C34.2639 3.16056 37.198 3.42227 39.7979 4.61947C42.7675 5.95608 44.9584 7.73135 46.4959 10.047C47.7259 11.8999 48.3585 13.5892 48.4861 15.3627C48.5227 15.8725 48.566 16.3814 48.6092 16.8905L48.6092 16.8914Z" fill="#363636"/>
</g>
<defs>
<clipPath id="clip0_1334_2">
<rect width="55" height="53" fill="white" transform="translate(53) rotate(90)"/>
</clipPath>
</defs>
</svg>
