<svg width="66" height="71" viewBox="0 0 66 71" fill="none" xmlns="http://www.w3.org/2000/svg">
<path d="M65.8216 39.4045C65.8966 44.9094 64.9346 50.3795 62.9854 55.531C59.578 64.5099 53.1905 69.6877 43.5348 70.5722C34.0519 71.4424 24.9961 70.0511 16.9145 64.7919C7.10522 58.3997 2.143 45.8876 4.84487 34.5087C7.40276 23.7227 14.3422 17.1105 24.8425 13.8402C27.9076 12.8009 30.8911 11.5368 33.7687 10.0584C41.5336 6.31961 50.1095 8.93485 55.6668 13.6155C62.9278 19.7305 65.932 28.7571 65.8216 39.4045Z" fill="#FF8500"/>
<g clip-path="url(#clip0_1334_4)">
<path d="M33.5025 32.2855C36.0656 29.1457 37.7127 25.3727 38.2664 21.3739C39.3552 13.4229 36.0724 7.12956 29.0231 3.65315C26.8466 2.57979 24.4764 2.00272 22.2356 1.50398C16.4961 0.226471 11.2408 1.21641 6.61487 4.4452C2.85045 7.07305 0.782159 10.2829 0.291941 14.2584C-0.0776414 17.287 0.122608 20.357 0.882573 23.3134C2.41629 29.3485 5.16043 34.0918 9.27158 37.8137C9.37397 37.9065 9.47773 37.9989 9.58166 38.0911C10.0394 38.4735 10.4611 38.8962 10.8418 39.3538C11.1903 39.8025 11.5917 40.3817 11.6014 40.8807C11.6368 42.753 11.5265 44.5984 11.4021 46.3123C11.325 47.3735 11.2015 48.4514 11.082 49.4941C11.0088 50.1311 10.9359 50.7683 10.8724 51.4073C10.7308 52.8259 11.2198 53.5355 12.5599 53.8569C13.3549 54.0523 14.1706 54.1537 14.9897 54.1591H15.065C17.7791 54.1363 20.5363 54.0747 23.2044 54.0152L24.9842 53.9758C26.7117 53.9384 27.4078 53.316 27.5526 51.6793C27.8062 48.8123 27.9279 46.611 27.9466 44.5412L27.9492 44.3199C27.9642 43.092 27.9809 41.7068 26.8994 40.5226L28.9119 38.0119C30.446 36.0972 31.9762 34.1885 33.5025 32.2855ZM25.0158 40.1732L22.0022 39.9478C21.9981 39.9236 21.9974 39.8991 22.0001 39.8747C22.4441 38.1848 22.8928 36.4961 23.3459 34.809C24.3538 31.035 25.3958 27.1325 26.3419 23.2738C27.0721 20.2969 27.0954 17.6588 26.4124 15.2092C26.0765 14.0038 25.4384 13.1136 24.5667 12.6346C24.1468 12.4169 23.6869 12.2856 23.2145 12.2486C22.7421 12.2117 22.2668 12.2699 21.8178 12.4198C21.4598 12.5377 21.115 12.6916 20.7887 12.879L20.6547 12.9498C20.4438 13.0609 20.248 13.189 20.0408 13.3232L19.9268 13.3971C19.8699 13.3262 19.8142 13.2555 19.7589 13.1853C19.5563 12.9187 19.3401 12.6625 19.1109 12.4179C17.893 11.1588 16.1404 11.0362 14.7489 12.1135C13.8071 12.8682 13.0933 13.8647 12.6855 14.994C11.2507 18.6367 11.1442 22.4349 12.3689 26.2826C13.0099 28.2963 13.6889 30.3343 14.3465 32.3049C14.5944 33.0484 14.8416 33.7922 15.0883 34.536C15.625 36.205 15.9389 37.9361 16.0222 39.6856H13.7234C13.5953 38.0437 12.4928 36.9303 11.4269 35.8522C11.2292 35.653 11.0315 35.453 10.8396 35.2495C6.43756 30.5891 4.02185 25.5977 3.45495 19.9903C3.25961 18.0593 3.11503 16.0031 3.37717 14.0508C3.77268 11.1049 5.47139 8.63731 8.57002 6.50667C12.3441 3.91165 16.5412 3.07353 21.0424 4.01557C23.4156 4.51192 25.7212 5.04654 27.8425 6.1212C33.3342 8.90407 35.8455 13.7469 35.1041 20.1264C34.593 24.5253 32.5464 28.4039 28.468 32.703C27.3973 33.8324 26.2013 35.218 25.4503 36.9321C25.0602 37.8224 24.6805 38.8729 25.0158 40.1732ZM25.153 45.6274L25.0273 47.5478H13.6638V45.2867L25.153 45.6274ZM24.8012 50.0035L24.7355 51.4791C21.3357 51.6282 17.4163 51.7543 13.5469 51.4621C13.5392 51.4097 13.5314 51.3603 13.525 51.3136C13.4971 51.1758 13.4828 51.0358 13.4825 50.8953C13.4977 50.5679 13.5298 50.2389 13.5634 49.8909C13.5713 49.8104 13.5791 49.7289 13.5869 49.6465L24.8012 50.0035ZM13.4665 41.5984L13.7906 41.6077C17.7005 41.7212 21.3968 41.8286 25.1765 42.2182L25.2314 43.1424C21.36 43.3546 17.4795 43.3455 13.6093 43.1146L13.4665 41.5984ZM16.3922 31.6972C16.2498 31.2496 16.1066 30.8019 15.971 30.353C15.2327 27.9204 14.5227 25.5338 13.9523 23.0819C13.4221 20.8043 13.7326 18.3938 14.9262 15.4959C15.1897 14.9157 15.5664 14.3929 16.0349 13.9574C16.1218 13.8547 16.2295 13.7711 16.3511 13.7124C16.4727 13.6536 16.6054 13.6208 16.7407 13.6162C16.9969 13.6279 17.2625 13.7947 17.5299 14.1117C18.2196 14.9294 18.2345 15.1361 17.6722 16.1212C16.5283 18.1257 16.0623 20.0514 16.248 22.0079C16.2915 22.6233 16.4367 23.2273 16.6778 23.7963C16.7748 24.0828 16.9493 24.3376 17.1824 24.5329C17.4155 24.7281 17.6983 24.8564 18 24.9038C18.3016 24.9512 18.6105 24.9157 18.8932 24.8014C19.1759 24.687 19.4215 24.4981 19.6033 24.2552C20.0108 23.7845 20.3302 23.2456 20.5466 22.664C21.3656 20.6015 21.5235 18.3396 20.9988 16.1852C20.8334 15.4795 21.3377 14.8867 22.3833 14.5586C22.8078 14.4254 23.1413 14.4252 23.374 14.5572C23.4947 14.6407 23.5964 14.7482 23.6726 14.8728C23.7491 14.9973 23.7983 15.1363 23.8172 15.2807C24.0809 16.4297 24.4072 17.8597 24.2426 19.1441C23.957 21.3654 23.4707 23.6043 22.9998 25.7693C22.9119 26.1765 22.8243 26.5835 22.7364 26.9903C22.4542 28.3067 22.146 29.6416 21.8477 30.9324C21.4476 32.666 21.0347 34.4588 20.6765 36.2333C20.5252 37.1038 20.4408 37.9841 20.4241 38.8672C20.4078 39.2214 20.3913 39.5847 20.3667 39.9569L17.6882 39.7938C18.0527 36.9153 17.2094 34.2635 16.3928 31.6972H16.3922ZM18.6622 20.491L18.8174 19.5464C18.8168 19.8674 18.7646 20.1862 18.6629 20.491H18.6622Z" fill="#363636"/>
</g>
<defs>
<clipPath id="clip0_1334_4">
<rect width="38.6725" height="53.4832" fill="white" transform="translate(0 0.873352)"/>
</clipPath>
</defs>
</svg>
