<svg width="103" height="92" viewBox="0 0 103 92" fill="none" xmlns="http://www.w3.org/2000/svg">
<path d="M102.994 47.2989C103.101 55.1336 101.729 62.9187 98.9497 70.2505C94.0909 83.0293 84.9823 90.3986 71.2134 91.6574C57.6908 92.8959 44.7773 90.9157 33.253 83.4308C19.2651 74.3332 12.189 56.5258 16.0418 40.3311C19.6894 24.9801 29.5849 15.5695 44.5583 10.9152C48.9291 9.43607 53.1836 7.63704 57.2871 5.53288C68.3597 0.211762 80.5889 3.93382 88.5135 10.5954C98.8676 19.2984 103.152 32.1453 102.994 47.2989Z" fill="#FF8500"/>
<g clip-path="url(#clip0_1342_146)">
<path d="M60.8431 36.8984C60.8431 43.3869 60.8627 49.8755 60.8296 56.364C60.8394 58.0268 60.7368 59.6888 60.5224 61.338C60.0783 64.4716 58.4274 66.9099 55.7659 68.6698C53.8205 69.9917 51.5677 70.8056 49.2177 71.0347C40.3284 71.9126 31.3754 71.967 22.476 71.1969C18.9532 70.8929 15.3935 70.8821 11.9649 69.9162C10.1785 69.4512 8.43399 68.8416 6.74915 68.0935C3.51133 66.5749 1.55497 63.9909 0.794502 60.5013C0.331928 58.5582 0.0858172 56.5712 0.0605469 54.5754C0.115682 43.4282 0.154111 32.2804 0.17582 21.1327C0.212714 17.8047 0.472167 14.483 0.952442 11.1889C1.14337 9.70513 1.53091 8.25241 2.1051 6.86839C3.67388 3.20179 6.45407 0.984659 10.5754 0.747315C15.1149 0.485497 19.6583 0.250257 24.2035 0.149799C28.4128 0.0556011 32.6283 0.0876991 36.8381 0.187873C40.0342 0.264142 43.2259 0.529369 46.4188 0.721748C47.2631 0.777376 48.0725 1.07594 48.7468 1.58078C52.816 4.54922 56.5345 7.96048 59.8314 11.75C60.7737 12.8206 61.0348 14.0341 61.0129 15.4368C60.8956 22.5895 60.8503 29.7436 60.7797 36.8973L60.8431 36.8984ZM32.8814 68.3004C37.0975 68.1487 41.8044 67.9873 46.5115 67.8035C47.5201 67.7642 48.5287 67.6817 49.5266 67.5437C51.0369 67.3311 52.4457 66.6694 53.5658 65.6469C55.2579 64.1463 56.3898 62.3261 56.5915 60.0756C56.784 57.9278 56.8425 55.7664 56.9048 53.6095C57.02 49.6253 57.1022 45.6411 57.1829 41.6569C57.2197 39.8308 57.3883 37.9875 57.2048 36.181C56.7489 31.7005 56.9224 27.2165 56.9071 22.7346C56.9013 21.074 56.8783 19.4132 56.827 17.7543C56.8019 16.9356 56.061 16.2988 55.1268 16.2675C52.9414 16.1938 50.7536 16.176 48.5699 16.0704C47.5651 16.0099 46.566 15.8776 45.5805 15.6744C44.6987 15.5037 43.776 14.4249 43.6763 13.5456C43.593 12.8874 43.5449 12.2253 43.5322 11.5621C43.5201 9.57001 43.5455 7.57791 43.5432 5.58582C43.5161 5.25818 43.3815 4.94815 43.1596 4.70315C42.9374 4.45818 42.6406 4.29178 42.3139 4.22903C41.8119 4.18407 41.3093 4.12695 40.8062 4.11841C34.5818 4.01226 28.3575 3.89094 22.1331 3.82577C19.6114 3.79959 17.0879 3.90142 14.5653 3.94695C12.7096 3.99211 10.8769 4.36392 9.15359 5.04528C6.74828 5.97388 5.38267 7.75171 5.15819 10.3084C5.10742 11.1374 5.11566 11.9688 5.18297 12.7966C5.48814 18.2769 5.3772 23.7566 5.26769 29.2399C5.09854 37.7115 5.00287 46.185 4.93371 54.6579C4.90262 56.6509 5.01725 58.6438 5.27663 60.6206C5.40618 61.7023 5.81394 62.7333 6.4611 63.6152C7.10826 64.4975 7.97327 65.201 8.97378 65.6594C10.0316 66.1631 11.1446 66.545 12.2908 66.7978C14.745 67.3834 17.2515 67.7292 19.7742 67.8302C23.98 67.9483 28.1825 68.1276 32.8814 68.3004ZM50.3551 12.7619C51.1619 12.72 51.8247 12.7292 52.4662 12.6301C52.7036 12.5934 52.9304 12.326 53.1001 12.1154C53.1252 12.0412 53.1318 11.9623 53.1197 11.8851C53.1073 11.8078 53.0768 11.7343 53.0304 11.671C51.8411 10.1282 50.3859 8.80425 48.7316 7.75993C48.6022 7.74038 48.4699 7.74838 48.344 7.78301C48.2178 7.81765 48.1005 7.87815 47.9999 7.96088C47.9394 9.24151 47.9089 10.5266 47.9581 11.8072C47.9959 11.9617 48.0711 12.1048 48.1771 12.2244C48.2832 12.344 48.4169 12.4366 48.567 12.4939C49.1557 12.6256 49.7534 12.7148 50.3551 12.7613V12.7619Z" fill="#363636"/>
<path d="M30.2021 24.7483C35.083 24.8149 39.964 24.8728 44.8446 24.9548C46.0226 24.9622 47.1992 25.0309 48.3697 25.161C49.0259 25.2871 49.6656 25.4862 50.2762 25.7546C50.7814 25.939 51.3638 26.8449 51.3465 27.342C51.3298 27.8284 50.6549 28.718 50.2079 28.8918C48.6138 29.5105 46.9427 29.6332 45.2567 29.6577C41.8904 29.7063 38.5226 29.831 35.1583 29.7715C30.7854 29.6932 26.4151 29.4721 22.044 29.2997C19.3534 29.1935 16.6631 29.0782 13.9754 28.9345C13.1247 28.9268 12.3032 28.6277 11.6513 28.0879C11.4503 27.9381 11.2875 27.744 11.1758 27.521C11.0641 27.2981 11.0066 27.0522 11.0078 26.8034C11.0366 26.2314 11.5626 25.3643 12.0741 25.2721C12.8877 25.0893 13.7159 24.977 14.5494 24.9364C19.7675 24.9062 24.9858 24.9211 30.2038 24.9211L30.2021 24.7483Z" fill="#363636"/>
<path d="M31.7762 37.2524C27.1351 37.1326 22.5919 37.0416 18.051 36.8842C16.5403 36.8253 15.0345 36.6762 13.5421 36.4371C12.8947 36.2874 12.2825 36.0156 11.7391 35.6371C11.6141 35.5372 11.5124 35.412 11.4409 35.2697C11.3694 35.1274 11.3298 34.9718 11.3248 34.813C11.3197 34.6545 11.3495 34.4965 11.4119 34.35C11.4743 34.2037 11.5679 34.0722 11.6864 33.9649C12.0798 33.6627 12.5405 33.4581 13.0303 33.3673C14.1941 33.1999 15.3675 33.1055 16.5433 33.0853C23.4432 33.0207 30.3449 32.8798 37.2424 32.9911C41.2715 33.0559 45.2943 33.5366 49.3182 33.8502C49.6479 33.9145 49.9674 34.0207 50.2692 34.1661C50.7167 34.3263 51.3273 35.3793 51.1215 35.8013C50.9158 36.2234 50.6239 36.712 50.2334 36.9098C48.8502 37.6087 47.3103 37.6318 45.7957 37.6264C41.0871 37.6079 36.3681 37.9608 31.7762 37.2524Z" fill="#363636"/>
<path d="M30.8737 41.6814C35.7595 41.7471 40.6457 41.8046 45.5312 41.8852C46.5412 41.8914 47.5498 41.96 48.5512 42.0903C49.0281 42.1575 49.4796 42.454 49.9237 42.6823C50.4015 42.9279 50.8844 43.9606 50.6499 44.3969C50.4245 44.8153 50.0949 45.2916 49.6877 45.4755C49.073 45.735 48.4126 45.8725 47.7443 45.8799C43.5334 45.9843 39.3213 46.1098 35.11 46.099C30.8988 46.0882 26.6829 46.0102 22.4774 45.8022C19.4546 45.6525 16.4427 45.2592 13.4317 44.9251C12.9329 44.8633 12.4636 44.6582 12.0822 44.3346C11.7526 43.9826 11.5158 43.556 11.3926 43.0921C11.2883 42.7827 11.9033 41.9893 12.2125 41.9503C13.2019 41.7856 14.2004 41.6788 15.2027 41.6307C20.426 41.5992 25.6495 41.6162 30.8731 41.6162L30.8737 41.6814Z" fill="#363636"/>
<path d="M25.4993 54.2584C21.9915 54.1326 18.4831 54.0187 14.9761 53.8739C13.7973 53.8716 12.6456 53.5244 11.6666 52.8759C11.3936 52.6883 11.1742 52.4345 11.0298 52.1385C10.8853 51.8428 10.8206 51.515 10.8418 51.1871C10.8534 50.6086 11.4712 49.9005 12.0037 49.6936C13.4477 49.1321 14.9511 49.1654 16.4564 49.2295C20.7982 49.4136 25.1435 49.5493 29.4797 49.8223C32.1432 49.9899 34.7938 50.3672 37.4478 50.6692C37.7734 50.7383 38.0921 50.8354 38.4007 50.9592C38.6984 51.0471 39.3064 51.832 39.1788 52.1285C38.9958 52.5554 38.7753 53.0836 38.4076 53.2908C37.8281 53.607 37.1853 53.7928 36.5245 53.8343C34.0232 53.994 31.5173 54.0905 29.012 54.1758C27.8432 54.2165 26.6716 54.183 25.5014 54.183L25.4993 54.2584Z" fill="#363636"/>
<path d="M18.7597 19.951C17.1267 19.8494 15.2729 19.7897 13.4362 19.5931C12.6062 19.4711 11.7984 19.2315 11.0378 18.8816C10.8067 18.7816 10.609 18.6192 10.4672 18.4131C10.3254 18.207 10.2454 17.9656 10.2364 17.7166C10.1958 17.1608 10.7781 16.3005 11.2824 16.1761C11.4415 16.1215 11.6041 16.0778 11.7691 16.0452C15.7928 15.6255 19.8205 15.4404 23.8545 15.8932C24.1877 15.9367 24.5111 16.0351 24.8115 16.1842C25.1151 16.3214 25.3804 16.5292 25.5848 16.79C25.7891 17.0508 25.9263 17.3566 25.9846 17.6813C26.0829 18.1742 25.4797 19.0932 24.9576 19.2657C24.4952 19.4578 24.0116 19.5957 23.5168 19.677C22.0068 19.8017 20.4925 19.8568 18.7597 19.951Z" fill="#363636"/>
</g>
<defs>
<clipPath id="clip0_1342_146">
<rect width="61.0909" height="72" fill="white"/>
</clipPath>
</defs>
</svg>
