<svg width="94" height="96" viewBox="0 0 94 96" fill="none" xmlns="http://www.w3.org/2000/svg">
<path d="M93.9942 51.2989C94.1012 59.1336 92.7293 66.9187 89.9497 74.2505C85.0909 87.0293 75.9823 94.3986 62.2134 95.6574C48.6908 96.8959 35.7773 94.9157 24.253 87.4308C10.2651 78.3332 3.189 60.5258 7.04184 44.3311C10.6894 28.9801 20.5849 19.5695 35.5583 14.9152C39.9291 13.4361 44.1836 11.637 48.2871 9.53288C59.3597 4.21176 71.5889 7.93382 79.5135 14.5954C89.8676 23.2984 94.1516 36.1453 93.9942 51.2989Z" fill="#FF8500"/>
<g clip-path="url(#clip0_1342_145)">
<path d="M16.1059 60.8185C16.506 60.7919 16.906 60.7587 17.3061 60.7264C18.1359 60.6589 18.9935 60.5887 19.8319 60.5818C21.7496 60.5642 23.7015 60.5953 25.589 60.624L27.042 60.6455C27.167 60.6533 27.2907 60.6742 27.4109 60.7082C26.7793 62.8007 25.7703 64.7659 24.4313 66.5118C23.7718 67.3911 23.1366 67.7027 22.2349 67.5874C21.6276 67.5198 21.013 67.5533 20.4169 67.6854C20.0659 67.7502 19.7462 67.9256 19.5065 68.1843C19.2669 68.4433 19.1204 68.7716 19.0896 69.1194C19.0354 69.566 19.1623 70.1886 20.075 70.6164C20.4765 70.8163 20.9088 70.951 21.3547 71.0153C21.6988 71.0568 22.0429 71.1004 22.387 71.144C23.6838 71.3084 25.0247 71.4783 26.3551 71.5265C28.3 71.5964 30.2771 71.6161 32.189 71.6349C33.3319 71.6462 34.4746 71.6576 35.617 71.6791C35.9017 71.6946 36.1843 71.7368 36.4608 71.8043C36.604 71.8342 36.7471 71.864 36.889 71.8885C36.9068 71.8915 36.9245 71.893 36.9425 71.893H44.4794C44.5072 71.893 44.5348 71.8894 44.5614 71.8823C44.6565 71.8569 44.7516 71.8264 44.8461 71.7956C45.0052 71.7344 45.1719 71.6941 45.3416 71.6761C45.775 71.6588 46.2203 71.6573 46.6507 71.6555C47.4251 71.6663 48.1992 71.6349 48.97 71.5617C49.9358 71.4733 50.8782 71.2184 51.7532 70.8091C52.0224 70.6998 52.2561 70.5205 52.4286 70.2908C52.6011 70.0611 52.706 69.7895 52.732 69.506C52.7219 69.2159 52.6307 68.9338 52.4686 68.6907C52.3062 68.4475 52.079 68.2524 51.8113 68.1263C51.2755 67.8449 50.6901 67.6638 50.086 67.5933C49.6768 67.5443 49.2636 67.5333 48.8519 67.5599C48.7491 67.5635 48.6461 67.567 48.5427 67.5691C48.2524 66.8196 47.9236 66.0942 47.6043 65.3906C46.966 63.9832 46.3607 62.6483 46.0386 61.136H47.3618C48.7687 61.136 50.1071 61.1331 51.4461 61.1429C51.7893 61.1456 52.1441 61.1755 52.4861 61.2027C52.7072 61.2212 52.9283 61.2394 53.1498 61.2517C53.4519 61.2681 53.7541 61.2914 54.0566 61.3144C54.8032 61.3867 55.5538 61.4118 56.3037 61.3891C57.9593 61.3015 59.61 61.1101 61.1472 60.9162C62.7233 60.7172 64.5318 60.4304 66.0513 59.5389C71.4955 56.3422 74.1831 51.7775 74.0356 45.9712C73.9454 42.4199 73.9329 38.8056 73.9206 35.3104L73.9145 33.6075C73.9087 32.1831 73.9249 30.7335 73.9402 29.3312C73.9708 26.5844 74.0014 23.7443 73.8717 20.9525C73.6937 17.696 73.2991 14.4544 72.6902 11.248C72.0433 7.6585 70.5415 5.04048 68.099 3.24406C65.0334 0.935526 61.2008 -0.180894 57.3415 0.110504C53.882 0.343534 50.7139 0.498833 47.6569 0.585771C44.5192 0.675397 41.3257 0.663504 38.2366 0.651852C33.7139 0.63572 29.0374 0.618341 24.4349 0.915304C22.5249 1.03869 20.5738 1.0808 18.687 1.12143C16.9767 1.15877 15.2083 1.19673 13.4695 1.29531C10.1274 1.48443 7.25083 2.52655 4.9193 4.39227C3.71494 5.3162 2.70987 6.46405 1.96212 7.76946C1.21437 9.07487 0.738724 10.512 0.562702 11.998C0.347035 14.0759 0.248098 16.1637 0.26633 18.2522L0.2645 18.4266C0.255936 19.2805 0.315281 20.1426 0.372476 20.9767C0.418354 21.6405 0.464235 22.3271 0.477387 22.999C0.581989 28.9592 0.675272 35.2644 0.770698 42.8421C0.767731 43.1862 0.743315 43.5304 0.697596 43.8719C0.649846 44.2334 0.624029 44.597 0.620236 44.9614C0.625742 45.5228 0.657847 46.0898 0.689044 46.638C0.725747 47.2857 0.763963 47.9553 0.756623 48.6098C0.730014 51.0014 1.54358 53.3048 3.17501 55.4567C6.15403 59.3797 10.5051 61.1874 16.1059 60.8185ZM69.9448 34.4172L69.947 37.543C69.9497 40.6573 69.9528 43.8767 69.9298 47.0435C69.917 47.7231 69.8072 48.3977 69.6038 49.0481C69.1138 50.6727 68.3006 52.1871 67.2111 53.5046C65.5549 55.5018 63.2852 56.6947 60.2716 57.1515C58.5949 57.4058 56.8249 57.5961 54.8604 57.7329C54.334 57.7526 53.8067 57.7272 53.2849 57.657C52.9445 57.6215 52.5922 57.5847 52.2414 57.5716C50.9097 57.5214 49.5774 57.4838 48.2451 57.4458C45.7028 57.3741 43.0737 57.2997 40.4969 57.1354C36.7532 56.8964 32.9692 56.8367 29.2277 56.8367C27.3555 56.8367 25.4935 56.8519 23.6529 56.8665C20.8892 56.8886 18.0316 56.9107 15.2229 56.883C13.1553 56.8623 11.505 56.5424 10.0286 55.8759C8.94162 55.4029 7.96448 54.7191 7.15662 53.8655C6.3488 53.0123 5.72712 52.0073 5.32945 50.9117C4.51955 48.7741 4.2455 46.8188 4.49171 44.9333C4.55071 44.3801 4.57053 43.8238 4.55105 43.2678C4.54922 43.0975 4.54707 42.9275 4.54738 42.7581C4.55026 41.3725 4.55432 39.9869 4.55964 38.6009C4.57249 34.9047 4.58561 31.0828 4.55778 27.3229C4.54677 25.8518 4.49419 24.359 4.44342 22.9148C4.38225 21.2119 4.32105 19.452 4.32747 17.7237C4.31597 15.1769 4.8933 12.6604 6.0164 10.362C7.20372 7.96236 9.35021 6.46264 12.4008 5.90517C14.194 5.57654 15.9766 5.40027 17.4838 5.27031C24.0536 4.70537 30.7579 4.65096 37.2395 4.59838C38.692 4.58664 40.1445 4.57293 41.5967 4.55739C43.6582 4.53289 45.7196 4.51091 47.7808 4.49119C51.0501 4.45803 54.4304 4.42391 57.7553 4.37521C60.078 4.33458 62.3551 5.05034 64.9288 6.60626C66.4049 7.49834 67.4368 8.97213 67.9959 10.986C68.4434 12.5993 68.7673 14.278 69.0805 15.9029L69.2466 16.7619C69.4548 17.8284 69.6329 19.0026 69.7913 20.3523C69.8873 21.2004 69.935 22.0531 69.9338 22.9063C69.9448 25.7101 69.9473 28.5142 69.9415 31.3188V34.3637C69.9412 34.3813 69.9421 34.3989 69.9448 34.4166V34.4172ZM29.4595 66.8614C29.8759 66.0482 30.2389 65.2099 30.5462 64.3518C30.8108 63.495 31.0163 62.622 31.1622 61.7389C31.2206 61.4282 31.28 61.1145 31.3457 60.7984L41.9387 60.9777C42.1148 63.4006 42.8844 65.5418 43.7334 67.5028H29.1509C29.2519 67.2892 29.3558 67.0753 29.4595 66.8614Z" fill="#363636"/>
</g>
<defs>
<clipPath id="clip0_1342_145">
<rect width="74.3226" height="72" fill="white"/>
</clipPath>
</defs>
</svg>
