<svg width="70" height="76" viewBox="0 0 70 76" fill="none" xmlns="http://www.w3.org/2000/svg">
<path d="M69.996 44.8599C70.0701 50.3178 69.1192 55.7411 67.1924 60.8486C63.8244 69.7508 57.5105 74.8844 47.9661 75.7614C38.5925 76.6241 29.6411 75.2447 21.6527 70.0304C11.9565 63.6928 7.05147 51.2876 9.72219 40.0059C12.2506 29.312 19.11 22.7563 29.4893 19.514C32.519 18.4836 35.4682 17.2303 38.3126 15.7645C45.988 12.0576 54.465 14.6505 59.9582 19.2912C67.1355 25.3539 70.1051 34.3034 69.996 44.8599Z" fill="#FF8500"/>
<g clip-path="url(#clip0_1334_3)">
<path d="M36.193 45.5373C35.8092 46.3342 35.2506 47.0345 34.5587 47.586C33.8668 48.1373 33.0594 48.526 32.1966 48.7226C27.0347 50.0231 22.1405 49.3183 17.9412 45.9423C14.4502 43.1355 13.304 39.1259 13.2927 34.807C13.3173 32.0125 13.9675 29.2592 15.1962 26.7488C17.802 27.0778 18.1406 27.0102 20.0644 25.8014C24.0274 28.5402 27.9785 31.2708 31.918 33.9927C32.0688 34.0968 32.2237 34.195 32.3811 34.287C34.045 35.2705 34.7936 35.1365 36.0635 33.5647C37.6251 34.639 39.1878 35.7277 40.7671 36.792C41.3244 37.1906 41.9161 37.5386 42.5353 37.832C43.5485 38.2763 44.335 38.0406 44.8872 37.0988C45.6032 35.8775 46.227 34.6026 46.9028 33.3574C47.2971 32.6307 47.1592 32.054 46.4858 31.5786C44.3959 30.1029 42.3111 28.6253 40.2314 27.1455C40.2282 27.0939 40.2339 27.0423 40.2483 26.9925C41.7572 24.3808 41.3439 24.4383 39.4547 22.7975C34.535 18.479 29.3781 14.438 24.0081 10.6934C21.8619 9.21306 19.8018 7.60754 17.7008 6.06145C16.1587 4.92649 15.682 4.95864 14.2871 6.27201C14.1568 6.39479 14.0101 6.49992 13.8562 6.6251C11.1695 4.67242 8.48926 2.75722 5.84783 0.790094C4.53621 -0.187849 3.73051 -0.174253 2.69326 1.10408C2.00132 1.95716 1.35514 2.84638 0.75742 3.76802C-0.282772 5.37295 0.0207748 6.49646 1.59953 7.59986C3.73774 9.09326 5.83846 10.6407 7.94508 12.1787C8.37925 12.496 8.76872 12.8742 9.24652 13.2819C8.96947 13.6563 8.77032 13.946 8.55056 14.2181C7.50903 15.5071 7.66188 16.4545 9.0455 17.4199C9.94302 18.0461 10.8181 18.7038 11.6778 19.33C11.5855 20.1911 11.5172 20.9564 11.4142 21.7171C11.389 21.9397 11.306 22.1518 11.1733 22.3324C8.70876 25.3727 7.50796 28.9484 6.90381 32.7296C6.28816 36.5737 6.44448 40.3895 7.87709 44.0779C9.91143 49.3148 13.8227 52.6229 18.869 54.7657C19.3203 54.9572 19.7807 55.1276 20.2462 55.3117L18.5004 59.5934C18.0352 59.6338 17.3619 59.6736 16.693 59.7539C14.6223 60.001 13.5042 61.8777 14.3174 63.771C14.6616 64.5735 15.4149 64.6484 16.1705 64.6703C18.4584 64.7372 20.7459 64.8602 23.0337 64.8648C26.971 64.8723 30.9082 64.8094 34.8455 64.7661C35.1667 64.761 35.486 64.7161 35.7961 64.6323C36.7838 64.3689 37.1122 63.767 36.84 62.7701C36.3408 60.9332 35.0163 59.832 33.0982 59.6672C32.645 59.6284 32.19 59.6102 31.7398 59.5829L30.5887 56.7882C33.8123 56.3348 37.0114 55.8022 39.7256 53.8795C42.4696 51.9357 44.2096 49.2289 45.4351 45.9974C46.6112 45.9974 47.8391 46.0335 49.0635 45.9846C49.8857 45.9613 50.7038 45.8594 51.5065 45.6802C51.8716 45.6071 52.2 45.4097 52.4354 45.1214C52.6709 44.8333 52.7988 44.4722 52.7974 44.1001C52.8247 43.7296 52.7238 43.3608 52.5115 43.0558C52.2992 42.7506 51.9885 42.5278 51.6314 42.4243C51.0272 42.2202 50.3953 42.1094 49.7576 42.0966C44.5369 42.0709 39.3159 42.0699 34.0947 42.0929C33.5954 42.114 33.1014 42.2049 32.6274 42.363C32.0575 42.5323 31.5735 42.963 31.6843 43.5461C31.8258 44.0519 32.1298 44.4976 32.5495 44.8138C32.8779 45.0759 33.3932 45.1347 33.838 45.215C34.5905 45.349 35.3549 45.4263 36.193 45.5373ZM11.3076 15.3605C13.8313 13.3666 14.7553 10.3926 16.7045 8.17916C20.6038 10.3004 37.5085 23.1961 38.7103 24.9623L33.6945 31.6228L21.6611 23.2771C22.0506 20.9409 22.4524 18.5776 19.9777 17.0146C17.756 15.6122 15.5075 15.1286 13.2239 16.94L11.3076 15.3605ZM13.8471 25.9245C11.9926 29.3644 11.4393 30.8388 11.3387 34.9204C11.2131 40.0086 12.755 44.5733 16.9843 47.6936C21.8332 51.271 27.3728 52.0001 33.1635 50.6033C35.6125 50.0132 37.408 48.3502 38.8792 46.3387C39.1043 46.0314 39.4681 45.5897 39.751 45.6029C40.7194 45.6465 41.742 45.5317 42.6451 46.0164C42.011 49.13 39.2536 52.4016 36.1833 53.6077C33.6953 54.5515 31.0468 55.0011 28.3865 54.9313C24.9897 54.8692 21.6515 54.0352 18.6248 52.4923C13.7756 50.0742 10.4321 46.3812 9.37661 40.9517C8.54681 36.6791 9.06423 32.4838 10.5654 28.4137C11.0453 27.1118 11.6251 25.8458 12.1982 24.4725L13.8471 25.9245ZM10.3673 10.9897L3.52092 5.34572L4.88446 3.09046C7.44693 4.8797 9.93552 6.61737 12.4993 8.40795C11.9452 9.11225 11.503 9.68623 11.0469 10.2488C10.8496 10.4919 10.6234 10.7126 10.3678 10.9897H10.3673ZM19.9233 19.8137C19.6765 20.8253 19.57 21.7439 19.2274 22.5654C18.419 24.5132 16.9602 24.8345 15.3089 23.5211C14.1811 22.6242 14.0074 21.5646 14.7492 20.1066C15.2899 19.0436 16.2423 18.622 17.5062 18.9652C18.249 19.166 18.9608 19.4705 19.9244 19.8137H19.9233ZM28.481 56.9121L28.9941 59.0624H21.9157C22.1721 57.9657 22.386 57.0517 22.5969 56.1502L28.481 56.9121ZM34.3032 62.6492C28.4962 62.7695 22.6879 62.8335 16.8483 62.2533C17.1963 61.9441 17.582 61.6819 17.9725 61.6768C18.9651 61.6637 19.9595 61.8197 20.952 61.8106C24.1476 61.7838 27.3426 61.7122 30.5378 61.6554C31.8636 61.6324 33.1758 61.6678 34.3022 62.6492H34.3032ZM38.8332 29.2194L44.6098 33.0793L43.1026 34.8642C41.2229 33.5195 39.2716 32.5044 37.8274 30.7401L38.8332 29.2194Z" fill="#363636"/>
</g>
<defs>
<clipPath id="clip0_1334_3">
<rect width="53" height="65" fill="white" transform="matrix(-1 0 0 1 53 0)"/>
</clipPath>
</defs>
</svg>
