<svg width="116" height="218" viewBox="0 0 116 218" fill="none" xmlns="http://www.w3.org/2000/svg">
<g clip-path="url(#clip0_1513_371)">
<path d="M10.7371 151.976C5.60912 151.976 1.59452 149.446 1.42725 144.651H7.61119C7.7837 146.474 8.93894 147.352 10.5699 147.352C12.2008 147.352 13.356 146.506 13.356 145.124C13.356 140.734 1.42725 143.098 1.4952 134.688C1.4952 130.199 5.19616 127.701 10.1935 127.701C15.4208 127.701 18.8918 130.267 19.1323 134.792H12.8594C12.7601 133.27 11.6728 132.36 10.1099 132.324C8.71416 132.293 7.66347 132.999 7.66347 134.485C7.66347 138.604 19.4511 136.75 19.4511 144.682C19.4354 148.667 16.3095 151.976 10.7371 151.976Z" fill="#cfcfcf"/>
<path d="M29.9996 132.631C34.7617 132.631 38.1229 135.228 39.1109 139.721H32.9321C32.7475 139.074 32.3478 138.509 31.7982 138.116C31.2486 137.724 30.5815 137.528 29.9055 137.56C27.8146 137.56 26.4084 139.181 26.4084 142.319C26.4084 145.456 27.8303 147.082 29.9055 147.082C31.5051 147.082 32.4199 146.303 32.9321 144.921H39.1109C38.1229 149.274 34.7617 152.012 29.9996 152.012C24.4273 152.012 20.4858 148.298 20.4858 142.319C20.4858 136.34 24.4273 132.631 29.9996 132.631Z" fill="#cfcfcf"/>
<path d="M46.6489 151.742H40.8413V132.901H46.6489V136.018C47.2762 135.007 48.1506 134.171 49.1908 133.587C50.231 133.003 51.403 132.69 52.5976 132.677V138.786H50.998C48.2485 138.786 46.6489 139.732 46.6489 142.973V151.742Z" fill="#cfcfcf"/>
<path d="M62.6547 152.012C57.0824 152.012 52.8691 148.298 52.8691 142.319C52.8691 136.34 57.1817 132.631 62.7227 132.631C68.2637 132.631 72.5762 136.345 72.5762 142.319C72.5762 148.293 68.2271 152.012 62.6547 152.012ZM62.6547 147.015C64.7457 147.015 66.6641 145.493 66.6641 142.339C66.6641 139.186 64.7613 137.664 62.7227 137.664C60.684 137.664 58.7813 139.15 58.7813 142.339C58.7813 145.529 60.5481 147.009 62.6547 147.009V147.015Z" fill="#cfcfcf"/>
<path d="M74.3066 126.75H80.1195V151.737H74.3066V126.75Z" fill="#cfcfcf"/>
<path d="M82.9736 126.75H88.7812V151.737H82.9736V126.75Z" fill="#cfcfcf"/>
<path d="M11.8607 156.609C17.7049 156.609 20.627 159.949 20.627 164.069C20.627 167.04 18.996 169.845 15.3265 170.926L20.8308 180.313H14.2705L9.30978 171.362H7.91408V180.313H2.09082V156.609H11.8607ZM11.5 161.404H7.89317V167.269H11.5C13.6746 167.269 14.6939 166.152 14.6939 164.297C14.7149 162.552 13.6955 161.404 11.5 161.404Z" fill="#cfcfcf"/>
<path d="M31.5312 180.583C25.9588 180.583 21.7456 176.869 21.7456 170.889C21.7456 164.91 26.0582 161.201 31.5991 161.201C37.1401 161.201 41.4527 164.916 41.4527 170.905C41.4527 176.895 37.114 180.583 31.5312 180.583ZM31.5312 175.585C33.6221 175.585 35.5406 174.063 35.5406 170.91C35.5406 167.757 33.6378 166.235 31.5991 166.235C29.5605 166.235 27.6577 167.721 27.6577 170.91C27.6577 174.1 29.4246 175.58 31.5312 175.58V175.585Z" fill="#cfcfcf"/>
<path d="M43.1831 155.321H48.9959V180.307H43.1831V155.321Z" fill="#cfcfcf"/>
<path d="M51.8501 155.321H57.6577V180.307H51.8501V155.321Z" fill="#cfcfcf"/>
<path d="M22.5613 197.164C22.5613 204.437 17.7731 208.883 10.0157 208.883H2.61377V185.346H9.98955C17.7731 185.346 22.5613 189.871 22.5613 197.164ZM10.0157 206.348C16.1996 206.348 19.4249 202.904 19.4249 197.164C19.4249 191.424 16.1944 187.845 10.0157 187.845H5.70836V206.348H10.0157Z" fill="#cfcfcf"/>
<path d="M33.3346 209.185C28.0288 209.185 24.124 205.47 24.124 199.595C24.124 193.72 27.8929 190.073 33.3346 190.073C38.7763 190.073 42.2681 193.855 42.2681 198.904C42.2698 199.526 42.2366 200.146 42.1688 200.764H27.2813C27.5218 204.509 30.1721 206.572 33.3346 206.572C36.1208 206.572 37.8876 205.154 38.5619 203.159H41.8918C40.9456 206.551 37.9503 209.185 33.3346 209.185ZM27.3179 198.276H39.0742C39.1056 194.639 36.3874 192.671 33.1935 192.671C30.1721 192.676 27.6577 194.665 27.3179 198.281V198.276Z" fill="#cfcfcf"/>
<path d="M51.5783 209.185C47.2291 209.185 44.1712 206.821 43.9673 203.444H47.1612C47.3285 205.237 48.928 206.587 51.5417 206.587C53.9881 206.587 55.3472 205.372 55.3472 203.85C55.3472 199.73 44.3384 202.13 44.3384 195.242C44.3384 192.406 47.0253 190.047 51.1706 190.047C55.3158 190.047 57.9975 192.245 58.2013 195.855H55.112C54.9761 194.001 53.5438 192.65 51.066 192.65C48.7921 192.65 47.4069 193.73 47.4069 195.216C47.4069 199.606 58.2118 197.206 58.3477 203.824C58.3738 206.889 55.687 209.185 51.5783 209.185Z" fill="#cfcfcf"/>
<path d="M60.8513 185.279C60.812 184.985 60.8362 184.687 60.9224 184.403C61.0085 184.12 61.1546 183.858 61.3509 183.636C61.5471 183.413 61.789 183.234 62.0603 183.112C62.3316 182.99 62.626 182.927 62.9239 182.927C63.2218 182.927 63.5163 182.99 63.7876 183.112C64.0589 183.234 64.3008 183.413 64.497 183.636C64.6933 183.858 64.8394 184.12 64.9255 184.403C65.0117 184.687 65.0359 184.985 64.9966 185.279C65.0359 185.572 65.0117 185.871 64.9255 186.154C64.8394 186.437 64.6933 186.699 64.497 186.922C64.3008 187.145 64.0589 187.323 63.7876 187.445C63.5163 187.568 63.2218 187.631 62.9239 187.631C62.626 187.631 62.3316 187.568 62.0603 187.445C61.789 187.323 61.5471 187.145 61.3509 186.922C61.1546 186.699 61.0085 186.437 60.9224 186.154C60.8362 185.871 60.812 185.572 60.8513 185.279ZM61.374 190.38H64.4634V208.883H61.374V190.38Z" fill="#cfcfcf"/>
<path d="M76.0422 190.073C79.44 190.073 81.8864 191.762 82.9737 193.756V190.38H86.1101V209.289C86.1101 214.384 82.6757 218 77.2236 218C72.3308 218 68.8285 215.532 68.2169 211.585H71.2749C71.9544 213.813 74.1656 215.33 77.2236 215.33C80.5168 215.33 82.9737 213.252 82.9737 209.289V205.403C82.264 206.591 81.2467 207.569 80.0276 208.234C78.8085 208.899 77.4323 209.228 76.0422 209.185C71.0449 209.185 67.208 205.304 67.208 199.564C67.208 193.824 71.0449 190.073 76.0422 190.073ZM76.6538 192.743C73.256 192.743 70.381 195.206 70.381 199.564C70.381 203.922 73.2717 206.483 76.6538 206.483C80.0359 206.483 82.9737 203.954 82.9737 199.595C82.9737 195.237 80.0516 192.723 76.6538 192.723V192.743Z" fill="#cfcfcf"/>
<path d="M103.596 198.437C103.596 194.655 101.505 192.723 98.3997 192.723C95.2946 192.723 93.0469 194.666 93.0469 198.65V208.883H89.9575V190.38H93.0469V193.014C94.2701 191.086 96.5126 190.042 99.027 190.042C103.345 190.042 106.638 192.676 106.638 197.975V208.883H103.58L103.596 198.437Z" fill="#cfcfcf"/>
<path d="M112.566 209.153C110.475 209.153 109.1 207.766 109.1 206.037C109.1 204.307 110.496 202.863 112.566 202.863C114.636 202.863 116 204.244 116 206.037C116 207.829 114.604 209.153 112.566 209.153Z" fill="#FF8500"/>
<path d="M36.7064 0H36.7012C16.4317 0 0 16.329 0 36.4719V81.5513C0 101.694 16.4317 118.023 36.7012 118.023H36.7064C56.9759 118.023 73.4076 101.694 73.4076 81.5513V36.4719C73.4076 16.329 56.9759 0 36.7064 0Z" fill="#FF8500"/>
<path d="M36.7012 44.773C43.1623 44.773 48.4 39.568 48.4 33.1473C48.4 26.7266 43.1623 21.5216 36.7012 21.5216C30.2402 21.5216 25.0024 26.7266 25.0024 33.1473C25.0024 39.568 30.2402 44.773 36.7012 44.773Z" fill="white"/>
</g>
<defs>
<clipPath id="clip0_1513_371">
<rect width="116" height="218" fill="white"/>
</clipPath>
</defs>
</svg>
