<svg width="78" height="78" viewBox="0 0 78 78" fill="none" xmlns="http://www.w3.org/2000/svg">
<g clip-path="url(#clip0_214_1179)">
<path d="M39 6.5C21.06 6.5 6.5 21.06 6.5 39C6.5 56.94 21.06 71.5 39 71.5C56.94 71.5 71.5 56.94 71.5 39C71.5 21.06 56.94 6.5 39 6.5ZM39 19.5C45.2725 19.5 50.375 24.6025 50.375 30.875C50.375 37.1475 45.2725 42.25 39 42.25C32.7275 42.25 27.625 37.1475 27.625 30.875C27.625 24.6025 32.7275 19.5 39 19.5ZM39 65C32.4025 65 24.6025 62.335 19.045 55.64C24.5375 51.35 31.46 48.75 39 48.75C46.54 48.75 53.4625 51.35 58.955 55.64C53.3975 62.335 45.5975 65 39 65Z" fill="#cfcfcf"/>
</g>
<defs>
<clipPath id="clip0_214_1179">
<rect width="78" height="78" fill="white"/>
</clipPath>
</defs>
</svg>
