<svg width="70" height="39" viewBox="0 0 70 39" fill="none" xmlns="http://www.w3.org/2000/svg">
<path d="M38.4323 19.3736C46.8707 19.3053 55.3091 19.2506 63.7475 19.1583C65.4294 19.1396 67.1137 19.0076 68.7888 18.8431C69.066 18.813 69.3276 18.7 69.5394 18.519C69.7512 18.3379 69.9035 18.0972 69.9762 17.8283C70.1137 17.3978 69.6355 16.7871 69.0643 16.6973C68.5103 16.6103 67.9591 16.4752 67.4024 16.4417C63.8469 16.2265 60.2917 15.9217 56.7328 15.8575C49.4211 15.7262 42.1072 15.693 34.794 15.6847C27.8556 15.6767 20.9169 15.7631 13.9785 15.7794C12.8644 15.7821 11.7497 15.6419 10.6375 15.5426C10.5637 15.5244 10.4957 15.488 10.4396 15.4366C10.3836 15.3853 10.3414 15.3208 10.3168 15.2489C10.2968 15.0773 10.3476 14.7876 10.4618 14.7261C12.5939 13.568 14.6999 12.3497 16.8924 11.3161C21.9928 8.91169 26.7775 5.96327 31.5589 3.00501C32.3446 2.51883 33.1681 2.02497 33.4851 1.06031C33.5426 0.88472 33.6325 0.583977 33.5593 0.525242C33.2969 0.280893 32.9782 0.105181 32.6314 0.0138234C32.2621 -0.0297019 31.8879 0.0300288 31.5505 0.186348C30.3558 0.727262 29.1697 1.29156 28.0073 1.89797C19.6979 6.23204 11.4054 10.5919 3.09162 14.9143C-0.0444239 16.5441 -1.5346 18.1248 2.22989 21.7082C3.31442 22.7411 4.41158 23.7725 5.59091 24.691C11.0604 28.9552 16.5498 33.1933 22.0593 37.4054C22.8168 37.9486 23.6156 38.4319 24.4484 38.8507C24.9916 39.1453 25.5354 38.9704 26.0044 38.6173C26.5205 38.2283 26.8409 37.0976 26.663 36.6004C26.2676 35.4964 25.4797 34.6864 24.6337 33.953C21.376 31.1294 18.1009 28.3261 14.8086 25.5432C12.669 23.7245 10.507 21.9327 8.37087 20.1103C8.26531 20.0203 8.26009 19.7413 8.30287 19.5734C8.33094 19.5008 8.37624 19.436 8.43488 19.3847C8.49353 19.3334 8.56376 19.2971 8.63955 19.2788C9.75579 19.2057 10.8745 19.1125 11.9919 19.1183C20.8057 19.1649 29.6194 19.2229 38.4332 19.2924L38.4323 19.3736Z" fill="white"/>
</svg>
