<svg width="189" height="192" viewBox="0 0 189 192" fill="none" xmlns="http://www.w3.org/2000/svg">
<path d="M188.988 95.5482C189.216 112.308 186.282 128.962 180.335 144.646C169.94 171.982 150.454 187.746 120.997 190.439C92.0676 193.088 64.441 188.852 39.7865 172.841C9.86134 153.379 -5.2769 115.286 2.96569 80.6428C10.7691 47.8045 31.9392 27.6735 63.9725 17.7172C73.3231 14.553 82.4251 10.7046 91.2038 6.20343C114.892 -5.17937 141.055 2.78275 158.008 17.0331C180.159 35.6502 189.324 63.1319 188.988 95.5482Z" fill="black"/>
<path d="M98.6827 133.046C119.161 133.046 135.761 116.43 135.761 95.9331C135.761 75.4363 119.161 58.8203 98.6827 58.8203C78.2047 58.8203 61.604 75.4363 61.604 95.9331C61.604 116.43 78.2047 133.046 98.6827 133.046Z" fill="white"/>
<path d="M114.318 76.6551L85.1946 105.806C83.9731 107.028 83.9731 109.011 85.1946 110.233L90.1633 115.206C91.3847 116.429 93.3651 116.429 94.5866 115.206L123.711 86.0558C124.932 84.8332 124.932 82.8509 123.711 81.6283L118.742 76.6551C117.52 75.4325 115.54 75.4325 114.318 76.6551Z" fill="black"/>
<path d="M78.6237 89.2818L73.6551 94.255C72.4336 95.4776 72.4336 97.4599 73.6551 98.6825L90.1507 115.193C91.3722 116.416 93.3526 116.416 94.5741 115.193L99.5427 110.22C100.764 108.998 100.764 107.015 99.5427 105.793L83.0471 89.2819C81.8256 88.0592 79.8452 88.0592 78.6237 89.2818Z" fill="black"/>
</svg>
