<svg width="75" height="75" viewBox="0 0 75 75" fill="none" xmlns="http://www.w3.org/2000/svg">
<path d="M37.109 74.8702C57.587 74.8702 74.1877 58.2542 74.1877 37.7573C74.1877 17.2605 57.587 0.644531 37.109 0.644531C16.631 0.644531 0.0302734 17.2605 0.0302734 37.7573C0.0302734 58.2542 16.631 74.8702 37.109 74.8702Z" fill="black"/>
<path d="M52.7448 18.4793L23.6209 47.63C22.3994 48.8526 22.3994 50.8349 23.6209 52.0575L28.5895 57.0307C29.811 58.2533 31.7914 58.2532 33.0129 57.0306L62.1368 27.8799C63.3582 26.6573 63.3583 24.6751 62.1368 23.4525L57.1682 18.4793C55.9467 17.2567 53.9663 17.2567 52.7448 18.4793Z" fill="white"/>
<path d="M17.049 31.1061L12.0803 36.0792C10.8589 37.3019 10.8589 39.2841 12.0804 40.5067L28.576 57.0175C29.7975 58.2401 31.7779 58.2401 32.9994 57.0175L37.968 52.0443C39.1895 50.8217 39.1895 48.8395 37.968 47.6169L21.4724 31.1061C20.2509 29.8835 18.2704 29.8834 17.049 31.1061Z" fill="white"/>
</svg>
