<svg width="75" height="75" viewBox="0 0 75 75" fill="none" xmlns="http://www.w3.org/2000/svg">
<path d="M37.0787 74.8702C57.5567 74.8702 74.1574 58.2542 74.1574 37.7573C74.1574 17.2605 57.5567 0.644531 37.0787 0.644531C16.6007 0.644531 0 17.2605 0 37.7573C0 58.2542 16.6007 74.8702 37.0787 74.8702Z" fill="#434343"/>
<path d="M52.7145 18.4793L23.5906 47.63C22.3691 48.8526 22.3691 50.8349 23.5906 52.0575L28.5592 57.0307C29.7807 58.2533 31.7611 58.2533 32.9826 57.0307L62.1065 27.88C63.328 26.6574 63.328 24.6751 62.1066 23.4525L57.1379 18.4793C55.9164 17.2567 53.936 17.2567 52.7145 18.4793Z" fill="#848484"/>
<path d="M17.0182 31.1061L12.0496 36.0793C10.8281 37.3019 10.8281 39.2841 12.0496 40.5067L28.5452 57.0175C29.7667 58.2401 31.7471 58.2401 32.9686 57.0175L37.9372 52.0443C39.1587 50.8217 39.1587 48.8395 37.9372 47.6169L21.4416 31.1061C20.2201 29.8835 18.2397 29.8834 17.0182 31.1061Z" fill="#ADADAD"/>
</svg>
