<svg width="201" height="83" viewBox="0 0 201 83" fill="none" xmlns="http://www.w3.org/2000/svg">
<path d="M41.6088 82.1192C64.1648 82.1192 82.4501 63.8394 82.4501 41.2901C82.4501 18.7408 64.1648 0.460938 41.6088 0.460938C19.0528 0.460938 0.767578 18.7408 0.767578 41.2901C0.767578 63.8394 19.0528 82.1192 41.6088 82.1192Z" fill="#274D5B"/>
<path d="M58.8318 20.0847L26.7525 52.1544C25.4071 53.4995 25.4071 55.6802 26.7525 57.0253L32.2253 62.4964C33.5708 63.8415 35.7522 63.8415 37.0976 62.4964L69.1768 30.4267C70.5223 29.0816 70.5223 26.9009 69.1768 25.5559L63.704 20.0847C62.3586 18.7397 60.1772 18.7396 58.8318 20.0847Z" fill="#DD5B6D"/>
<path d="M19.5139 33.9723L14.0411 39.4435C12.6957 40.7885 12.6957 42.9693 14.0411 44.3143L32.2106 62.4784C33.5561 63.8235 35.7375 63.8235 37.0829 62.4784L42.5557 57.0073C43.9011 55.6622 43.9011 53.4815 42.5557 52.1365L24.3862 33.9723C23.0407 32.6273 20.8593 32.6273 19.5139 33.9723Z" fill="#91BAB4"/>
<path d="M109.486 25.935C111.154 25.0258 113.105 24.5712 115.341 24.5712C117.851 24.5417 120.317 25.2319 122.446 26.5601C124.568 27.8859 126.245 29.7801 127.477 32.2424C128.708 34.7048 129.324 37.565 129.324 40.8229C129.324 44.0808 128.708 46.9504 127.477 49.4317C126.245 51.913 124.568 53.8261 122.446 55.1709C120.323 56.5161 117.855 57.2169 115.341 57.1881C113.143 57.1881 111.201 56.7336 109.515 55.8244C108.128 55.1018 106.913 54.0888 105.953 52.8544C105.925 52.8179 105.887 52.791 105.844 52.7773C105.8 52.7636 105.754 52.7639 105.71 52.7781C105.667 52.7923 105.629 52.8198 105.603 52.8566C105.576 52.8933 105.561 52.9376 105.561 52.9832V71.6404C105.561 71.669 105.555 71.6973 105.544 71.7237C105.533 71.7501 105.517 71.7742 105.497 71.7944C105.477 71.8146 105.453 71.8307 105.426 71.8416C105.4 71.8526 105.371 71.8582 105.343 71.8582H96.0587C96.0011 71.8577 95.946 71.8346 95.9052 71.7938C95.8645 71.7531 95.8413 71.698 95.8408 71.6404V25.2531C95.8408 25.1953 95.8638 25.1399 95.9047 25.0991C95.9455 25.0582 96.0009 25.0353 96.0587 25.0353H105.343C105.371 25.035 105.4 25.0405 105.426 25.0513C105.453 25.0622 105.477 25.0782 105.497 25.0985C105.518 25.1188 105.534 25.1429 105.545 25.1695C105.555 25.196 105.561 25.2244 105.561 25.2531V28.8273C105.561 28.8732 105.576 28.9179 105.603 28.9549C105.63 28.9919 105.668 29.0194 105.712 29.0334C105.755 29.0475 105.802 29.0474 105.846 29.0332C105.89 29.019 105.928 28.9913 105.955 28.9542C106.896 27.701 108.102 26.6702 109.486 25.935ZM117.416 35.1121C116.777 34.4392 116.004 33.9071 115.148 33.55C114.292 33.1928 113.37 33.0184 112.442 33.038C111.521 33.0233 110.607 33.203 109.76 33.5653C108.912 33.9275 108.151 34.4643 107.525 35.1405C106.18 36.5421 105.508 38.4552 105.508 40.8797C105.508 43.3042 106.18 45.2172 107.525 46.6189C108.151 47.2951 108.912 47.8318 109.76 48.1941C110.607 48.5564 111.521 48.736 112.442 48.7214C113.37 48.7334 114.29 48.5498 115.142 48.1826C115.994 47.8155 116.759 47.273 117.387 46.5905C118.751 45.1699 119.434 43.2473 119.434 40.8229C119.434 38.3984 118.761 36.4948 117.416 35.1121Z" fill="#91BAB4"/>
<path d="M163.97 43.2086H142.409C142.378 43.2084 142.348 43.2147 142.32 43.2269C142.292 43.2391 142.267 43.257 142.247 43.2795C142.226 43.302 142.21 43.3286 142.201 43.3574C142.191 43.3863 142.188 43.4169 142.191 43.4472C142.373 45.2997 143 46.726 144.074 47.7261C145.186 48.7678 146.562 49.2887 148.204 49.2887C150.583 49.2887 152.251 48.305 153.208 46.3377C153.225 46.3016 153.252 46.2712 153.285 46.2502C153.319 46.2293 153.358 46.2189 153.398 46.2202H163.33C163.363 46.2199 163.397 46.2274 163.427 46.2421C163.457 46.2568 163.483 46.2783 163.504 46.3049C163.525 46.3315 163.539 46.3625 163.545 46.3954C163.552 46.4284 163.551 46.4624 163.542 46.4949C163.004 48.4582 162.05 50.2831 160.745 51.8458C159.334 53.5327 157.555 54.874 155.544 55.7666C153.46 56.7137 151.13 57.1872 148.553 57.1872C145.446 57.1872 142.679 56.5243 140.254 55.1984C137.85 53.8934 135.876 51.9196 134.57 49.516C133.206 47.0536 132.524 44.1746 132.524 40.8788C132.524 37.583 133.191 34.7039 134.525 32.2415C135.813 29.8351 137.78 27.8594 140.18 26.5591C142.603 25.2333 145.388 24.5703 148.536 24.5703C151.605 24.5703 154.334 25.2143 156.721 26.5023C159.08 27.762 161.024 29.676 162.32 32.0142C163.664 34.4008 164.336 37.1852 164.338 40.3674C164.336 41.2534 164.286 42.1386 164.188 43.0191C164.181 43.0717 164.155 43.1198 164.115 43.1546C164.074 43.1895 164.023 43.2086 163.97 43.2086ZM154.169 37.8103C154.198 37.8103 154.226 37.8045 154.253 37.7933C154.28 37.7822 154.304 37.7658 154.324 37.7451C154.345 37.7245 154.361 37.7001 154.371 37.6732C154.382 37.6463 154.387 37.6176 154.387 37.5887C154.337 36.0266 153.769 34.7746 152.682 33.8326C151.545 32.8477 150.124 32.3552 148.418 32.3552C146.789 32.3552 145.415 32.8287 144.298 33.7758C143.234 34.6761 142.556 35.9357 142.265 37.5546C142.259 37.586 142.261 37.6181 142.269 37.6488C142.278 37.6795 142.293 37.708 142.313 37.7323C142.334 37.7566 142.36 37.7762 142.388 37.7897C142.417 37.8031 142.449 37.8102 142.481 37.8103H154.169Z" fill="#91BAB4"/>
<path d="M197.675 28.2935C199.891 30.6991 201 34.0043 201 38.2093V56.5161C201 56.5738 200.977 56.6292 200.936 56.6701C200.895 56.7109 200.84 56.7339 200.782 56.7339H191.553C191.524 56.7339 191.496 56.7282 191.47 56.7173C191.443 56.7063 191.42 56.6902 191.4 56.67C191.379 56.6497 191.364 56.6257 191.353 56.5993C191.342 56.5729 191.337 56.5446 191.337 56.5161V39.5162C191.337 37.3948 190.787 35.7469 189.689 34.5726C188.59 33.3982 187.112 32.811 185.255 32.811C183.396 32.811 181.918 33.3982 180.821 34.5726C179.725 35.7469 179.176 37.3948 179.173 39.5162V56.5161C179.173 56.5738 179.15 56.6292 179.109 56.6701C179.068 56.7109 179.013 56.7339 178.955 56.7339H169.671C169.643 56.7339 169.614 56.7282 169.588 56.7173C169.562 56.7063 169.538 56.6902 169.518 56.67C169.498 56.6497 169.482 56.6257 169.471 56.5993C169.46 56.5729 169.455 56.5446 169.455 56.5161V25.244C169.455 25.2155 169.46 25.1872 169.471 25.1608C169.482 25.1343 169.498 25.1103 169.518 25.0901C169.538 25.0698 169.562 25.0537 169.588 25.0428C169.614 25.0318 169.643 25.0262 169.671 25.0262H178.955C179.013 25.0262 179.068 25.0491 179.109 25.0899C179.15 25.1308 179.173 25.1862 179.173 25.244V28.5814C179.174 28.6248 179.189 28.6667 179.214 28.7018C179.24 28.7368 179.276 28.7633 179.317 28.7778C179.357 28.7923 179.402 28.7942 179.444 28.7831C179.486 28.7721 179.523 28.7487 179.552 28.7159C180.529 27.5246 181.759 26.5651 183.152 25.9069C184.909 25.0722 186.834 24.6541 188.779 24.6852C192.491 24.6852 195.457 25.888 197.675 28.2935Z" fill="#91BAB4"/>
</svg>
