<svg width="75" height="75" viewBox="0 0 75 75" fill="none" xmlns="http://www.w3.org/2000/svg">
<path d="M37.109 74.2256C57.587 74.2256 74.1877 57.6097 74.1877 37.1128C74.1877 16.616 57.587 0 37.109 0C16.631 0 0.0302734 16.616 0.0302734 37.1128C0.0302734 57.6097 16.631 74.2256 37.109 74.2256Z" fill="#91BAB4"/>
<path d="M52.7443 17.8387L23.6204 46.9894C22.3989 48.212 22.3989 50.1942 23.6204 51.4169L28.589 56.39C29.8105 57.6126 31.7909 57.6126 33.0124 56.39L62.1363 27.2393C63.3578 26.0167 63.3578 24.0345 62.1363 22.8119L57.1677 17.8387C55.9462 16.6161 53.9658 16.6161 52.7443 17.8387Z" fill="#274D5B"/>
<path d="M17.0499 30.4615L12.0813 35.4347C10.8598 36.6573 10.8598 38.6396 12.0813 39.8622L28.577 56.373C29.7984 57.5956 31.7789 57.5956 33.0004 56.373L37.969 51.3998C39.1905 50.1772 39.1904 48.195 37.969 46.9723L21.4733 30.4615C20.2518 29.2389 18.2714 29.2389 17.0499 30.4615Z" fill="#DD5B6D"/>
</svg>
