<svg width="26" height="27" viewBox="0 0 26 27" fill="none" xmlns="http://www.w3.org/2000/svg">
<path d="M18.582 16.5182H17.4077L16.9914 16.1168C18.4483 14.4222 19.3253 12.222 19.3253 9.82868C19.3253 4.49192 14.9994 0.166016 9.66266 0.166016C4.3259 0.166016 0 4.49192 0 9.82868C0 15.1654 4.3259 19.4913 9.66266 19.4913C12.056 19.4913 14.2561 18.6143 15.9508 17.1574L16.3522 17.5737V18.7481L23.785 26.166L26 23.951L18.582 16.5182ZM9.66266 16.5182C5.96112 16.5182 2.97313 13.5302 2.97313 9.82868C2.97313 6.12714 5.96112 3.13914 9.66266 3.13914C13.3642 3.13914 16.3522 6.12714 16.3522 9.82868C16.3522 13.5302 13.3642 16.5182 9.66266 16.5182Z" fill="#cfcfcf"/>
</svg>
