<svg width="281" height="94" viewBox="0 0 281 94" fill="none" xmlns="http://www.w3.org/2000/svg">
<g clip-path="url(#clip0_214_84)">
<path d="M156.297 66.0064C156.031 66.286 155.664 66.4478 155.276 66.455H146.789C146.41 66.4545 146.051 66.2907 145.804 66.0064C145.534 65.7405 145.382 65.3794 145.38 65.0023V41.9011C145.394 40.8788 145.324 39.8571 145.172 38.8461C145.076 38.1268 144.812 37.4394 144.403 36.8379C144.01 36.3167 143.454 35.9388 142.822 35.7626C141.965 35.5313 141.079 35.4257 140.191 35.4492C139.109 35.4601 138.039 35.6727 137.036 36.0759C135.86 36.5384 134.713 37.0711 133.601 37.6711V65.0023C133.6 65.3794 133.447 65.7405 133.177 66.0064C132.931 66.2912 132.571 66.455 132.193 66.455H123.698C122.904 66.4093 122.271 65.7817 122.225 64.9951V27.9648C122.225 27.1783 122.868 26.5406 123.662 26.5406H131.517C131.89 26.5393 132.246 26.6914 132.502 26.9607C132.773 27.2168 132.926 27.5721 132.926 27.9435V29.6312C134.589 28.4027 136.437 27.4414 138.402 26.7827C140.338 26.2174 142.349 25.9461 144.367 25.978C146.508 25.8974 148.637 26.3273 150.576 27.2314C152.118 28.0036 153.426 29.1686 154.364 30.6068C155.318 32.1298 155.963 33.8233 156.261 35.5917C156.62 37.6226 156.796 39.6821 156.785 41.7444V65.0023C156.767 65.3889 156.591 65.7514 156.297 66.0064ZM177.102 20.7012C177.102 21.4878 176.459 22.1254 175.665 22.1254H166.581C165.787 22.1254 165.144 21.4878 165.144 20.7012V14.2423C165.144 13.4557 165.787 12.818 166.581 12.818H175.701C176.495 12.818 177.138 13.4557 177.138 14.2423L177.102 20.7012ZM176.793 65.0664C176.793 65.8529 176.15 66.4906 175.356 66.4906H166.861C166.067 66.4906 165.424 65.8529 165.424 65.0664V28.0361C165.424 27.2495 166.067 26.6118 166.861 26.6118H175.421C176.214 26.6118 176.858 27.2495 176.858 28.0361L176.793 65.0664ZM207.423 20.9789H203.981C202.903 20.9789 202.249 21.1783 202.019 21.5771C201.709 22.4467 201.589 23.3714 201.666 24.2903V26.6118H207.416C207.798 26.6138 208.161 26.7769 208.415 27.0604C208.686 27.3165 208.839 27.6718 208.839 28.0432V33.7401C208.828 34.0966 208.676 34.4344 208.415 34.6801C208.16 34.9494 207.803 35.1016 207.43 35.1003H201.681V65.0735C201.682 65.4393 201.531 65.7896 201.264 66.042C201.01 66.3083 200.656 66.4579 200.287 66.455H191.691C191.321 66.4561 190.966 66.3038 190.714 66.0348C190.445 65.7803 190.295 65.4274 190.297 65.0592V35.0291L184.699 34.1247C184.322 34.0329 183.973 33.8548 183.678 33.6048C183.388 33.3778 183.221 33.0307 183.225 32.6648V28.0717C183.271 27.2851 183.905 26.6575 184.699 26.6118H190.311V24.39C190.255 22.357 190.514 20.3274 191.08 18.3726C191.821 15.5941 194.119 13.4922 196.973 12.9818C198.628 12.6411 200.315 12.4787 202.004 12.4976C202.919 12.4907 203.833 12.5359 204.742 12.6329C205.538 12.7233 206.474 12.8607 207.552 13.0459C208.438 13.1833 208.884 13.6441 208.889 14.4274V19.8111C208.894 20.5944 208.405 20.9839 207.423 20.9789ZM237.039 66.5333C235.961 66.7185 235.025 66.8559 234.229 66.9464C233.32 67.0429 232.406 67.0881 231.491 67.0817C229.803 67.1001 228.118 66.9498 226.461 66.633C225.096 66.385 223.826 65.7718 222.788 64.8598C221.733 63.8685 220.958 62.6216 220.539 61.2423C219.972 59.2875 219.713 57.2579 219.77 55.2248V35.0291L214.164 34.1247C213.788 34.0329 213.438 33.8548 213.144 33.6048C212.854 33.3778 212.687 33.0307 212.691 32.6648V28.0717C212.737 27.2851 213.37 26.6575 214.164 26.6118H219.777V20.9148C219.767 20.5659 219.921 20.2312 220.194 20.0104C220.478 19.7771 220.812 19.6115 221.171 19.5262L229.68 18.0664H229.889C230.219 18.0521 230.543 18.1646 230.794 18.3797C231.035 18.604 231.163 18.9216 231.146 19.2485V26.6118H236.896C237.273 26.6178 237.63 26.7806 237.88 27.0604C238.152 27.3165 238.305 27.6718 238.304 28.0432V33.7401C238.293 34.0966 238.141 34.4344 237.88 34.6801C237.625 34.9494 237.268 35.1016 236.896 35.1003H231.146V55.3317C231.069 56.2389 231.189 57.152 231.498 58.0092C231.733 58.403 232.387 58.6003 233.46 58.6003H236.903C237.885 58.6003 238.376 58.992 238.376 59.7753V65.1589C238.371 65.9373 237.925 66.3959 237.039 66.5333ZM280.619 27.8651C280.638 27.9207 280.638 27.9805 280.619 28.0361C280.601 28.0915 280.601 28.1515 280.619 28.207L268.783 69.1753C268.295 70.8875 267.661 72.5552 266.886 74.1601C266.234 75.5091 265.301 76.7057 264.148 77.6709C262.879 78.6769 261.409 79.4051 259.836 79.8073C257.722 80.334 255.546 80.5735 253.368 80.5194C252.711 80.5194 251.993 80.4838 251.212 80.4126C250.43 80.3414 249.635 80.2609 248.826 80.1704C248.074 80.0823 247.326 79.9659 246.583 79.8215C246.015 79.7147 245.453 79.5744 244.902 79.4014C244.552 79.2749 244.211 79.125 243.881 78.9527C243.584 78.7987 243.407 78.4863 243.428 78.1551V72.5223C243.422 72.1622 243.578 71.8181 243.852 71.5823C244.119 71.3347 244.471 71.1972 244.837 71.1977H244.981L246.979 71.3401C247.75 71.3879 248.545 71.4448 249.365 71.5111C250.184 71.5773 250.979 71.6343 251.751 71.682C252.519 71.7247 253.188 71.7532 253.748 71.7532C254.787 71.8146 255.819 71.5478 256.695 70.9912C257.545 70.2414 258.134 69.2443 258.377 68.1427L259.009 66.0064H257.96C257.335 66.0105 256.712 65.9533 256.098 65.8354C255.473 65.7011 254.886 65.4284 254.381 65.0379C253.728 64.5127 253.19 63.8609 252.8 63.1223C252.203 61.9937 251.744 60.7983 251.434 59.5617L242.192 28.2141C242.142 28.0574 242.118 27.8936 242.12 27.7298C242.12 26.9892 242.6 26.6189 243.558 26.6189H252.9C253.237 26.6042 253.562 26.7465 253.777 27.0035C253.996 27.2798 254.151 27.6009 254.23 27.9435L260.547 54.0926C260.734 54.9756 261.014 55.4171 261.388 55.4171H262.02L268.546 27.9506C268.63 27.5945 268.812 27.2698 269.07 27.0106C269.32 26.7585 269.663 26.6193 270.019 26.6261H279.362C279.712 26.617 280.051 26.7419 280.31 26.975C280.535 27.2157 280.647 27.5383 280.619 27.8651Z" fill="black"/>
<path d="M32.3403 54.5555L32.7356 54.9472C32.6012 54.8098 32.4697 54.6787 32.3403 54.5555ZM22.3364 54.9757L22.782 54.5342C22.6289 54.6716 22.4802 54.819 22.3364 54.9757Z" fill="#00B8A9"/>
<g opacity="0.197">
<path d="M91.478 29.4781C100.012 50.663 91.9667 74.8616 72.3944 86.8701C52.8229 98.8793 27.3748 95.2318 12.0398 78.22L10.5866 79.6599C7.91301 82.2922 3.67623 82.5304 0.719288 80.2146C0.940639 80.0416 1.15121 79.8564 1.35172 79.6599L21.8626 59.3644L22.3139 58.9179C25.0397 56.4217 29.2442 56.4217 31.9699 58.9179L32.3623 59.3139L41.6598 68.5252C41.7129 68.5736 41.7697 68.6177 41.8229 68.6662C44.772 71.3188 49.2995 71.2241 52.1329 68.4504L91.478 29.4781ZM22.7135 6.89534C40.5121 -3.87905 63.3248 -1.87372 78.93 11.8389L79.5768 11.198C82.2727 8.54339 86.5533 8.32609 89.5088 10.6938C89.253 10.8911 89.0101 11.1054 88.783 11.3347L51.7255 48.0531C48.9884 50.5988 44.726 50.5988 41.9889 48.0531L32.6383 38.787C32.5513 38.6937 32.4859 38.5854 32.399 38.4993C29.474 35.6408 24.7739 35.6408 21.8489 38.4993C21.754 38.5854 21.6958 38.6937 21.6089 38.787L1.49689 58.7164C-3.69478 38.6987 4.9156 17.6704 22.7135 6.89534Z" fill="#01BAAB"/>
</g>
<mask id="mask0_214_84" style="mask-type:alpha" maskUnits="userSpaceOnUse" x="0" y="0" width="95" height="94">
<path d="M91.478 29.4781C100.012 50.663 91.9667 74.8616 72.3944 86.8701C52.8229 98.8793 27.3748 95.2318 12.0398 78.22L10.5866 79.6599C7.91301 82.2922 3.67623 82.5304 0.719288 80.2146C0.940639 80.0416 1.15121 79.8564 1.35172 79.6599L21.8626 59.3644L22.3139 58.9179C25.0397 56.4217 29.2442 56.4217 31.9699 58.9179L32.3623 59.3139L41.6598 68.5252C41.7129 68.5736 41.7697 68.6177 41.8229 68.6662C44.772 71.3188 49.2995 71.2241 52.1329 68.4504L91.478 29.4781ZM22.7135 6.89534C40.5121 -3.87905 63.3248 -1.87372 78.93 11.8389L79.5768 11.198C82.2727 8.54339 86.5533 8.32609 89.5088 10.6938C89.253 10.8911 89.0101 11.1054 88.783 11.3347L51.7255 48.0531C48.9884 50.5988 44.726 50.5988 41.9889 48.0531L32.6383 38.787C32.5513 38.6937 32.4859 38.5854 32.399 38.4993C29.474 35.6408 24.7739 35.6408 21.8489 38.4993C21.754 38.5854 21.6958 38.6937 21.6089 38.787L1.49689 58.7164C-3.69478 38.6987 4.9156 17.6704 22.7135 6.89534Z" fill="white"/>
</mask>
<g mask="url(#mask0_214_84)">
<path d="M-13.5952 113.759C23.947 113.759 54.381 83.7361 54.381 46.7012C54.381 9.66627 23.947 -20.3564 -13.5952 -20.3564C-51.1373 -20.3564 -81.5713 9.66627 -81.5713 46.7012C-81.5713 83.7361 -51.1373 113.759 -13.5952 113.759Z" fill="url(#paint0_linear_214_84)"/>
</g>
<mask id="mask1_214_84" style="mask-type:alpha" maskUnits="userSpaceOnUse" x="0" y="0" width="95" height="94">
<path d="M91.478 29.4781C100.012 50.663 91.9667 74.8616 72.3944 86.8701C52.8229 98.8793 27.3748 95.2318 12.0398 78.22L10.5866 79.6599C7.91301 82.2922 3.67623 82.5304 0.719288 80.2146C0.940639 80.0416 1.15121 79.8564 1.35172 79.6599L21.8626 59.3644L22.3139 58.9179C25.0397 56.4217 29.2442 56.4217 31.9699 58.9179L32.3623 59.3139L41.6598 68.5252C41.7129 68.5736 41.7697 68.6177 41.8229 68.6662C44.772 71.3188 49.2995 71.2241 52.1329 68.4504L91.478 29.4781ZM22.7135 6.89534C40.5121 -3.87905 63.3248 -1.87372 78.93 11.8389L79.5768 11.198C82.2727 8.54339 86.5533 8.32609 89.5088 10.6938C89.253 10.8911 89.0101 11.1054 88.783 11.3347L51.7255 48.0531C48.9884 50.5988 44.726 50.5988 41.9889 48.0531L32.6383 38.787C32.5513 38.6937 32.4859 38.5854 32.399 38.4993C29.474 35.6408 24.7739 35.6408 21.8489 38.4993C21.754 38.5854 21.6958 38.6937 21.6089 38.787L1.49689 58.7164C-3.69478 38.6987 4.9156 17.6704 22.7135 6.89534Z" fill="white"/>
</mask>
<g mask="url(#mask1_214_84)">
<path opacity="0.3" d="M77.6438 137.109C108.845 137.109 134.139 112.045 134.139 81.128C134.139 50.2108 108.845 25.1475 77.6438 25.1475C46.4423 25.1475 21.1484 50.2108 21.1484 81.128C21.1484 112.045 46.4423 137.109 77.6438 137.109Z" fill="url(#paint1_linear_214_84)"/>
</g>
<mask id="mask2_214_84" style="mask-type:alpha" maskUnits="userSpaceOnUse" x="0" y="0" width="95" height="94">
<path d="M91.478 29.4781C100.012 50.663 91.9667 74.8616 72.3944 86.8701C52.8229 98.8793 27.3748 95.2318 12.0398 78.22L10.5866 79.6599C7.91301 82.2922 3.67623 82.5304 0.719288 80.2146C0.940639 80.0416 1.15121 79.8564 1.35172 79.6599L21.8626 59.3644L22.3139 58.9179C25.0397 56.4217 29.2442 56.4217 31.9699 58.9179L32.3623 59.3139L41.6598 68.5252C41.7129 68.5736 41.7697 68.6177 41.8229 68.6662C44.772 71.3188 49.2995 71.2241 52.1329 68.4504L91.478 29.4781ZM22.7135 6.89534C40.5121 -3.87905 63.3248 -1.87372 78.93 11.8389L79.5768 11.198C82.2727 8.54339 86.5533 8.32609 89.5088 10.6938C89.253 10.8911 89.0101 11.1054 88.783 11.3347L51.7255 48.0531C48.9884 50.5988 44.726 50.5988 41.9889 48.0531L32.6383 38.787C32.5513 38.6937 32.4859 38.5854 32.399 38.4993C29.474 35.6408 24.7739 35.6408 21.8489 38.4993C21.754 38.5854 21.6958 38.6937 21.6089 38.787L1.49689 58.7164C-3.69478 38.6987 4.9156 17.6704 22.7135 6.89534Z" fill="white"/>
</mask>
<g mask="url(#mask2_214_84)">
<path opacity="0.5" d="M71.6206 115.555C96.8158 115.555 117.24 95.3161 117.24 70.3505C117.24 45.385 96.8158 25.1465 71.6206 25.1465C46.4255 25.1465 6.04199 65.3564 6.04199 90.3212C6.04199 115.287 46.4255 115.555 71.6206 115.555Z" fill="#01BBAC"/>
</g>
</g>
<defs>
<linearGradient id="paint0_linear_214_84" x1="32.3988" y1="6.24799" x2="32.3988" y2="87.4065" gradientUnits="userSpaceOnUse">
<stop stop-color="#0EE3D1"/>
<stop offset="1" stop-color="#019B8E"/>
</linearGradient>
<linearGradient id="paint1_linear_214_84" x1="77.6438" y1="25.1475" x2="77.6438" y2="137.109" gradientUnits="userSpaceOnUse">
<stop stop-color="#01BFAF"/>
<stop offset="1" stop-color="#019B8E"/>
</linearGradient>
<clipPath id="clip0_214_84">
<rect width="281" height="94" fill="white"/>
</clipPath>
</defs>
</svg>
