<svg width="398" height="399" viewBox="0 0 398 399" fill="none" xmlns="http://www.w3.org/2000/svg">
<path d="M199.006 398.913C308.908 398.913 398 309.624 398 199.48C398 89.3362 308.908 0.046875 199.006 0.046875C89.1048 0.046875 0.012207 89.3362 0.012207 199.48C0.012207 309.624 89.1048 398.913 199.006 398.913Z" fill="#274D5B"/>
<path d="M282.924 95.8982L126.622 252.545C120.067 259.115 120.067 269.767 126.622 276.337L153.288 303.062C159.843 309.632 170.472 309.632 177.027 303.062L333.329 146.414C339.885 139.845 339.885 129.193 333.329 122.623L306.664 95.8983C300.108 89.3283 289.48 89.3282 282.924 95.8982Z" fill="#DD5B6D"/>
<path d="M91.3512 163.747L64.6857 190.471C58.1302 197.041 58.1302 207.693 64.6857 214.263L153.214 302.987C159.77 309.557 170.398 309.557 176.954 302.987L203.619 276.263C210.175 269.693 210.175 259.041 203.619 252.471L115.091 163.747C108.535 157.177 97.9066 157.177 91.3512 163.747Z" fill="#91BAB4"/>
</svg>
