<svg width="375" height="414" viewBox="0 0 375 414" fill="none" xmlns="http://www.w3.org/2000/svg">
<g filter="url(#filter0_d_1501_17)">
<rect x="4" width="363" height="400" rx="20" fill="#274D5B"/>
</g>
<g filter="url(#filter1_d_1501_17)">
<rect x="120" y="37" width="131" height="32" rx="6" fill="white"/>
</g>
<g filter="url(#filter2_d_1501_17)">
<rect x="32" y="213" width="131" height="32" rx="6" fill="white"/>
</g>
<g filter="url(#filter3_d_1501_17)">
<rect x="32" y="261" width="131" height="32" rx="6" fill="white"/>
</g>
<g filter="url(#filter4_d_1501_17)">
<rect x="120" y="340" width="131" height="32" rx="6" fill="white"/>
</g>
<g filter="url(#filter5_d_1501_17)">
<rect x="199" y="213" width="131" height="32" rx="6" fill="white"/>
</g>
<g filter="url(#filter6_d_1501_17)">
<rect x="199" y="261" width="131" height="32" rx="6" fill="white"/>
</g>
<g filter="url(#filter7_d_1501_17)">
<rect x="120" y="85" width="131" height="32" rx="6" fill="white"/>
</g>
<g filter="url(#filter8_d_1501_17)">
<rect x="120" y="133" width="131" height="32" rx="6" fill="white"/>
</g>
<path d="M162.302 48.3H166.022V60H168.822V48.3H172.542V46.04H162.302V48.3ZM173.865 54.42C173.865 57.88 176.105 60.18 178.905 60.18C180.665 60.18 181.925 59.34 182.585 58.38V60H185.405V48.92H182.585V50.5C181.925 49.58 180.705 48.74 178.925 48.74C176.105 48.74 173.865 50.96 173.865 54.42ZM182.585 54.46C182.585 56.56 181.185 57.72 179.645 57.72C178.145 57.72 176.725 56.52 176.725 54.42C176.725 52.32 178.145 51.2 179.645 51.2C181.185 51.2 182.585 52.36 182.585 54.46ZM196.74 56.84C196.66 52.78 190.52 54.04 190.52 52.02C190.52 51.38 191.06 50.96 192.1 50.96C193.2 50.96 193.88 51.54 193.96 52.4H196.64C196.48 50.2 194.86 48.74 192.18 48.74C189.44 48.74 187.8 50.22 187.8 52.06C187.8 56.12 194.06 54.86 194.06 56.84C194.06 57.48 193.46 57.98 192.36 57.98C191.24 57.98 190.46 57.34 190.36 56.5H187.54C187.66 58.56 189.6 60.18 192.38 60.18C195.08 60.18 196.74 58.74 196.74 56.84ZM199.038 60H201.838V55.28L205.598 60H209.238L204.318 54.48L209.198 48.92H205.558L201.838 53.62V45.2H199.038V60Z" fill="#333333"/>
<path d="M154.328 100.38V96.32H156.548C158.128 96.32 158.828 97.08 158.828 98.36C158.828 99.6 158.128 100.38 156.548 100.38H154.328ZM161.708 98.36C161.708 95.94 160.028 94.04 156.668 94.04H151.528V108H154.328V102.64H156.668C160.268 102.64 161.708 100.48 161.708 98.36ZM166.496 102.48C166.496 100.34 167.496 99.7 169.156 99.7H169.896V96.76C168.356 96.76 167.196 97.5 166.496 98.64V96.92H163.696V108H166.496V102.48ZM182.482 102.46C182.482 98.96 179.982 96.74 176.782 96.74C173.582 96.74 171.082 98.96 171.082 102.46C171.082 105.94 173.502 108.18 176.702 108.18C179.922 108.18 182.482 105.94 182.482 102.46ZM173.922 102.46C173.922 100.24 175.262 99.18 176.742 99.18C178.222 99.18 179.602 100.24 179.602 102.46C179.602 104.66 178.182 105.74 176.702 105.74C175.202 105.74 173.922 104.66 173.922 102.46ZM185.956 95.6C186.936 95.6 187.656 94.88 187.656 93.96C187.656 93.04 186.936 92.32 185.956 92.32C184.936 92.32 184.216 93.04 184.216 93.96C184.216 94.88 184.936 95.6 185.956 95.6ZM184.536 96.92V109.84C184.536 110.58 184.236 110.9 183.376 110.9H182.576V113.28H183.816C185.956 113.28 187.336 112.38 187.336 109.82V96.92H184.536ZM194.863 99.04C196.303 99.04 197.463 99.96 197.503 101.42H192.243C192.463 99.9 193.523 99.04 194.863 99.04ZM200.123 104.52H197.103C196.743 105.26 196.083 105.86 194.883 105.86C193.483 105.86 192.363 104.94 192.223 103.3H200.323C200.383 102.94 200.403 102.58 200.403 102.22C200.403 98.92 198.143 96.74 194.943 96.74C191.663 96.74 189.383 98.96 189.383 102.46C189.383 105.94 191.723 108.18 194.943 108.18C197.683 108.18 199.523 106.56 200.123 104.52ZM201.726 102.46C201.726 105.94 204.006 108.18 207.206 108.18C209.966 108.18 211.826 106.62 212.426 104.26H209.406C209.066 105.26 208.346 105.78 207.186 105.78C205.626 105.78 204.586 104.62 204.586 102.46C204.586 100.3 205.626 99.12 207.186 99.12C208.346 99.12 209.086 99.72 209.406 100.66H212.426C211.826 98.18 209.966 96.74 207.206 96.74C204.006 96.74 201.726 98.98 201.726 102.46ZM214.918 104.56C214.918 107.1 216.338 108 218.458 108H220.218V105.64H218.918C218.038 105.64 217.738 105.32 217.738 104.58V99.22H220.218V96.92H217.738V94.18H214.918V96.92H213.598V99.22H214.918V104.56Z" fill="#333333"/>
<path d="M151.31 151.88C151.31 153.06 150.51 153.72 149.15 153.72H146.33V149.96H149.09C150.45 149.96 151.31 150.68 151.31 151.88ZM150.97 146.06C150.97 147.2 150.21 147.8 148.89 147.8H146.33V144.3H148.89C150.21 144.3 150.97 144.94 150.97 146.06ZM154.15 152.22C154.15 150.58 153.03 149.12 151.45 148.84C152.81 148.4 153.83 147.34 153.83 145.64C153.83 143.56 152.21 142.04 149.29 142.04H143.53V156H149.55C152.45 156 154.15 154.44 154.15 152.22ZM156.382 156H159.182V144.92H156.382V156ZM157.802 143.6C158.782 143.6 159.522 142.88 159.522 141.96C159.522 141.04 158.782 140.32 157.802 140.32C156.802 140.32 156.082 141.04 156.082 141.96C156.082 142.88 156.802 143.6 157.802 143.6ZM164.748 150.48C164.748 148.34 165.748 147.7 167.408 147.7H168.148V144.76C166.608 144.76 165.448 145.5 164.748 146.64V144.92H161.948V156H164.748V150.48ZM170.474 152.56C170.474 155.1 171.894 156 174.014 156H175.774V153.64H174.474C173.594 153.64 173.294 153.32 173.294 152.58V147.22H175.774V144.92H173.294V142.18H170.474V144.92H169.154V147.22H170.474V152.56ZM177.788 156H180.588V149.88C180.588 148.1 181.568 147.14 183.088 147.14C184.568 147.14 185.548 148.1 185.548 149.88V156H188.348V149.5C188.348 146.44 186.528 144.76 184.028 144.76C182.548 144.76 181.308 145.36 180.588 146.3V141.2H177.788V156ZM190.291 150.42C190.291 153.88 192.531 156.18 195.351 156.18C197.091 156.18 198.331 155.38 198.991 154.36V156H201.831V141.2H198.991V146.46C198.231 145.42 196.831 144.74 195.371 144.74C192.531 144.74 190.291 146.96 190.291 150.42ZM199.011 150.46C199.011 152.56 197.611 153.72 196.071 153.72C194.571 153.72 193.151 152.52 193.151 150.42C193.151 148.32 194.571 147.2 196.071 147.2C197.611 147.2 199.011 148.36 199.011 150.46ZM203.846 150.42C203.846 153.88 206.086 156.18 208.886 156.18C210.646 156.18 211.906 155.34 212.566 154.38V156H215.386V144.92H212.566V146.5C211.906 145.58 210.686 144.74 208.906 144.74C206.086 144.74 203.846 146.96 203.846 150.42ZM212.566 150.46C212.566 152.56 211.166 153.72 209.626 153.72C208.126 153.72 206.706 152.52 206.706 150.42C206.706 148.32 208.126 147.2 209.626 147.2C211.166 147.2 212.566 148.36 212.566 150.46ZM222.84 152.66L219.98 144.92H216.84L221.28 155.72L218.88 161.24H221.86L228.72 144.92H225.74L222.84 152.66Z" fill="#333333"/>
<path d="M63.0546 231.704C63.0546 232.648 62.4146 233.176 61.3266 233.176H59.0706V230.168H61.2786C62.3666 230.168 63.0546 230.744 63.0546 231.704ZM62.7826 227.048C62.7826 227.96 62.1746 228.44 61.1186 228.44H59.0706V225.64H61.1186C62.1746 225.64 62.7826 226.152 62.7826 227.048ZM65.3266 231.976C65.3266 230.664 64.4306 229.496 63.1666 229.272C64.2546 228.92 65.0706 228.072 65.0706 226.712C65.0706 225.048 63.7746 223.832 61.4386 223.832H56.8306V235H61.6466C63.9666 235 65.3266 233.752 65.3266 231.976ZM75.4798 226.136H73.2238V231.016C73.2238 232.44 72.4558 233.208 71.2398 233.208C70.0558 233.208 69.2718 232.44 69.2718 231.016V226.136H67.0318V231.336C67.0318 233.768 68.5198 235.112 70.5838 235.112C71.6878 235.112 72.6638 234.632 73.2238 233.88V235H75.4798V226.136ZM77.1139 230.568C77.1139 233.352 78.9379 235.144 81.4979 235.144C83.7059 235.144 85.1939 233.896 85.6739 232.008H83.2579C82.9859 232.808 82.4099 233.224 81.4819 233.224C80.2339 233.224 79.4019 232.296 79.4019 230.568C79.4019 228.84 80.2339 227.896 81.4819 227.896C82.4099 227.896 83.0019 228.376 83.2579 229.128H85.6739C85.1939 227.144 83.7059 225.992 81.4979 225.992C78.9379 225.992 77.1139 227.784 77.1139 230.568ZM87.3149 235H89.5549V231.224L92.5629 235H95.4749L91.5389 230.584L95.4429 226.136H92.5309L89.5549 229.896V223.16H87.3149V235ZM100.467 227.832C101.619 227.832 102.547 228.568 102.579 229.736H98.3707C98.5467 228.52 99.3947 227.832 100.467 227.832ZM104.675 232.216H102.259C101.971 232.808 101.443 233.288 100.483 233.288C99.3627 233.288 98.4667 232.552 98.3547 231.24H104.835C104.883 230.952 104.899 230.664 104.899 230.376C104.899 227.736 103.091 225.992 100.531 225.992C97.9067 225.992 96.0827 227.768 96.0827 230.568C96.0827 233.352 97.9547 235.144 100.531 235.144C102.723 235.144 104.195 233.848 104.675 232.216ZM106.886 232.248C106.886 234.28 108.022 235 109.718 235H111.126V233.112H110.086C109.382 233.112 109.142 232.856 109.142 232.264V227.976H111.126V226.136H109.142V223.944H106.886V226.136H105.83V227.976H106.886V232.248ZM116.549 235H118.789V223.16H116.549V235ZM121.002 235H123.242V226.136H121.002V235ZM122.138 225.08C122.922 225.08 123.514 224.504 123.514 223.768C123.514 223.032 122.922 222.456 122.138 222.456C121.338 222.456 120.762 223.032 120.762 223.768C120.762 224.504 121.338 225.08 122.138 225.08ZM132.336 232.472C132.272 229.224 127.36 230.232 127.36 228.616C127.36 228.104 127.792 227.768 128.624 227.768C129.504 227.768 130.048 228.232 130.112 228.92H132.256C132.128 227.16 130.832 225.992 128.688 225.992C126.496 225.992 125.184 227.176 125.184 228.648C125.184 231.896 130.192 230.888 130.192 232.472C130.192 232.984 129.712 233.384 128.832 233.384C127.936 233.384 127.312 232.872 127.232 232.2H124.976C125.072 233.848 126.624 235.144 128.848 235.144C131.008 235.144 132.336 233.992 132.336 232.472ZM134.526 232.248C134.526 234.28 135.662 235 137.358 235H138.766V233.112H137.726C137.022 233.112 136.782 232.856 136.782 232.264V227.976H138.766V226.136H136.782V223.944H134.526V226.136H133.47V227.976H134.526V232.248Z" fill="#333333"/>
<path d="M68.9302 283H71.2982L67.2822 271.816H64.6742L60.6582 283H63.0102L63.7462 280.872H68.1942L68.9302 283ZM67.5862 279.08H64.3542L65.9702 274.408L67.5862 279.08ZM79.6793 280.472C79.6153 277.224 74.7033 278.232 74.7033 276.616C74.7033 276.104 75.1353 275.768 75.9673 275.768C76.8473 275.768 77.3913 276.232 77.4553 276.92H79.5993C79.4713 275.16 78.1753 273.992 76.0313 273.992C73.8393 273.992 72.5273 275.176 72.5273 276.648C72.5273 279.896 77.5353 278.888 77.5353 280.472C77.5353 280.984 77.0553 281.384 76.1753 281.384C75.2793 281.384 74.6553 280.872 74.5753 280.2H72.3193C72.4153 281.848 73.9673 283.144 76.1913 283.144C78.3513 283.144 79.6793 281.992 79.6793 280.472ZM88.3981 280.472C88.3341 277.224 83.4221 278.232 83.4221 276.616C83.4221 276.104 83.8541 275.768 84.6861 275.768C85.5661 275.768 86.1101 276.232 86.1741 276.92H88.3181C88.1901 275.16 86.8941 273.992 84.7501 273.992C82.5581 273.992 81.2461 275.176 81.2461 276.648C81.2461 279.896 86.2541 278.888 86.2541 280.472C86.2541 280.984 85.7741 281.384 84.8941 281.384C83.9981 281.384 83.3741 280.872 83.2941 280.2H81.0381C81.1341 281.848 82.6861 283.144 84.9101 283.144C87.0701 283.144 88.3981 281.992 88.3981 280.472ZM90.2368 283H92.4768V274.136H90.2368V283ZM91.3728 273.08C92.1568 273.08 92.7488 272.504 92.7488 271.768C92.7488 271.032 92.1568 270.456 91.3728 270.456C90.5728 270.456 89.9968 271.032 89.9968 271.768C89.9968 272.504 90.5728 273.08 91.3728 273.08ZM94.1139 278.536C94.1139 281.304 95.9059 283.144 98.1619 283.144C99.5539 283.144 100.562 282.456 101.09 281.688V283.064C101.09 284.712 100.13 285.416 98.8979 285.416C97.7779 285.416 96.9459 284.888 96.7219 284.088H94.4979C94.7219 286.12 96.4659 287.368 98.9619 287.368C101.874 287.368 103.346 285.464 103.346 283.064V274.136H101.09V275.4C100.562 274.632 99.5539 273.992 98.1619 273.992C95.9059 273.992 94.1139 275.768 94.1139 278.536ZM101.09 278.568C101.09 280.248 99.9699 281.176 98.7379 281.176C97.5379 281.176 96.4019 280.216 96.4019 278.536C96.4019 276.856 97.5379 275.96 98.7379 275.96C99.9699 275.96 101.09 276.888 101.09 278.568ZM111.742 283H113.982V277.8C113.982 275.352 112.51 274.008 110.446 274.008C109.31 274.008 108.35 274.488 107.774 275.24V274.136H105.534V283H107.774V278.104C107.774 276.68 108.558 275.912 109.774 275.912C110.958 275.912 111.742 276.68 111.742 278.104V283ZM119.92 275.832C121.072 275.832 122 276.568 122.032 277.736H117.824C118 276.52 118.848 275.832 119.92 275.832ZM124.128 280.216H121.712C121.424 280.808 120.896 281.288 119.936 281.288C118.816 281.288 117.92 280.552 117.808 279.24H124.288C124.336 278.952 124.352 278.664 124.352 278.376C124.352 275.736 122.544 273.992 119.984 273.992C117.36 273.992 115.536 275.768 115.536 278.568C115.536 281.352 117.408 283.144 119.984 283.144C122.176 283.144 123.648 281.848 124.128 280.216ZM129.795 275.832C130.947 275.832 131.875 276.568 131.907 277.736H127.699C127.875 276.52 128.723 275.832 129.795 275.832ZM134.003 280.216H131.587C131.299 280.808 130.771 281.288 129.811 281.288C128.691 281.288 127.795 280.552 127.683 279.24H134.163C134.211 278.952 134.227 278.664 134.227 278.376C134.227 275.736 132.419 273.992 129.859 273.992C127.235 273.992 125.411 275.768 125.411 278.568C125.411 281.352 127.283 283.144 129.859 283.144C132.051 283.144 133.523 281.848 134.003 280.216Z" fill="#333333"/>
<path d="M174.893 350.816V358.496L169.821 350.816H167.581V362H169.821V354.336L174.893 362H177.133V350.816H174.893ZM187.906 357.568C187.906 354.768 185.906 352.992 183.346 352.992C180.786 352.992 178.786 354.768 178.786 357.568C178.786 360.352 180.722 362.144 183.282 362.144C185.858 362.144 187.906 360.352 187.906 357.568ZM181.058 357.568C181.058 355.792 182.13 354.944 183.314 354.944C184.498 354.944 185.602 355.792 185.602 357.568C185.602 359.328 184.466 360.192 183.282 360.192C182.082 360.192 181.058 359.328 181.058 357.568ZM189.901 359.248C189.901 361.28 191.037 362 192.733 362H194.141V360.112H193.101C192.397 360.112 192.157 359.856 192.157 359.264V354.976H194.141V353.136H192.157V350.944H189.901V353.136H188.845V354.976H189.901V359.248ZM199.56 354.832C200.712 354.832 201.64 355.568 201.672 356.736H197.464C197.64 355.52 198.488 354.832 199.56 354.832ZM203.768 359.216H201.352C201.064 359.808 200.536 360.288 199.576 360.288C198.456 360.288 197.56 359.552 197.448 358.24H203.928C203.976 357.952 203.992 357.664 203.992 357.376C203.992 354.736 202.184 352.992 199.624 352.992C197 352.992 195.176 354.768 195.176 357.568C195.176 360.352 197.048 362.144 199.624 362.144C201.816 362.144 203.288 360.848 203.768 359.216Z" fill="#333333"/>
<path d="M251.865 271.688C248.633 271.688 246.169 274.056 246.169 277.4C246.169 280.744 248.633 283.096 251.881 283.096C254.857 283.096 256.889 281.016 257.337 278.744V276.792H251.289V278.504H255.129C254.793 280.088 253.689 281.08 251.961 281.08C249.881 281.08 248.473 279.672 248.473 277.4C248.473 275.176 249.865 273.752 251.865 273.752C253.049 273.752 253.977 274.248 254.489 275.192H257.065C256.345 272.952 254.361 271.688 251.865 271.688ZM267.555 278.568C267.555 275.768 265.555 273.992 262.995 273.992C260.435 273.992 258.435 275.768 258.435 278.568C258.435 281.352 260.371 283.144 262.931 283.144C265.507 283.144 267.555 281.352 267.555 278.568ZM260.707 278.568C260.707 276.792 261.779 275.944 262.963 275.944C264.147 275.944 265.251 276.792 265.251 278.568C265.251 280.328 264.115 281.192 262.931 281.192C261.731 281.192 260.707 280.328 260.707 278.568ZM268.622 278.536C268.622 281.304 270.414 283.144 272.654 283.144C274.062 283.144 275.07 282.472 275.598 281.704V283H277.854V274.136H275.598V275.4C275.07 274.664 274.094 273.992 272.67 273.992C270.414 273.992 268.622 275.768 268.622 278.536ZM275.598 278.568C275.598 280.248 274.478 281.176 273.246 281.176C272.046 281.176 270.91 280.216 270.91 278.536C270.91 276.856 272.046 275.96 273.246 275.96C274.478 275.96 275.598 276.888 275.598 278.568ZM280.042 283H282.282V271.16H280.042V283Z" fill="#333333"/>
<path d="M220.545 231.768C220.545 227.832 214.817 229.08 214.817 226.84C214.817 225.928 215.473 225.496 216.353 225.528C217.313 225.544 217.905 226.12 217.953 226.856H220.417C220.273 224.84 218.705 223.672 216.417 223.672C214.113 223.672 212.481 224.888 212.481 226.904C212.465 230.952 218.225 229.496 218.225 231.912C218.225 232.712 217.601 233.272 216.545 233.272C215.505 233.272 214.913 232.68 214.849 231.784H212.449C212.481 233.896 214.273 235.112 216.593 235.112C219.137 235.112 220.545 233.528 220.545 231.768ZM222.487 235H224.727V230.104C224.727 228.68 225.511 227.912 226.727 227.912C227.911 227.912 228.695 228.68 228.695 230.104V235H230.935V229.8C230.935 227.352 229.479 226.008 227.479 226.008C226.295 226.008 225.303 226.488 224.727 227.24V223.16H222.487V235ZM241.625 230.568C241.625 227.768 239.625 225.992 237.065 225.992C234.505 225.992 232.505 227.768 232.505 230.568C232.505 233.352 234.441 235.144 237.001 235.144C239.577 235.144 241.625 233.352 241.625 230.568ZM234.777 230.568C234.777 228.792 235.849 227.944 237.033 227.944C238.217 227.944 239.321 228.792 239.321 230.568C239.321 232.328 238.185 233.192 237.001 233.192C235.801 233.192 234.777 232.328 234.777 230.568ZM245.508 227.416V226.136H243.268V239.224H245.508V233.736C246.052 234.456 247.044 235.144 248.436 235.144C250.708 235.144 252.484 233.304 252.484 230.536C252.484 227.768 250.708 225.992 248.436 225.992C247.06 225.992 246.036 226.664 245.508 227.416ZM250.196 230.536C250.196 232.216 249.06 233.176 247.844 233.176C246.644 233.176 245.508 232.248 245.508 230.568C245.508 228.888 246.644 227.96 247.844 227.96C249.06 227.96 250.196 228.856 250.196 230.536ZM256.352 227.416V226.136H254.112V239.224H256.352V233.736C256.896 234.456 257.888 235.144 259.28 235.144C261.552 235.144 263.328 233.304 263.328 230.536C263.328 227.768 261.552 225.992 259.28 225.992C257.904 225.992 256.88 226.664 256.352 227.416ZM261.04 230.536C261.04 232.216 259.904 233.176 258.688 233.176C257.488 233.176 256.352 232.248 256.352 230.568C256.352 228.888 257.488 227.96 258.688 227.96C259.904 227.96 261.04 228.856 261.04 230.536ZM264.956 235H267.196V226.136H264.956V235ZM266.092 225.08C266.876 225.08 267.468 224.504 267.468 223.768C267.468 223.032 266.876 222.456 266.092 222.456C265.292 222.456 264.716 223.032 264.716 223.768C264.716 224.504 265.292 225.08 266.092 225.08ZM275.617 235H277.857V229.8C277.857 227.352 276.385 226.008 274.321 226.008C273.185 226.008 272.225 226.488 271.649 227.24V226.136H269.409V235H271.649V230.104C271.649 228.68 272.433 227.912 273.649 227.912C274.833 227.912 275.617 228.68 275.617 230.104V235ZM279.411 230.536C279.411 233.304 281.203 235.144 283.459 235.144C284.851 235.144 285.859 234.456 286.387 233.688V235.064C286.387 236.712 285.427 237.416 284.195 237.416C283.075 237.416 282.243 236.888 282.019 236.088H279.795C280.019 238.12 281.763 239.368 284.259 239.368C287.171 239.368 288.643 237.464 288.643 235.064V226.136H286.387V227.4C285.859 226.632 284.851 225.992 283.459 225.992C281.203 225.992 279.411 227.768 279.411 230.536ZM286.387 230.568C286.387 232.248 285.267 233.176 284.035 233.176C282.835 233.176 281.699 232.216 281.699 230.536C281.699 228.856 282.835 227.96 284.035 227.96C285.267 227.96 286.387 228.888 286.387 230.568ZM294.643 235H296.883V223.16H294.643V235ZM299.096 235H301.336V226.136H299.096V235ZM300.232 225.08C301.016 225.08 301.608 224.504 301.608 223.768C301.608 223.032 301.016 222.456 300.232 222.456C299.432 222.456 298.856 223.032 298.856 223.768C298.856 224.504 299.432 225.08 300.232 225.08ZM310.429 232.472C310.365 229.224 305.453 230.232 305.453 228.616C305.453 228.104 305.885 227.768 306.717 227.768C307.597 227.768 308.141 228.232 308.205 228.92H310.349C310.221 227.16 308.925 225.992 306.781 225.992C304.589 225.992 303.277 227.176 303.277 228.648C303.277 231.896 308.285 230.888 308.285 232.472C308.285 232.984 307.805 233.384 306.925 233.384C306.029 233.384 305.405 232.872 305.325 232.2H303.069C303.165 233.848 304.717 235.144 306.941 235.144C309.101 235.144 310.429 233.992 310.429 232.472ZM312.62 232.248C312.62 234.28 313.756 235 315.452 235H316.86V233.112H315.82C315.116 233.112 314.876 232.856 314.876 232.264V227.976H316.86V226.136H314.876V223.944H312.62V226.136H311.564V227.976H312.62V232.248Z" fill="#333333"/>
<defs>
<filter id="filter0_d_1501_17" x="0" y="0" width="375" height="414" filterUnits="userSpaceOnUse" color-interpolation-filters="sRGB">
<feFlood flood-opacity="0" result="BackgroundImageFix"/>
<feColorMatrix in="SourceAlpha" type="matrix" values="0 0 0 0 0 0 0 0 0 0 0 0 0 0 0 0 0 0 127 0" result="hardAlpha"/>
<feMorphology radius="2" operator="dilate" in="SourceAlpha" result="effect1_dropShadow_1501_17"/>
<feOffset dx="2" dy="8"/>
<feGaussianBlur stdDeviation="2"/>
<feColorMatrix type="matrix" values="0 0 0 0 0.152941 0 0 0 0 0.301961 0 0 0 0 0.356863 0 0 0 0.69 0"/>
<feBlend mode="normal" in2="BackgroundImageFix" result="effect1_dropShadow_1501_17"/>
<feBlend mode="normal" in="SourceGraphic" in2="effect1_dropShadow_1501_17" result="shape"/>
</filter>
<filter id="filter1_d_1501_17" x="116" y="37" width="139" height="40" filterUnits="userSpaceOnUse" color-interpolation-filters="sRGB">
<feFlood flood-opacity="0" result="BackgroundImageFix"/>
<feColorMatrix in="SourceAlpha" type="matrix" values="0 0 0 0 0 0 0 0 0 0 0 0 0 0 0 0 0 0 127 0" result="hardAlpha"/>
<feOffset dy="4"/>
<feGaussianBlur stdDeviation="2"/>
<feColorMatrix type="matrix" values="0 0 0 0 0 0 0 0 0 0 0 0 0 0 0 0 0 0 0.25 0"/>
<feBlend mode="normal" in2="BackgroundImageFix" result="effect1_dropShadow_1501_17"/>
<feBlend mode="normal" in="SourceGraphic" in2="effect1_dropShadow_1501_17" result="shape"/>
</filter>
<filter id="filter2_d_1501_17" x="28" y="213" width="139" height="40" filterUnits="userSpaceOnUse" color-interpolation-filters="sRGB">
<feFlood flood-opacity="0" result="BackgroundImageFix"/>
<feColorMatrix in="SourceAlpha" type="matrix" values="0 0 0 0 0 0 0 0 0 0 0 0 0 0 0 0 0 0 127 0" result="hardAlpha"/>
<feOffset dy="4"/>
<feGaussianBlur stdDeviation="2"/>
<feColorMatrix type="matrix" values="0 0 0 0 0 0 0 0 0 0 0 0 0 0 0 0 0 0 0.25 0"/>
<feBlend mode="normal" in2="BackgroundImageFix" result="effect1_dropShadow_1501_17"/>
<feBlend mode="normal" in="SourceGraphic" in2="effect1_dropShadow_1501_17" result="shape"/>
</filter>
<filter id="filter3_d_1501_17" x="28" y="261" width="139" height="40" filterUnits="userSpaceOnUse" color-interpolation-filters="sRGB">
<feFlood flood-opacity="0" result="BackgroundImageFix"/>
<feColorMatrix in="SourceAlpha" type="matrix" values="0 0 0 0 0 0 0 0 0 0 0 0 0 0 0 0 0 0 127 0" result="hardAlpha"/>
<feOffset dy="4"/>
<feGaussianBlur stdDeviation="2"/>
<feColorMatrix type="matrix" values="0 0 0 0 0 0 0 0 0 0 0 0 0 0 0 0 0 0 0.25 0"/>
<feBlend mode="normal" in2="BackgroundImageFix" result="effect1_dropShadow_1501_17"/>
<feBlend mode="normal" in="SourceGraphic" in2="effect1_dropShadow_1501_17" result="shape"/>
</filter>
<filter id="filter4_d_1501_17" x="116" y="340" width="139" height="40" filterUnits="userSpaceOnUse" color-interpolation-filters="sRGB">
<feFlood flood-opacity="0" result="BackgroundImageFix"/>
<feColorMatrix in="SourceAlpha" type="matrix" values="0 0 0 0 0 0 0 0 0 0 0 0 0 0 0 0 0 0 127 0" result="hardAlpha"/>
<feOffset dy="4"/>
<feGaussianBlur stdDeviation="2"/>
<feColorMatrix type="matrix" values="0 0 0 0 0 0 0 0 0 0 0 0 0 0 0 0 0 0 0.25 0"/>
<feBlend mode="normal" in2="BackgroundImageFix" result="effect1_dropShadow_1501_17"/>
<feBlend mode="normal" in="SourceGraphic" in2="effect1_dropShadow_1501_17" result="shape"/>
</filter>
<filter id="filter5_d_1501_17" x="195" y="213" width="139" height="40" filterUnits="userSpaceOnUse" color-interpolation-filters="sRGB">
<feFlood flood-opacity="0" result="BackgroundImageFix"/>
<feColorMatrix in="SourceAlpha" type="matrix" values="0 0 0 0 0 0 0 0 0 0 0 0 0 0 0 0 0 0 127 0" result="hardAlpha"/>
<feOffset dy="4"/>
<feGaussianBlur stdDeviation="2"/>
<feColorMatrix type="matrix" values="0 0 0 0 0 0 0 0 0 0 0 0 0 0 0 0 0 0 0.25 0"/>
<feBlend mode="normal" in2="BackgroundImageFix" result="effect1_dropShadow_1501_17"/>
<feBlend mode="normal" in="SourceGraphic" in2="effect1_dropShadow_1501_17" result="shape"/>
</filter>
<filter id="filter6_d_1501_17" x="195" y="261" width="139" height="40" filterUnits="userSpaceOnUse" color-interpolation-filters="sRGB">
<feFlood flood-opacity="0" result="BackgroundImageFix"/>
<feColorMatrix in="SourceAlpha" type="matrix" values="0 0 0 0 0 0 0 0 0 0 0 0 0 0 0 0 0 0 127 0" result="hardAlpha"/>
<feOffset dy="4"/>
<feGaussianBlur stdDeviation="2"/>
<feColorMatrix type="matrix" values="0 0 0 0 0 0 0 0 0 0 0 0 0 0 0 0 0 0 0.25 0"/>
<feBlend mode="normal" in2="BackgroundImageFix" result="effect1_dropShadow_1501_17"/>
<feBlend mode="normal" in="SourceGraphic" in2="effect1_dropShadow_1501_17" result="shape"/>
</filter>
<filter id="filter7_d_1501_17" x="116" y="85" width="139" height="40" filterUnits="userSpaceOnUse" color-interpolation-filters="sRGB">
<feFlood flood-opacity="0" result="BackgroundImageFix"/>
<feColorMatrix in="SourceAlpha" type="matrix" values="0 0 0 0 0 0 0 0 0 0 0 0 0 0 0 0 0 0 127 0" result="hardAlpha"/>
<feOffset dy="4"/>
<feGaussianBlur stdDeviation="2"/>
<feColorMatrix type="matrix" values="0 0 0 0 0 0 0 0 0 0 0 0 0 0 0 0 0 0 0.25 0"/>
<feBlend mode="normal" in2="BackgroundImageFix" result="effect1_dropShadow_1501_17"/>
<feBlend mode="normal" in="SourceGraphic" in2="effect1_dropShadow_1501_17" result="shape"/>
</filter>
<filter id="filter8_d_1501_17" x="116" y="133" width="139" height="40" filterUnits="userSpaceOnUse" color-interpolation-filters="sRGB">
<feFlood flood-opacity="0" result="BackgroundImageFix"/>
<feColorMatrix in="SourceAlpha" type="matrix" values="0 0 0 0 0 0 0 0 0 0 0 0 0 0 0 0 0 0 127 0" result="hardAlpha"/>
<feOffset dy="4"/>
<feGaussianBlur stdDeviation="2"/>
<feColorMatrix type="matrix" values="0 0 0 0 0 0 0 0 0 0 0 0 0 0 0 0 0 0 0.25 0"/>
<feBlend mode="normal" in2="BackgroundImageFix" result="effect1_dropShadow_1501_17"/>
<feBlend mode="normal" in="SourceGraphic" in2="effect1_dropShadow_1501_17" result="shape"/>
</filter>
</defs>
</svg>
