<svg width="370" height="376" viewBox="0 0 370 376" fill="none" xmlns="http://www.w3.org/2000/svg">
<g filter="url(#filter0_d_1501_16)">
<rect x="5" width="162" height="48" rx="20" fill="#DD5B6D"/>
</g>
<path d="M45.691 14.26V34H57.311V29.8H51.179V14.26H45.691ZM75.013 26.132C75.013 21.148 71.457 18.096 66.781 18.096C62.105 18.096 58.549 21.148 58.549 26.132C58.549 31.144 62.077 34.196 66.753 34.196C71.429 34.196 75.013 31.144 75.013 26.132ZM64.149 26.132C64.149 23.892 65.381 22.856 66.781 22.856C68.181 22.856 69.441 23.892 69.441 26.132C69.441 28.4 68.153 29.436 66.753 29.436C65.325 29.436 64.149 28.4 64.149 26.132ZM76.3497 26.132C76.3497 31.144 79.3177 34.196 83.0417 34.196C85.2537 34.196 86.8497 33.216 87.6617 31.816V33.832C87.6617 36.268 86.4017 36.968 84.8617 36.968C83.4617 36.968 82.5097 36.38 82.2857 35.372H76.8817C77.2737 39.264 80.2977 41.728 85.1977 41.728C90.8537 41.728 93.1497 38.032 93.1497 33.832V18.292H87.6617V20.476C86.8497 19.076 85.2537 18.096 83.0417 18.096C79.3177 18.096 76.3497 21.12 76.3497 26.132ZM87.6617 26.132C87.6617 28.26 86.3457 29.408 84.8057 29.408C83.2377 29.408 81.9497 28.232 81.9497 26.132C81.9497 24.004 83.2377 22.884 84.8057 22.884C86.3457 22.884 87.6617 24.032 87.6617 26.132ZM101.636 34H107.124V18.292H101.636V34ZM104.408 16.836C106.34 16.836 107.6 15.604 107.6 14.036C107.6 12.44 106.34 11.18 104.408 11.18C102.448 11.18 101.188 12.44 101.188 14.036C101.188 15.604 102.448 16.836 104.408 16.836ZM120.946 34H126.434V24.844C126.434 20.728 124.166 18.152 120.526 18.152C118.314 18.152 116.662 19.188 115.738 20.532V18.292H110.25V34H115.738V25.572C115.738 23.752 116.746 22.688 118.37 22.688C119.938 22.688 120.946 23.752 120.946 25.572V34Z" fill="white"/>
<g filter="url(#filter1_d_1501_16)">
<rect x="5" y="80" width="162" height="48" rx="16" fill="#91BAB4"/>
</g>
<path d="M22.7631 104.4C22.7631 107.744 25.2111 110.096 28.4271 110.096C30.9071 110.096 32.9231 108.784 33.6751 106.48H31.0991C30.5711 107.568 29.6111 108.096 28.4111 108.096C26.4591 108.096 25.0671 106.656 25.0671 104.4C25.0671 102.128 26.4591 100.704 28.4111 100.704C29.6111 100.704 30.5711 101.232 31.0991 102.304H33.6751C32.9231 100.016 30.9071 98.688 28.4271 98.688C25.2111 98.688 22.7631 101.056 22.7631 104.4ZM37.8284 105.584C37.8284 103.872 38.6284 103.36 39.9564 103.36H40.5484V101.008C39.3164 101.008 38.3884 101.6 37.8284 102.512V101.136H35.5884V110H37.8284V105.584ZM45.8651 102.832C47.0171 102.832 47.9451 103.568 47.9771 104.736H43.7691C43.9451 103.52 44.7931 102.832 45.8651 102.832ZM50.0731 107.216H47.6571C47.3691 107.808 46.8411 108.288 45.8811 108.288C44.7611 108.288 43.8651 107.552 43.7531 106.24H50.2331C50.2811 105.952 50.2971 105.664 50.2971 105.376C50.2971 102.736 48.4891 100.992 45.9291 100.992C43.3051 100.992 41.4811 102.768 41.4811 105.568C41.4811 108.352 43.3531 110.144 45.9291 110.144C48.1211 110.144 49.5931 108.848 50.0731 107.216ZM51.3561 105.536C51.3561 108.304 53.1481 110.144 55.3881 110.144C56.7961 110.144 57.8041 109.472 58.3321 108.704V110H60.5881V101.136H58.3321V102.4C57.8041 101.664 56.8281 100.992 55.4041 100.992C53.1481 100.992 51.3561 102.768 51.3561 105.536ZM58.3321 105.568C58.3321 107.248 57.2121 108.176 55.9801 108.176C54.7801 108.176 53.6441 107.216 53.6441 105.536C53.6441 103.856 54.7801 102.96 55.9801 102.96C57.2121 102.96 58.3321 103.888 58.3321 105.568ZM63.1279 107.248C63.1279 109.28 64.2639 110 65.9599 110H67.3679V108.112H66.3279C65.6239 108.112 65.3839 107.856 65.3839 107.264V102.976H67.3679V101.136H65.3839V98.944H63.1279V101.136H62.0719V102.976H63.1279V107.248ZM72.787 102.832C73.939 102.832 74.867 103.568 74.899 104.736H70.691C70.867 103.52 71.715 102.832 72.787 102.832ZM76.995 107.216H74.579C74.291 107.808 73.763 108.288 72.803 108.288C71.683 108.288 70.787 107.552 70.675 106.24H77.155C77.203 105.952 77.219 105.664 77.219 105.376C77.219 102.736 75.411 100.992 72.851 100.992C70.227 100.992 68.403 102.768 68.403 105.568C68.403 108.352 70.275 110.144 72.851 110.144C75.043 110.144 76.515 108.848 76.995 107.216ZM82.0905 105.536C82.0905 108.304 83.8825 110.144 86.1225 110.144C87.5305 110.144 88.5385 109.472 89.0665 108.704V110H91.3225V101.136H89.0665V102.4C88.5385 101.664 87.5625 100.992 86.1385 100.992C83.8825 100.992 82.0905 102.768 82.0905 105.536ZM89.0665 105.568C89.0665 107.248 87.9465 108.176 86.7145 108.176C85.5145 108.176 84.3785 107.216 84.3785 105.536C84.3785 103.856 85.5145 102.96 86.7145 102.96C87.9465 102.96 89.0665 103.888 89.0665 105.568ZM92.9342 105.568C92.9342 108.352 94.7582 110.144 97.3183 110.144C99.5263 110.144 101.014 108.896 101.494 107.008H99.0783C98.8063 107.808 98.2303 108.224 97.3023 108.224C96.0543 108.224 95.2223 107.296 95.2223 105.568C95.2223 103.84 96.0543 102.896 97.3023 102.896C98.2303 102.896 98.8223 103.376 99.0783 104.128H101.494C101.014 102.144 99.5263 100.992 97.3183 100.992C94.7582 100.992 92.9342 102.784 92.9342 105.568ZM111.695 105.568C111.695 102.768 109.695 100.992 107.135 100.992C104.575 100.992 102.575 102.768 102.575 105.568C102.575 108.352 104.511 110.144 107.071 110.144C109.647 110.144 111.695 108.352 111.695 105.568ZM104.847 105.568C104.847 103.792 105.919 102.944 107.103 102.944C108.287 102.944 109.391 103.792 109.391 105.568C109.391 107.328 108.255 108.192 107.071 108.192C105.871 108.192 104.847 107.328 104.847 105.568ZM121.898 105.568C121.898 102.768 119.898 100.992 117.338 100.992C114.778 100.992 112.778 102.768 112.778 105.568C112.778 108.352 114.714 110.144 117.274 110.144C119.85 110.144 121.898 108.352 121.898 105.568ZM115.05 105.568C115.05 103.792 116.122 102.944 117.306 102.944C118.49 102.944 119.594 103.792 119.594 105.568C119.594 107.328 118.458 108.192 117.274 108.192C116.074 108.192 115.05 107.328 115.05 105.568ZM131.91 101.136H129.654V106.016C129.654 107.44 128.886 108.208 127.67 108.208C126.486 108.208 125.702 107.44 125.702 106.016V101.136H123.462V106.336C123.462 108.768 124.95 110.112 127.014 110.112C128.118 110.112 129.094 109.632 129.654 108.88V110H131.91V101.136ZM140.328 110H142.568V104.8C142.568 102.352 141.096 101.008 139.032 101.008C137.896 101.008 136.936 101.488 136.36 102.24V101.136H134.12V110H136.36V105.104C136.36 103.68 137.144 102.912 138.36 102.912C139.544 102.912 140.328 103.68 140.328 105.104V110ZM145.05 107.248C145.05 109.28 146.186 110 147.882 110H149.29V108.112H148.25C147.546 108.112 147.306 107.856 147.306 107.264V102.976H149.29V101.136H147.306V98.944H145.05V101.136H143.994V102.976H145.05V107.248Z" fill="white"/>
<rect x="5" y="224" width="111" height="32" rx="6" fill="white"/>
<rect x="132" y="224" width="111" height="32" rx="6" fill="#91BAB4"/>
<rect x="259" y="224" width="111" height="32" rx="6" fill="#91BAB4"/>
<path d="M28.5571 246H30.7971V238.736L33.8051 246H35.5011L38.4931 238.736V246H40.7331V234.832H38.2051L34.6531 243.136L31.1011 234.832H28.5571V246ZM51.5078 241.568C51.5078 238.768 49.5078 236.992 46.9478 236.992C44.3878 236.992 42.3878 238.768 42.3878 241.568C42.3878 244.352 44.3238 246.144 46.8838 246.144C49.4598 246.144 51.5078 244.352 51.5078 241.568ZM44.6598 241.568C44.6598 239.792 45.7318 238.944 46.9158 238.944C48.0998 238.944 49.2038 239.792 49.2038 241.568C49.2038 243.328 48.0678 244.192 46.8838 244.192C45.6838 244.192 44.6598 243.328 44.6598 241.568ZM59.3589 246H61.5989V240.8C61.5989 238.352 60.1269 237.008 58.0629 237.008C56.9269 237.008 55.9669 237.488 55.3909 238.24V237.136H53.1509V246H55.3909V241.104C55.3909 239.68 56.1749 238.912 57.3909 238.912C58.5749 238.912 59.3589 239.68 59.3589 241.104V246ZM64.081 243.248C64.081 245.28 65.217 246 66.913 246H68.321V244.112H67.281C66.577 244.112 66.337 243.856 66.337 243.264V238.976H68.321V237.136H66.337V234.944H64.081V237.136H63.025V238.976H64.081V243.248ZM69.9321 246H72.1721V241.104C72.1721 239.68 72.9561 238.912 74.1721 238.912C75.3561 238.912 76.1401 239.68 76.1401 241.104V246H78.3801V240.8C78.3801 238.352 76.9241 237.008 74.9241 237.008C73.7401 237.008 72.7481 237.488 72.1721 238.24V234.16H69.9321V246ZM80.5103 246H82.7503V234.16H80.5103V246ZM88.7394 243.328L86.4514 237.136H83.9394L87.4914 245.776L85.5714 250.192H87.9554L93.4434 237.136H91.0594L88.7394 243.328Z" fill="#274D5B"/>
<path d="M161.048 246.016L163.672 246L165.864 238.048L167.96 246H170.6L173.72 234.832H171.304L169.32 243.456L167.176 234.832H164.68L162.408 243.504L160.44 234.832H158.04L161.048 246.016ZM178.99 238.832C180.142 238.832 181.07 239.568 181.102 240.736H176.894C177.07 239.52 177.918 238.832 178.99 238.832ZM183.198 243.216H180.782C180.494 243.808 179.966 244.288 179.006 244.288C177.886 244.288 176.99 243.552 176.878 242.24H183.358C183.406 241.952 183.422 241.664 183.422 241.376C183.422 238.736 181.614 236.992 179.054 236.992C176.43 236.992 174.606 238.768 174.606 241.568C174.606 244.352 176.478 246.144 179.054 246.144C181.246 246.144 182.718 244.848 183.198 243.216ZM188.865 238.832C190.017 238.832 190.945 239.568 190.977 240.736H186.769C186.945 239.52 187.793 238.832 188.865 238.832ZM193.073 243.216H190.657C190.369 243.808 189.841 244.288 188.881 244.288C187.761 244.288 186.865 243.552 186.753 242.24H193.233C193.281 241.952 193.297 241.664 193.297 241.376C193.297 238.736 191.489 236.992 188.929 236.992C186.305 236.992 184.481 238.768 184.481 241.568C184.481 244.352 186.353 246.144 188.929 246.144C191.121 246.144 192.593 244.848 193.073 243.216ZM194.932 246H197.172V242.224L200.18 246H203.092L199.156 241.584L203.06 237.136H200.148L197.172 240.896V234.16H194.932V246ZM204.276 246H206.516V234.16H204.276V246ZM212.505 243.328L210.217 237.136H207.705L211.257 245.776L209.337 250.192H211.721L217.209 237.136H214.825L212.505 243.328Z" fill="#274D5B"/>
<path d="M299.055 234.832H295.151V246H299.055C302.623 246 304.943 243.808 304.943 240.432C304.943 237.04 302.623 234.832 299.055 234.832ZM297.391 244.096V236.72H298.975C301.327 236.72 302.655 238.112 302.655 240.432C302.655 242.752 301.327 244.096 298.975 244.096H297.391ZM306.044 241.536C306.044 244.304 307.836 246.144 310.076 246.144C311.484 246.144 312.492 245.472 313.02 244.704V246H315.276V237.136H313.02V238.4C312.492 237.664 311.516 236.992 310.092 236.992C307.836 236.992 306.044 238.768 306.044 241.536ZM313.02 241.568C313.02 243.248 311.9 244.176 310.668 244.176C309.468 244.176 308.332 243.216 308.332 241.536C308.332 239.856 309.468 238.96 310.668 238.96C311.9 238.96 313.02 239.888 313.02 241.568ZM317.463 246H319.703V237.136H317.463V246ZM318.599 236.08C319.383 236.08 319.975 235.504 319.975 234.768C319.975 234.032 319.383 233.456 318.599 233.456C317.799 233.456 317.223 234.032 317.223 234.768C317.223 235.504 317.799 236.08 318.599 236.08ZM321.917 246H324.157V234.16H321.917V246ZM330.146 243.328L327.858 237.136H325.346L328.898 245.776L326.978 250.192H329.362L334.85 237.136H332.466L330.146 243.328Z" fill="#274D5B"/>
<g filter="url(#filter2_d_1501_16)">
<rect x="4" y="163" width="98" height="26" rx="8" fill="#DD5B6D"/>
</g>
<path d="M24.1331 175.904V172.656H25.9091C27.1731 172.656 27.7331 173.264 27.7331 174.288C27.7331 175.28 27.1731 175.904 25.9091 175.904H24.1331ZM30.0371 174.288C30.0371 172.352 28.6931 170.832 26.0051 170.832H21.8931V182H24.1331V177.712H26.0051C28.8851 177.712 30.0371 175.984 30.0371 174.288ZM33.8674 177.584C33.8674 175.872 34.6674 175.36 35.9954 175.36H36.5874V173.008C35.3554 173.008 34.4274 173.6 33.8674 174.512V173.136H31.6274V182H33.8674V177.584ZM38.0962 182H40.3362V173.136H38.0962V182ZM39.2322 172.08C40.0162 172.08 40.6082 171.504 40.6082 170.768C40.6082 170.032 40.0162 169.456 39.2322 169.456C38.4322 169.456 37.8562 170.032 37.8562 170.768C37.8562 171.504 38.4322 172.08 39.2322 172.08ZM54.9493 182H57.1893V176.8C57.1893 174.352 55.6853 173.008 53.5573 173.008C52.2613 173.008 51.0933 173.696 50.5173 174.704C49.9093 173.6 48.7733 173.008 47.3973 173.008C46.2933 173.008 45.3493 173.472 44.7893 174.208V173.136H42.5493V182H44.7893V177.104C44.7893 175.696 45.5733 174.96 46.7893 174.96C47.9733 174.96 48.7573 175.696 48.7573 177.104V182H50.9973V177.104C50.9973 175.696 51.7813 174.96 52.9813 174.96C54.1653 174.96 54.9493 175.696 54.9493 177.104V182ZM58.7389 177.536C58.7389 180.304 60.5309 182.144 62.7709 182.144C64.1789 182.144 65.1869 181.472 65.7149 180.704V182H67.9709V173.136H65.7149V174.4C65.1869 173.664 64.2109 172.992 62.7869 172.992C60.5309 172.992 58.7389 174.768 58.7389 177.536ZM65.7149 177.568C65.7149 179.248 64.5949 180.176 63.3629 180.176C62.1629 180.176 61.0269 179.216 61.0269 177.536C61.0269 175.856 62.1629 174.96 63.3629 174.96C64.5949 174.96 65.7149 175.888 65.7149 177.568ZM72.3987 177.584C72.3987 175.872 73.1987 175.36 74.5267 175.36H75.1187V173.008C73.8867 173.008 72.9587 173.6 72.3987 174.512V173.136H70.1587V182H72.3987V177.584ZM80.4034 179.328L78.1154 173.136H75.6034L79.1554 181.776L77.2354 186.192H79.6194L85.1074 173.136H82.7234L80.4034 179.328Z" fill="white"/>
<rect x="118" y="273" width="30" height="112" rx="9" transform="rotate(90 118 273)" fill="#DD5B6D" stroke="white" stroke-width="2"/>
<path d="M34.4858 293H36.5578L33.0438 283.214H30.7618L27.2478 293H29.3058L29.9498 291.138H33.8418L34.4858 293ZM33.3098 289.57H30.4818L31.8958 285.482L33.3098 289.57ZM37.3673 289.094C37.3673 291.516 38.9353 293.126 40.9093 293.126C42.1273 293.126 42.9953 292.566 43.4573 291.852V293H45.4453V282.64H43.4573V286.322C42.9253 285.594 41.9453 285.118 40.9233 285.118C38.9353 285.118 37.3673 286.672 37.3673 289.094ZM43.4713 289.122C43.4713 290.592 42.4913 291.404 41.4133 291.404C40.3633 291.404 39.3693 290.564 39.3693 289.094C39.3693 287.624 40.3633 286.84 41.4133 286.84C42.4913 286.84 43.4713 287.652 43.4713 289.122ZM46.8556 289.094C46.8556 291.516 48.4236 293.126 50.3976 293.126C51.6156 293.126 52.4836 292.566 52.9456 291.852V293H54.9336V282.64H52.9456V286.322C52.4136 285.594 51.4336 285.118 50.4116 285.118C48.4236 285.118 46.8556 286.672 46.8556 289.094ZM52.9596 289.122C52.9596 290.592 51.9796 291.404 50.9016 291.404C49.8516 291.404 48.8576 290.564 48.8576 289.094C48.8576 287.624 49.8516 286.84 50.9016 286.84C51.9796 286.84 52.9596 287.652 52.9596 289.122ZM71.0338 293H72.9938V288.45C72.9938 286.308 71.6778 285.132 69.8158 285.132C68.6818 285.132 67.6598 285.734 67.1558 286.616C66.6238 285.65 65.6298 285.132 64.4258 285.132C63.4598 285.132 62.6338 285.538 62.1438 286.182V285.244H60.1838V293H62.1438V288.716C62.1438 287.484 62.8298 286.84 63.8938 286.84C64.9298 286.84 65.6158 287.484 65.6158 288.716V293H67.5758V288.716C67.5758 287.484 68.2618 286.84 69.3118 286.84C70.3478 286.84 71.0338 287.484 71.0338 288.716V293ZM82.3437 289.122C82.3437 286.672 80.5937 285.118 78.3537 285.118C76.1137 285.118 74.3637 286.672 74.3637 289.122C74.3637 291.558 76.0577 293.126 78.2977 293.126C80.5517 293.126 82.3437 291.558 82.3437 289.122ZM76.3517 289.122C76.3517 287.568 77.2897 286.826 78.3257 286.826C79.3617 286.826 80.3277 287.568 80.3277 289.122C80.3277 290.662 79.3337 291.418 78.2977 291.418C77.2477 291.418 76.3517 290.662 76.3517 289.122ZM85.7414 289.136C85.7414 287.638 86.4414 287.19 87.6034 287.19H88.1214V285.132C87.0434 285.132 86.2314 285.65 85.7414 286.448V285.244H83.7814V293H85.7414V289.136ZM92.7736 286.728C93.7816 286.728 94.5936 287.372 94.6216 288.394H90.9396C91.0936 287.33 91.8356 286.728 92.7736 286.728ZM96.4556 290.564H94.3416C94.0896 291.082 93.6276 291.502 92.7876 291.502C91.8076 291.502 91.0236 290.858 90.9256 289.71H96.5956C96.6376 289.458 96.6516 289.206 96.6516 288.954C96.6516 286.644 95.0696 285.118 92.8296 285.118C90.5336 285.118 88.9376 286.672 88.9376 289.122C88.9376 291.558 90.5756 293.126 92.8296 293.126C94.7476 293.126 96.0356 291.992 96.4556 290.564Z" fill="white"/>
<g filter="url(#filter3_d_1501_16)">
<rect x="145" y="336" width="123" height="32" rx="6" fill="#DD5B6D"/>
</g>
<g filter="url(#filter4_d_1501_16)">
<rect x="10" y="336" width="123" height="32" rx="6" fill="#E5EDEC"/>
</g>
<path d="M194.889 354.768C194.889 350.832 189.161 352.08 189.161 349.84C189.161 348.928 189.817 348.496 190.697 348.528C191.657 348.544 192.249 349.12 192.297 349.856H194.761C194.617 347.84 193.049 346.672 190.761 346.672C188.457 346.672 186.825 347.888 186.825 349.904C186.809 353.952 192.569 352.496 192.569 354.912C192.569 355.712 191.945 356.272 190.889 356.272C189.849 356.272 189.257 355.68 189.193 354.784H186.793C186.825 356.896 188.617 358.112 190.937 358.112C193.481 358.112 194.889 356.528 194.889 354.768ZM196.255 353.536C196.255 356.304 198.047 358.144 200.287 358.144C201.695 358.144 202.703 357.472 203.231 356.704V358H205.487V349.136H203.231V350.4C202.703 349.664 201.727 348.992 200.303 348.992C198.047 348.992 196.255 350.768 196.255 353.536ZM203.231 353.568C203.231 355.248 202.111 356.176 200.879 356.176C199.679 356.176 198.543 355.216 198.543 353.536C198.543 351.856 199.679 350.96 200.879 350.96C202.111 350.96 203.231 351.888 203.231 353.568ZM206.73 349.136L209.994 358H212.714L215.994 349.136H213.61L211.37 355.936L209.13 349.136H206.73ZM221.06 350.832C222.212 350.832 223.14 351.568 223.172 352.736H218.964C219.14 351.52 219.988 350.832 221.06 350.832ZM225.268 355.216H222.852C222.564 355.808 222.036 356.288 221.076 356.288C219.956 356.288 219.06 355.552 218.948 354.24H225.428C225.476 353.952 225.492 353.664 225.492 353.376C225.492 350.736 223.684 348.992 221.124 348.992C218.5 348.992 216.676 350.768 216.676 353.568C216.676 356.352 218.548 358.144 221.124 358.144C223.316 358.144 224.788 356.848 225.268 355.216Z" fill="white"/>
<path d="M42.7319 352.4C42.7319 355.744 45.1799 358.096 48.3959 358.096C50.8759 358.096 52.8919 356.784 53.6439 354.48H51.0679C50.5399 355.568 49.5799 356.096 48.3799 356.096C46.4279 356.096 45.0359 354.656 45.0359 352.4C45.0359 350.128 46.4279 348.704 48.3799 348.704C49.5799 348.704 50.5399 349.232 51.0679 350.304H53.6439C52.8919 348.016 50.8759 346.688 48.3959 346.688C45.1799 346.688 42.7319 349.056 42.7319 352.4ZM54.9811 353.536C54.9811 356.304 56.7731 358.144 59.0131 358.144C60.4211 358.144 61.4291 357.472 61.9571 356.704V358H64.2131V349.136H61.9571V350.4C61.4291 349.664 60.4531 348.992 59.0291 348.992C56.7731 348.992 54.9811 350.768 54.9811 353.536ZM61.9571 353.568C61.9571 355.248 60.8371 356.176 59.6051 356.176C58.4051 356.176 57.2691 355.216 57.2691 353.536C57.2691 351.856 58.4051 350.96 59.6051 350.96C60.8371 350.96 61.9571 351.888 61.9571 353.568ZM72.6089 358H74.8489V352.8C74.8489 350.352 73.3769 349.008 71.3129 349.008C70.1769 349.008 69.2169 349.488 68.6409 350.24V349.136H66.4009V358H68.6409V353.104C68.6409 351.68 69.4249 350.912 70.6409 350.912C71.8249 350.912 72.6089 351.68 72.6089 353.104V358ZM76.403 353.568C76.403 356.352 78.227 358.144 80.787 358.144C82.995 358.144 84.483 356.896 84.963 355.008H82.547C82.275 355.808 81.699 356.224 80.771 356.224C79.523 356.224 78.691 355.296 78.691 353.568C78.691 351.84 79.523 350.896 80.771 350.896C81.699 350.896 82.291 351.376 82.547 352.128H84.963C84.483 350.144 82.995 348.992 80.787 348.992C78.227 348.992 76.403 350.784 76.403 353.568ZM90.412 350.832C91.564 350.832 92.492 351.568 92.524 352.736H88.316C88.492 351.52 89.34 350.832 90.412 350.832ZM94.62 355.216H92.204C91.916 355.808 91.388 356.288 90.428 356.288C89.308 356.288 88.412 355.552 88.3 354.24H94.78C94.828 353.952 94.844 353.664 94.844 353.376C94.844 350.736 93.036 348.992 90.476 348.992C87.852 348.992 86.028 350.768 86.028 353.568C86.028 356.352 87.9 358.144 90.476 358.144C92.668 358.144 94.14 356.848 94.62 355.216ZM96.479 358H98.719V346.16H96.479V358Z" fill="#333333"/>
<path d="M314 24C314 18.4772 314.136 14 314.304 14H345.696C345.864 14 346 18.4772 346 24V36C346 41.5228 345.864 46 345.696 46H314.304C314.136 46 314 41.5228 314 36V24Z" fill="#E5EDEC"/>
<path d="M314 88C314 82.4772 314.136 78 314.304 78H345.696C345.864 78 346 82.4772 346 88V100C346 105.523 345.864 110 345.696 110H314.304C314.136 110 314 105.523 314 100V88Z" fill="#E5EDEC"/>
<circle cx="330" cy="30" r="7" fill="white"/>
<circle cx="330" cy="30" r="4" fill="#274D5B"/>
<circle cx="330" cy="62" r="7" fill="#E5EDEC"/>
<circle cx="330" cy="94" r="7" fill="white"/>
<defs>
<filter id="filter0_d_1501_16" x="1" y="0" width="170" height="56" filterUnits="userSpaceOnUse" color-interpolation-filters="sRGB">
<feFlood flood-opacity="0" result="BackgroundImageFix"/>
<feColorMatrix in="SourceAlpha" type="matrix" values="0 0 0 0 0 0 0 0 0 0 0 0 0 0 0 0 0 0 127 0" result="hardAlpha"/>
<feOffset dy="4"/>
<feGaussianBlur stdDeviation="2"/>
<feColorMatrix type="matrix" values="0 0 0 0 0 0 0 0 0 0 0 0 0 0 0 0 0 0 0.25 0"/>
<feBlend mode="normal" in2="BackgroundImageFix" result="effect1_dropShadow_1501_16"/>
<feBlend mode="normal" in="SourceGraphic" in2="effect1_dropShadow_1501_16" result="shape"/>
</filter>
<filter id="filter1_d_1501_16" x="1" y="80" width="170" height="56" filterUnits="userSpaceOnUse" color-interpolation-filters="sRGB">
<feFlood flood-opacity="0" result="BackgroundImageFix"/>
<feColorMatrix in="SourceAlpha" type="matrix" values="0 0 0 0 0 0 0 0 0 0 0 0 0 0 0 0 0 0 127 0" result="hardAlpha"/>
<feOffset dy="4"/>
<feGaussianBlur stdDeviation="2"/>
<feColorMatrix type="matrix" values="0 0 0 0 0 0 0 0 0 0 0 0 0 0 0 0 0 0 0.25 0"/>
<feBlend mode="normal" in2="BackgroundImageFix" result="effect1_dropShadow_1501_16"/>
<feBlend mode="normal" in="SourceGraphic" in2="effect1_dropShadow_1501_16" result="shape"/>
</filter>
<filter id="filter2_d_1501_16" x="0" y="163" width="106" height="34" filterUnits="userSpaceOnUse" color-interpolation-filters="sRGB">
<feFlood flood-opacity="0" result="BackgroundImageFix"/>
<feColorMatrix in="SourceAlpha" type="matrix" values="0 0 0 0 0 0 0 0 0 0 0 0 0 0 0 0 0 0 127 0" result="hardAlpha"/>
<feOffset dy="4"/>
<feGaussianBlur stdDeviation="2"/>
<feColorMatrix type="matrix" values="0 0 0 0 0 0 0 0 0 0 0 0 0 0 0 0 0 0 0.25 0"/>
<feBlend mode="normal" in2="BackgroundImageFix" result="effect1_dropShadow_1501_16"/>
<feBlend mode="normal" in="SourceGraphic" in2="effect1_dropShadow_1501_16" result="shape"/>
</filter>
<filter id="filter3_d_1501_16" x="141" y="336" width="131" height="40" filterUnits="userSpaceOnUse" color-interpolation-filters="sRGB">
<feFlood flood-opacity="0" result="BackgroundImageFix"/>
<feColorMatrix in="SourceAlpha" type="matrix" values="0 0 0 0 0 0 0 0 0 0 0 0 0 0 0 0 0 0 127 0" result="hardAlpha"/>
<feOffset dy="4"/>
<feGaussianBlur stdDeviation="2"/>
<feColorMatrix type="matrix" values="0 0 0 0 0 0 0 0 0 0 0 0 0 0 0 0 0 0 0.25 0"/>
<feBlend mode="normal" in2="BackgroundImageFix" result="effect1_dropShadow_1501_16"/>
<feBlend mode="normal" in="SourceGraphic" in2="effect1_dropShadow_1501_16" result="shape"/>
</filter>
<filter id="filter4_d_1501_16" x="6" y="336" width="131" height="40" filterUnits="userSpaceOnUse" color-interpolation-filters="sRGB">
<feFlood flood-opacity="0" result="BackgroundImageFix"/>
<feColorMatrix in="SourceAlpha" type="matrix" values="0 0 0 0 0 0 0 0 0 0 0 0 0 0 0 0 0 0 127 0" result="hardAlpha"/>
<feOffset dy="4"/>
<feGaussianBlur stdDeviation="2"/>
<feColorMatrix type="matrix" values="0 0 0 0 0 0 0 0 0 0 0 0 0 0 0 0 0 0 0.25 0"/>
<feBlend mode="normal" in2="BackgroundImageFix" result="effect1_dropShadow_1501_16"/>
<feBlend mode="normal" in="SourceGraphic" in2="effect1_dropShadow_1501_16" result="shape"/>
</filter>
</defs>
</svg>
