<svg width="256" height="121" viewBox="0 0 256 121" fill="none" xmlns="http://www.w3.org/2000/svg">
<path d="M21.7256 44H13.3674C13.0055 44.0026 12.6592 44.153 12.4033 44.4186C12.1474 44.6842 12.0025 45.0438 12 45.4194V65.5806C12.0025 65.9563 12.1474 66.3158 12.4033 66.5814C12.6592 66.847 13.0055 66.9974 13.3674 67H21.7256C27.5031 67 32 62.0022 32 55.505C32 49.0078 27.4839 44 21.7256 44ZM21.7256 64.1512H15.3895C15.2184 64.1512 15.0543 64.0807 14.9333 63.9551C14.8123 63.8295 14.7443 63.6591 14.7443 63.4815V47.4885C14.7443 47.3109 14.8123 47.1405 14.9333 47.0149C15.0543 46.8893 15.2184 46.8188 15.3895 46.8188H21.7256C25.9432 46.8188 29.246 50.6171 29.246 55.475C29.246 60.3329 25.9432 64.1512 21.7256 64.1512Z" fill="#30D5C8"/>
<path d="M20.717 33H1.41026C1.03704 33.0026 0.679835 33.1506 0.415921 33.4119C0.152007 33.6733 0.00260094 34.027 4.25152e-10 34.3966V86.5935C-9.16748e-06 86.9649 0.148257 87.3211 0.412451 87.5846C0.676645 87.8481 1.03533 87.9974 1.41026 88H12.1064C12.4813 87.9974 12.84 87.8481 13.1042 87.5846C13.3684 87.3211 13.5167 86.9649 13.5167 86.5935V77.4564C13.5167 77.2816 13.5868 77.114 13.7116 76.9904C13.8363 76.8668 14.0056 76.7974 14.1821 76.7974H20.717C32.446 76.7974 42 66.9619 42 54.9036C42 42.8453 32.446 33 20.717 33ZM20.717 73.9943H12.0965C11.7215 73.9969 11.3629 74.1462 11.0987 74.4097C10.8345 74.6732 10.6862 75.0294 10.6862 75.4008V84.5477C10.6836 84.7208 10.6123 84.8859 10.4878 85.0074C10.3633 85.1288 10.1956 85.1969 10.0208 85.1969H3.53559C3.36082 85.1969 3.19306 85.1288 3.06855 85.0074C2.94404 84.8859 2.87279 84.7208 2.87018 84.5477V36.4621C2.87018 36.2873 2.94029 36.1197 3.06508 35.9961C3.18987 35.8725 3.35911 35.8031 3.53559 35.8031H20.717C30.8867 35.8031 39.1596 44.3698 39.1596 54.9036C39.1596 65.4374 30.8867 73.9943 20.717 73.9943Z" fill="#30D5C8"/>
<path d="M84.6043 33H50.3859C50.0191 33.0026 49.6681 33.1506 49.4088 33.412C49.1494 33.6734 49.0026 34.0272 49 34.3969V86.5933C49 86.9647 49.1457 87.321 49.4053 87.5845C49.665 87.848 50.0175 87.9974 50.3859 88H84.6043C84.9745 88 85.3295 87.8518 85.5912 87.588C85.853 87.3242 86 86.9664 86 86.5933V75.9297C85.9974 75.5583 85.8492 75.203 85.5878 74.9414C85.3263 74.6797 84.9728 74.5328 84.6043 74.5328H62.9958C62.824 74.5302 62.6602 74.4597 62.5397 74.3363C62.4191 74.213 62.3516 74.0468 62.3516 73.8737V67.4598C62.3516 67.2876 62.4195 67.1225 62.5403 67.0007C62.6611 66.879 62.8249 66.8106 62.9958 66.8106H83.7259C84.0953 66.808 84.4488 66.659 84.71 66.3957C84.9712 66.1325 85.1191 65.7762 85.1216 65.4039V55.5666C85.1216 55.1935 84.9745 54.8357 84.7128 54.5719C84.4511 54.3081 84.0961 54.1599 83.7259 54.1599H62.9958C62.8257 54.1574 62.6633 54.0881 62.5431 53.9669C62.4228 53.8457 62.3541 53.682 62.3516 53.5106V47.0869C62.3541 46.9155 62.4228 46.7519 62.5431 46.6306C62.6633 46.5094 62.8257 46.4402 62.9958 46.4377H84.6043C84.9745 46.4377 85.3295 46.2895 85.5912 46.0256C85.853 45.7618 86 45.404 86 45.031V34.3969C85.9974 34.0255 85.8492 33.6702 85.5878 33.4085C85.3263 33.1469 84.9728 33 84.6043 33ZM59.5603 45.0605V55.5961C59.5603 55.9692 59.7073 56.327 59.969 56.5908C60.2308 56.8547 60.5858 57.0029 60.9559 57.0029H81.6763C81.8481 57.0028 82.0129 57.0709 82.1353 57.1924C82.2577 57.3139 82.3277 57.479 82.3302 57.6521V63.3381C82.3302 63.5129 82.2614 63.6805 82.1387 63.8041C82.0161 63.9277 81.8498 63.9971 81.6763 63.9971H60.9559C60.5858 63.9971 60.2308 64.1454 59.969 64.4092C59.7073 64.673 59.5603 65.0308 59.5603 65.4039V75.9396C59.5629 76.3109 59.711 76.6662 59.9725 76.9279C60.234 77.1896 60.5875 77.3364 60.9559 77.3364H82.5547C82.6406 77.3364 82.7257 77.3535 82.805 77.3866C82.8843 77.4197 82.9564 77.4683 83.0171 77.5295C83.0778 77.5907 83.126 77.6633 83.1589 77.7433C83.1917 77.8233 83.2087 77.909 83.2087 77.9955V84.5373C83.2061 84.7104 83.1361 84.8755 83.0137 84.997C82.8914 85.1185 82.7265 85.1866 82.5547 85.1866H52.4355C52.2638 85.1866 52.0989 85.1185 51.9765 84.997C51.8542 84.8755 51.7842 84.7104 51.7816 84.5373V36.4627C51.7816 36.2879 51.8505 36.1203 51.9731 35.9967C52.0957 35.8731 52.2621 35.8036 52.4355 35.8036H82.5547C82.6406 35.8036 82.7257 35.8207 82.805 35.8538C82.8843 35.8869 82.9564 35.9355 83.0171 35.9967C83.0778 36.0579 83.126 36.1305 83.1589 36.2105C83.1917 36.2905 83.2087 36.3762 83.2087 36.4627V42.9946C83.2087 43.0812 83.1917 43.1669 83.1589 43.2469C83.126 43.3268 83.0778 43.3995 83.0171 43.4607C82.9564 43.5219 82.8843 43.5704 82.805 43.6036C82.7257 43.6367 82.6406 43.6537 82.5547 43.6537H60.9559C60.7727 43.6537 60.5912 43.6901 60.4218 43.7608C60.2525 43.8315 60.0986 43.9351 59.969 44.0658C59.8394 44.1964 59.7367 44.3515 59.6665 44.5221C59.5964 44.6928 59.5603 44.8757 59.5603 45.0605Z" fill="#30D5C8"/>
<path d="M113.212 44H104.436C104.056 44.0026 103.692 44.153 103.423 44.4186C103.155 44.6842 103.003 45.0438 103 45.4194V65.5806C103.003 65.9563 103.155 66.3158 103.423 66.5814C103.692 66.847 104.056 66.9974 104.436 67H113.212C119.278 67 124 62.0022 124 55.505C124 49.0078 119.258 44 113.212 44ZM121.108 55.505C121.108 60.3529 117.64 64.1512 113.212 64.1512H106.559C106.379 64.1512 106.207 64.0807 106.08 63.9551C105.953 63.8295 105.882 63.6591 105.882 63.4815V47.4885C105.882 47.4005 105.899 47.3135 105.933 47.2322C105.967 47.151 106.017 47.0771 106.08 47.0149C106.143 46.9528 106.218 46.9034 106.3 46.8698C106.382 46.8361 106.47 46.8188 106.559 46.8188H113.212C117.64 46.8488 121.108 50.6471 121.108 55.505Z" fill="#30D5C8"/>
<path d="M123.605 74.6041C123.536 74.5342 123.484 74.4491 123.452 74.3553C123.42 74.2615 123.41 74.1616 123.422 74.0631C123.431 73.9669 123.461 73.8741 123.512 73.7921C123.562 73.7101 123.63 73.6412 123.711 73.591C126.776 71.5901 129.294 68.8256 131.029 65.5568C132.763 62.2881 133.657 58.6224 133.627 54.9036C133.627 42.8256 124.374 33 113.015 33H94.3754C94.0123 33 93.6639 33.1468 93.4062 33.4085C93.1486 33.6701 93.0025 34.0253 93 34.3966V86.5935C93 86.9666 93.1449 87.3243 93.4028 87.5881C93.6608 87.8518 94.0106 88 94.3754 88H104.724C105.088 87.9974 105.435 87.8481 105.691 87.5846C105.947 87.3211 106.09 86.9649 106.09 86.5935V77.4564C106.09 77.2816 106.158 77.114 106.279 76.9904C106.4 76.8668 106.564 76.7974 106.735 76.7974H107.831C107.914 76.7975 107.996 76.8149 108.072 76.8488C108.148 76.8826 108.217 76.9321 108.274 76.9941L119.027 87.8132L119.2 88H133.627C133.9 87.9996 134.166 87.9161 134.393 87.7603C134.619 87.6045 134.795 87.3834 134.898 87.125C135.001 86.8667 135.027 86.5828 134.972 86.3095C134.917 86.0362 134.783 85.7859 134.589 85.5903L123.605 74.6041ZM119.382 73.414C119.343 73.637 119.357 73.8665 119.424 74.0826C119.491 74.2986 119.609 74.4946 119.767 74.6533L129.087 84.0461C129.18 84.1363 129.244 84.2535 129.27 84.3819C129.296 84.5103 129.282 84.6438 129.231 84.7641C129.187 84.8857 129.107 84.99 129.001 85.0623C128.896 85.1347 128.771 85.1714 128.645 85.1674H120.565C120.397 85.167 120.235 85.1001 120.113 84.9805L109.37 74.1615L109.187 73.9845H104.667C104.305 73.987 103.959 74.135 103.704 74.3964C103.448 74.6577 103.303 75.0115 103.301 75.3811V84.5281C103.298 84.7011 103.229 84.8662 103.109 84.9877C102.988 85.1092 102.826 85.1772 102.657 85.1772H96.299C96.2156 85.1772 96.1331 85.1604 96.0561 85.1278C95.9791 85.0952 95.9091 85.0474 95.8501 84.9871C95.7912 84.9268 95.7444 84.8553 95.7125 84.7765C95.6806 84.6978 95.6642 84.6133 95.6642 84.5281V36.4424C95.6629 36.3563 95.6784 36.2709 95.7097 36.191C95.7411 36.1111 95.7876 36.0384 95.8467 35.977C95.9058 35.9157 95.9762 35.867 96.0538 35.8338C96.1315 35.8005 96.2148 35.7834 96.299 35.7834H112.977C122.826 35.7834 130.838 44.3501 130.838 54.8839C130.878 58.5474 129.892 62.1461 127.997 65.2553C126.102 68.3644 123.376 70.8541 120.142 72.4304C119.949 72.5219 119.779 72.6586 119.647 72.8294C119.515 73.0003 119.425 73.2006 119.382 73.414Z" fill="#30D5C8"/>
<path d="M183.53 33.0001H140.44C140.059 33.0027 139.694 33.1507 139.425 33.4121C139.155 33.6734 139.003 34.0272 139 34.3968V45.1273C139 45.4986 139.151 45.8548 139.421 46.1183C139.691 46.3818 140.057 46.5311 140.44 46.5337H154.222C154.399 46.5337 154.57 46.6021 154.695 46.7239C154.821 46.8456 154.891 47.0107 154.891 47.1829V86.5935C154.891 86.9666 155.044 87.3243 155.316 87.5881C155.588 87.8518 155.957 88 156.341 88H167.659C168.042 87.9974 168.408 87.8481 168.678 87.5846C168.947 87.3211 169.099 86.9649 169.099 86.5935V47.1829C169.099 47.0968 169.116 47.0116 169.151 46.9322C169.185 46.8528 169.235 46.7807 169.298 46.7203C169.362 46.6599 169.437 46.6123 169.519 46.5803C169.601 46.5482 169.689 46.5324 169.778 46.5337H183.55C183.74 46.5337 183.929 46.4973 184.105 46.4267C184.281 46.356 184.441 46.2524 184.575 46.1218C184.71 45.9912 184.817 45.8361 184.89 45.6655C184.962 45.4949 185 45.312 185 45.1273V34.3968C184.999 34.2112 184.96 34.0278 184.885 33.857C184.81 33.6862 184.701 33.5314 184.564 33.4016C184.428 33.2718 184.266 33.1695 184.088 33.1006C183.911 33.0317 183.721 32.9975 183.53 33.0001ZM166.188 45.1273V84.5379C166.186 84.711 166.113 84.8761 165.986 84.9976C165.859 85.119 165.687 85.1871 165.509 85.1871H158.41C158.232 85.1871 158.06 85.119 157.933 84.9976C157.806 84.8761 157.733 84.711 157.731 84.5379V45.1273C157.731 44.7542 157.578 44.3965 157.306 44.1327C157.034 43.869 156.665 43.7208 156.28 43.7208H142.549C142.369 43.7208 142.196 43.6514 142.069 43.5278C141.942 43.4042 141.87 43.2366 141.87 43.0618V36.4622C141.87 36.2875 141.942 36.1198 142.069 35.9962C142.196 35.8727 142.369 35.8032 142.549 35.8032H181.41C181.588 35.8058 181.759 35.8764 181.884 35.9997C182.009 36.123 182.079 36.2891 182.079 36.4622V43.0618C182.079 43.2349 182.009 43.401 181.884 43.5243C181.759 43.6476 181.588 43.7182 181.41 43.7208H167.628C167.245 43.7234 166.879 43.8727 166.609 44.1362C166.34 44.3997 166.188 44.7559 166.188 45.1273Z" fill="#30D5C8"/>
<path d="M254.523 33.0017H243.525C243.34 33.0017 243.156 33.0389 242.984 33.111C242.813 33.1832 242.657 33.289 242.526 33.4223C242.396 33.5556 242.292 33.7137 242.222 33.8877C242.152 34.0616 242.116 34.2478 242.118 34.4357V54.9191C242.137 60.0031 240.219 64.8992 236.763 68.5911C233.307 72.2829 228.579 74.4869 223.558 74.7454H221.442C216.418 74.4774 211.687 72.2691 208.226 68.5762C204.766 64.8832 202.839 59.9874 202.843 54.8992V34.4357C202.843 34.058 202.695 33.6958 202.431 33.4287C202.167 33.1617 201.809 33.0117 201.435 33.0117H190.408C190.035 33.0117 189.676 33.1617 189.412 33.4287C189.148 33.6958 189 34.058 189 34.4357V54.9191C188.994 63.0721 191.903 70.9522 197.192 77.1054C198.215 78.3047 199.324 79.4263 200.51 80.4612C202.603 82.3034 204.919 83.8693 207.402 85.1216C208.899 85.8804 210.449 86.5294 212.039 87.0634C213.443 87.5342 214.877 87.9069 216.332 88.1786C216.483 88.2045 216.62 88.2837 216.719 88.4022C216.819 88.5206 216.873 88.6707 216.873 88.8259V109.967C216.871 110.14 216.801 110.306 216.68 110.429C216.559 110.551 216.395 110.621 216.223 110.624H207.096C206.723 110.624 206.365 110.774 206.101 111.041C205.837 111.308 205.688 111.67 205.688 112.048V119.576C205.688 119.954 205.837 120.316 206.101 120.583C206.365 120.85 206.723 121 207.096 121H237.963C238.336 121 238.694 120.85 238.958 120.583C239.222 120.316 239.371 119.954 239.371 119.576V112.048C239.371 111.67 239.222 111.308 238.958 111.041C238.694 110.774 238.336 110.624 237.963 110.624H228.836C228.662 110.624 228.496 110.555 228.373 110.432C228.249 110.309 228.179 110.142 228.176 109.967V88.8159C228.179 88.6599 228.235 88.5096 228.336 88.3913C228.437 88.2731 228.575 88.1943 228.727 88.1687C236.392 86.7069 243.312 82.5837 248.292 76.5113C253.271 70.4388 255.997 62.7983 256 54.9092V34.4357C256.002 34.2418 255.964 34.0497 255.889 33.871C255.815 33.6924 255.705 33.531 255.567 33.3967C255.429 33.2625 255.265 33.1582 255.085 33.0903C254.906 33.0224 254.715 32.9922 254.523 33.0017ZM227.379 85.49C226.867 85.5796 226.335 85.6493 225.833 85.7091L225.291 85.7688V112.038C225.291 112.414 225.438 112.775 225.7 113.041C225.962 113.308 226.318 113.459 226.689 113.462H235.816C235.991 113.462 236.159 113.532 236.283 113.657C236.406 113.782 236.476 113.952 236.476 114.129V117.485C236.473 117.66 236.403 117.827 236.279 117.95C236.156 118.073 235.99 118.142 235.816 118.142H209.115C208.942 118.142 208.777 118.073 208.655 117.95C208.533 117.826 208.465 117.659 208.465 117.485V114.099C208.464 114.012 208.479 113.925 208.512 113.845C208.544 113.764 208.591 113.69 208.652 113.628C208.712 113.566 208.784 113.517 208.864 113.483C208.943 113.449 209.029 113.432 209.115 113.432H218.242C218.615 113.432 218.973 113.282 219.237 113.015C219.501 112.748 219.65 112.386 219.65 112.008V85.7887L218.901 85.6991C218.458 85.6394 217.996 85.5896 217.543 85.5C215.959 85.247 214.398 84.864 212.876 84.3548C211.42 83.868 210.001 83.2722 208.632 82.5723C206.375 81.4209 204.268 79.9891 202.361 78.3103C201.277 77.3641 200.264 76.339 199.328 75.2433C194.485 69.6011 191.818 62.3809 191.816 54.9092V36.5169C191.815 36.4297 191.83 36.3432 191.862 36.2623C191.895 36.1814 191.942 36.1078 192.003 36.0457C192.063 35.9836 192.135 35.9343 192.215 35.9006C192.294 35.867 192.38 35.8497 192.466 35.8497H199.358C199.533 35.8497 199.7 35.92 199.824 36.0451C199.948 36.1702 200.017 36.3399 200.017 36.5169V54.9092C200.014 60.7435 202.232 66.3551 206.213 70.5777C210.194 74.8003 215.63 77.3093 221.392 77.5834H223.627C229.377 77.2943 234.797 74.7781 238.762 70.5565C242.727 66.3349 244.933 60.7319 244.924 54.9092V36.5368C244.926 36.3633 244.995 36.1976 245.117 36.0749C245.238 35.9522 245.402 35.8821 245.573 35.8796H252.465C252.551 35.8776 252.636 35.8933 252.716 35.9258C252.796 35.9584 252.868 36.007 252.928 36.0688C252.99 36.1293 253.04 36.202 253.074 36.2824C253.108 36.3628 253.125 36.4494 253.125 36.5368V54.9291C253.151 62.397 250.5 69.6213 245.662 75.2632C244.748 76.3527 243.761 77.3774 242.708 78.3302C238.41 82.1169 233.146 84.6049 227.516 85.5099L227.379 85.49Z" fill="#343947" fill-opacity="0.2"/>
<path d="M230.459 26.4533H240.601H241V19.8862V19.4965H230.579C230.225 19.5076 229.88 19.3918 229.608 19.171C229.336 18.9501 229.156 18.6396 229.103 18.2981C229.086 18.114 229.109 17.9286 229.17 17.7536C229.23 17.5785 229.327 17.4177 229.455 17.2813C229.582 17.1448 229.738 17.0357 229.91 16.9608C230.083 16.8859 230.27 16.8469 230.459 16.8463H240.771L240.99 16.6125V16.4078C240.977 15.736 240.921 15.0655 240.82 14.4007C240.215 10.408 238.164 6.75968 235.041 4.11758C231.918 1.47548 227.929 0.0146253 223.798 0H222.202C218.061 0.0163911 214.064 1.48515 210.937 4.13891C207.811 6.79268 205.764 10.455 205.17 14.4592C205.074 15.1245 205.018 15.7947 205 16.4663V16.856H215.561C215.915 16.8428 216.261 16.9578 216.534 17.179C216.806 17.4002 216.985 17.712 217.037 18.0545C217.05 18.2316 217.027 18.4097 216.966 18.5774C216.906 18.7451 216.811 18.8988 216.688 19.0288C216.562 19.1665 216.409 19.2767 216.237 19.3523C216.065 19.4278 215.879 19.467 215.69 19.4673H205.389H205V26.044V26.424H215.561C215.914 26.4129 216.259 26.5287 216.531 26.7496C216.803 26.9704 216.983 27.2809 217.037 27.6225C217.055 27.8085 217.033 27.9962 216.972 28.1732C216.91 28.3503 216.812 28.5127 216.682 28.6498C216.552 28.7869 216.393 28.8956 216.217 28.9687C216.041 29.0419 215.852 29.0778 215.66 29.0742H205.389H205V53.9978C205 58.5071 206.833 62.8316 210.097 66.0202C213.36 69.2087 217.786 71 222.402 71H223.588C228.204 71 232.632 69.209 235.897 66.0208C239.162 62.8325 240.997 58.508 241 53.9978V29.4932V29.1035H230.579C230.225 29.1146 229.88 28.9988 229.608 28.778C229.336 28.5571 229.156 28.2466 229.103 27.905C229.093 27.7282 229.118 27.551 229.178 27.3838C229.238 27.2166 229.331 27.0626 229.452 26.9307C229.577 26.7875 229.731 26.6712 229.905 26.589C230.078 26.5069 230.267 26.4606 230.459 26.4533ZM226.411 26.9697C226.246 27.7507 226.322 28.5618 226.629 29.3005C226.936 30.0393 227.46 30.6726 228.136 31.1204C228.877 31.5991 229.751 31.844 230.639 31.8219H238.038C238.086 31.8219 238.131 31.8404 238.165 31.8732C238.199 31.9061 238.218 31.9507 238.218 31.9973V54.0563C238.218 57.8471 236.676 61.4828 233.933 64.1633C231.189 66.8439 227.468 68.3498 223.588 68.3498H222.412C218.529 68.3498 214.805 66.8429 212.06 64.1605C209.315 61.4781 207.772 57.84 207.772 54.0465V31.9973C207.772 31.9507 207.791 31.9061 207.825 31.8732C207.859 31.8404 207.904 31.8219 207.952 31.8219H215.501C216.476 31.8424 217.428 31.5323 218.195 30.9443C218.962 30.3563 219.497 29.5268 219.709 28.5968C219.872 27.8158 219.796 27.0052 219.489 26.2667C219.182 25.5282 218.658 24.8948 217.984 24.4461C217.238 23.9689 216.362 23.7242 215.471 23.7446H207.952C207.904 23.7446 207.859 23.7261 207.825 23.6932C207.791 23.6604 207.772 23.6158 207.772 23.5692V22.3611C207.772 22.3145 207.791 22.2699 207.825 22.237C207.859 22.2042 207.904 22.1857 207.952 22.1857H215.501C216.474 22.2066 217.425 21.8979 218.192 21.3119C218.959 20.7258 219.495 19.8985 219.709 18.9704C219.872 18.187 219.794 17.374 219.485 16.6338C219.177 15.8935 218.651 15.2589 217.974 14.8099C217.23 14.3386 216.357 14.0975 215.471 14.1181H208.271C208.244 14.1188 208.216 14.1134 208.192 14.1022C208.167 14.0911 208.145 14.0746 208.127 14.0539C208.11 14.0332 208.098 14.0089 208.092 13.9829C208.085 13.9569 208.085 13.9298 208.091 13.9038C208.773 10.7446 210.549 7.91177 213.119 5.88302C215.69 3.85426 218.898 2.75376 222.202 2.76712H223.798C227.105 2.75557 230.315 3.86058 232.884 5.89524C235.454 7.92989 237.225 10.7693 237.899 13.933C237.905 13.9591 237.905 13.9861 237.898 14.0122C237.892 14.0382 237.88 14.0624 237.863 14.0831C237.845 14.1038 237.823 14.1203 237.798 14.1315C237.774 14.1426 237.746 14.148 237.719 14.1474H230.619C229.643 14.125 228.691 14.4344 227.923 15.0227C227.155 15.611 226.621 16.4416 226.411 17.3724C226.248 18.1524 226.323 18.962 226.629 19.7001C226.934 20.4382 227.454 21.0723 228.126 21.5231C228.873 21.9947 229.749 22.2357 230.639 22.2149H238.038C238.062 22.2149 238.085 22.2194 238.107 22.2283C238.129 22.2371 238.148 22.25 238.165 22.2663C238.182 22.2826 238.195 22.3019 238.204 22.3232C238.213 22.3444 238.218 22.3673 238.218 22.3903V23.5985C238.218 23.645 238.199 23.6896 238.165 23.7225C238.131 23.7554 238.086 23.7738 238.038 23.7738H230.619C229.648 23.7501 228.698 24.0553 227.931 24.6378C227.164 25.2204 226.627 26.0442 226.411 26.9697Z" fill="#343947" fill-opacity="0.1"/>
<path d="M2.18164 119.897V101.553H5.20392V108.93H13.8795V101.553H16.9018V119.897H13.8795V111.792H5.20392V119.897H2.18164Z" fill="#343947" fill-opacity="0.1"/>
<path d="M31.836 104.532H32.638L27.2488 119.896H24.2461L30.7503 101.552H33.6846L40.1986 119.896H37.1959L31.836 104.532ZM36.0809 115.352H28.4127V112.666H36.1102L36.0809 115.352ZM29.7331 99.9879V98.2863L34.7605 95.7979V98.4634L29.7331 99.9879Z" fill="#343947" fill-opacity="0.1"/>
<path d="M47.6035 119.896V101.552H54.0002C55.131 101.527 56.2552 101.731 57.3061 102.152C58.2142 102.511 58.9849 103.152 59.5068 103.981C60.0606 104.93 60.3321 106.019 60.2892 107.119C60.3396 108.243 60.0461 109.355 59.4481 110.306C58.8728 111.154 58.0827 111.834 57.1594 112.273L61.2673 119.935H57.8049L54.2056 113.001H50.6747V119.935L47.6035 119.896ZM50.6747 110.375H53.4231C54.4495 110.471 55.4723 110.157 56.2693 109.499C56.5557 109.199 56.7787 108.844 56.925 108.456C57.0712 108.067 57.1376 107.652 57.1203 107.237C57.1444 106.82 57.082 106.403 56.9372 106.012C56.7924 105.621 56.5683 105.264 56.2791 104.965C55.491 104.346 54.497 104.054 53.5013 104.148H50.6747V110.375Z" fill="#343947" fill-opacity="0.1"/>
<path d="M76.8305 120.26C75.2083 120.288 73.6079 119.88 72.1944 119.079C70.8422 118.299 69.7369 117.15 69.0058 115.765C68.24 114.196 67.8418 112.471 67.8418 110.724C67.8418 108.976 68.24 107.252 69.0058 105.683C69.7399 104.3 70.8445 103.152 72.1944 102.368C73.6205 101.595 75.2153 101.19 76.8354 101.19C78.4555 101.19 80.0502 101.595 81.4764 102.368C82.8263 103.152 83.9308 104.3 84.6649 105.683C85.4244 107.254 85.819 108.977 85.819 110.724C85.819 112.47 85.4244 114.194 84.6649 115.765C83.9339 117.15 82.8285 118.299 81.4764 119.079C80.0598 119.882 78.456 120.289 76.8305 120.26ZM76.8305 117.309C77.9606 117.35 79.0773 117.052 80.0386 116.453C80.9085 115.878 81.5892 115.057 81.9948 114.093C82.8685 111.926 82.8685 109.502 81.9948 107.335C81.5891 106.374 80.9082 105.556 80.0386 104.985C79.0595 104.424 77.9522 104.129 76.8256 104.129C75.699 104.129 74.5917 104.424 73.6126 104.985C72.743 105.556 72.0621 106.374 71.6564 107.335C70.7826 109.502 70.7826 111.926 71.6564 114.093C72.0619 115.057 72.7427 115.878 73.6126 116.453C74.5764 117.056 75.6963 117.357 76.8305 117.319V117.309Z" fill="#343947" fill-opacity="0.1"/>
<path d="M93.0156 119.897L95.5195 101.553H98.0234L102.601 110.179L107.139 101.553H109.663L112.157 119.897H108.998L107.217 105.684L108.039 105.841L102.601 115.864L97.1334 105.851L97.955 105.713L96.165 119.897H93.0156Z" fill="#343947" fill-opacity="0.1"/>
<path d="M125.849 120.258C125.085 120.26 124.323 120.194 123.57 120.061C122.843 119.943 122.125 119.779 121.418 119.569C120.873 119.413 120.34 119.216 119.824 118.979L120.206 115.753C120.763 116.029 121.37 116.284 122.025 116.53C122.703 116.79 123.399 116.997 124.108 117.15C124.827 117.315 125.562 117.397 126.299 117.396C127.129 117.435 127.953 117.237 128.676 116.825C128.966 116.639 129.202 116.379 129.36 116.071C129.518 115.764 129.592 115.42 129.576 115.074C129.598 114.542 129.424 114.02 129.087 113.609C128.679 113.176 128.182 112.84 127.629 112.625C126.984 112.34 126.152 112.035 125.155 111.701C124.236 111.401 123.343 111.026 122.485 110.579C121.725 110.197 121.07 109.633 120.577 108.937C120.07 108.166 119.82 107.253 119.863 106.33C119.837 105.372 120.104 104.428 120.629 103.627C121.154 102.827 121.911 102.208 122.798 101.855C123.947 101.38 125.184 101.156 126.426 101.196C127.517 101.189 128.605 101.317 129.664 101.58C130.531 101.78 131.378 102.056 132.197 102.406L131.884 105.544C130.97 105.078 130.014 104.702 129.028 104.422C128.126 104.174 127.195 104.048 126.26 104.048C125.428 104.007 124.601 104.19 123.864 104.58C123.578 104.74 123.342 104.978 123.185 105.267C123.027 105.556 122.954 105.884 122.974 106.212C122.957 106.7 123.12 107.177 123.433 107.55C123.802 107.934 124.249 108.233 124.744 108.425C125.428 108.712 126.127 108.962 126.837 109.173C127.981 109.518 129.088 109.976 130.143 110.54C130.967 110.966 131.673 111.591 132.197 112.36C132.68 113.158 132.921 114.081 132.891 115.015C132.887 115.648 132.781 116.276 132.578 116.874C132.353 117.524 131.974 118.108 131.473 118.576C130.855 119.146 130.116 119.567 129.312 119.806C128.189 120.14 127.02 120.293 125.849 120.258Z" fill="#343947" fill-opacity="0.1"/>
<path d="M139.133 119.895L148.865 103.272L149.403 104.256H140.306V101.531H153.022L143.241 118.164L142.713 117.18H152.865V119.905L139.133 119.895Z" fill="#343947" fill-opacity="0.1"/>
<path d="M160.455 119.895V101.551H171.928V104.433H163.526V108.879H170.109V111.761H163.526V117.013H172.173V119.895H160.455ZM163.957 99.9577V98.2561L168.984 95.7676V98.4331L163.957 99.9577Z" fill="#343947" fill-opacity="0.1"/>
<path d="M180.33 119.897V101.553H183.352V119.897H180.33ZM190.365 119.897L183.616 110.189L190.365 101.553H193.945L187.098 110.179L193.945 119.897H190.365Z" fill="#343947" fill-opacity="0.1"/>
<path d="M254.717 33H243.822C243.457 33.0026 243.108 33.1507 242.849 33.4123C242.591 33.6739 242.445 34.028 242.442 34.3979V54.6476C242.454 59.6655 240.563 64.4965 237.159 68.1423C233.755 71.7881 229.099 73.9701 224.152 74.2377H222.062C217.102 73.9752 212.431 71.7928 209.015 68.1414C205.598 64.4901 203.697 59.6489 203.703 54.6181V34.3979C203.701 34.028 203.555 33.6739 203.296 33.4123C203.038 33.1507 202.689 33.0026 202.323 33H191.39C191.023 33 190.671 33.147 190.41 33.4088C190.15 33.6707 190.003 34.0263 190 34.3979V54.6476C190.001 62.7109 192.876 70.5027 198.096 76.5905C200.907 79.8496 204.317 82.5244 208.135 84.4659C209.613 85.2304 211.143 85.8883 212.713 86.4348C214.097 86.8924 215.509 87.2574 216.94 87.5275H217.028H217.232C218.204 87.7047 219.176 87.8425 220.235 87.9212C220.595 87.9212 220.925 87.9803 221.275 88H224.851L225.823 87.9409C226.853 87.8523 227.864 87.7243 228.856 87.5471L229.108 87.4979C234.875 86.4025 240.246 83.7573 244.658 79.8391C245.815 78.8315 246.894 77.7356 247.885 76.5609C253.128 70.4857 256.012 62.6873 256 54.6181V34.3979C255.999 34.0443 255.866 33.7041 255.628 33.4451C255.39 33.1861 255.065 33.0272 254.717 33ZM253.327 54.6574C253.334 62.049 250.692 69.1919 245.892 74.7594C244.995 75.8408 244.02 76.8542 242.977 77.7915C238.735 81.5367 233.538 83.9965 227.981 84.8892C227.485 84.9876 226.951 85.0467 226.455 85.1058L225.93 85.1747C225.522 85.1747 225.104 85.2436 224.686 85.2633H221.654C220.682 85.2141 219.632 85.1156 218.651 84.9679L217.912 84.8498L217.183 84.712C216.785 84.6333 216.367 84.5348 215.959 84.4363L215.308 84.269L214.618 84.0721L213.86 83.8359L213.51 83.7177L212.645 83.4126C212.61 83.4222 212.573 83.4222 212.538 83.4126C211.848 83.1566 211.167 82.881 210.507 82.5659L209.739 82.1919C209.592 82.1296 209.449 82.0572 209.311 81.9753L208.65 81.6209C208.155 81.3551 207.678 81.0598 207.202 80.7645C206.726 80.4691 206.318 80.1836 205.88 79.8883C201.872 77.0673 198.597 73.3052 196.336 68.9235C194.075 64.5417 192.895 59.6706 192.896 54.7263V36.4652C192.896 36.2903 192.965 36.1225 193.087 35.9988C193.209 35.8751 193.375 35.8056 193.547 35.8056H200.35C200.523 35.8056 200.689 35.8751 200.811 35.9988C200.933 36.1225 201.002 36.2903 201.002 36.4652V54.6476C200.995 60.4144 203.184 65.9619 207.111 70.1366C211.039 74.3113 216.404 76.792 222.091 77.063H224.307C229.982 76.7771 235.331 74.2893 239.243 70.1156C243.155 65.942 245.331 60.4029 245.319 54.6476V36.4947C245.319 36.3198 245.388 36.1521 245.51 36.0284C245.632 35.9047 245.798 35.8352 245.97 35.8352H252.773C252.944 35.8345 253.108 35.9017 253.23 36.0222C253.292 36.082 253.341 36.1539 253.374 36.2334C253.407 36.3129 253.425 36.3985 253.424 36.4849L253.327 54.6574Z" fill="#30D5C8"/>
</svg>
