<svg width="255" height="122" viewBox="0 0 255 122" fill="none" xmlns="http://www.w3.org/2000/svg">
<path d="M20.2118 44H11.4357C11.0558 44.0026 10.6921 44.153 10.4234 44.4186C10.1548 44.6842 10.0026 45.0438 10 45.4194V65.5806C10.0026 65.9563 10.1548 66.3158 10.4234 66.5814C10.6921 66.847 11.0558 66.9974 11.4357 67H20.2118C26.2783 67 31 62.0022 31 55.505C31 49.0078 26.2581 44 20.2118 44ZM20.2118 64.1512H13.559C13.3793 64.1512 13.207 64.0807 13.08 63.9551C12.9529 63.8295 12.8816 63.6591 12.8816 63.4815V47.4885C12.8816 47.3109 12.9529 47.1405 13.08 47.0149C13.207 46.8893 13.3793 46.8188 13.559 46.8188H20.2118C24.6404 46.8188 28.1083 50.6171 28.1083 55.475C28.1083 60.3329 24.6404 64.1512 20.2118 64.1512Z" fill="#343947" fill-opacity="0.1"/>
<path d="M20.717 34H1.41026C1.03704 34.0026 0.679835 34.1506 0.415921 34.4119C0.152007 34.6733 0.00260094 35.027 4.25152e-10 35.3966V87.5935C-9.16748e-06 87.9649 0.148257 88.3211 0.412451 88.5846C0.676645 88.8481 1.03533 88.9974 1.41026 89H12.1064C12.4813 88.9974 12.84 88.8481 13.1042 88.5846C13.3684 88.3211 13.5167 87.9649 13.5167 87.5935V78.4564C13.5167 78.2816 13.5868 78.114 13.7116 77.9904C13.8363 77.8668 14.0056 77.7974 14.1821 77.7974H20.717C32.446 77.7974 42 67.9619 42 55.9036C42 43.8453 32.446 34 20.717 34ZM20.717 74.9943H12.0965C11.7215 74.9969 11.3629 75.1462 11.0987 75.4097C10.8345 75.6732 10.6862 76.0294 10.6862 76.4008V85.5477C10.6836 85.7208 10.6123 85.8859 10.4878 86.0074C10.3633 86.1288 10.1956 86.1969 10.0208 86.1969H3.53559C3.36082 86.1969 3.19306 86.1288 3.06855 86.0074C2.94404 85.8859 2.87279 85.7208 2.87018 85.5477V37.4621C2.87018 37.2873 2.94029 37.1197 3.06508 36.9961C3.18987 36.8725 3.35911 36.8031 3.53559 36.8031H20.717C30.8867 36.8031 39.1596 45.3698 39.1596 55.9036C39.1596 66.4374 30.8867 74.9943 20.717 74.9943Z" fill="#343947" fill-opacity="0.1"/>
<path d="M83.5666 34H48.4234C48.0467 34.0026 47.6862 34.1506 47.4198 34.412C47.1534 34.6734 47.0026 35.0272 47 35.3969V87.5933C47 87.9647 47.1496 88.321 47.4163 88.5845C47.6829 88.848 48.0449 88.9974 48.4234 89H83.5666C83.9468 89 84.3114 88.8518 84.5802 88.588C84.849 88.3242 85 87.9664 85 87.5933V76.9297C84.9974 76.5583 84.8452 76.203 84.5766 75.9414C84.3081 75.6797 83.945 75.5328 83.5666 75.5328H61.374C61.1977 75.5302 61.0294 75.4597 60.9056 75.3363C60.7818 75.213 60.7124 75.0468 60.7125 74.8737V68.4598C60.7125 68.2876 60.7822 68.1225 60.9063 68.0007C61.0303 67.879 61.1986 67.8106 61.374 67.8106H82.6645C83.0438 67.808 83.4069 67.659 83.6751 67.3957C83.9434 67.1325 84.0952 66.7762 84.0979 66.4039V56.5666C84.0979 56.1935 83.9468 55.8357 83.678 55.5719C83.4092 55.3081 83.0446 55.1599 82.6645 55.1599H61.374C61.1994 55.1574 61.0326 55.0881 60.9091 54.9669C60.7856 54.8457 60.7151 54.682 60.7125 54.5106V48.0869C60.7151 47.9155 60.7856 47.7519 60.9091 47.6306C61.0326 47.5094 61.1994 47.4402 61.374 47.4377H83.5666C83.9468 47.4377 84.3114 47.2895 84.5802 47.0256C84.849 46.7618 85 46.404 85 46.031V35.3969C84.9974 35.0255 84.8452 34.6702 84.5766 34.4085C84.3081 34.1469 83.945 34 83.5666 34ZM57.8457 46.0605V56.5961C57.8457 56.9692 57.9967 57.327 58.2655 57.5908C58.5343 57.8547 58.8989 58.0029 59.2791 58.0029H80.5595C80.7359 58.0028 80.9052 58.0709 81.0309 58.1924C81.1565 58.3139 81.2284 58.479 81.2311 58.6521V64.3381C81.2311 64.5129 81.1603 64.6805 81.0344 64.8041C80.9084 64.9277 80.7376 64.9971 80.5595 64.9971H59.2791C58.8989 64.9971 58.5343 65.1454 58.2655 65.4092C57.9967 65.673 57.8457 66.0308 57.8457 66.4039V76.9396C57.8483 77.3109 58.0005 77.6662 58.2691 77.9279C58.5376 78.1896 58.9007 78.3364 59.2791 78.3364H81.4616C81.5498 78.3364 81.6372 78.3535 81.7186 78.3866C81.8001 78.4197 81.8741 78.4683 81.9365 78.5295C81.9989 78.5907 82.0483 78.6633 82.0821 78.7433C82.1158 78.8233 82.1332 78.909 82.1332 78.9955V85.5373C82.1306 85.7104 82.0587 85.8755 81.933 85.997C81.8074 86.1185 81.638 86.1866 81.4616 86.1866H50.5284C50.352 86.1866 50.1826 86.1185 50.057 85.997C49.9313 85.8755 49.8594 85.7104 49.8568 85.5373V37.4627C49.8568 37.2879 49.9275 37.1203 50.0535 36.9967C50.1794 36.8731 50.3503 36.8036 50.5284 36.8036H81.4616C81.5498 36.8036 81.6372 36.8207 81.7186 36.8538C81.8001 36.8869 81.8741 36.9355 81.9365 36.9967C81.9989 37.0579 82.0483 37.1305 82.0821 37.2105C82.1158 37.2905 82.1332 37.3762 82.1332 37.4627V43.9946C82.1332 44.0812 82.1158 44.1669 82.0821 44.2469C82.0483 44.3268 81.9989 44.3995 81.9365 44.4607C81.8741 44.5219 81.8001 44.5704 81.7186 44.6036C81.6372 44.6367 81.5498 44.6537 81.4616 44.6537H59.2791C59.0908 44.6537 58.9044 44.6901 58.7305 44.7608C58.5566 44.8315 58.3986 44.9351 58.2655 45.0658C58.1324 45.1964 58.0268 45.3515 57.9548 45.5221C57.8828 45.6928 57.8457 45.8757 57.8457 46.0605Z" fill="#343947" fill-opacity="0.1"/>
<path d="M112.698 44H103.504C103.106 44.0026 102.725 44.153 102.444 44.4186C102.162 44.6842 102.003 45.0438 102 45.4194V65.5806C102.003 65.9563 102.162 66.3158 102.444 66.5814C102.725 66.847 103.106 66.9974 103.504 67H112.698C119.053 67 124 62.0022 124 55.505C124 49.0078 119.032 44 112.698 44ZM120.971 55.505C120.971 60.3529 117.338 64.1512 112.698 64.1512H105.728C105.54 64.1512 105.36 64.0807 105.227 63.9551C105.094 63.8295 105.019 63.6591 105.019 63.4815V47.4885C105.019 47.4005 105.037 47.3135 105.073 47.2322C105.108 47.151 105.161 47.0771 105.227 47.0149C105.293 46.9528 105.371 46.9034 105.457 46.8698C105.543 46.8361 105.635 46.8188 105.728 46.8188H112.698C117.338 46.8488 120.971 50.6471 120.971 55.505Z" fill="#343947" fill-opacity="0.1"/>
<path d="M123.333 75.6041C123.263 75.5342 123.209 75.4491 123.177 75.3553C123.145 75.2615 123.134 75.1616 123.146 75.0631C123.155 74.9669 123.187 74.8741 123.238 74.7921C123.289 74.7101 123.359 74.6412 123.442 74.591C126.58 72.5901 129.158 69.8256 130.934 66.5568C132.71 63.2881 133.625 59.6224 133.594 55.9036C133.594 43.8256 124.121 34 112.492 34H93.4081C93.0364 34 92.6797 34.1468 92.4159 34.4085C92.1521 34.6701 92.0026 35.0253 92 35.3966V87.5935C92 87.9666 92.1483 88.3243 92.4124 88.5881C92.6765 88.8518 93.0347 89 93.4081 89H104.004C104.375 88.9974 104.731 88.8481 104.993 88.5846C105.255 88.3211 105.402 87.9649 105.402 87.5935V78.4564C105.402 78.2816 105.471 78.114 105.595 77.9904C105.719 77.8668 105.887 77.7974 106.062 77.7974H107.184C107.269 77.7975 107.353 77.8149 107.431 77.8488C107.509 77.8826 107.579 77.9321 107.637 77.9941L118.646 88.8132L118.823 89H133.594C133.873 88.9996 134.146 88.9161 134.378 88.7603C134.61 88.6045 134.79 88.3834 134.896 88.125C135.001 87.8667 135.027 87.5828 134.971 87.3095C134.915 87.0362 134.778 86.7859 134.579 86.5903L123.333 75.6041ZM119.011 74.414C118.97 74.637 118.984 74.8665 119.053 75.0826C119.122 75.2986 119.242 75.4946 119.404 75.6533L128.946 85.0461C129.042 85.1363 129.107 85.2535 129.133 85.3819C129.16 85.5103 129.146 85.6438 129.094 85.7641C129.049 85.8857 128.966 85.99 128.859 86.0623C128.751 86.1347 128.623 86.1714 128.493 86.1674H120.222C120.049 86.167 119.883 86.1001 119.759 85.9805L108.76 75.1615L108.573 74.9845H103.945C103.574 74.987 103.22 75.135 102.959 75.3964C102.697 75.6577 102.549 76.0115 102.546 76.3811V85.5281C102.544 85.7011 102.473 85.8662 102.35 85.9877C102.226 86.1092 102.06 86.1772 101.886 86.1772H95.3775C95.2922 86.1772 95.2077 86.1604 95.1288 86.1278C95.05 86.0952 94.9783 86.0474 94.918 85.9871C94.8576 85.9268 94.8098 85.8553 94.7771 85.7765C94.7444 85.6978 94.7276 85.6133 94.7276 85.5281V37.4424C94.7263 37.3563 94.7422 37.2709 94.7742 37.191C94.8063 37.1111 94.854 37.0384 94.9145 36.977C94.9749 36.9157 95.047 36.867 95.1265 36.8338C95.206 36.8005 95.2914 36.7834 95.3775 36.7834H112.452C122.536 36.7834 130.738 45.3501 130.738 55.8839C130.78 59.5474 129.771 63.1461 127.83 66.2553C125.89 69.3644 123.1 71.8541 119.788 73.4304C119.591 73.5219 119.417 73.6586 119.282 73.8294C119.147 74.0003 119.054 74.2006 119.011 74.414Z" fill="#343947" fill-opacity="0.1"/>
<path d="M180.625 34.0001H140.346C139.99 34.0027 139.649 34.1507 139.397 34.4121C139.145 34.6734 139.002 35.0272 139 35.3968V46.1273C139 46.4986 139.142 46.8548 139.394 47.1183C139.646 47.3818 139.988 47.5311 140.346 47.5337H153.229C153.395 47.5337 153.554 47.6021 153.671 47.7239C153.789 47.8456 153.855 48.0107 153.855 48.1829V87.5935C153.855 87.9666 153.998 88.3243 154.252 88.5881C154.506 88.8518 154.851 89 155.21 89H165.79C166.148 88.9974 166.49 88.8481 166.742 88.5846C166.994 88.3211 167.136 87.9649 167.136 87.5935V48.1829C167.136 48.0968 167.152 48.0116 167.184 47.9322C167.216 47.8528 167.263 47.7807 167.322 47.7203C167.381 47.6599 167.452 47.6123 167.529 47.5803C167.606 47.5482 167.688 47.5324 167.771 47.5337H180.644C180.822 47.5337 180.999 47.4973 181.163 47.4267C181.328 47.356 181.477 47.2524 181.603 47.1218C181.729 46.9912 181.829 46.8361 181.897 46.6655C181.965 46.4949 182 46.312 182 46.1273V35.3968C181.999 35.2112 181.962 35.0278 181.892 34.857C181.822 34.6862 181.721 34.5314 181.593 34.4016C181.465 34.2718 181.314 34.1695 181.148 34.1006C180.982 34.0317 180.804 33.9975 180.625 34.0001ZM164.415 46.1273V85.5379C164.413 85.711 164.345 85.8761 164.226 85.9976C164.107 86.119 163.947 86.1871 163.78 86.1871H157.144C156.977 86.1871 156.817 86.119 156.698 85.9976C156.58 85.8761 156.512 85.711 156.509 85.5379V46.1273C156.509 45.7542 156.366 45.3965 156.112 45.1327C155.858 44.869 155.513 44.7208 155.153 44.7208H142.318C142.149 44.7208 141.988 44.6514 141.869 44.5278C141.75 44.4042 141.683 44.2366 141.683 44.0618V37.4622C141.683 37.2875 141.75 37.1198 141.869 36.9962C141.988 36.8727 142.149 36.8032 142.318 36.8032H178.644C178.811 36.8058 178.97 36.8764 179.087 36.9997C179.204 37.123 179.27 37.2891 179.27 37.4622V44.0618C179.27 44.2349 179.204 44.401 179.087 44.5243C178.97 44.6476 178.811 44.7182 178.644 44.7208H165.761C165.403 44.7234 165.061 44.8727 164.809 45.1362C164.557 45.3997 164.415 45.7559 164.415 46.1273Z" fill="#343947" fill-opacity="0.1"/>
<path d="M253.501 34.0017H242.339C242.151 34.0017 241.964 34.0384 241.79 34.1098C241.616 34.1812 241.458 34.2857 241.325 34.4175C241.192 34.5493 241.087 34.7056 241.016 34.8776C240.945 35.0495 240.909 35.2336 240.91 35.4193V55.6701C240.93 60.6962 238.984 65.5367 235.476 69.1866C231.969 72.8365 227.169 75.0154 222.074 75.271H219.926C214.827 75.0061 210.026 72.8229 206.513 69.1719C203.001 65.5209 201.045 60.6807 201.05 55.6504V35.4193C201.05 35.046 200.899 34.6879 200.631 34.4239C200.363 34.1599 200 34.0115 199.621 34.0115H188.429C188.05 34.0115 187.687 34.1599 187.419 34.4239C187.151 34.6879 187 35.046 187 35.4193V55.6701C186.994 63.7304 189.946 71.521 195.314 77.6042C196.352 78.7899 197.478 79.8987 198.681 80.9219C200.806 82.7431 203.156 84.2913 205.676 85.5293C207.196 86.2795 208.769 86.9211 210.383 87.449C211.808 87.9145 213.263 88.2829 214.74 88.5516C214.893 88.5772 215.033 88.6555 215.133 88.7726C215.234 88.8897 215.289 89.0381 215.289 89.1915V110.092C215.287 110.264 215.216 110.427 215.093 110.549C214.97 110.67 214.804 110.739 214.63 110.742H205.366C204.987 110.742 204.624 110.89 204.356 111.154C204.088 111.418 203.938 111.776 203.938 112.15V119.592C203.938 119.966 204.088 120.324 204.356 120.588C204.624 120.852 204.987 121 205.366 121H236.693C237.072 121 237.436 120.852 237.704 120.588C237.972 120.324 238.122 119.966 238.122 119.592V112.15C238.122 111.776 237.972 111.418 237.704 111.154C237.436 110.89 237.072 110.742 236.693 110.742H227.43C227.254 110.742 227.086 110.674 226.96 110.552C226.835 110.43 226.763 110.265 226.761 110.092V89.1817C226.763 89.0274 226.821 88.8788 226.923 88.7619C227.025 88.645 227.166 88.5671 227.32 88.5418C235.1 87.0966 242.123 83.0203 247.177 77.0168C252.23 71.0133 254.997 63.4596 255 55.6602V35.4193C255.002 35.2277 254.963 35.0377 254.888 34.8611C254.812 34.6845 254.701 34.525 254.561 34.3922C254.42 34.2595 254.254 34.1564 254.072 34.0893C253.89 34.0221 253.695 33.9923 253.501 34.0017ZM225.951 85.8935C225.432 85.9821 224.892 86.051 224.382 86.1101L223.833 86.1692V112.14C223.833 112.511 223.982 112.868 224.248 113.132C224.514 113.395 224.875 113.545 225.252 113.547H234.515C234.693 113.547 234.863 113.617 234.988 113.741C235.114 113.864 235.185 114.032 235.185 114.207V117.525C235.182 117.698 235.11 117.863 234.985 117.985C234.86 118.106 234.691 118.175 234.515 118.175H207.415C207.24 118.175 207.072 118.106 206.949 117.984C206.825 117.862 206.755 117.697 206.755 117.525V114.178C206.754 114.091 206.77 114.006 206.803 113.926C206.835 113.846 206.884 113.773 206.945 113.712C207.006 113.65 207.08 113.602 207.16 113.568C207.241 113.535 207.328 113.518 207.415 113.518H216.678C217.057 113.518 217.421 113.37 217.689 113.106C217.957 112.842 218.107 112.484 218.107 112.11V86.1889L217.348 86.1003C216.898 86.0412 216.428 85.992 215.969 85.9034C214.361 85.6533 212.777 85.2746 211.232 84.7712C209.754 84.2899 208.315 83.7009 206.925 83.009C204.634 81.8706 202.496 80.4552 200.56 78.7954C199.46 77.8599 198.432 76.8465 197.482 75.7632C192.567 70.1852 189.86 63.047 189.858 55.6602V37.4769C189.857 37.3907 189.873 37.3052 189.905 37.2252C189.938 37.1452 189.986 37.0725 190.047 37.0111C190.109 36.9497 190.182 36.9009 190.263 36.8677C190.343 36.8344 190.43 36.8173 190.517 36.8173H197.512C197.69 36.8173 197.86 36.8868 197.986 37.0105C198.111 37.1342 198.182 37.302 198.182 37.4769V55.6602C198.178 61.4283 200.43 66.976 204.47 71.1507C208.51 75.3253 214.028 77.8058 219.876 78.0768H222.144C227.98 77.791 233.48 75.3034 237.504 71.1297C241.529 66.9561 243.768 61.4167 243.758 55.6602V37.4966C243.761 37.3251 243.831 37.1613 243.954 37.04C244.077 36.9186 244.244 36.8494 244.418 36.8468H251.413C251.5 36.8449 251.586 36.8604 251.667 36.8926C251.748 36.9248 251.821 36.9728 251.882 37.0339C251.946 37.0937 251.996 37.1656 252.03 37.2451C252.065 37.3246 252.082 37.4102 252.082 37.4966V55.6799C252.109 63.063 249.418 70.2052 244.508 75.7829C243.58 76.86 242.578 77.8731 241.51 78.8151C237.148 82.5588 231.805 85.0184 226.091 85.9132L225.951 85.8935Z" fill="#30D5C8"/>
<path d="M227.752 27.1984H237.612H238V20.4464V20.0457H227.868C227.525 20.0571 227.189 19.9381 226.925 19.711C226.66 19.484 226.485 19.1647 226.433 18.8135C226.417 18.6243 226.439 18.4336 226.498 18.2537C226.557 18.0737 226.652 17.9084 226.776 17.768C226.9 17.6277 227.05 17.5155 227.218 17.4386C227.387 17.3616 227.568 17.3215 227.752 17.3208H237.777L237.99 17.0804V16.87C237.978 16.1792 237.923 15.4899 237.825 14.8064C237.236 10.7012 235.243 6.95009 232.207 4.23357C229.17 1.51704 225.292 0.0150373 221.276 0H219.724C215.698 0.0168528 211.812 1.52698 208.773 4.2555C205.733 6.98402 203.743 10.7495 203.165 14.8665C203.072 15.5506 203.017 16.2396 203 16.9301V17.3309H213.267C213.611 17.3172 213.948 17.4355 214.213 17.6629C214.478 17.8904 214.652 18.211 214.702 18.5631C214.716 18.7452 214.692 18.9282 214.634 19.1007C214.576 19.2731 214.483 19.4311 214.363 19.5648C214.241 19.7064 214.092 19.8197 213.925 19.8974C213.758 19.9751 213.577 20.0154 213.393 20.0156H203.378H203V26.7777V27.1684H213.267C213.611 27.1569 213.947 27.276 214.211 27.5031C214.476 27.7301 214.65 28.0494 214.702 28.4006C214.72 28.5918 214.698 28.7848 214.639 28.9669C214.58 29.1489 214.483 29.3159 214.357 29.4568C214.231 29.5978 214.077 29.7096 213.906 29.7848C213.735 29.86 213.55 29.8969 213.364 29.8932H203.378H203V55.5189C203 60.1552 204.782 64.6015 207.955 67.8799C211.128 71.1582 215.431 73 219.918 73H221.072C225.56 73 229.864 71.1586 233.038 67.8805C236.213 64.6024 237.997 60.1561 238 55.5189V30.324V29.9233H227.868C227.525 29.9347 227.189 29.8157 226.925 29.5886C226.66 29.3615 226.485 29.0422 226.433 28.6911C226.423 28.5092 226.448 28.3271 226.506 28.1552C226.565 27.9833 226.655 27.825 226.773 27.6893C226.894 27.5421 227.044 27.4225 227.213 27.338C227.381 27.2535 227.565 27.206 227.752 27.1984ZM223.816 27.7294C223.656 28.5324 223.73 29.3663 224.028 30.1259C224.327 30.8855 224.837 31.5366 225.493 31.997C226.214 32.4892 227.063 32.741 227.927 32.7183H235.12C235.167 32.7183 235.211 32.7373 235.244 32.7711C235.277 32.8049 235.295 32.8508 235.295 32.8986V55.579C235.295 59.4766 233.797 63.2147 231.129 65.9707C228.462 68.7268 224.844 70.2751 221.072 70.2751H219.928C216.153 70.2751 212.533 68.7258 209.864 65.9678C207.195 63.2099 205.695 59.4693 205.695 55.569V32.8986C205.695 32.8508 205.714 32.8049 205.746 32.7711C205.779 32.7373 205.824 32.7183 205.87 32.7183H213.209C214.157 32.7394 215.083 32.4205 215.828 31.816C216.574 31.2114 217.095 30.3585 217.301 29.4024C217.459 28.5994 217.385 27.7659 217.086 27.0066C216.788 26.2473 216.279 25.5961 215.623 25.1348C214.898 24.6441 214.046 24.3925 213.18 24.4135H205.87C205.824 24.4135 205.779 24.3945 205.746 24.3607C205.714 24.3268 205.695 24.281 205.695 24.2332V22.9909C205.695 22.9431 205.714 22.8973 205.746 22.8634C205.779 22.8296 205.824 22.8106 205.87 22.8106H213.209C214.156 22.8322 215.08 22.5148 215.826 21.9122C216.572 21.3096 217.093 20.459 217.301 19.5047C217.459 18.6993 217.383 17.8635 217.083 17.1023C216.783 16.3412 216.272 15.6888 215.614 15.2271C214.89 14.7425 214.042 14.4946 213.18 14.5158H206.18C206.153 14.5165 206.127 14.5109 206.103 14.4995C206.079 14.488 206.057 14.471 206.041 14.4498C206.024 14.4285 206.012 14.4036 206.006 14.3768C206 14.3501 206 14.3222 206.006 14.2954C206.668 11.0473 208.395 8.13464 210.894 6.04874C213.393 3.96283 216.512 2.83133 219.724 2.84506H221.276C224.491 2.83319 227.612 3.96933 230.11 6.0613C232.608 8.15327 234.33 11.0726 234.985 14.3255C234.991 14.3523 234.991 14.3801 234.985 14.4069C234.978 14.4336 234.967 14.4586 234.95 14.4798C234.933 14.5011 234.912 14.5181 234.887 14.5295C234.863 14.541 234.837 14.5466 234.81 14.5459H227.907C226.959 14.5229 226.032 14.841 225.286 15.4459C224.54 16.0507 224.02 16.9048 223.816 17.8618C223.657 18.6638 223.731 19.4961 224.028 20.255C224.324 21.014 224.831 21.6659 225.483 22.1294C226.21 22.6143 227.062 22.8621 227.927 22.8407H235.12C235.143 22.8407 235.166 22.8453 235.187 22.8544C235.208 22.8635 235.228 22.8767 235.244 22.8935C235.26 22.9102 235.273 22.9301 235.282 22.952C235.29 22.9739 235.295 22.9973 235.295 23.021V24.2632C235.295 24.311 235.277 24.3569 235.244 24.3907C235.211 24.4245 235.167 24.4435 235.12 24.4435H227.907C226.963 24.4191 226.04 24.7329 225.294 25.3319C224.548 25.9308 224.026 26.7779 223.816 27.7294Z" fill="#FFFF66"/>
<path d="M1.56445 120.686V102.342H4.58674V109.719H13.2623V102.342H16.2846V120.686H13.2623V112.581H4.58674V120.686H1.56445Z" fill="#343947" fill-opacity="0.1"/>
<path d="M31.2188 105.321H32.0208L26.6316 120.685H23.6289L30.1331 102.341H33.0674L39.5814 120.685H36.5787L31.2188 105.321ZM35.4637 116.141H27.7955V113.455H35.493L35.4637 116.141ZM29.1159 100.777V99.0754L34.1433 96.5869V99.2524L29.1159 100.777Z" fill="#343947" fill-opacity="0.1"/>
<path d="M46.9863 120.685V102.341H53.383C54.5138 102.316 55.638 102.52 56.6889 102.941C57.597 103.3 58.3677 103.941 58.8896 104.77C59.4434 105.719 59.7149 106.808 59.672 107.908C59.7224 109.032 59.4289 110.144 58.8309 111.095C58.2556 111.944 57.4655 112.623 56.5422 113.062L60.6501 120.724H57.1877L53.5884 113.79H50.0575V120.724L46.9863 120.685ZM50.0575 111.164H52.8059C53.8323 111.26 54.8551 110.946 55.6521 110.288C55.9385 109.988 56.1615 109.633 56.3078 109.245C56.454 108.856 56.5205 108.441 56.5031 108.026C56.5272 107.609 56.4648 107.192 56.32 106.801C56.1752 106.41 55.9511 106.053 55.6619 105.754C54.8738 105.135 53.8798 104.843 52.8842 104.937H50.0575V111.164Z" fill="#343947" fill-opacity="0.1"/>
<path d="M76.2133 121.049C74.5911 121.077 72.9908 120.669 71.5772 119.868C70.225 119.088 69.1197 117.939 68.3886 116.554C67.6228 114.985 67.2246 113.261 67.2246 111.513C67.2246 109.765 67.6228 108.041 68.3886 106.472C69.1227 105.089 70.2273 103.941 71.5772 103.157C73.0033 102.384 74.5981 101.979 76.2182 101.979C77.8383 101.979 79.4331 102.384 80.8592 103.157C82.2091 103.941 83.3137 105.089 84.0477 106.472C84.8072 108.043 85.2018 109.766 85.2018 111.513C85.2018 113.259 84.8072 114.983 84.0477 116.554C83.3167 117.939 82.2114 119.088 80.8592 119.868C79.4426 120.671 77.8388 121.078 76.2133 121.049ZM76.2133 118.098C77.3434 118.139 78.4601 117.841 79.4214 117.242C80.2913 116.667 80.972 115.846 81.3776 114.882C82.2514 112.715 82.2514 110.291 81.3776 108.124C80.9719 107.163 80.291 106.345 79.4214 105.774C78.4423 105.213 77.335 104.918 76.2084 104.918C75.0818 104.918 73.9745 105.213 72.9954 105.774C72.1258 106.345 71.4449 107.163 71.0392 108.124C70.1654 110.291 70.1654 112.715 71.0392 114.882C71.4448 115.846 72.1255 116.667 72.9954 117.242C73.9592 117.845 75.0791 118.146 76.2133 118.108V118.098Z" fill="#343947" fill-opacity="0.1"/>
<path d="M92.3984 120.686L94.9023 102.342H97.4062L101.984 110.968L106.522 102.342H109.045L111.539 120.686H108.38L106.6 106.473L107.422 106.63L101.984 116.653L96.5162 106.64L97.3378 106.502L95.5479 120.686H92.3984Z" fill="#343947" fill-opacity="0.1"/>
<path d="M125.232 121.047C124.468 121.049 123.705 120.983 122.953 120.85C122.226 120.732 121.508 120.568 120.801 120.359C120.256 120.202 119.723 120.005 119.207 119.768L119.588 116.542C120.146 116.818 120.752 117.073 121.408 117.319C122.085 117.579 122.782 117.786 123.491 117.939C124.21 118.104 124.945 118.186 125.682 118.185C126.512 118.224 127.336 118.026 128.059 117.614C128.349 117.428 128.584 117.168 128.742 116.86C128.9 116.553 128.975 116.209 128.959 115.864C128.98 115.331 128.806 114.809 128.469 114.398C128.062 113.965 127.564 113.629 127.012 113.414C126.367 113.129 125.535 112.824 124.538 112.49C123.619 112.19 122.725 111.815 121.867 111.369C121.108 110.986 120.453 110.422 119.96 109.726C119.453 108.956 119.203 108.042 119.246 107.119C119.219 106.161 119.487 105.217 120.012 104.416C120.536 103.616 121.294 102.997 122.18 102.644C123.33 102.169 124.567 101.945 125.809 101.985C126.9 101.978 127.987 102.107 129.047 102.369C129.913 102.569 130.761 102.845 131.58 103.195L131.267 106.333C130.353 105.867 129.397 105.491 128.411 105.211C127.509 104.963 126.578 104.838 125.643 104.838C124.811 104.796 123.984 104.979 123.247 105.369C122.96 105.529 122.725 105.767 122.568 106.056C122.41 106.345 122.337 106.673 122.356 107.001C122.339 107.489 122.503 107.966 122.816 108.339C123.185 108.723 123.632 109.022 124.127 109.214C124.811 109.501 125.509 109.751 126.22 109.962C127.364 110.307 128.471 110.765 129.526 111.329C130.35 111.755 131.056 112.38 131.58 113.149C132.063 113.947 132.304 114.87 132.274 115.805C132.27 116.437 132.164 117.065 131.961 117.663C131.736 118.313 131.357 118.897 130.856 119.365C130.238 119.935 129.499 120.356 128.694 120.595C127.572 120.929 126.403 121.082 125.232 121.047Z" fill="#343947" fill-opacity="0.1"/>
<path d="M138.516 120.684L148.248 104.061L148.785 105.045H139.689V102.32H152.404L142.624 118.953L142.095 117.969H152.248V120.694L138.516 120.684Z" fill="#343947" fill-opacity="0.1"/>
<path d="M159.838 120.684V102.34H171.311V105.222H162.909V109.668H169.492V112.55H162.909V117.802H171.555V120.684H159.838ZM163.339 100.747V99.0451L168.367 96.5566V99.2222L163.339 100.747Z" fill="#343947" fill-opacity="0.1"/>
<path d="M179.713 120.686V102.342H182.735V120.686H179.713ZM189.748 120.686L182.999 110.978L189.748 102.342H193.328L186.481 110.968L193.328 120.686H189.748Z" fill="#343947" fill-opacity="0.1"/>
</svg>
