<svg width="191" height="94" viewBox="0 0 191 94" fill="none" xmlns="http://www.w3.org/2000/svg">
<path d="M15.82 32.4199H9.5C9.23478 32.4199 8.98043 32.5253 8.79289 32.7128C8.60536 32.9004 8.5 33.1547 8.5 33.4199V48.1699C8.5 48.4351 8.60536 48.6895 8.79289 48.877C8.98043 49.0646 9.23478 49.1699 9.5 49.1699H15.82C20.18 49.1699 23.6 45.4799 23.6 40.7799C23.6 36.0799 20.18 32.4199 15.82 32.4199ZM15.82 47.1299H11C10.8718 47.1273 10.7497 47.0745 10.66 46.9829C10.5702 46.8913 10.52 46.7682 10.52 46.6399V34.9999C10.5226 34.8734 10.5739 34.7528 10.6634 34.6633C10.7529 34.5739 10.8735 34.5225 11 34.5199H15.8C19 34.5199 21.5 37.2899 21.5 40.8299C21.5 44.3699 19 47.1299 15.82 47.1299Z" fill="#30D5C8"/>
<path d="M15.8204 24.5801H1.65039C1.38517 24.5801 1.13082 24.6854 0.943284 24.873C0.755747 25.0605 0.650391 25.3149 0.650391 25.5801V64.2801C0.650391 64.5453 0.755747 64.7996 0.943284 64.9872C1.13082 65.1747 1.38517 65.2801 1.65039 65.2801H9.50039C9.76561 65.2801 10.02 65.1747 10.2075 64.9872C10.395 64.7996 10.5004 64.5453 10.5004 64.2801V57.5501C10.5004 57.4218 10.5506 57.2987 10.6404 57.2071C10.7301 57.1155 10.8522 57.0627 10.9804 57.0601H15.7804C24.4004 57.0601 31.4104 49.7701 31.4104 40.8201C31.4104 31.8701 24.4404 24.5801 15.8204 24.5801ZM15.8204 54.9801H9.50039C9.23517 54.9801 8.98082 55.0854 8.79328 55.273C8.60575 55.4605 8.50039 55.7149 8.50039 55.9801V62.7501C8.50039 62.88 8.44877 63.0047 8.35687 63.0966C8.26498 63.1884 8.14035 63.2401 8.01039 63.2401H3.18039C3.05043 63.2401 2.9258 63.1884 2.83391 63.0966C2.74202 63.0047 2.69039 62.88 2.69039 62.7501V27.1501C2.69039 27.0857 2.70306 27.022 2.72769 26.9626C2.75231 26.9031 2.78841 26.8491 2.83391 26.8036C2.87941 26.7581 2.93343 26.722 2.99288 26.6974C3.05233 26.6728 3.11604 26.6601 3.18039 26.6601H15.8204C23.2904 26.6601 29.3704 33.0101 29.3704 40.8201C29.3704 48.6301 23.2904 55.0001 15.8204 55.0001V54.9801Z" fill="#30D5C8"/>
<path d="M62.7204 24.5898H37.1504C36.8852 24.5898 36.6308 24.6952 36.4433 24.8827C36.2557 25.0703 36.1504 25.3246 36.1504 25.5898V64.3198C36.1504 64.5851 36.2557 64.8394 36.4433 65.027C36.6308 65.2145 36.8852 65.3198 37.1504 65.3198H62.7204C62.9856 65.3198 63.24 65.2145 63.4275 65.027C63.615 64.8394 63.7204 64.5851 63.7204 64.3198V56.4198C63.7204 56.1546 63.615 55.9003 63.4275 55.7127C63.24 55.5252 62.9856 55.4198 62.7204 55.4198H46.5704C46.4422 55.4172 46.3201 55.3645 46.2304 55.2728C46.1406 55.1812 46.0904 55.0581 46.0904 54.9298V50.1398C46.0904 50.0116 46.1406 49.8885 46.2304 49.7969C46.3201 49.7052 46.4422 49.6525 46.5704 49.6499H62.0604C62.3256 49.6499 62.58 49.5445 62.7675 49.357C62.955 49.1694 63.0604 48.9151 63.0604 48.6499V41.3398C63.0604 41.0746 62.955 40.8203 62.7675 40.6327C62.58 40.4452 62.3256 40.3398 62.0604 40.3398H46.5704C46.4422 40.3372 46.3201 40.2845 46.2304 40.1928C46.1406 40.1012 46.0904 39.9781 46.0904 39.8498V35.0598C46.0904 34.9316 46.1406 34.8085 46.2304 34.7169C46.3201 34.6252 46.4422 34.5725 46.5704 34.5698H62.7204C62.9856 34.5698 63.24 34.4645 63.4275 34.277C63.615 34.0894 63.7204 33.8351 63.7204 33.5698V25.6698C63.7315 25.532 63.7138 25.3933 63.6685 25.2626C63.6232 25.1318 63.5513 25.0119 63.4574 24.9104C63.3634 24.8089 63.2493 24.728 63.1225 24.6728C62.9956 24.6177 62.8587 24.5894 62.7204 24.5898ZM44.0004 33.5298V41.3398C44.0004 41.6051 44.1057 41.8594 44.2933 42.047C44.4808 42.2345 44.7352 42.3398 45.0004 42.3398H60.5304C60.6603 42.3398 60.785 42.3915 60.8769 42.4834C60.9688 42.5753 61.0204 42.6999 61.0204 42.8299V47.0399C61.0204 47.1698 60.9688 47.2944 60.8769 47.3863C60.785 47.4782 60.6603 47.5298 60.5304 47.5298H45.0004C44.7352 47.5298 44.4808 47.6352 44.2933 47.8227C44.1057 48.0103 44.0004 48.2646 44.0004 48.5298V56.3398C44.0004 56.6051 44.1057 56.8594 44.2933 57.047C44.4808 57.2345 44.7352 57.3398 45.0004 57.3398H61.1904C61.3203 57.3398 61.445 57.3915 61.5369 57.4834C61.6288 57.5753 61.6804 57.6999 61.6804 57.8298V62.6698C61.6804 62.7342 61.6677 62.7979 61.6431 62.8574C61.6185 62.9168 61.5824 62.9708 61.5369 63.0163C61.4914 63.0618 61.4374 63.0979 61.3779 63.1225C61.3185 63.1472 61.2547 63.1598 61.1904 63.1598H38.6804C38.6165 63.1599 38.5533 63.1471 38.4944 63.1224C38.4355 63.0976 38.3821 63.0614 38.3374 63.0157C38.2927 62.9701 38.2575 62.916 38.234 62.8566C38.2105 62.7972 38.1991 62.7337 38.2004 62.6698V27.1498C38.2004 27.0225 38.251 26.9005 38.341 26.8104C38.431 26.7204 38.5531 26.6698 38.6804 26.6698H61.1904C61.3186 26.6698 61.4418 26.7201 61.5334 26.8098C61.625 26.8996 61.6778 27.0216 61.6804 27.1498V31.9998C61.6804 32.1298 61.6288 32.2544 61.5369 32.3463C61.445 32.4382 61.3203 32.4899 61.1904 32.4899H45.0004C44.8656 32.4897 44.7322 32.5169 44.6082 32.5696C44.4842 32.6223 44.3722 32.6996 44.2788 32.7967C44.1854 32.8939 44.1125 33.0089 44.0647 33.1349C44.0169 33.2608 43.995 33.3952 44.0004 33.5298Z" fill="#30D5C8"/>
<path d="M84.4394 32.4199H78.1094C77.8442 32.4199 77.5898 32.5253 77.4023 32.7128C77.2147 32.9004 77.1094 33.1547 77.1094 33.4199V48.1699C77.1094 48.4351 77.2147 48.6895 77.4023 48.877C77.5898 49.0646 77.8442 49.1699 78.1094 49.1699H84.4394C88.7994 49.1699 92.2194 45.4799 92.2194 40.7799C92.2194 36.0799 88.7994 32.4199 84.4394 32.4199ZM90.1294 40.8199C90.1294 44.3599 87.6294 47.1299 84.4394 47.1299H79.6394C79.5094 47.1299 79.3848 47.0783 79.2929 46.9864C79.201 46.8945 79.1494 46.7699 79.1494 46.6399V34.9999C79.152 34.8717 79.2048 34.7496 79.2964 34.6599C79.388 34.5701 79.5111 34.5199 79.6394 34.5199H84.4394C87.6294 34.5099 90.1294 37.2799 90.1294 40.8199Z" fill="#30D5C8"/>
<path d="M92.4698 55.4401C92.4169 55.391 92.3766 55.33 92.3522 55.2622C92.3278 55.1943 92.3201 55.1215 92.3298 55.0501C92.3342 54.9767 92.3566 54.9055 92.395 54.8427C92.4333 54.7799 92.4865 54.7275 92.5498 54.6901C94.8749 53.2046 96.7841 51.1523 98.0979 48.726C99.4116 46.2997 100.087 43.5791 100.06 40.8201C100.06 31.8201 93.0598 24.5801 84.4398 24.5801H70.2598C69.9945 24.5801 69.7402 24.6854 69.5527 24.873C69.3651 25.0605 69.2598 25.3149 69.2598 25.5801V64.2801C69.2598 64.5453 69.3651 64.7996 69.5527 64.9872C69.7402 65.1747 69.9945 65.2801 70.2598 65.2801H78.1098C78.375 65.2801 78.6293 65.1747 78.8169 64.9872C79.0044 64.7996 79.1098 64.5453 79.1098 64.2801V57.5501C79.1098 57.4201 79.1614 57.2955 79.2533 57.2036C79.3452 57.1117 79.4698 57.0601 79.5998 57.0601H80.4298C80.4929 57.0599 80.5554 57.0722 80.6137 57.0962C80.672 57.1203 80.7251 57.1555 80.7698 57.2001L88.9198 65.2001L89.0498 65.3301H99.9998C100.216 65.3545 100.434 65.3077 100.621 65.1969C100.809 65.086 100.955 64.9171 101.037 64.7158C101.12 64.5145 101.134 64.2918 101.079 64.0814C101.023 63.871 100.901 63.6845 100.73 63.5501L92.4698 55.4401ZM89.2498 54.5601C89.2166 54.7254 89.2258 54.8965 89.2765 55.0574C89.3272 55.2182 89.4178 55.3636 89.5398 55.4801L96.6098 62.4801C96.6818 62.5455 96.7312 62.632 96.751 62.7272C96.7707 62.8224 96.7598 62.9215 96.7198 63.0101C96.6848 63.1003 96.6228 63.1776 96.5422 63.2313C96.4617 63.285 96.3665 63.3125 96.2698 63.3101H90.1498C90.0867 63.3102 90.0242 63.2979 89.9658 63.2739C89.9075 63.2499 89.8545 63.2146 89.8098 63.1701L81.6598 55.1701L81.5198 55.0001H78.1098C77.8445 55.0001 77.5902 55.1054 77.4027 55.293C77.2151 55.4805 77.1098 55.7349 77.1098 56.0001V62.7701C77.1098 62.9 77.0581 63.0247 76.9662 63.1166C76.8744 63.2085 76.7497 63.2601 76.6198 63.2601H71.7898C71.7259 63.2601 71.6626 63.2474 71.6037 63.2226C71.5448 63.1979 71.4915 63.1616 71.4468 63.116C71.4021 63.0703 71.3669 63.0162 71.3434 62.9568C71.3199 62.8974 71.3084 62.834 71.3098 62.7701V27.1501C71.3084 27.0862 71.3199 27.0227 71.3434 26.9633C71.3669 26.9039 71.4021 26.8498 71.4468 26.8042C71.4915 26.7585 71.5448 26.7223 71.6037 26.6975C71.6626 26.6728 71.7259 26.6601 71.7898 26.6601H84.4398C91.8998 26.6601 97.9998 33.0001 97.9998 40.8201C98.0226 43.5373 97.2686 46.2046 95.8265 48.5077C94.3843 50.8108 92.3142 52.654 89.8598 53.8201C89.7042 53.8824 89.5669 53.9829 89.4603 54.1122C89.3537 54.2415 89.2813 54.3955 89.2498 54.5601Z" fill="#30D5C8"/>
<path d="M135.57 24.5801H104.57C104.305 24.5801 104.051 24.6854 103.863 24.873C103.676 25.0605 103.57 25.3149 103.57 25.5801V33.5801C103.57 33.8453 103.676 34.0996 103.863 34.2872C104.051 34.4747 104.305 34.5801 104.57 34.5801H114.48C114.609 34.5827 114.731 34.6355 114.82 34.7271C114.91 34.8187 114.96 34.9418 114.96 35.0701V64.3201C114.96 64.5853 115.066 64.8396 115.253 65.0272C115.441 65.2147 115.695 65.3201 115.96 65.3201H124.1C124.366 65.3201 124.62 65.2147 124.807 65.0272C124.995 64.8396 125.1 64.5853 125.1 64.3201V35.1001C125.1 34.9701 125.152 34.8455 125.244 34.7536C125.336 34.6617 125.46 34.6101 125.59 34.6101H135.49C135.756 34.6101 136.01 34.5047 136.197 34.3172C136.385 34.1297 136.49 33.8753 136.49 33.6101V25.6201C136.501 25.3613 136.412 25.1084 136.24 24.9144C136.069 24.7204 135.828 24.6006 135.57 24.5801ZM123.1 33.5801V62.7901C123.1 62.92 123.049 63.0447 122.957 63.1366C122.865 63.2285 122.74 63.2801 122.61 63.2801H117.53C117.466 63.2801 117.403 63.2674 117.344 63.2426C117.285 63.2179 117.232 63.1816 117.187 63.136C117.143 63.0903 117.107 63.0362 117.084 62.9768C117.06 62.9174 117.049 62.8539 117.05 62.7901V33.5701C117.05 33.3049 116.945 33.0505 116.757 32.863C116.57 32.6754 116.316 32.5701 116.05 32.5701H106.15C106.086 32.5701 106.022 32.5574 105.963 32.5328C105.903 32.5082 105.849 32.4721 105.804 32.4266C105.758 32.3811 105.722 32.327 105.698 32.2676C105.673 32.2081 105.66 32.1444 105.66 32.0801V27.1501C105.66 27.0201 105.712 26.8955 105.804 26.8036C105.896 26.7117 106.02 26.6601 106.15 26.6601H134C134.13 26.6601 134.255 26.7117 134.347 26.8036C134.439 26.8955 134.49 27.0201 134.49 27.1501V32.0001C134.49 32.13 134.439 32.2547 134.347 32.3466C134.255 32.4385 134.13 32.4901 134 32.4901H124.1C123.962 32.4896 123.825 32.5179 123.698 32.5731C123.571 32.6283 123.457 32.7092 123.363 32.8107C123.269 32.9122 123.197 33.0321 123.152 33.1628C123.107 33.2935 123.089 33.4322 123.1 33.5701V33.5801Z" fill="#30D5C8"/>
<path d="M189.21 24.3401H181C180.734 24.3401 180.48 24.4454 180.293 24.633C180.105 24.8205 180 25.0749 180 25.3401V40.3401C180.012 44.0634 178.591 47.6487 176.031 50.3522C173.471 53.0557 169.968 54.6699 166.25 54.8601H164.69C160.977 54.6683 157.479 53.0617 154.914 50.3705C152.349 47.6792 150.913 44.1077 150.9 40.3901V25.3901C150.9 25.1249 150.794 24.8705 150.607 24.683C150.419 24.4954 150.165 24.3901 149.9 24.3901H141.73C141.594 24.3833 141.459 24.4041 141.332 24.4513C141.204 24.4986 141.088 24.5711 140.99 24.6647C140.892 24.7582 140.814 24.8708 140.76 24.9955C140.707 25.1202 140.68 25.2544 140.68 25.3901V40.3901C140.681 43.9358 141.444 47.4398 142.915 50.6658C144.387 53.8917 146.533 56.7644 149.21 59.0901C151.703 61.2496 154.598 62.8946 157.73 63.9301C158.766 64.2739 159.825 64.5445 160.9 64.7401C161.013 64.7607 161.115 64.8198 161.19 64.9072C161.265 64.9946 161.307 65.1051 161.31 65.2201V80.7001C161.31 80.764 161.297 80.8272 161.272 80.8861C161.247 80.945 161.211 80.9984 161.166 81.0431C161.12 81.0878 161.066 81.1229 161.006 81.1464C160.947 81.17 160.884 81.1814 160.82 81.1801H154C153.734 81.1801 153.48 81.2854 153.293 81.473C153.105 81.6605 153 81.9149 153 82.1801V87.7001C153 87.9653 153.105 88.2196 153.293 88.4072C153.48 88.5947 153.734 88.7001 154 88.7001H176.87C177.135 88.7001 177.389 88.5947 177.577 88.4072C177.764 88.2196 177.87 87.9653 177.87 87.7001V82.2201C177.87 81.9549 177.764 81.7005 177.577 81.513C177.389 81.3254 177.135 81.2201 176.87 81.2201H170.11C170.046 81.2214 169.982 81.21 169.923 81.1864C169.864 81.1629 169.809 81.1278 169.764 81.0831C169.718 81.0384 169.682 80.985 169.657 80.9261C169.632 80.8672 169.62 80.804 169.62 80.7401V65.2201C169.62 65.106 169.66 64.9957 169.733 64.908C169.806 64.8204 169.908 64.761 170.02 64.7401C174.358 63.9345 178.399 61.976 181.72 59.0701C182.589 58.3212 183.401 57.509 184.15 56.6401C188.075 52.1373 190.236 46.3639 190.23 40.3901V25.3901C190.237 25.2529 190.215 25.1158 190.167 24.9873C190.118 24.8587 190.044 24.7416 189.948 24.6431C189.853 24.5445 189.738 24.4668 189.611 24.4147C189.483 24.3625 189.347 24.3371 189.21 24.3401ZM169.1 62.7801C168.73 62.8501 168.33 62.9001 167.96 62.9401L167.56 62.9901V82.2301C167.56 82.4953 167.665 82.7496 167.853 82.9372C168.04 83.1247 168.294 83.2301 168.56 83.2301H175.32C175.447 83.2301 175.569 83.2806 175.659 83.3707C175.749 83.4607 175.8 83.5828 175.8 83.7101V86.1701C175.801 86.2339 175.79 86.2974 175.766 86.3568C175.743 86.4162 175.707 86.4703 175.663 86.516C175.618 86.5616 175.565 86.5979 175.506 86.6226C175.447 86.6473 175.384 86.6601 175.32 86.6601H155.55C155.42 86.6601 155.295 86.6084 155.203 86.5165C155.111 86.4247 155.06 86.3 155.06 86.1701V83.7501C155.062 83.6219 155.115 83.4998 155.207 83.41C155.298 83.3203 155.421 83.27 155.55 83.2701H162.31C162.575 83.2701 162.829 83.1647 163.017 82.9772C163.204 82.7896 163.31 82.5353 163.31 82.2701V63.0001L162.76 62.9401L161.76 62.7901C160.589 62.6026 159.435 62.3217 158.31 61.9501C157.229 61.5945 156.176 61.16 155.16 60.6501C151.414 58.7541 148.266 55.8571 146.067 52.2808C143.867 48.7045 142.702 44.5886 142.7 40.3901V26.9101C142.7 26.8462 142.712 26.7829 142.737 26.724C142.762 26.6651 142.798 26.6118 142.844 26.5671C142.889 26.5224 142.944 26.4872 143.003 26.4637C143.062 26.4402 143.126 26.4287 143.19 26.4301H148.3C148.364 26.4287 148.427 26.4402 148.486 26.4637C148.546 26.4872 148.6 26.5224 148.646 26.5671C148.691 26.6118 148.727 26.6651 148.752 26.724C148.777 26.7829 148.79 26.8462 148.79 26.9101V40.3901C148.785 44.6684 150.432 48.7834 153.387 51.8777C156.341 54.972 160.376 56.8069 164.65 57.0001H166.31C170.568 56.7894 174.581 54.9475 177.517 51.8567C180.454 48.7659 182.087 44.6633 182.08 40.4001V26.9301C182.08 26.8028 182.13 26.6807 182.22 26.5907C182.31 26.5006 182.432 26.4501 182.56 26.4501H187.68C187.743 26.4499 187.805 26.4622 187.864 26.4862C187.922 26.5102 187.975 26.5455 188.02 26.5901C188.112 26.6793 188.166 26.8014 188.17 26.9301V40.3901C188.169 45.8663 186.183 51.1566 182.58 55.2801C181.896 56.0807 181.154 56.8294 180.36 57.5201C177.179 60.2964 173.28 62.1195 169.11 62.7801H169.1Z" fill="#30D5C8"/>
<path d="M170.9 19.78H178.61V14.85V14.56H171C170.738 14.5823 170.477 14.5003 170.275 14.3318C170.073 14.1633 169.945 13.9219 169.92 13.66C169.907 13.5229 169.922 13.3847 169.965 13.2539C170.008 13.1231 170.078 13.0026 170.17 12.9C170.263 12.7995 170.376 12.7192 170.502 12.6641C170.627 12.6091 170.763 12.5804 170.9 12.58H178.45L178.61 12.4V12.29C178.594 11.788 178.551 11.2872 178.48 10.79C178.039 7.79406 176.536 5.05636 174.245 3.07579C171.954 1.09523 169.028 0.00365702 166 0L164.84 0C161.817 0.0101421 158.898 1.10319 156.612 3.08093C154.326 5.05868 152.825 7.79014 152.38 10.78C152.307 11.2802 152.267 11.7846 152.26 12.29V12.58H160C160.258 12.5696 160.51 12.6547 160.71 12.8188C160.909 12.983 161.041 13.2148 161.08 13.47C161.091 13.6078 161.074 13.7464 161.029 13.8773C160.985 14.0081 160.913 14.1282 160.82 14.23C160.727 14.3324 160.615 14.4145 160.489 14.4713C160.364 14.5281 160.228 14.5583 160.09 14.56H152.58H152.29V19.47V19.76H160C160.259 19.7522 160.511 19.8394 160.71 20.0052C160.909 20.171 161.041 20.4039 161.08 20.66C161.091 20.7978 161.074 20.9364 161.029 21.0673C160.985 21.1981 160.913 21.3182 160.82 21.42C160.727 21.5224 160.615 21.6045 160.489 21.6613C160.364 21.7181 160.228 21.7483 160.09 21.75H152.29V40.44C152.29 43.8127 153.628 47.0476 156.011 49.4344C158.394 51.8212 161.627 53.1647 165 53.17H165.87C169.246 53.17 172.484 51.8288 174.871 49.4415C177.259 47.0541 178.6 43.8162 178.6 40.44V22.06V21.77H171C170.74 21.7801 170.486 21.6936 170.287 21.5274C170.087 21.3612 169.957 21.127 169.92 20.87C169.907 20.7329 169.922 20.5947 169.965 20.4639C170.008 20.3331 170.078 20.2126 170.17 20.11C170.262 20.0076 170.375 19.9255 170.5 19.8687C170.626 19.8119 170.762 19.7817 170.9 19.78ZM167.9 20.17C167.776 20.7549 167.83 21.3635 168.054 21.9176C168.279 22.4718 168.664 22.9462 169.16 23.28C169.709 23.6306 170.349 23.8114 171 23.8H176.41C176.444 23.8 176.477 23.8137 176.502 23.8381C176.526 23.8625 176.54 23.8955 176.54 23.93V40.44C176.54 43.2778 175.412 45.9994 173.406 48.006C171.399 50.0127 168.678 51.14 165.84 51.14H165C162.159 51.14 159.435 50.0116 157.427 48.0031C155.418 45.9946 154.29 43.2705 154.29 40.43V23.93C154.29 23.9121 154.293 23.8943 154.301 23.8778C154.308 23.8614 154.318 23.8466 154.331 23.8344C154.344 23.8221 154.36 23.8128 154.377 23.8069C154.394 23.801 154.412 23.7986 154.43 23.8H160C160.699 23.7968 161.376 23.5567 161.921 23.119C162.466 22.6813 162.846 22.0718 163 21.39C163.124 20.8051 163.07 20.1965 162.845 19.6424C162.621 19.0882 162.236 18.6138 161.74 18.28C161.197 17.9222 160.559 17.7374 159.91 17.75H154.41C154.392 17.7514 154.374 17.749 154.357 17.7431C154.34 17.7372 154.324 17.7279 154.311 17.7156C154.298 17.7034 154.288 17.6886 154.281 17.6722C154.273 17.6557 154.27 17.6379 154.27 17.62V16.72C154.27 16.7021 154.273 16.6843 154.281 16.6678C154.288 16.6514 154.298 16.6366 154.311 16.6244C154.324 16.6121 154.34 16.6028 154.357 16.5969C154.374 16.591 154.392 16.5886 154.41 16.59H160C160.699 16.5868 161.376 16.3467 161.921 15.909C162.466 15.4713 162.846 14.8618 163 14.18C163.124 13.5951 163.07 12.9865 162.845 12.4324C162.621 11.8782 162.236 11.4038 161.74 11.07C161.193 10.7149 160.552 10.5337 159.9 10.55H154.64C154.619 10.551 154.598 10.5469 154.579 10.5381C154.56 10.5292 154.543 10.5158 154.53 10.4991C154.517 10.4824 154.509 10.4628 154.505 10.4421C154.502 10.4213 154.503 10.4 154.51 10.38C155 8.0002 156.301 5.86419 158.19 4.33608C160.079 2.80798 162.44 1.98237 164.87 2H166C168.418 1.99022 170.766 2.81579 172.647 4.33719C174.527 5.85858 175.825 7.9825 176.32 10.35C176.324 10.3699 176.324 10.3905 176.32 10.4104C176.315 10.4303 176.307 10.449 176.294 10.4652C176.282 10.4814 176.266 10.4947 176.248 10.5041C176.23 10.5136 176.21 10.519 176.19 10.52H171C170.281 10.5128 169.582 10.7566 169.023 11.2093C168.465 11.6619 168.082 12.2952 167.94 13C167.816 13.5849 167.87 14.1935 168.094 14.7476C168.319 15.3018 168.704 15.7762 169.2 16.11C169.745 16.4603 170.382 16.6413 171.03 16.63H176.45C176.484 16.63 176.517 16.6437 176.542 16.6681C176.566 16.6925 176.58 16.7255 176.58 16.76V17.66C176.58 17.6945 176.566 17.7275 176.542 17.7519C176.517 17.7763 176.484 17.79 176.45 17.79H171C170.295 17.7798 169.608 18.01 169.052 18.4427C168.496 18.8753 168.103 19.4846 167.94 20.17H167.9Z" fill="#30D5C8"/>
<path d="M1.51554 88.2998V74.6988H3.76942V80.1683H10.2396V74.6988H12.4935V88.2998H10.2396V82.2862H3.76942V88.2998H1.51554ZM22.9309 84.9093H17.1893V82.9177H22.9309V84.9093ZM19.7638 76.9041H20.3661L16.3441 88.2998H14.1097L18.9575 74.6988H21.1628L26.0203 88.2998H23.7761L19.7638 76.9041ZM18.1997 73.5136V72.2506L21.9497 70.4048V72.3866L18.1997 73.5136ZM27.6056 88.2998V74.6988H32.3757C33.3148 74.6988 34.1373 74.8478 34.8433 75.1457C35.5493 75.4371 36.0965 75.8873 36.4851 76.4961C36.8737 77.1049 37.068 77.8821 37.068 78.8277C37.068 79.7992 36.8575 80.5861 36.4366 81.1884C36.0221 81.7908 35.4553 82.2668 34.7364 82.6165L37.7967 88.2998H35.2125L32.5311 83.1606C32.5117 83.1606 32.4955 83.1606 32.4826 83.1606C32.4696 83.1606 32.4534 83.1606 32.434 83.1606H29.8984V88.2998H27.6056ZM29.8984 81.237H31.9482C32.9392 81.237 33.6451 81.0233 34.0661 80.5958C34.4936 80.1619 34.7073 79.6016 34.7073 78.9151C34.7073 78.1897 34.4968 77.6263 34.0758 77.2247C33.6548 76.8232 32.9651 76.6224 32.0065 76.6224H29.8984V81.237ZM45.5043 88.5718C44.209 88.5718 43.0561 88.2804 42.0458 87.6975C41.0354 87.1146 40.242 86.2953 39.6656 85.2396C39.0892 84.1774 38.801 82.9306 38.801 81.4993C38.801 80.068 39.0892 78.8244 39.6656 77.7687C40.242 76.7066 41.0354 75.884 42.0458 75.3011C43.0561 74.7182 44.209 74.4268 45.5043 74.4268C46.7996 74.4268 47.9525 74.7182 48.9628 75.3011C49.9732 75.884 50.7666 76.7066 51.343 77.7687C51.9194 78.8244 52.2077 80.068 52.2077 81.4993C52.2077 82.9306 51.9194 84.1774 51.343 85.2396C50.7666 86.2953 49.9732 87.1146 48.9628 87.6975C47.9525 88.2804 46.7996 88.5718 45.5043 88.5718ZM45.5043 86.3859C46.4564 86.3859 47.253 86.1755 47.8942 85.7545C48.5354 85.327 49.0179 84.7441 49.3417 84.0058C49.6656 83.2674 49.8275 82.4319 49.8275 81.4993C49.8275 80.5667 49.6656 79.7312 49.3417 78.9928C49.0179 78.2545 48.5354 77.6748 47.8942 77.2538C47.253 76.8264 46.4564 76.6127 45.5043 76.6127C44.5458 76.6127 43.7459 76.8264 43.1047 77.2538C42.4635 77.6748 41.981 78.2545 41.6572 78.9928C41.3333 79.7312 41.1714 80.5667 41.1714 81.4993C41.1714 82.4319 41.3333 83.2674 41.6572 84.0058C41.981 84.7441 42.4635 85.327 43.1047 85.7545C43.7459 86.1755 44.5458 86.3859 45.5043 86.3859ZM53.6904 88.2998L55.5557 74.6988H57.421L60.8406 81.0913L64.2215 74.6988H66.1062L67.9617 88.2998H65.6107L64.2798 77.759L64.8918 77.8756L60.8406 85.3076L56.7603 77.8853L57.3724 77.7785L56.0414 88.2998H53.6904ZM74.2803 88.5718C73.7233 88.5718 73.1566 88.5232 72.5802 88.4261C72.0037 88.3289 71.4694 88.2091 70.9772 88.0666C70.4914 87.9177 70.0964 87.7687 69.792 87.6198L70.0737 85.2299C70.4882 85.4306 70.9416 85.6249 71.4338 85.8128C71.926 85.9941 72.4409 86.1463 72.9785 86.2694C73.5225 86.3859 74.0698 86.4442 74.6203 86.4442C75.3586 86.4442 75.948 86.305 76.3884 86.0265C76.8353 85.7415 77.0588 85.3076 77.0588 84.7247C77.0588 84.2778 76.939 83.9151 76.6993 83.6366C76.4597 83.3581 76.097 83.1152 75.6112 82.908C75.1255 82.6942 74.5102 82.4643 73.7654 82.2182C73.0335 81.9786 72.3697 81.7033 71.7738 81.3924C71.178 81.0751 70.7019 80.6671 70.3457 80.1683C69.996 79.6696 69.8211 79.0252 69.8211 78.2351C69.8211 77.4967 70.0057 76.8393 70.3749 76.2629C70.744 75.6865 71.2945 75.2364 72.0264 74.9125C72.7583 74.5887 73.6618 74.4268 74.7369 74.4268C75.5918 74.4268 76.3949 74.5207 77.1462 74.7085C77.8975 74.8963 78.529 75.1004 79.0406 75.3206L78.8075 77.6522C78.0562 77.2765 77.3437 76.998 76.6702 76.8167C76.0031 76.6353 75.3165 76.5447 74.6106 76.5447C73.8593 76.5447 73.2634 76.6742 72.823 76.9333C72.3826 77.1923 72.1624 77.5971 72.1624 78.1476C72.1624 78.5557 72.2758 78.886 72.5024 79.1386C72.7291 79.3911 73.053 79.6081 73.4739 79.7895C73.9014 79.9708 74.4228 80.1554 75.0381 80.3432C76.0096 80.6476 76.8321 80.9844 77.5057 81.3536C78.1792 81.7227 78.6877 82.1729 79.0309 82.704C79.3807 83.2351 79.5555 83.8924 79.5555 84.6761C79.5555 85.1295 79.4778 85.5893 79.3224 86.0556C79.1669 86.5155 78.8917 86.9365 78.4966 87.3186C78.108 87.6942 77.5704 87.9986 76.8839 88.2318C76.1974 88.4585 75.3295 88.5718 74.2803 88.5718ZM80.2949 88.2998L87.552 75.9715L87.9504 76.7195H81.1693V74.6988H90.6511L83.3746 87.0271L82.986 86.2791H90.554V88.2998H80.2949ZM92.3091 88.2998V74.6988H100.868V76.8361H94.6018V80.1295H99.5079V82.2668H94.6018V86.1625H101.053V88.2998H92.3091ZM94.9224 73.5136V72.2506L98.6724 70.4048V72.3866L94.9224 73.5136ZM110.738 88.2998L105.706 81.101L110.738 74.6988H113.41L108.299 81.0913L113.429 88.2998H110.738ZM103.257 88.2998V74.6988H105.511V88.2998H103.257Z" fill="#30D5C8"/>
</svg>
