<svg width="254" height="122" viewBox="0 0 254 122" fill="none" xmlns="http://www.w3.org/2000/svg">
<path d="M20.2118 44H11.4357C11.0558 44.0026 10.6921 44.153 10.4234 44.4186C10.1548 44.6842 10.0026 45.0438 10 45.4194V65.5806C10.0026 65.9563 10.1548 66.3158 10.4234 66.5814C10.6921 66.847 11.0558 66.9974 11.4357 67H20.2118C26.2783 67 31 62.0022 31 55.505C31 49.0078 26.2581 44 20.2118 44ZM20.2118 64.1512H13.559C13.3793 64.1512 13.207 64.0807 13.08 63.9551C12.9529 63.8295 12.8816 63.6591 12.8816 63.4815V47.4885C12.8816 47.3109 12.9529 47.1405 13.08 47.0149C13.207 46.8893 13.3793 46.8188 13.559 46.8188H20.2118C24.6404 46.8188 28.1083 50.6171 28.1083 55.475C28.1083 60.3329 24.6404 64.1512 20.2118 64.1512Z" fill="#343947" fill-opacity="0.1"/>
<path d="M20.2237 34H1.37668C1.01235 34.0026 0.663648 34.1506 0.406018 34.4119C0.148388 34.6733 0.00253901 35.027 4.1503e-10 35.3966V87.5935C-8.94921e-06 87.9649 0.144727 88.3211 0.40263 88.5846C0.660534 88.8481 1.01067 88.9974 1.37668 89H11.8182C12.1842 88.9974 12.5343 88.8481 12.7922 88.5846C13.0501 88.3211 13.1949 87.9649 13.1948 87.5935V78.4564C13.1948 78.2816 13.2633 78.114 13.3851 77.9904C13.5069 77.8668 13.6721 77.7974 13.8444 77.7974H20.2237C31.6735 77.7974 41 67.9619 41 55.9036C41 43.8453 31.6735 34 20.2237 34ZM20.2237 74.9943H11.8085C11.4425 74.9969 11.0923 75.1462 10.8344 75.4097C10.5765 75.6732 10.4318 76.0294 10.4318 76.4008V85.5477C10.4292 85.7208 10.3597 85.8859 10.2381 86.0074C10.1166 86.1288 9.95282 86.1969 9.78222 86.1969H3.45141C3.2808 86.1969 3.11703 86.1288 2.99549 86.0074C2.87395 85.8859 2.80439 85.7208 2.80184 85.5477V37.4621C2.80184 37.2873 2.87028 37.1197 2.9921 36.9961C3.11392 36.8725 3.27913 36.8031 3.45141 36.8031H20.2237C30.1513 36.8031 38.2272 45.3698 38.2272 55.9036C38.2272 66.4374 30.1513 74.9943 20.2237 74.9943Z" fill="#343947" fill-opacity="0.1"/>
<path d="M83.6421 34H50.3485C49.9916 34.0026 49.6501 34.1506 49.3977 34.412C49.1454 34.6734 49.0025 35.0272 49 35.3969V87.5933C49 87.9647 49.1418 88.321 49.3944 88.5845C49.647 88.848 49.99 88.9974 50.3485 89H83.6421C84.0022 89 84.3476 88.8518 84.6023 88.588C84.8569 88.3242 85 87.9664 85 87.5933V76.9297C84.9975 76.5583 84.8533 76.203 84.5989 75.9414C84.3445 75.6797 84.0006 75.5328 83.6421 75.5328H62.6175C62.4504 75.5302 62.291 75.4597 62.1737 75.3363C62.0565 75.213 61.9907 75.0468 61.9908 74.8737V68.4598C61.9908 68.2876 62.0568 68.1225 62.1743 68.0007C62.2919 67.879 62.4513 67.8106 62.6175 67.8106H82.7874C83.1468 67.808 83.4907 67.659 83.7449 67.3957C83.999 67.1325 84.1429 66.7762 84.1454 66.4039V56.5666C84.1454 56.1935 84.0023 55.8357 83.7476 55.5719C83.4929 55.3081 83.1476 55.1599 82.7874 55.1599H62.6175C62.4521 55.1574 62.2941 55.0881 62.177 54.9669C62.06 54.8457 61.9932 54.682 61.9908 54.5106V48.0869C61.9932 47.9155 62.06 47.7519 62.177 47.6306C62.2941 47.5094 62.4521 47.4402 62.6175 47.4377H83.6421C84.0022 47.4377 84.3476 47.2895 84.6023 47.0256C84.8569 46.7618 85 46.404 85 46.031V35.3969C84.9975 35.0255 84.8533 34.6702 84.5989 34.4085C84.3445 34.1469 84.0006 34 83.6421 34ZM59.2749 46.0605V56.5961C59.2749 56.9692 59.4179 57.327 59.6726 57.5908C59.9273 57.8547 60.2727 58.0029 60.6328 58.0029H80.7932C80.9603 58.0028 81.1207 58.0709 81.2398 58.1924C81.3588 58.3139 81.4269 58.479 81.4294 58.6521V64.3381C81.4294 64.5129 81.3624 64.6805 81.2431 64.8041C81.1238 64.9277 80.9619 64.9971 80.7932 64.9971H60.6328C60.2727 64.9971 59.9273 65.1454 59.6726 65.4092C59.4179 65.673 59.2749 66.0308 59.2749 66.4039V76.9396C59.2774 77.3109 59.4216 77.6662 59.676 77.9279C59.9303 78.1896 60.2743 78.3364 60.6328 78.3364H81.6479C81.7314 78.3364 81.8142 78.3535 81.8913 78.3866C81.9685 78.4197 82.0387 78.4683 82.0977 78.5295C82.1568 78.5907 82.2037 78.6633 82.2357 78.7433C82.2676 78.8233 82.2841 78.909 82.2841 78.9955V85.5373C82.2816 85.7104 82.2135 85.8755 82.0944 85.997C81.9754 86.1185 81.815 86.1866 81.6479 86.1866H52.3427C52.1756 86.1866 52.0151 86.1185 51.8961 85.997C51.777 85.8755 51.7089 85.7104 51.7064 85.5373V37.4627C51.7064 37.2879 51.7734 37.1203 51.8928 36.9967C52.0121 36.8731 52.1739 36.8036 52.3427 36.8036H81.6479C81.7314 36.8036 81.8142 36.8207 81.8913 36.8538C81.9685 36.8869 82.0387 36.9355 82.0977 36.9967C82.1568 37.0579 82.2037 37.1305 82.2357 37.2105C82.2676 37.2905 82.2841 37.3762 82.2841 37.4627V43.9946C82.2841 44.0812 82.2676 44.1669 82.2357 44.2469C82.2037 44.3268 82.1568 44.3995 82.0977 44.4607C82.0387 44.5219 81.9685 44.5704 81.8913 44.6036C81.8142 44.6367 81.7314 44.6537 81.6479 44.6537H60.6328C60.4545 44.6537 60.2779 44.6901 60.1131 44.7608C59.9484 44.8315 59.7987 44.9351 59.6726 45.0658C59.5465 45.1964 59.4465 45.3515 59.3782 45.5221C59.31 45.6928 59.2749 45.8757 59.2749 46.0605Z" fill="#343947" fill-opacity="0.1"/>
<path d="M112.726 44H104.367C104.006 44.0026 103.659 44.153 103.403 44.4186C103.147 44.6842 103.003 45.0438 103 45.4194V65.5806C103.003 65.9563 103.147 66.3158 103.403 66.5814C103.659 66.847 104.006 66.9974 104.367 67H112.726C118.503 67 123 62.0022 123 55.505C123 49.0078 118.484 44 112.726 44ZM120.246 55.505C120.246 60.3529 116.943 64.1512 112.726 64.1512H106.389C106.218 64.1512 106.054 64.0807 105.933 63.9551C105.812 63.8295 105.744 63.6591 105.744 63.4815V47.4885C105.744 47.4005 105.761 47.3135 105.793 47.2322C105.826 47.151 105.873 47.0771 105.933 47.0149C105.993 46.9528 106.064 46.9034 106.143 46.8698C106.221 46.8361 106.305 46.8188 106.389 46.8188H112.726C116.943 46.8488 120.246 50.6471 120.246 55.505Z" fill="#343947" fill-opacity="0.1"/>
<path d="M122.605 75.6041C122.536 75.5342 122.484 75.4491 122.452 75.3553C122.42 75.2615 122.41 75.1616 122.422 75.0631C122.431 74.9669 122.461 74.8741 122.512 74.7921C122.562 74.7101 122.63 74.6412 122.711 74.591C125.776 72.5901 128.294 69.8256 130.029 66.5568C131.763 63.2881 132.657 59.6224 132.627 55.9036C132.627 43.8256 123.374 34 112.015 34H93.3754C93.0123 34 92.6639 34.1468 92.4062 34.4085C92.1486 34.6701 92.0025 35.0253 92 35.3966V87.5935C92 87.9666 92.1449 88.3243 92.4028 88.5881C92.6608 88.8518 93.0106 89 93.3754 89H103.724C104.088 88.9974 104.435 88.8481 104.691 88.5846C104.947 88.3211 105.09 87.9649 105.09 87.5935V78.4564C105.09 78.2816 105.158 78.114 105.279 77.9904C105.4 77.8668 105.564 77.7974 105.735 77.7974H106.831C106.914 77.7975 106.996 77.8149 107.072 77.8488C107.148 77.8826 107.217 77.9321 107.274 77.9941L118.027 88.8132L118.2 89H132.627C132.9 88.9996 133.166 88.9161 133.393 88.7603C133.619 88.6045 133.795 88.3834 133.898 88.125C134.001 87.8667 134.027 87.5828 133.972 87.3095C133.917 87.0362 133.783 86.7859 133.589 86.5903L122.605 75.6041ZM118.382 74.414C118.343 74.637 118.357 74.8665 118.424 75.0826C118.491 75.2986 118.609 75.4946 118.767 75.6533L128.087 85.0461C128.18 85.1363 128.244 85.2535 128.27 85.3819C128.296 85.5103 128.282 85.6438 128.231 85.7641C128.187 85.8857 128.107 85.99 128.001 86.0623C127.896 86.1347 127.771 86.1714 127.645 86.1674H119.565C119.397 86.167 119.235 86.1001 119.113 85.9805L108.37 75.1615L108.187 74.9845H103.667C103.305 74.987 102.959 75.135 102.704 75.3964C102.448 75.6577 102.303 76.0115 102.301 76.3811V85.5281C102.298 85.7011 102.229 85.8662 102.109 85.9877C101.988 86.1092 101.826 86.1772 101.657 86.1772H95.299C95.2156 86.1772 95.1331 86.1604 95.0561 86.1278C94.9791 86.0952 94.9091 86.0474 94.8501 85.9871C94.7912 85.9268 94.7444 85.8553 94.7125 85.7765C94.6806 85.6978 94.6642 85.6133 94.6642 85.5281V37.4424C94.6629 37.3563 94.6784 37.2709 94.7097 37.191C94.7411 37.1111 94.7876 37.0384 94.8467 36.977C94.9058 36.9157 94.9762 36.867 95.0538 36.8338C95.1315 36.8005 95.2148 36.7834 95.299 36.7834H111.977C121.826 36.7834 129.838 45.3501 129.838 55.8839C129.878 59.5474 128.892 63.1461 126.997 66.2553C125.102 69.3644 122.376 71.8541 119.142 73.4304C118.949 73.5219 118.779 73.6586 118.647 73.8294C118.515 74.0003 118.425 74.2006 118.382 74.414Z" fill="#343947" fill-opacity="0.1"/>
<path d="M181.561 34.0001H139.409C139.036 34.0027 138.679 34.1507 138.415 34.4121C138.152 34.6734 138.003 35.0272 138 35.3968V46.1273C138 46.4986 138.148 46.8548 138.412 47.1183C138.676 47.3818 139.034 47.5311 139.409 47.5337H152.891C153.065 47.5337 153.231 47.6021 153.354 47.7239C153.477 47.8456 153.546 48.0107 153.546 48.1829V87.5935C153.546 87.9666 153.695 88.3243 153.961 88.5881C154.227 88.8518 154.588 89 154.964 89H166.036C166.41 88.9974 166.769 88.8481 167.032 88.5846C167.296 88.3211 167.444 87.9649 167.444 87.5935V48.1829C167.444 48.0968 167.462 48.0116 167.495 47.9322C167.529 47.8528 167.578 47.7807 167.64 47.7203C167.702 47.6599 167.775 47.6123 167.856 47.5803C167.936 47.5482 168.022 47.5324 168.109 47.5337H181.581C181.768 47.5337 181.952 47.4973 182.124 47.4267C182.296 47.356 182.453 47.2524 182.584 47.1218C182.716 46.9912 182.821 46.8361 182.892 46.6655C182.963 46.4949 183 46.312 183 46.1273V35.3968C182.999 35.2112 182.96 35.0278 182.887 34.857C182.814 34.6862 182.708 34.5314 182.574 34.4016C182.44 34.2718 182.282 34.1695 182.108 34.1006C181.934 34.0317 181.749 33.9975 181.561 34.0001ZM164.597 46.1273V85.5379C164.595 85.711 164.523 85.8761 164.399 85.9976C164.275 86.119 164.107 86.1871 163.933 86.1871H156.988C156.814 86.1871 156.646 86.119 156.522 85.9976C156.397 85.8761 156.326 85.711 156.323 85.5379V46.1273C156.323 45.7542 156.174 45.3965 155.908 45.1327C155.642 44.869 155.281 44.7208 154.905 44.7208H141.472C141.296 44.7208 141.127 44.6514 141.002 44.5278C140.878 44.4042 140.808 44.2366 140.808 44.0618V37.4622C140.808 37.2875 140.878 37.1198 141.002 36.9962C141.127 36.8727 141.296 36.8032 141.472 36.8032H179.488C179.663 36.8058 179.829 36.8764 179.952 36.9997C180.074 37.123 180.143 37.2891 180.143 37.4622V44.0618C180.143 44.2349 180.074 44.401 179.952 44.5243C179.829 44.6476 179.663 44.7182 179.488 44.7208H166.006C165.631 44.7234 165.273 44.8727 165.009 45.1362C164.745 45.3997 164.597 45.7559 164.597 46.1273Z" fill="#343947" fill-opacity="0.1"/>
<path d="M252.545 34.0017H241.712C241.529 34.0017 241.348 34.0384 241.179 34.1098C241.01 34.1812 240.856 34.2857 240.727 34.4175C240.599 34.5493 240.497 34.7056 240.428 34.8776C240.358 35.0495 240.323 35.2336 240.325 35.4193V55.6701C240.344 60.6962 238.455 65.5367 235.05 69.1866C231.646 72.8365 226.988 75.0154 222.043 75.271H219.957C215.008 75.0061 210.349 72.8229 206.939 69.1719C203.53 65.5209 201.632 60.6807 201.636 55.6504V35.4193C201.636 35.046 201.49 34.6879 201.23 34.4239C200.97 34.1599 200.617 34.0115 200.249 34.0115H189.387C189.019 34.0115 188.666 34.1599 188.406 34.4239C188.146 34.6879 188 35.046 188 35.4193V55.6701C187.994 63.7304 190.86 71.521 196.069 77.6042C197.077 78.7899 198.17 79.8987 199.338 80.9219C201.4 82.7431 203.681 84.2913 206.127 85.5293C207.602 86.2795 209.129 86.9211 210.695 87.449C212.078 87.9145 213.491 88.2829 214.924 88.5516C215.073 88.5772 215.208 88.6555 215.306 88.7726C215.403 88.8897 215.457 89.0381 215.457 89.1915V110.092C215.455 110.264 215.386 110.427 215.267 110.549C215.147 110.67 214.986 110.739 214.817 110.742H205.826C205.458 110.742 205.106 110.89 204.846 111.154C204.586 111.418 204.439 111.776 204.439 112.15V119.592C204.439 119.966 204.586 120.324 204.846 120.588C205.106 120.852 205.458 121 205.826 121H236.232C236.6 121 236.952 120.852 237.213 120.588C237.473 120.324 237.619 119.966 237.619 119.592V112.15C237.619 111.776 237.473 111.418 237.213 111.154C236.952 110.89 236.6 110.742 236.232 110.742H227.241C227.07 110.742 226.907 110.674 226.785 110.552C226.663 110.43 226.594 110.265 226.591 110.092V89.1817C226.594 89.0274 226.649 88.8788 226.749 88.7619C226.848 88.645 226.984 88.5671 227.134 88.5418C234.685 87.0966 241.502 83.0203 246.407 77.0168C251.312 71.0133 253.997 63.4596 254 55.6602V35.4193C254.001 35.2277 253.964 35.0377 253.891 34.8611C253.818 34.6845 253.71 34.525 253.574 34.3922C253.437 34.2595 253.276 34.1564 253.099 34.0893C252.922 34.0221 252.734 33.9923 252.545 34.0017ZM225.806 85.8935C225.301 85.9821 224.778 86.051 224.283 86.1101L223.75 86.1692V112.14C223.75 112.511 223.894 112.868 224.152 113.132C224.41 113.395 224.761 113.545 225.127 113.547H234.118C234.29 113.547 234.455 113.617 234.577 113.741C234.699 113.864 234.767 114.032 234.767 114.207V117.525C234.765 117.698 234.695 117.863 234.574 117.985C234.452 118.106 234.288 118.175 234.118 118.175H207.815C207.645 118.175 207.482 118.106 207.362 117.984C207.242 117.862 207.174 117.697 207.174 117.525V114.178C207.173 114.091 207.189 114.006 207.22 113.926C207.252 113.846 207.299 113.773 207.358 113.712C207.418 113.65 207.489 113.602 207.567 113.568C207.646 113.535 207.73 113.518 207.815 113.518H216.805C217.173 113.518 217.526 113.37 217.786 113.106C218.046 112.842 218.192 112.484 218.192 112.11V86.1889L217.455 86.1003C217.019 86.0412 216.563 85.992 216.117 85.9034C214.557 85.6533 213.019 85.2746 211.519 84.7712C210.085 84.2899 208.688 83.7009 207.339 83.009C205.115 81.8706 203.04 80.4552 201.161 78.7954C200.094 77.8599 199.096 76.8465 198.174 75.7632C193.403 70.1852 190.776 63.047 190.774 55.6602V37.4769C190.773 37.3907 190.788 37.3052 190.82 37.2252C190.851 37.1452 190.898 37.0725 190.958 37.0111C191.017 36.9497 191.088 36.9009 191.167 36.8677C191.245 36.8344 191.329 36.8173 191.414 36.8173H198.203C198.375 36.8173 198.541 36.8868 198.663 37.0105C198.784 37.1342 198.853 37.302 198.853 37.4769V55.6602C198.849 61.4283 201.035 66.976 204.956 71.1507C208.878 75.3253 214.233 77.8058 219.909 78.0768H222.11C227.775 77.791 233.113 75.3034 237.019 71.1297C240.925 66.9561 243.098 61.4167 243.089 55.6602V37.4966C243.091 37.3251 243.16 37.1613 243.279 37.04C243.399 36.9186 243.56 36.8494 243.729 36.8468H250.518C250.603 36.8449 250.687 36.8604 250.765 36.8926C250.843 36.9248 250.915 36.9728 250.974 37.0339C251.035 37.0937 251.084 37.1656 251.118 37.2451C251.151 37.3246 251.168 37.4102 251.168 37.4966V55.6799C251.194 63.063 248.582 70.2052 243.816 75.7829C242.916 76.86 241.944 77.8731 240.907 78.8151C236.673 82.5588 231.487 85.0184 225.941 85.9132L225.806 85.8935Z" fill="#30D5C8"/>
<path d="M228.459 27.1984H238.601H239V20.4464V20.0457H228.579C228.225 20.0571 227.88 19.9381 227.608 19.711C227.336 19.484 227.156 19.1647 227.103 18.8135C227.086 18.6243 227.109 18.4336 227.17 18.2537C227.23 18.0737 227.327 17.9084 227.455 17.768C227.582 17.6277 227.738 17.5155 227.91 17.4386C228.083 17.3616 228.27 17.3215 228.459 17.3208H238.771L238.99 17.0804V16.87C238.977 16.1792 238.921 15.4899 238.82 14.8064C238.215 10.7012 236.164 6.95009 233.041 4.23357C229.918 1.51704 225.929 0.0150373 221.798 0H220.202C216.061 0.0168528 212.064 1.52698 208.937 4.2555C205.811 6.98402 203.764 10.7495 203.17 14.8665C203.074 15.5506 203.018 16.2396 203 16.9301V17.3309H213.561C213.915 17.3172 214.261 17.4355 214.534 17.6629C214.806 17.8904 214.985 18.211 215.037 18.5631C215.05 18.7452 215.027 18.9282 214.966 19.1007C214.906 19.2731 214.811 19.4311 214.688 19.5648C214.562 19.7064 214.409 19.8197 214.237 19.8974C214.065 19.9751 213.879 20.0154 213.69 20.0156H203.389H203V26.7777V27.1684H213.561C213.914 27.1569 214.259 27.276 214.531 27.5031C214.803 27.7301 214.983 28.0494 215.037 28.4006C215.055 28.5918 215.033 28.7848 214.972 28.9669C214.91 29.1489 214.812 29.3159 214.682 29.4568C214.552 29.5978 214.393 29.7096 214.217 29.7848C214.041 29.86 213.852 29.8969 213.66 29.8932H203.389H203V55.5189C203 60.1552 204.833 64.6015 208.097 67.8799C211.36 71.1582 215.786 73 220.402 73H221.588C226.204 73 230.632 71.1586 233.897 67.8805C237.162 64.6024 238.997 60.1561 239 55.5189V30.324V29.9233H228.579C228.225 29.9347 227.88 29.8157 227.608 29.5886C227.336 29.3615 227.156 29.0422 227.103 28.6911C227.093 28.5092 227.118 28.3271 227.178 28.1552C227.238 27.9833 227.331 27.825 227.452 27.6893C227.577 27.5421 227.731 27.4225 227.905 27.338C228.078 27.2535 228.267 27.206 228.459 27.1984ZM224.411 27.7294C224.246 28.5324 224.322 29.3663 224.629 30.1259C224.936 30.8855 225.46 31.5366 226.136 31.997C226.877 32.4892 227.751 32.741 228.639 32.7183H236.038C236.086 32.7183 236.131 32.7373 236.165 32.7711C236.199 32.8049 236.218 32.8508 236.218 32.8986V55.579C236.218 59.4766 234.676 63.2147 231.933 65.9707C229.189 68.7268 225.468 70.2751 221.588 70.2751H220.412C216.529 70.2751 212.805 68.7258 210.06 65.9678C207.315 63.2099 205.772 59.4693 205.772 55.569V32.8986C205.772 32.8508 205.791 32.8049 205.825 32.7711C205.859 32.7373 205.904 32.7183 205.952 32.7183H213.501C214.476 32.7394 215.428 32.4205 216.195 31.816C216.962 31.2114 217.497 30.3585 217.709 29.4024C217.872 28.5994 217.796 27.7659 217.489 27.0066C217.182 26.2473 216.658 25.5961 215.984 25.1348C215.238 24.6441 214.362 24.3925 213.471 24.4135H205.952C205.904 24.4135 205.859 24.3945 205.825 24.3607C205.791 24.3268 205.772 24.281 205.772 24.2332V22.9909C205.772 22.9431 205.791 22.8973 205.825 22.8634C205.859 22.8296 205.904 22.8106 205.952 22.8106H213.501C214.474 22.8322 215.425 22.5148 216.192 21.9122C216.959 21.3096 217.495 20.459 217.709 19.5047C217.872 18.6993 217.794 17.8635 217.485 17.1023C217.177 16.3412 216.651 15.6888 215.974 15.2271C215.23 14.7425 214.357 14.4946 213.471 14.5158H206.271C206.244 14.5165 206.216 14.5109 206.192 14.4995C206.167 14.488 206.145 14.471 206.127 14.4498C206.11 14.4285 206.098 14.4036 206.092 14.3768C206.085 14.3501 206.085 14.3222 206.091 14.2954C206.773 11.0473 208.549 8.13464 211.119 6.04874C213.69 3.96283 216.898 2.83133 220.202 2.84506H221.798C225.105 2.83319 228.315 3.96933 230.884 6.0613C233.454 8.15327 235.225 11.0726 235.899 14.3255C235.905 14.3523 235.905 14.3801 235.898 14.4069C235.892 14.4336 235.88 14.4586 235.863 14.4798C235.845 14.5011 235.823 14.5181 235.798 14.5295C235.774 14.541 235.746 14.5466 235.719 14.5459H228.619C227.643 14.5229 226.691 14.841 225.923 15.4459C225.155 16.0507 224.621 16.9048 224.411 17.8618C224.248 18.6638 224.323 19.4961 224.629 20.255C224.934 21.014 225.454 21.6659 226.126 22.1294C226.873 22.6143 227.749 22.8621 228.639 22.8407H236.038C236.062 22.8407 236.085 22.8453 236.107 22.8544C236.129 22.8635 236.148 22.8767 236.165 22.8935C236.182 22.9102 236.195 22.9301 236.204 22.952C236.213 22.9739 236.218 22.9973 236.218 23.021V24.2632C236.218 24.311 236.199 24.3569 236.165 24.3907C236.131 24.4245 236.086 24.4435 236.038 24.4435H228.619C227.648 24.4191 226.698 24.7329 225.931 25.3319C225.164 25.9308 224.627 26.7779 224.411 27.7294Z" fill="#343947" fill-opacity="0.1"/>
<path d="M1.50391 120.686V102.342H4.52619V109.719H13.2018V102.342H16.224V120.686H13.2018V112.581H4.52619V120.686H1.50391Z" fill="#343947" fill-opacity="0.1"/>
<path d="M31.1583 105.321H31.9603L26.5711 120.685H23.5684L30.0726 102.341H33.0068L39.5209 120.685H36.5181L31.1583 105.321ZM35.4031 116.141H27.735V113.455H35.4325L35.4031 116.141ZM29.0554 100.777V99.0754L34.0827 96.5869V99.2524L29.0554 100.777Z" fill="#343947" fill-opacity="0.1"/>
<path d="M46.9258 120.685V102.341H53.3224C54.4532 102.316 55.5774 102.52 56.6284 102.941C57.5364 103.3 58.3072 103.941 58.829 104.77C59.3829 105.719 59.6544 106.808 59.6115 107.908C59.6619 109.032 59.3683 110.144 58.7704 111.095C58.1951 111.944 57.405 112.623 56.4817 113.062L60.5896 120.724H57.1272L53.5278 113.79H49.997V120.724L46.9258 120.685ZM49.997 111.164H52.7454C53.7717 111.26 54.7946 110.946 55.5916 110.288C55.878 109.988 56.101 109.633 56.2472 109.245C56.3935 108.856 56.4599 108.441 56.4425 108.026C56.4666 107.609 56.4043 107.192 56.2595 106.801C56.1147 106.41 55.8906 106.053 55.6014 105.754C54.8132 105.135 53.8193 104.843 52.8236 104.937H49.997V111.164Z" fill="#343947" fill-opacity="0.1"/>
<path d="M76.1528 121.049C74.5305 121.077 72.9302 120.669 71.5167 119.868C70.1645 119.088 69.0592 117.939 68.3281 116.554C67.5623 114.985 67.1641 113.261 67.1641 111.513C67.1641 109.765 67.5623 108.041 68.3281 106.472C69.0622 105.089 70.1668 103.941 71.5167 103.157C72.9428 102.384 74.5375 101.979 76.1576 101.979C77.7778 101.979 79.3725 102.384 80.7986 103.157C82.1485 103.941 83.2531 105.089 83.9872 106.472C84.7466 108.043 85.1413 109.766 85.1413 111.513C85.1413 113.259 84.7466 114.983 83.9872 116.554C83.2561 117.939 82.1508 119.088 80.7986 119.868C79.382 120.671 77.7782 121.078 76.1528 121.049ZM76.1528 118.098C77.2828 118.139 78.3995 117.841 79.3609 117.242C80.2307 116.667 80.9115 115.846 81.317 114.882C82.1908 112.715 82.1908 110.291 81.317 108.124C80.9114 107.163 80.2304 106.345 79.3609 105.774C78.3818 105.213 77.2745 104.918 76.1479 104.918C75.0212 104.918 73.914 105.213 72.9349 105.774C72.0653 106.345 71.3843 107.163 70.9787 108.124C70.1049 110.291 70.1049 112.715 70.9787 114.882C71.3842 115.846 72.065 116.667 72.9349 117.242C73.8986 117.845 75.0186 118.146 76.1528 118.108V118.098Z" fill="#343947" fill-opacity="0.1"/>
<path d="M92.3379 120.686L94.8418 102.342H97.3457L101.923 110.968L106.461 102.342H108.985L111.479 120.686H108.32L106.54 106.473L107.361 106.63L101.923 116.653L96.4556 106.64L97.2772 106.502L95.4873 120.686H92.3379Z" fill="#343947" fill-opacity="0.1"/>
<path d="M125.171 121.047C124.408 121.049 123.645 120.983 122.893 120.85C122.166 120.732 121.447 120.568 120.741 120.359C120.195 120.202 119.662 120.005 119.146 119.768L119.528 116.542C120.085 116.818 120.692 117.073 121.347 117.319C122.025 117.579 122.721 117.786 123.43 117.939C124.149 118.104 124.884 118.186 125.621 118.185C126.451 118.224 127.275 118.026 127.998 117.614C128.288 117.428 128.524 117.168 128.682 116.86C128.84 116.553 128.914 116.209 128.898 115.864C128.92 115.331 128.746 114.809 128.409 114.398C128.002 113.965 127.504 113.629 126.952 113.414C126.306 113.129 125.475 112.824 124.477 112.49C123.558 112.19 122.665 111.815 121.807 111.369C121.047 110.986 120.392 110.422 119.9 109.726C119.392 108.956 119.142 108.042 119.186 107.119C119.159 106.161 119.426 105.217 119.951 104.416C120.476 103.616 121.233 102.997 122.12 102.644C123.27 102.169 124.506 101.945 125.749 101.985C126.839 101.978 127.927 102.107 128.986 102.369C129.853 102.569 130.701 102.845 131.519 103.195L131.206 106.333C130.293 105.867 129.336 105.491 128.35 105.211C127.448 104.963 126.517 104.838 125.582 104.838C124.751 104.796 123.923 104.979 123.186 105.369C122.9 105.529 122.665 105.767 122.507 106.056C122.35 106.345 122.277 106.673 122.296 107.001C122.279 107.489 122.443 107.966 122.756 108.339C123.124 108.723 123.571 109.022 124.066 109.214C124.75 109.501 125.449 109.751 126.159 109.962C127.303 110.307 128.411 110.765 129.465 111.329C130.289 111.755 130.995 112.38 131.519 113.149C132.002 113.947 132.244 114.87 132.214 115.805C132.209 116.437 132.103 117.065 131.901 117.663C131.676 118.313 131.296 118.897 130.795 119.365C130.177 119.935 129.438 120.356 128.634 120.595C127.511 120.929 126.342 121.082 125.171 121.047Z" fill="#343947" fill-opacity="0.1"/>
<path d="M138.455 120.684L148.187 104.061L148.725 105.045H139.629V102.32H152.344L142.563 118.953L142.035 117.969H152.187V120.694L138.455 120.684Z" fill="#343947" fill-opacity="0.1"/>
<path d="M159.777 120.684V102.34H171.25V105.222H162.849V109.668H169.431V112.55H162.849V117.802H171.495V120.684H159.777ZM163.279 100.747V99.0451L168.306 96.5566V99.2222L163.279 100.747Z" fill="#343947" fill-opacity="0.1"/>
<path d="M179.652 120.686V102.342H182.675V120.686H179.652ZM189.687 120.686L182.939 110.978L189.687 102.342H193.267L186.421 110.968L193.267 120.686H189.687Z" fill="#343947" fill-opacity="0.1"/>
</svg>
