<svg width="330" height="286" viewBox="0 0 330 286" fill="none" xmlns="http://www.w3.org/2000/svg">
<rect width="330" height="286" rx="20" fill="#343947"/>
<path d="M290.545 119.002H279.712C279.529 119.002 279.348 119.038 279.179 119.11C279.01 119.181 278.856 119.286 278.727 119.417C278.599 119.549 278.497 119.706 278.428 119.878C278.358 120.05 278.323 120.234 278.325 120.419V140.67C278.344 145.696 276.455 150.537 273.05 154.187C269.646 157.837 264.988 160.015 260.043 160.271H257.957C253.008 160.006 248.349 157.823 244.939 154.172C241.53 150.521 239.632 145.681 239.636 140.65V120.419C239.636 120.046 239.49 119.688 239.23 119.424C238.97 119.16 238.617 119.012 238.249 119.012H227.387C227.019 119.012 226.666 119.16 226.406 119.424C226.146 119.688 226 120.046 226 120.419V140.67C225.994 148.73 228.86 156.521 234.069 162.604C235.077 163.79 236.17 164.899 237.338 165.922C239.4 167.743 241.681 169.291 244.127 170.529C245.602 171.28 247.129 171.921 248.695 172.449C250.078 172.915 251.491 173.283 252.924 173.552C253.073 173.577 253.208 173.655 253.306 173.773C253.403 173.89 253.457 174.038 253.457 174.192V195.092C253.455 195.264 253.386 195.427 253.267 195.549C253.147 195.67 252.986 195.739 252.817 195.742H243.826C243.458 195.742 243.106 195.89 242.846 196.154C242.586 196.418 242.439 196.776 242.439 197.15V204.592C242.439 204.966 242.586 205.324 242.846 205.588C243.106 205.852 243.458 206 243.826 206H274.232C274.6 206 274.952 205.852 275.213 205.588C275.473 205.324 275.619 204.966 275.619 204.592V197.15C275.619 196.776 275.473 196.418 275.213 196.154C274.952 195.89 274.6 195.742 274.232 195.742H265.241C265.07 195.742 264.907 195.674 264.785 195.552C264.663 195.43 264.594 195.265 264.591 195.092V174.182C264.594 174.027 264.649 173.879 264.749 173.762C264.848 173.645 264.984 173.567 265.134 173.542C272.685 172.097 279.502 168.02 284.407 162.017C289.312 156.013 291.997 148.46 292 140.66V120.419C292.001 120.228 291.964 120.038 291.891 119.861C291.818 119.685 291.71 119.525 291.574 119.392C291.437 119.26 291.276 119.156 291.099 119.089C290.922 119.022 290.734 118.992 290.545 119.002ZM263.806 170.894C263.301 170.982 262.778 171.051 262.283 171.11L261.75 171.169V197.14C261.75 197.511 261.894 197.868 262.152 198.132C262.41 198.395 262.761 198.545 263.127 198.547H272.118C272.29 198.547 272.455 198.617 272.577 198.741C272.699 198.864 272.767 199.032 272.767 199.207V202.525C272.765 202.698 272.695 202.863 272.574 202.985C272.452 203.106 272.288 203.175 272.118 203.175H245.815C245.645 203.175 245.482 203.106 245.362 202.984C245.242 202.862 245.174 202.697 245.174 202.525V199.178C245.173 199.091 245.189 199.006 245.22 198.926C245.252 198.846 245.299 198.773 245.358 198.712C245.418 198.65 245.489 198.602 245.567 198.568C245.646 198.535 245.73 198.518 245.815 198.518H254.805C255.173 198.518 255.526 198.37 255.786 198.106C256.046 197.842 256.192 197.484 256.192 197.11V171.189L255.455 171.1C255.019 171.041 254.563 170.992 254.117 170.903C252.557 170.653 251.019 170.275 249.519 169.771C248.085 169.29 246.688 168.701 245.339 168.009C243.115 166.871 241.04 165.455 239.161 163.795C238.094 162.86 237.096 161.847 236.174 160.763C231.403 155.185 228.776 148.047 228.774 140.66V122.477C228.773 122.391 228.788 122.305 228.82 122.225C228.851 122.145 228.898 122.072 228.958 122.011C229.017 121.95 229.088 121.901 229.167 121.868C229.245 121.834 229.329 121.817 229.414 121.817H236.203C236.375 121.817 236.541 121.887 236.663 122.01C236.784 122.134 236.853 122.302 236.853 122.477V140.66C236.849 146.428 239.035 151.976 242.956 156.151C246.878 160.325 252.233 162.806 257.909 163.077H260.11C265.775 162.791 271.113 160.303 275.019 156.13C278.925 151.956 281.098 146.417 281.089 140.66V122.497C281.091 122.325 281.16 122.161 281.279 122.04C281.399 121.919 281.56 121.849 281.729 121.847H288.518C288.603 121.845 288.687 121.86 288.765 121.893C288.843 121.925 288.915 121.973 288.974 122.034C289.035 122.094 289.084 122.166 289.118 122.245C289.151 122.325 289.168 122.41 289.168 122.497V140.68C289.194 148.063 286.582 155.205 281.816 160.783C280.916 161.86 279.944 162.873 278.907 163.815C274.673 167.559 269.487 170.018 263.941 170.913L263.806 170.894Z" fill="#30D5C8"/>
</svg>
