<svg width="483" height="251" viewBox="0 0 483 251" fill="none" xmlns="http://www.w3.org/2000/svg">
<g clip-path="url(#clip0_705_162)">
<path d="M69.2105 176.81V193.99H49.1205V176.81H43.5605V218.42H49.1205V199.34H69.2105V218.42H74.7705V176.81H69.2105Z" fill="#343947"/>
<path d="M110.29 214.73C109.926 214.764 109.56 214.72 109.215 214.601C108.87 214.482 108.554 214.291 108.29 214.04C107.817 213.477 107.543 212.774 107.51 212.04C107.368 210.899 107.305 209.75 107.32 208.6V201.37C107.412 198.848 107.074 196.328 106.32 193.92C105.787 192.247 104.664 190.825 103.16 189.92C101.438 189.043 99.5201 188.623 97.5895 188.7C95.8921 188.693 94.2043 188.956 92.5895 189.48C91.0419 189.974 89.5883 190.724 88.2895 191.7L89.0095 196.05C90.1752 195.178 91.4757 194.502 92.8595 194.05C93.9794 193.68 95.1502 193.488 96.3295 193.48C97.8688 193.352 99.3961 193.838 100.58 194.83C101.49 195.74 101.96 197.52 101.96 200.18C100.64 200.18 99.2695 200.34 97.7695 200.52C96.3034 200.728 94.858 201.063 93.4496 201.52C92.0914 201.939 90.8038 202.559 89.6295 203.36C88.5228 204.134 87.5952 205.137 86.9095 206.3C86.2021 207.605 85.8568 209.076 85.9095 210.56C85.874 212.065 86.2398 213.553 86.9695 214.87C87.637 216.125 88.6459 217.165 89.8795 217.87C91.1875 218.638 92.6835 219.025 94.1995 218.99C95.8494 219.009 97.4757 218.599 98.9195 217.8C100.304 217.007 101.526 215.959 102.52 214.71C102.851 215.529 103.28 216.305 103.8 217.02C104.313 217.683 105.008 218.183 105.8 218.46C106.938 218.85 108.137 219.029 109.34 218.99H110.12L110.87 214.71L110.29 214.73ZM102 210.78C101.25 211.95 100.245 212.935 99.0595 213.66C97.9983 214.331 96.7747 214.701 95.5195 214.73C94.9736 214.759 94.4274 214.679 93.9125 214.495C93.3976 214.311 92.9242 214.028 92.5195 213.66C92.1187 213.194 91.8156 212.651 91.6284 212.066C91.4411 211.48 91.3735 210.862 91.4295 210.25C91.3683 208.972 91.7774 207.716 92.5795 206.72C93.5227 205.717 94.7455 205.02 96.0895 204.72C98.0165 204.192 100.002 203.906 102 203.87V210.78ZM92.9995 180.32V183.95L103 180.07V174.25L92.9995 180.32Z" fill="#343947"/>
<path d="M134.079 188.7C132.642 188.711 131.244 189.169 130.079 190.01C128.559 191.169 127.212 192.54 126.079 194.08L125.429 189.29H121.109V218.42H126.589V197.83C127.23 196.868 128.113 196.092 129.149 195.58C130.377 194.916 131.753 194.572 133.149 194.58C133.482 194.563 133.816 194.563 134.149 194.58C134.426 194.603 134.7 194.647 134.969 194.71L135.529 188.83C135.056 188.713 134.567 188.669 134.079 188.7Z" fill="#343947"/>
<path d="M168.211 196.18C167.212 193.963 165.607 192.074 163.581 190.73C161.37 189.401 158.84 188.699 156.261 188.699C153.682 188.699 151.151 189.401 148.941 190.73C146.934 192.087 145.341 193.973 144.341 196.18C143.273 198.592 142.721 201.201 142.721 203.84C142.721 206.478 143.273 209.087 144.341 211.5C145.344 213.713 146.948 215.602 148.971 216.95C151.17 218.295 153.698 219.007 156.276 219.007C158.854 219.007 161.381 218.295 163.581 216.95C165.592 215.589 167.193 213.704 168.211 211.5C169.266 209.084 169.81 206.476 169.81 203.84C169.81 201.203 169.266 198.596 168.211 196.18ZM162.291 211.54C161.54 212.391 160.617 213.073 159.582 213.54C158.548 214.007 157.426 214.248 156.291 214.248C155.156 214.248 154.034 214.007 152.999 213.54C151.965 213.073 151.041 212.391 150.291 211.54C148.757 209.275 148.009 206.57 148.161 203.84C148.161 200.56 148.881 197.99 150.291 196.15C151.037 195.291 151.959 194.603 152.994 194.131C154.029 193.659 155.153 193.415 156.291 193.415C157.428 193.415 158.552 193.659 159.588 194.131C160.623 194.603 161.544 195.291 162.291 196.15C163.701 197.99 164.381 200.56 164.381 203.84C164.381 207.12 163.711 209.66 162.291 211.54Z" fill="#343947"/>
<path d="M221.579 194.48C220.956 192.701 219.77 191.173 218.199 190.13C216.402 189.071 214.334 188.56 212.249 188.66C209.95 188.558 207.677 189.181 205.749 190.44C204.421 191.358 203.344 192.596 202.619 194.04C202.274 193.294 201.844 192.589 201.339 191.94C200.479 190.859 199.371 190.001 198.109 189.44C196.844 188.908 195.482 188.642 194.109 188.66C192.21 188.636 190.337 189.101 188.669 190.01C187.458 190.673 186.385 191.562 185.509 192.63L184.979 189.25H180.689V218.38H186.009V197.37C186.554 196.342 187.348 195.469 188.319 194.83C189.716 193.892 191.368 193.41 193.049 193.45C194.182 193.419 195.3 193.714 196.269 194.3C197.244 194.965 197.957 195.948 198.289 197.08C198.824 198.79 199.067 200.579 199.009 202.37V218.42H204.299V201.62C204.291 200.578 204.395 199.539 204.609 198.52C204.815 197.597 205.188 196.719 205.709 195.93C206.238 195.142 206.971 194.513 207.829 194.11C208.871 193.639 210.007 193.413 211.149 193.45C213.399 193.45 214.999 194.11 215.939 195.45C216.879 196.79 217.339 198.89 217.339 201.8V218.41H222.629V201.48C222.705 199.102 222.349 196.731 221.579 194.48Z" fill="#343947"/>
<path d="M252.58 206.94C252.152 206.041 251.554 205.233 250.82 204.56C250.031 203.896 249.173 203.319 248.26 202.84C247.26 202.34 246.26 201.9 245.26 201.49C243.71 200.959 242.211 200.289 240.78 199.49C240.305 199.219 239.916 198.821 239.656 198.34C239.396 197.859 239.276 197.315 239.31 196.77C239.279 196.231 239.39 195.693 239.632 195.21C239.874 194.727 240.239 194.317 240.69 194.02C241.787 193.372 243.048 193.056 244.32 193.11C245.644 193.074 246.962 193.299 248.2 193.77C249.243 194.198 250.222 194.766 251.11 195.46L251.76 190.58C250.744 190.035 249.675 189.592 248.57 189.26C247.106 188.852 245.59 188.663 244.07 188.7C242.118 188.633 240.178 189.02 238.4 189.83C237.016 190.497 235.864 191.562 235.09 192.89C234.366 194.167 233.987 195.611 233.99 197.08C233.923 198.523 234.296 199.953 235.06 201.18C235.796 202.225 236.756 203.092 237.87 203.72C239.084 204.397 240.352 204.972 241.66 205.44C242.88 205.94 243.94 206.37 244.88 206.84C245.687 207.217 246.411 207.751 247.01 208.41C247.54 209.06 247.817 209.881 247.79 210.72C247.814 211.245 247.698 211.767 247.456 212.234C247.214 212.701 246.853 213.096 246.41 213.38C245.261 214.06 243.933 214.377 242.6 214.29C240.948 214.323 239.307 214.013 237.78 213.38C236.477 212.872 235.255 212.178 234.15 211.32L233.49 216.54C234.688 217.239 235.959 217.806 237.28 218.23C239.106 218.778 241.005 219.041 242.91 219.01C244.96 219.095 247 218.676 248.85 217.79C250.268 217.106 251.431 215.989 252.17 214.6C252.874 213.269 253.238 211.785 253.23 210.28C253.259 209.132 253.037 207.993 252.58 206.94Z" fill="#343947"/>
<path d="M285.169 189.29H262.489V193.99H276.489L261.699 218.42H284.879V213.69H270.369L285.169 189.29Z" fill="#343947"/>
<path d="M317.231 194.33C316.28 192.549 314.822 191.091 313.041 190.14C310.968 189.101 308.665 188.61 306.349 188.713C304.033 188.816 301.782 189.511 299.811 190.73C297.829 192.086 296.258 193.961 295.271 196.15C294.219 198.488 293.687 201.026 293.711 203.59C293.674 206.249 294.252 208.881 295.401 211.28C296.508 213.579 298.241 215.52 300.401 216.88C302.836 218.364 305.651 219.104 308.501 219.01C310.243 219.024 311.981 218.815 313.671 218.39C314.996 218.023 316.29 217.552 317.541 216.98L316.951 212.51C315.713 213.122 314.397 213.562 313.041 213.82C311.725 214.096 310.385 214.243 309.041 214.26C307.399 214.293 305.771 213.951 304.281 213.26C302.804 212.539 301.583 211.384 300.781 209.95C299.784 208.076 299.227 206.001 299.151 203.88H318.551C318.611 203.38 318.671 202.88 318.701 202.41C318.749 201.952 318.769 201.491 318.761 201.03C318.83 198.703 318.303 196.396 317.231 194.33ZM299.501 200.15C299.777 198.259 300.653 196.506 302.001 195.15C303.373 193.98 305.139 193.375 306.941 193.46C308.186 193.415 309.42 193.709 310.511 194.31C311.45 194.838 312.186 195.665 312.601 196.66C313.084 197.762 313.32 198.957 313.291 200.16L299.501 200.15ZM302.291 180.32V183.95L312.211 180.07V174.25L302.291 180.32Z" fill="#343947"/>
<path d="M340.569 202.78L351.169 189.29H344.759L335.059 202.4V173.84H329.779V218.42H335.059V203.59L344.979 218.42H351.389L340.569 202.78Z" fill="#343947"/>
<path d="M90.5005 117.88C90.5005 108.28 83.5505 100.76 74.6705 100.76H59.7305V134.99H74.6705C83.5505 134.99 90.5005 127.48 90.5005 117.88ZM87.2705 117.88C87.2705 125.66 81.7405 131.76 74.6705 131.76H62.9505V103.99H74.6705C81.7405 103.99 87.2905 110.09 87.2905 117.88H87.2705Z" fill="#343947"/>
<path d="M74.6697 84.2197H43.1797V169.04H62.9497V151.53H74.6697C92.5197 151.53 107.04 136.44 107.04 117.88C107.04 99.3197 92.5197 84.2197 74.6697 84.2197ZM59.7297 148.31V165.82H46.4097V87.4797H74.6697C90.7397 87.4797 103.82 101.13 103.82 117.92C103.82 134.71 90.7397 148.35 74.6697 148.35L59.7297 148.31Z" fill="#343947"/>
<path d="M118.039 169.04H175.159V149.16H137.899V135.91H173.779V117.36H137.899V104.12H175.159V84.2402H118.039V169.04ZM170.549 120.59V132.69H134.679V152.38H171.939V165.82H121.289V87.4802H171.969V100.91H134.679V120.61L170.549 120.59Z" fill="#343947"/>
<path d="M235.16 117.88C235.16 108.28 228.16 100.76 219.34 100.76H204.34V134.99H219.34C228.21 134.99 235.16 127.48 235.16 117.88ZM231.94 117.88C231.94 125.66 226.4 131.76 219.34 131.76H207.61V103.99H219.34C226.4 103.99 231.94 110.09 231.94 117.88Z" fill="#343947"/>
<path d="M251.7 117.88C251.7 99.3197 237.18 84.2197 219.34 84.2197H187.85V169.04H207.61V151.53H211.61L229.29 168.93L229.4 169.04H256.08L234.38 147.66C239.676 144.71 244.079 140.387 247.127 135.147C250.175 129.906 251.754 123.942 251.7 117.88ZM230.7 165.82L213.04 148.42L212.93 148.31H204.39V165.82H191.07V87.4797H219.34C235.41 87.4797 248.48 101.13 248.48 117.92C248.525 123.754 246.9 129.48 243.798 134.422C240.695 139.364 236.244 143.315 230.97 145.81L228.85 146.81L248.22 165.89L230.7 165.82Z" fill="#343947"/>
<path d="M260.18 104.21H284.29V169.04H304.67V104.21H328.77V84.21H260.18V104.21ZM301.43 100.98V165.82H287.5V100.98H263.4V87.48H325.54V100.98H301.43Z" fill="#343947"/>
<path d="M421.37 84.04V117.27C421.4 125.275 418.346 132.984 412.841 138.796C407.337 144.608 399.805 148.076 391.81 148.48H388.54C380.531 148.079 372.984 144.613 367.462 138.799C361.94 132.984 358.867 125.269 358.88 117.25V84.04H338.43V117.27C338.428 129.72 342.924 141.752 351.09 151.15C355.487 156.197 360.818 160.346 366.79 163.37C369.099 164.545 371.493 165.547 373.95 166.37C376.543 167.226 379.202 167.868 381.9 168.29V203.87H364.43V218.72H415.85V203.85H398.38V168.27C407.915 166.752 416.827 162.572 424.09 156.21C425.896 154.651 427.584 152.959 429.14 151.15C437.33 141.765 441.835 129.726 441.82 117.27V84.04H421.37ZM397.94 165.04C397.16 165.18 396.36 165.28 395.49 165.38H395.16V207.08H412.63V215.48H367.63V207.08H385.1V165.48H384.64C383.87 165.38 383.08 165.29 382.31 165.15C379.806 164.748 377.338 164.146 374.93 163.35C372.65 162.554 370.431 161.595 368.29 160.48C364.725 158.671 361.397 156.431 358.38 153.81C353.139 149.268 348.938 143.651 346.061 137.341C343.185 131.031 341.701 124.175 341.71 117.24V87.24H355.71V117.24C355.702 126.091 359.103 134.605 365.207 141.014C371.311 147.423 379.649 151.236 388.49 151.66H391.96C400.788 151.223 409.109 147.404 415.196 140.995C421.283 134.586 424.668 126.079 424.65 117.24V87.24H438.65V117.24C438.659 128.926 434.427 140.219 426.74 149.02C425.275 150.727 423.691 152.328 422 153.81C415.197 159.748 406.858 163.648 397.94 165.06V165.04Z" fill="#343947"/>
<path d="M415.289 59.9398H402.159C401.779 59.9626 401.399 59.9075 401.041 59.7778C400.684 59.6481 400.356 59.4467 400.079 59.1858C399.802 58.925 399.582 58.6103 399.431 58.261C399.28 57.9117 399.202 57.5353 399.202 57.1548C399.202 56.7744 399.28 56.398 399.431 56.0487C399.582 55.6994 399.802 55.3847 400.079 55.1238C400.356 54.863 400.684 54.6616 401.041 54.5319C401.399 54.4022 401.779 54.3471 402.159 54.3698H418.539C418.525 53.2749 418.435 52.1822 418.269 51.0998C417.33 44.6439 414.1 38.7414 409.168 34.4707C404.237 30.2 397.933 27.8464 391.409 27.8398H388.849C382.324 27.846 376.019 30.1993 371.086 34.4699C366.153 38.7404 362.92 44.6431 361.979 51.0998C361.813 52.1822 361.723 53.2749 361.709 54.3698H378.289C378.669 54.3471 379.049 54.4022 379.407 54.5319C379.765 54.6616 380.092 54.863 380.369 55.1238C380.646 55.3847 380.867 55.6994 381.018 56.0487C381.168 56.398 381.246 56.7744 381.246 57.1548C381.246 57.5353 381.168 57.9117 381.018 58.261C380.867 58.6103 380.646 58.925 380.369 59.1858C380.092 59.4467 379.765 59.6481 379.407 59.7778C379.049 59.9075 378.669 59.9626 378.289 59.9398H361.699V70.2698H378.289C378.669 70.2471 379.049 70.3022 379.407 70.4319C379.765 70.5616 380.092 70.763 380.369 71.0238C380.646 71.2847 380.867 71.5994 381.018 71.9487C381.168 72.298 381.246 72.6744 381.246 73.0548C381.246 73.4353 381.168 73.8117 381.018 74.161C380.867 74.5103 380.646 74.825 380.369 75.0858C380.092 75.3467 379.765 75.5481 379.407 75.6778C379.049 75.8075 378.669 75.8626 378.289 75.8398H361.699V116.74C361.707 123.937 364.57 130.837 369.661 135.925C374.751 141.014 381.652 143.875 388.849 143.88H391.409C398.606 143.872 405.505 141.01 410.595 135.923C415.684 130.835 418.549 123.936 418.559 116.74V75.8398H402.159C401.779 75.8626 401.399 75.8075 401.041 75.6778C400.684 75.5481 400.356 75.3467 400.079 75.0858C399.802 74.825 399.582 74.5103 399.431 74.161C399.28 73.8117 399.202 73.4353 399.202 73.0548C399.202 72.6744 399.28 72.298 399.431 71.9487C399.582 71.5994 399.802 71.2847 400.079 71.0238C400.356 70.763 400.684 70.5616 401.041 70.4319C401.399 70.3022 401.779 70.2471 402.159 70.2698H418.559V59.9398H415.289ZM415.289 66.9398H402.159C400.552 66.9398 399.011 67.5783 397.874 68.7148C396.738 69.8513 396.099 71.3926 396.099 72.9998C396.099 74.6071 396.738 76.1484 397.874 77.2849C399.011 78.4214 400.552 79.0598 402.159 79.0598H415.289V116.69C415.281 123.018 412.764 129.085 408.289 133.56C403.814 138.034 397.748 140.552 391.419 140.56H388.859C382.53 140.555 376.462 138.038 371.986 133.563C367.511 129.087 364.995 123.019 364.989 116.69V79.1098H378.289C379.896 79.1098 381.438 78.4714 382.574 77.3349C383.711 76.1984 384.349 74.6571 384.349 73.0499C384.349 71.4426 383.711 69.9012 382.574 68.7648C381.438 67.6283 379.896 66.9898 378.289 66.9898H364.979V63.2198H378.289C379.896 63.2198 381.438 62.5814 382.574 61.4449C383.711 60.3084 384.349 58.767 384.349 57.1598C384.349 55.5526 383.711 54.0112 382.574 52.8748C381.438 51.7383 379.896 51.0998 378.289 51.0998H365.289C366.211 45.5173 369.083 40.443 373.396 36.7804C377.709 33.1179 383.181 31.1049 388.839 31.0998H391.399C397.056 31.1052 402.527 33.1186 406.838 36.7813C411.149 40.444 414.02 45.5181 414.939 51.0998H402.159C400.552 51.0998 399.011 51.7383 397.874 52.8748C396.738 54.0112 396.099 55.5526 396.099 57.1598C396.099 58.767 396.738 60.3084 397.874 61.4449C399.011 62.5814 400.552 63.2198 402.159 63.2198H415.289V66.9398Z" fill="#343947"/>
<path d="M340.279 176.49V65.1602" stroke="#8E8E8E" stroke-miterlimit="10"/>
<path d="M0.210938 84.2402H483.001" stroke="#8E8E8E" stroke-miterlimit="10"/>
<path d="M0 188.68H482.8" stroke="#8E8E8E" stroke-miterlimit="10"/>
<path d="M43.1895 250.92V0" stroke="#8E8E8E" stroke-miterlimit="10"/>
<path d="M441.82 250.92V0" stroke="#8E8E8E" stroke-miterlimit="10"/>
<path d="M0 218.42H482.8" stroke="#8E8E8E" stroke-miterlimit="10"/>
<path d="M0 27.9102H482.8" stroke="#8E8E8E" stroke-miterlimit="10"/>
<path d="M0.210938 169.04H483.001" stroke="#8E8E8E" stroke-miterlimit="10"/>
<path d="M357.449 65.1602V176.49" stroke="#8E8E8E" stroke-miterlimit="10"/>
<path d="M422.949 176.49V65.1602" stroke="#8E8E8E" stroke-miterlimit="10"/>
<path d="M417.08 117.81V57.2402" stroke="#8E8E8E" stroke-miterlimit="10"/>
<path d="M363 116.85V56.2803" stroke="#8E8E8E" stroke-miterlimit="10"/>
<path d="M383.461 205.59V167.02" stroke="#8E8E8E" stroke-miterlimit="10"/>
<path d="M396.85 205.59V167.02" stroke="#8E8E8E" stroke-miterlimit="10"/>
<path d="M440.119 65.1602V176.49" stroke="#8E8E8E" stroke-miterlimit="10"/>
<path d="M327 150.12H449.89" stroke="#8E8E8E" stroke-miterlimit="10"/>
<path d="M449.89 167.29H327" stroke="#8E8E8E" stroke-miterlimit="10"/>
<path d="M390.199 150.15C408.287 150.15 422.949 135.488 422.949 117.4C422.949 99.3131 408.287 84.6504 390.199 84.6504C372.112 84.6504 357.449 99.3131 357.449 117.4C357.449 135.488 372.112 150.15 390.199 150.15Z" stroke="#8E8E8E" stroke-miterlimit="10"/>
<path d="M390.04 142.57C404.974 142.57 417.08 130.464 417.08 115.53C417.08 100.596 404.974 88.4902 390.04 88.4902C375.106 88.4902 363 100.596 363 115.53C363 130.464 375.106 142.57 390.04 142.57Z" stroke="#8E8E8E" stroke-miterlimit="10"/>
<path d="M378.261 61.69C380.718 61.69 382.711 59.6977 382.711 57.24C382.711 54.7824 380.718 52.79 378.261 52.79C375.803 52.79 373.811 54.7824 373.811 57.24C373.811 59.6977 375.803 61.69 378.261 61.69Z" stroke="#8E8E8E" stroke-miterlimit="10"/>
<path d="M390.04 83.3202C404.974 83.3202 417.08 71.214 417.08 56.2802C417.08 41.3465 404.974 29.2402 390.04 29.2402C375.106 29.2402 363 41.3465 363 56.2802C363 71.214 375.106 83.3202 390.04 83.3202Z" stroke="#8E8E8E" stroke-miterlimit="10"/>
<path d="M390.169 167.29C417.723 167.29 440.059 144.953 440.059 117.4C440.059 89.8463 417.723 67.5098 390.169 67.5098C362.616 67.5098 340.279 89.8463 340.279 117.4C340.279 144.953 362.616 167.29 390.169 167.29Z" stroke="#8E8E8E" stroke-miterlimit="10"/>
<path d="M354.25 205.59H425.89" stroke="#8E8E8E" stroke-miterlimit="10"/>
<path d="M414.25 226.68V195.72" stroke="#8E8E8E" stroke-miterlimit="10"/>
<path d="M366.01 226.68V195.72" stroke="#8E8E8E" stroke-miterlimit="10"/>
<path d="M354.25 217H425.89" stroke="#8E8E8E" stroke-miterlimit="10"/>
<path d="M378.07 52.79H363.25" stroke="#8E8E8E" stroke-miterlimit="10"/>
<path d="M378.26 61.7002H363.25" stroke="#8E8E8E" stroke-miterlimit="10"/>
<path d="M378.29 77.6002C380.748 77.6002 382.74 75.6079 382.74 73.1502C382.74 70.6925 380.748 68.7002 378.29 68.7002C375.832 68.7002 373.84 70.6925 373.84 73.1502C373.84 75.6079 375.832 77.6002 378.29 77.6002Z" stroke="#8E8E8E" stroke-miterlimit="10"/>
<path d="M378.109 68.7002H363.289" stroke="#8E8E8E" stroke-miterlimit="10"/>
<path d="M378.289 77.5996H363.289" stroke="#8E8E8E" stroke-miterlimit="10"/>
<path d="M402.081 77.6002C404.539 77.6002 406.531 75.6079 406.531 73.1502C406.531 70.6925 404.539 68.7002 402.081 68.7002C399.623 68.7002 397.631 70.6925 397.631 73.1502C397.631 75.6079 399.623 77.6002 402.081 77.6002Z" stroke="#8E8E8E" stroke-miterlimit="10"/>
<path d="M402.26 77.5996H417.08" stroke="#8E8E8E" stroke-miterlimit="10"/>
<path d="M402.08 68.7002H417.08" stroke="#8E8E8E" stroke-miterlimit="10"/>
<path d="M402.05 61.69C404.507 61.69 406.5 59.6977 406.5 57.24C406.5 54.7824 404.507 52.79 402.05 52.79C399.592 52.79 397.6 54.7824 397.6 57.24C397.6 59.6977 399.592 61.69 402.05 61.69Z" stroke="#8E8E8E" stroke-miterlimit="10"/>
<path d="M402.23 61.7002H417.05" stroke="#8E8E8E" stroke-miterlimit="10"/>
<path d="M402.051 52.79H417.051" stroke="#8E8E8E" stroke-miterlimit="10"/>
</g>
<defs>
<clipPath id="clip0_705_162">
<rect width="483" height="250.92" fill="white"/>
</clipPath>
</defs>
</svg>
