<svg width="332" height="286" viewBox="0 0 332 286" fill="none" xmlns="http://www.w3.org/2000/svg">
<rect width="332" height="286" rx="20" fill="#343947"/>
<path d="M59.7256 129H51.3674C51.0055 129.003 50.6592 129.153 50.4033 129.419C50.1474 129.684 50.0025 130.044 50 130.419V150.581C50.0025 150.956 50.1474 151.316 50.4033 151.581C50.6592 151.847 51.0055 151.997 51.3674 152H59.7256C65.5031 152 70 147.002 70 140.505C70 134.008 65.4839 129 59.7256 129ZM59.7256 149.151H53.3895C53.2184 149.151 53.0543 149.081 52.9333 148.955C52.8123 148.829 52.7443 148.659 52.7443 148.482V132.488C52.7443 132.311 52.8123 132.141 52.9333 132.015C53.0543 131.889 53.2184 131.819 53.3895 131.819H59.7256C63.9432 131.819 67.246 135.617 67.246 140.475C67.246 145.333 63.9432 149.151 59.7256 149.151Z" fill="#30D5C8"/>
<path d="M58.717 118H39.4103C39.037 118.003 38.6798 118.151 38.4159 118.412C38.152 118.673 38.0026 119.027 38 119.397V171.594C38 171.965 38.1483 172.321 38.4125 172.585C38.6766 172.848 39.0353 172.997 39.4103 173H50.1064C50.4813 172.997 50.84 172.848 51.1042 172.585C51.3684 172.321 51.5167 171.965 51.5167 171.594V162.456C51.5167 162.282 51.5868 162.114 51.7116 161.99C51.8363 161.867 52.0056 161.797 52.1821 161.797H58.717C70.446 161.797 80 151.962 80 139.904C80 127.845 70.446 118 58.717 118ZM58.717 158.994H50.0965C49.7215 158.997 49.3629 159.146 49.0987 159.41C48.8345 159.673 48.6862 160.029 48.6862 160.401V169.548C48.6836 169.721 48.6123 169.886 48.4878 170.007C48.3633 170.129 48.1956 170.197 48.0208 170.197H41.5356C41.3608 170.197 41.1931 170.129 41.0685 170.007C40.944 169.886 40.8728 169.721 40.8702 169.548V121.462C40.8702 121.287 40.9403 121.12 41.0651 120.996C41.1899 120.873 41.3591 120.803 41.5356 120.803H58.717C68.8867 120.803 77.1596 129.37 77.1596 139.904C77.1596 150.437 68.8867 158.994 58.717 158.994Z" fill="#30D5C8"/>
<path d="M122.604 118H88.3859C88.0191 118.003 87.6681 118.151 87.4088 118.412C87.1494 118.673 87.0026 119.027 87 119.397V171.593C87 171.965 87.1457 172.321 87.4053 172.585C87.665 172.848 88.0175 172.997 88.3859 173H122.604C122.974 173 123.329 172.852 123.591 172.588C123.853 172.324 124 171.966 124 171.593V160.93C123.997 160.558 123.849 160.203 123.588 159.941C123.326 159.68 122.973 159.533 122.604 159.533H100.996C100.824 159.53 100.66 159.46 100.54 159.336C100.419 159.213 100.352 159.047 100.352 158.874V152.46C100.352 152.288 100.419 152.123 100.54 152.001C100.661 151.879 100.825 151.811 100.996 151.811H121.726C122.095 151.808 122.449 151.659 122.71 151.396C122.971 151.132 123.119 150.776 123.122 150.404V140.567C123.122 140.194 122.975 139.836 122.713 139.572C122.451 139.308 122.096 139.16 121.726 139.16H100.996C100.826 139.157 100.663 139.088 100.543 138.967C100.423 138.846 100.354 138.682 100.352 138.511V132.087C100.354 131.916 100.423 131.752 100.543 131.631C100.663 131.509 100.826 131.44 100.996 131.438H122.604C122.974 131.438 123.329 131.289 123.591 131.026C123.853 130.762 124 130.404 124 130.031V119.397C123.997 119.026 123.849 118.67 123.588 118.409C123.326 118.147 122.973 118 122.604 118ZM97.5603 130.06V140.596C97.5603 140.969 97.7073 141.327 97.969 141.591C98.2308 141.855 98.5858 142.003 98.9559 142.003H119.676C119.848 142.003 120.013 142.071 120.135 142.192C120.258 142.314 120.328 142.479 120.33 142.652V148.338C120.33 148.513 120.261 148.68 120.139 148.804C120.016 148.928 119.85 148.997 119.676 148.997H98.9559C98.5858 148.997 98.2308 149.145 97.969 149.409C97.7073 149.673 97.5603 150.031 97.5603 150.404V160.94C97.5629 161.311 97.711 161.666 97.9725 161.928C98.234 162.19 98.5875 162.336 98.9559 162.336H120.555C120.641 162.336 120.726 162.353 120.805 162.387C120.884 162.42 120.956 162.468 121.017 162.529C121.078 162.591 121.126 162.663 121.159 162.743C121.192 162.823 121.209 162.909 121.209 162.996V169.537C121.206 169.71 121.136 169.876 121.014 169.997C120.891 170.118 120.726 170.187 120.555 170.187H90.4355C90.2638 170.187 90.0989 170.118 89.9765 169.997C89.8542 169.876 89.7842 169.71 89.7816 169.537V121.463C89.7816 121.288 89.8505 121.12 89.9731 120.997C90.0957 120.873 90.2621 120.804 90.4355 120.804H120.555C120.641 120.804 120.726 120.821 120.805 120.854C120.884 120.887 120.956 120.935 121.017 120.997C121.078 121.058 121.126 121.131 121.159 121.21C121.192 121.29 121.209 121.376 121.209 121.463V127.995C121.209 128.081 121.192 128.167 121.159 128.247C121.126 128.327 121.078 128.399 121.017 128.461C120.956 128.522 120.884 128.57 120.805 128.604C120.726 128.637 120.641 128.654 120.555 128.654H98.9559C98.7727 128.654 98.5912 128.69 98.4218 128.761C98.2525 128.832 98.0986 128.935 97.969 129.066C97.8394 129.196 97.7367 129.351 97.6665 129.522C97.5964 129.693 97.5603 129.876 97.5603 130.06Z" fill="#30D5C8"/>
<path d="M151.212 129H142.436C142.056 129.003 141.692 129.153 141.423 129.419C141.155 129.684 141.003 130.044 141 130.419V150.581C141.003 150.956 141.155 151.316 141.423 151.581C141.692 151.847 142.056 151.997 142.436 152H151.212C157.278 152 162 147.002 162 140.505C162 134.008 157.258 129 151.212 129ZM159.108 140.505C159.108 145.353 155.64 149.151 151.212 149.151H144.559C144.379 149.151 144.207 149.081 144.08 148.955C143.953 148.829 143.882 148.659 143.882 148.482V132.488C143.882 132.401 143.899 132.313 143.933 132.232C143.967 132.151 144.017 132.077 144.08 132.015C144.143 131.953 144.218 131.903 144.3 131.87C144.382 131.836 144.47 131.819 144.559 131.819H151.212C155.64 131.849 159.108 135.647 159.108 140.505Z" fill="#30D5C8"/>
<path d="M161.605 159.604C161.536 159.534 161.484 159.449 161.452 159.355C161.42 159.262 161.41 159.162 161.422 159.063C161.431 158.967 161.461 158.874 161.512 158.792C161.562 158.71 161.63 158.641 161.711 158.591C164.776 156.59 167.294 153.826 169.029 150.557C170.763 147.288 171.657 143.622 171.627 139.904C171.627 127.826 162.374 118 151.015 118H132.375C132.012 118 131.664 118.147 131.406 118.408C131.149 118.67 131.003 119.025 131 119.397V171.594C131 171.967 131.145 172.324 131.403 172.588C131.661 172.852 132.011 173 132.375 173H142.724C143.088 172.997 143.435 172.848 143.691 172.585C143.947 172.321 144.09 171.965 144.09 171.594V162.456C144.09 162.282 144.158 162.114 144.279 161.99C144.4 161.867 144.564 161.797 144.735 161.797H145.831C145.914 161.797 145.996 161.815 146.072 161.849C146.148 161.883 146.217 161.932 146.274 161.994L157.027 172.813L157.2 173H171.627C171.9 173 172.166 172.916 172.393 172.76C172.619 172.605 172.795 172.383 172.898 172.125C173.001 171.867 173.027 171.583 172.972 171.31C172.917 171.036 172.783 170.786 172.589 170.59L161.605 159.604ZM157.382 158.414C157.343 158.637 157.357 158.867 157.424 159.083C157.491 159.299 157.609 159.495 157.767 159.653L167.087 169.046C167.18 169.136 167.244 169.253 167.27 169.382C167.296 169.51 167.282 169.644 167.231 169.764C167.187 169.886 167.107 169.99 167.001 170.062C166.896 170.135 166.771 170.171 166.645 170.167H158.565C158.397 170.167 158.235 170.1 158.113 169.981L147.37 159.161L147.187 158.984H142.667C142.305 158.987 141.959 159.135 141.704 159.396C141.448 159.658 141.303 160.011 141.301 160.381V169.528C141.298 169.701 141.229 169.866 141.109 169.988C140.988 170.109 140.826 170.177 140.657 170.177H134.299C134.216 170.177 134.133 170.16 134.056 170.128C133.979 170.095 133.909 170.047 133.85 169.987C133.791 169.927 133.744 169.855 133.713 169.777C133.681 169.698 133.664 169.613 133.664 169.528V121.442C133.663 121.356 133.678 121.271 133.71 121.191C133.741 121.111 133.788 121.038 133.847 120.977C133.906 120.916 133.976 120.867 134.054 120.834C134.131 120.801 134.215 120.783 134.299 120.783H150.977C160.826 120.783 168.838 129.35 168.838 139.884C168.878 143.547 167.892 147.146 165.997 150.255C164.102 153.364 161.376 155.854 158.142 157.43C157.949 157.522 157.779 157.659 157.647 157.829C157.515 158 157.425 158.201 157.382 158.414Z" fill="#30D5C8"/>
</svg>
