<svg width="332" height="286" viewBox="0 0 332 286" fill="none" xmlns="http://www.w3.org/2000/svg">
<rect width="332" height="286" rx="20" fill="#343947"/>
<path d="M291.501 119.002H280.339C280.151 119.002 279.964 119.038 279.79 119.11C279.616 119.181 279.458 119.286 279.325 119.417C279.192 119.549 279.087 119.706 279.016 119.878C278.945 120.05 278.909 120.234 278.91 120.419V140.67C278.93 145.696 276.984 150.537 273.476 154.187C269.969 157.837 265.169 160.015 260.074 160.271H257.926C252.827 160.006 248.026 157.823 244.513 154.172C241.001 150.521 239.045 145.681 239.05 140.65V120.419C239.05 120.046 238.899 119.688 238.631 119.424C238.363 119.16 238 119.012 237.621 119.012H226.429C226.05 119.012 225.687 119.16 225.419 119.424C225.151 119.688 225 120.046 225 120.419V140.67C224.994 148.73 227.946 156.521 233.314 162.604C234.352 163.79 235.478 164.899 236.681 165.922C238.806 167.743 241.156 169.291 243.676 170.529C245.196 171.28 246.769 171.921 248.383 172.449C249.808 172.915 251.263 173.283 252.74 173.552C252.893 173.577 253.033 173.655 253.133 173.773C253.234 173.89 253.289 174.038 253.289 174.192V195.092C253.287 195.264 253.216 195.427 253.093 195.549C252.97 195.67 252.804 195.739 252.63 195.742H243.366C242.987 195.742 242.624 195.89 242.356 196.154C242.088 196.418 241.938 196.776 241.938 197.15V204.592C241.938 204.966 242.088 205.324 242.356 205.588C242.624 205.852 242.987 206 243.366 206H274.693C275.072 206 275.436 205.852 275.704 205.588C275.972 205.324 276.122 204.966 276.122 204.592V197.15C276.122 196.776 275.972 196.418 275.704 196.154C275.436 195.89 275.072 195.742 274.693 195.742H265.43C265.254 195.742 265.086 195.674 264.96 195.552C264.835 195.43 264.763 195.265 264.761 195.092V174.182C264.763 174.027 264.821 173.879 264.923 173.762C265.025 173.645 265.166 173.567 265.32 173.542C273.1 172.097 280.123 168.02 285.177 162.017C290.23 156.013 292.997 148.46 293 140.66V120.419C293.002 120.228 292.963 120.038 292.888 119.861C292.812 119.685 292.701 119.525 292.561 119.392C292.42 119.26 292.254 119.156 292.072 119.089C291.89 119.022 291.695 118.992 291.501 119.002ZM263.951 170.894C263.432 170.982 262.892 171.051 262.382 171.11L261.833 171.169V197.14C261.833 197.511 261.982 197.868 262.248 198.132C262.514 198.395 262.875 198.545 263.252 198.547H272.515C272.693 198.547 272.863 198.617 272.988 198.741C273.114 198.864 273.185 199.032 273.185 199.207V202.525C273.182 202.698 273.11 202.863 272.985 202.985C272.86 203.106 272.691 203.175 272.515 203.175H245.415C245.24 203.175 245.072 203.106 244.949 202.984C244.825 202.862 244.755 202.697 244.755 202.525V199.178C244.754 199.091 244.77 199.006 244.803 198.926C244.835 198.846 244.884 198.773 244.945 198.712C245.006 198.65 245.08 198.602 245.16 198.568C245.241 198.535 245.328 198.518 245.415 198.518H254.678C255.057 198.518 255.421 198.37 255.689 198.106C255.957 197.842 256.107 197.484 256.107 197.11V171.189L255.348 171.1C254.898 171.041 254.428 170.992 253.969 170.903C252.361 170.653 250.777 170.275 249.232 169.771C247.754 169.29 246.315 168.701 244.925 168.009C242.634 166.871 240.496 165.455 238.56 163.795C237.46 162.86 236.432 161.847 235.482 160.763C230.567 155.185 227.86 148.047 227.858 140.66V122.477C227.857 122.391 227.873 122.305 227.905 122.225C227.938 122.145 227.986 122.072 228.047 122.011C228.109 121.95 228.182 121.901 228.263 121.868C228.343 121.834 228.43 121.817 228.517 121.817H235.512C235.69 121.817 235.86 121.887 235.986 122.01C236.111 122.134 236.182 122.302 236.182 122.477V140.66C236.178 146.428 238.43 151.976 242.47 156.151C246.51 160.325 252.028 162.806 257.876 163.077H260.144C265.98 162.791 271.48 160.303 275.504 156.13C279.529 151.956 281.768 146.417 281.758 140.66V122.497C281.761 122.325 281.831 122.161 281.954 122.04C282.077 121.919 282.244 121.849 282.418 121.847H289.413C289.5 121.845 289.586 121.86 289.667 121.893C289.748 121.925 289.821 121.973 289.882 122.034C289.946 122.094 289.996 122.166 290.03 122.245C290.065 122.325 290.082 122.41 290.082 122.497V140.68C290.109 148.063 287.418 155.205 282.508 160.783C281.58 161.86 280.578 162.873 279.51 163.815C275.148 167.559 269.805 170.018 264.091 170.913L263.951 170.894Z" fill="#30D5C8"/>
<path d="M266.752 112.198H276.612H277V105.446V105.046H266.868C266.525 105.057 266.189 104.938 265.925 104.711C265.66 104.484 265.485 104.165 265.433 103.814C265.417 103.624 265.439 103.434 265.498 103.254C265.557 103.074 265.652 102.908 265.776 102.768C265.9 102.628 266.05 102.516 266.218 102.439C266.387 102.362 266.568 102.321 266.752 102.321H276.777L276.99 102.08V101.87C276.978 101.179 276.923 100.49 276.825 99.8064C276.236 95.7012 274.243 91.9501 271.207 89.2336C268.17 86.517 264.292 85.015 260.276 85H258.724C254.698 85.0169 250.812 86.527 247.773 89.2555C244.733 91.984 242.743 95.7495 242.165 99.8665C242.072 100.551 242.017 101.24 242 101.93V102.331H252.267C252.611 102.317 252.948 102.435 253.213 102.663C253.478 102.89 253.652 103.211 253.702 103.563C253.716 103.745 253.692 103.928 253.634 104.101C253.576 104.273 253.483 104.431 253.363 104.565C253.241 104.706 253.092 104.82 252.925 104.897C252.758 104.975 252.577 105.015 252.393 105.016H242.378H242V111.778V112.168H252.267C252.611 112.157 252.947 112.276 253.211 112.503C253.476 112.73 253.65 113.049 253.702 113.401C253.72 113.592 253.698 113.785 253.639 113.967C253.58 114.149 253.483 114.316 253.357 114.457C253.231 114.598 253.077 114.71 252.906 114.785C252.735 114.86 252.55 114.897 252.364 114.893H242.378H242V140.519C242 145.155 243.782 149.602 246.955 152.88C250.128 156.158 254.431 158 258.918 158H260.072C264.56 158 268.864 156.159 272.038 152.881C275.213 149.602 276.997 145.156 277 140.519V115.324V114.923H266.868C266.525 114.935 266.189 114.816 265.925 114.589C265.66 114.362 265.485 114.042 265.433 113.691C265.423 113.509 265.448 113.327 265.506 113.155C265.565 112.983 265.655 112.825 265.773 112.689C265.894 112.542 266.044 112.423 266.213 112.338C266.381 112.254 266.565 112.206 266.752 112.198ZM262.816 112.729C262.656 113.532 262.73 114.366 263.028 115.126C263.327 115.885 263.837 116.537 264.493 116.997C265.214 117.489 266.063 117.741 266.927 117.718H274.12C274.167 117.718 274.211 117.737 274.244 117.771C274.277 117.805 274.295 117.851 274.295 117.899V140.579C274.295 144.477 272.797 148.215 270.129 150.971C267.462 153.727 263.844 155.275 260.072 155.275H258.928C255.153 155.275 251.533 153.726 248.864 150.968C246.195 148.21 244.695 144.469 244.695 140.569V117.899C244.695 117.851 244.714 117.805 244.746 117.771C244.779 117.737 244.824 117.718 244.87 117.718H252.209C253.157 117.739 254.083 117.42 254.828 116.816C255.574 116.211 256.095 115.359 256.301 114.402C256.459 113.599 256.385 112.766 256.086 112.007C255.788 111.247 255.279 110.596 254.623 110.135C253.898 109.644 253.046 109.393 252.18 109.413H244.87C244.824 109.413 244.779 109.394 244.746 109.361C244.714 109.327 244.695 109.281 244.695 109.233V107.991C244.695 107.943 244.714 107.897 244.746 107.863C244.779 107.83 244.824 107.811 244.87 107.811H252.209C253.156 107.832 254.08 107.515 254.826 106.912C255.572 106.31 256.093 105.459 256.301 104.505C256.459 103.699 256.383 102.863 256.083 102.102C255.783 101.341 255.272 100.689 254.614 100.227C253.89 99.7425 253.042 99.4946 252.18 99.5158H245.18C245.153 99.5165 245.127 99.5109 245.103 99.4995C245.079 99.488 245.057 99.471 245.041 99.4498C245.024 99.4285 245.012 99.4036 245.006 99.3768C245 99.3501 245 99.3222 245.006 99.2954C245.668 96.0473 247.395 93.1346 249.894 91.0487C252.393 88.9628 255.512 87.8313 258.724 87.8451H260.276C263.491 87.8332 266.612 88.9693 269.11 91.0613C271.608 93.1533 273.33 96.0726 273.985 99.3255C273.991 99.3523 273.991 99.3801 273.985 99.4069C273.978 99.4336 273.967 99.4586 273.95 99.4798C273.933 99.5011 273.912 99.5181 273.887 99.5295C273.863 99.541 273.837 99.5466 273.81 99.5459H266.907C265.959 99.5229 265.032 99.841 264.286 100.446C263.54 101.051 263.02 101.905 262.816 102.862C262.657 103.664 262.731 104.496 263.028 105.255C263.324 106.014 263.831 106.666 264.483 107.129C265.21 107.614 266.062 107.862 266.927 107.841H274.12C274.143 107.841 274.166 107.845 274.187 107.854C274.208 107.863 274.228 107.877 274.244 107.893C274.26 107.91 274.273 107.93 274.282 107.952C274.29 107.974 274.295 107.997 274.295 108.021V109.263C274.295 109.311 274.277 109.357 274.244 109.391C274.211 109.425 274.167 109.444 274.12 109.444H266.907C265.963 109.419 265.04 109.733 264.294 110.332C263.548 110.931 263.026 111.778 262.816 112.729Z" fill="#FFFF66"/>
</svg>
