<svg width="332" height="286" viewBox="0 0 332 286" fill="none" xmlns="http://www.w3.org/2000/svg">
<rect width="332" height="286" rx="20" fill="#343947"/>
<path d="M39.9902 205.686V187.342H43.0125V194.719H51.6881V187.342H54.7104V205.686H51.6881V197.581H43.0125V205.686H39.9902Z" fill="#FFFF66"/>
<path d="M69.6446 190.321H70.4466L65.0574 205.685H62.0547L68.5589 187.341H71.4932L78.0072 205.685H75.0045L69.6446 190.321ZM73.8895 201.141H66.2213V198.455H73.9188L73.8895 201.141ZM67.5417 185.777V184.075L72.5691 181.587V184.252L67.5417 185.777Z" fill="#FFFF66"/>
<path d="M85.4121 205.685V187.341H91.8088C92.9396 187.316 94.0637 187.52 95.1147 187.941C96.0228 188.3 96.7935 188.941 97.3154 189.77C97.8692 190.719 98.1407 191.808 98.0978 192.908C98.1482 194.032 97.8547 195.144 97.2567 196.095C96.6814 196.944 95.8913 197.623 94.968 198.062L99.0759 205.724H95.6135L92.0142 198.79H88.4833V205.724L85.4121 205.685ZM88.4833 196.164H91.2317C92.2581 196.26 93.2809 195.946 94.0779 195.288C94.3643 194.988 94.5873 194.633 94.7336 194.245C94.8798 193.856 94.9462 193.441 94.9289 193.026C94.953 192.609 94.8906 192.192 94.7458 191.801C94.601 191.41 94.3769 191.053 94.0877 190.754C93.2996 190.135 92.3056 189.843 91.3099 189.937H88.4833V196.164Z" fill="#FFFF66"/>
<path d="M114.639 206.049C113.017 206.077 111.417 205.669 110.003 204.868C108.651 204.088 107.546 202.939 106.814 201.554C106.049 199.985 105.65 198.261 105.65 196.513C105.65 194.765 106.049 193.041 106.814 191.472C107.549 190.089 108.653 188.941 110.003 188.157C111.429 187.384 113.024 186.979 114.644 186.979C116.264 186.979 117.859 187.384 119.285 188.157C120.635 188.941 121.739 190.089 122.474 191.472C123.233 193.043 123.628 194.766 123.628 196.513C123.628 198.259 123.233 199.983 122.474 201.554C121.742 202.939 120.637 204.088 119.285 204.868C117.868 205.671 116.265 206.078 114.639 206.049ZM114.639 203.098C115.769 203.139 116.886 202.841 117.847 202.242C118.717 201.667 119.398 200.846 119.803 199.882C120.677 197.715 120.677 195.291 119.803 193.124C119.398 192.163 118.717 191.345 117.847 190.774C116.868 190.213 115.761 189.918 114.634 189.918C113.508 189.918 112.4 190.213 111.421 190.774C110.552 191.345 109.871 192.163 109.465 193.124C108.591 195.291 108.591 197.715 109.465 199.882C109.871 200.846 110.551 201.667 111.421 202.242C112.385 202.845 113.505 203.146 114.639 203.108V203.098Z" fill="#FFFF66"/>
<path d="M130.824 205.686L133.328 187.342H135.832L140.409 195.968L144.948 187.342H147.471L149.965 205.686H146.806L145.026 191.473L145.848 191.63L140.409 201.653L134.942 191.64L135.764 191.502L133.974 205.686H130.824Z" fill="#FFFF66"/>
<path d="M163.658 206.047C162.894 206.049 162.131 205.983 161.379 205.85C160.652 205.732 159.933 205.568 159.227 205.359C158.682 205.202 158.149 205.005 157.633 204.768L158.014 201.542C158.572 201.818 159.178 202.073 159.833 202.319C160.511 202.579 161.208 202.786 161.917 202.939C162.636 203.104 163.371 203.186 164.108 203.185C164.938 203.224 165.762 203.026 166.484 202.614C166.774 202.428 167.01 202.168 167.168 201.86C167.326 201.553 167.401 201.209 167.384 200.864C167.406 200.331 167.232 199.809 166.895 199.398C166.488 198.965 165.99 198.629 165.438 198.414C164.792 198.129 163.961 197.824 162.963 197.49C162.044 197.19 161.151 196.815 160.293 196.369C159.534 195.986 158.879 195.422 158.386 194.726C157.879 193.956 157.628 193.042 157.672 192.119C157.645 191.161 157.912 190.217 158.437 189.416C158.962 188.616 159.719 187.997 160.606 187.644C161.756 187.169 162.993 186.945 164.235 186.985C165.326 186.978 166.413 187.107 167.472 187.369C168.339 187.569 169.187 187.845 170.006 188.195L169.693 191.333C168.779 190.867 167.822 190.491 166.837 190.211C165.935 189.963 165.004 189.838 164.069 189.838C163.237 189.796 162.409 189.979 161.672 190.369C161.386 190.529 161.151 190.767 160.994 191.056C160.836 191.345 160.763 191.673 160.782 192.001C160.765 192.489 160.929 192.966 161.242 193.339C161.61 193.723 162.058 194.022 162.553 194.214C163.236 194.501 163.935 194.751 164.646 194.962C165.79 195.307 166.897 195.765 167.952 196.329C168.776 196.755 169.482 197.38 170.006 198.149C170.489 198.947 170.73 199.87 170.7 200.805C170.695 201.437 170.59 202.065 170.387 202.663C170.162 203.313 169.783 203.897 169.282 204.365C168.664 204.935 167.924 205.356 167.12 205.595C165.997 205.929 164.829 206.082 163.658 206.047Z" fill="#FFFF66"/>
<path d="M176.941 205.684L186.673 189.061L187.211 190.045H178.115V187.32H190.83L181.049 203.953L180.521 202.969H190.674V205.694L176.941 205.684Z" fill="#FFFF66"/>
<path d="M198.264 205.684V187.34H209.737V190.222H201.335V194.668H207.917V197.55H201.335V202.802H209.981V205.684H198.264ZM201.765 185.747V184.045L206.793 181.557V184.222L201.765 185.747Z" fill="#FFFF66"/>
<path d="M218.139 205.686V187.342H221.161V205.686H218.139ZM228.174 205.686L221.425 195.978L228.174 187.342H231.754L224.907 195.968L231.754 205.686H228.174Z" fill="#FFFF66"/>
</svg>
