<svg width="256" height="122" viewBox="0 0 256 122" fill="none" xmlns="http://www.w3.org/2000/svg">
<path d="M21.7256 44H13.3674C13.0055 44.0026 12.6592 44.153 12.4033 44.4186C12.1474 44.6842 12.0025 45.0438 12 45.4194V65.5806C12.0025 65.9563 12.1474 66.3158 12.4033 66.5814C12.6592 66.847 13.0055 66.9974 13.3674 67H21.7256C27.5031 67 32 62.0022 32 55.505C32 49.0078 27.4839 44 21.7256 44ZM21.7256 64.1512H15.3895C15.2184 64.1512 15.0543 64.0807 14.9333 63.9551C14.8123 63.8295 14.7443 63.6591 14.7443 63.4815V47.4885C14.7443 47.3109 14.8123 47.1405 14.9333 47.0149C15.0543 46.8893 15.2184 46.8188 15.3895 46.8188H21.7256C25.9432 46.8188 29.246 50.6171 29.246 55.475C29.246 60.3329 25.9432 64.1512 21.7256 64.1512Z" fill="#343947" fill-opacity="0.1"/>
<path d="M20.717 34H1.41026C1.03704 34.0026 0.679835 34.1506 0.415921 34.4119C0.152007 34.6733 0.00260094 35.027 4.25152e-10 35.3966V87.5935C-9.16748e-06 87.9649 0.148257 88.3211 0.412451 88.5846C0.676645 88.8481 1.03533 88.9974 1.41026 89H12.1064C12.4813 88.9974 12.84 88.8481 13.1042 88.5846C13.3684 88.3211 13.5167 87.9649 13.5167 87.5935V78.4564C13.5167 78.2816 13.5868 78.114 13.7116 77.9904C13.8363 77.8668 14.0056 77.7974 14.1821 77.7974H20.717C32.446 77.7974 42 67.9619 42 55.9036C42 43.8453 32.446 34 20.717 34ZM20.717 74.9943H12.0965C11.7215 74.9969 11.3629 75.1462 11.0987 75.4097C10.8345 75.6732 10.6862 76.0294 10.6862 76.4008V85.5477C10.6836 85.7208 10.6123 85.8859 10.4878 86.0074C10.3633 86.1288 10.1956 86.1969 10.0208 86.1969H3.53559C3.36082 86.1969 3.19306 86.1288 3.06855 86.0074C2.94404 85.8859 2.87279 85.7208 2.87018 85.5477V37.4621C2.87018 37.2873 2.94029 37.1197 3.06508 36.9961C3.18987 36.8725 3.35911 36.8031 3.53559 36.8031H20.717C30.8867 36.8031 39.1596 45.3698 39.1596 55.9036C39.1596 66.4374 30.8867 74.9943 20.717 74.9943Z" fill="#343947" fill-opacity="0.1"/>
<path d="M83.6043 34H49.3859C49.0191 34.0026 48.6681 34.1506 48.4088 34.412C48.1494 34.6734 48.0026 35.0272 48 35.3969V87.5933C48 87.9647 48.1457 88.321 48.4053 88.5845C48.665 88.848 49.0175 88.9974 49.3859 89H83.6043C83.9745 89 84.3295 88.8518 84.5912 88.588C84.853 88.3242 85 87.9664 85 87.5933V76.9297C84.9974 76.5583 84.8492 76.203 84.5878 75.9414C84.3263 75.6797 83.9728 75.5328 83.6043 75.5328H61.9958C61.824 75.5302 61.6602 75.4597 61.5397 75.3363C61.4191 75.213 61.3516 75.0468 61.3516 74.8737V68.4598C61.3516 68.2876 61.4195 68.1225 61.5403 68.0007C61.6611 67.879 61.8249 67.8106 61.9958 67.8106H82.7259C83.0953 67.808 83.4488 67.659 83.71 67.3957C83.9712 67.1325 84.1191 66.7762 84.1216 66.4039V56.5666C84.1216 56.1935 83.9745 55.8357 83.7128 55.5719C83.4511 55.3081 83.0961 55.1599 82.7259 55.1599H61.9958C61.8257 55.1574 61.6633 55.0881 61.5431 54.9669C61.4228 54.8457 61.3541 54.682 61.3516 54.5106V48.0869C61.3541 47.9155 61.4228 47.7519 61.5431 47.6306C61.6633 47.5094 61.8257 47.4402 61.9958 47.4377H83.6043C83.9745 47.4377 84.3295 47.2895 84.5912 47.0256C84.853 46.7618 85 46.404 85 46.031V35.3969C84.9974 35.0255 84.8492 34.6702 84.5878 34.4085C84.3263 34.1469 83.9728 34 83.6043 34ZM58.5603 46.0605V56.5961C58.5603 56.9692 58.7073 57.327 58.969 57.5908C59.2308 57.8547 59.5858 58.0029 59.9559 58.0029H80.6763C80.8481 58.0028 81.0129 58.0709 81.1353 58.1924C81.2577 58.3139 81.3277 58.479 81.3302 58.6521V64.3381C81.3302 64.5129 81.2614 64.6805 81.1387 64.8041C81.0161 64.9277 80.8498 64.9971 80.6763 64.9971H59.9559C59.5858 64.9971 59.2308 65.1454 58.969 65.4092C58.7073 65.673 58.5603 66.0308 58.5603 66.4039V76.9396C58.5629 77.3109 58.711 77.6662 58.9725 77.9279C59.234 78.1896 59.5875 78.3364 59.9559 78.3364H81.5547C81.6406 78.3364 81.7257 78.3535 81.805 78.3866C81.8843 78.4197 81.9564 78.4683 82.0171 78.5295C82.0778 78.5907 82.126 78.6633 82.1589 78.7433C82.1917 78.8233 82.2087 78.909 82.2087 78.9955V85.5373C82.2061 85.7104 82.1361 85.8755 82.0137 85.997C81.8914 86.1185 81.7265 86.1866 81.5547 86.1866H51.4355C51.2638 86.1866 51.0989 86.1185 50.9765 85.997C50.8542 85.8755 50.7842 85.7104 50.7816 85.5373V37.4627C50.7816 37.2879 50.8505 37.1203 50.9731 36.9967C51.0957 36.8731 51.2621 36.8036 51.4355 36.8036H81.5547C81.6406 36.8036 81.7257 36.8207 81.805 36.8538C81.8843 36.8869 81.9564 36.9355 82.0171 36.9967C82.0778 37.0579 82.126 37.1305 82.1589 37.2105C82.1917 37.2905 82.2087 37.3762 82.2087 37.4627V43.9946C82.2087 44.0812 82.1917 44.1669 82.1589 44.2469C82.126 44.3268 82.0778 44.3995 82.0171 44.4607C81.9564 44.5219 81.8843 44.5704 81.805 44.6036C81.7257 44.6367 81.6406 44.6537 81.5547 44.6537H59.9559C59.7727 44.6537 59.5912 44.6901 59.4218 44.7608C59.2525 44.8315 59.0986 44.9351 58.969 45.0658C58.8394 45.1964 58.7367 45.3515 58.6665 45.5221C58.5964 45.6928 58.5603 45.8757 58.5603 46.0605Z" fill="#343947" fill-opacity="0.1"/>
<path d="M113.726 44H105.367C105.006 44.0026 104.659 44.153 104.403 44.4186C104.147 44.6842 104.003 45.0438 104 45.4194V65.5806C104.003 65.9563 104.147 66.3158 104.403 66.5814C104.659 66.847 105.006 66.9974 105.367 67H113.726C119.503 67 124 62.0022 124 55.505C124 49.0078 119.484 44 113.726 44ZM121.246 55.505C121.246 60.3529 117.943 64.1512 113.726 64.1512H107.389C107.218 64.1512 107.054 64.0807 106.933 63.9551C106.812 63.8295 106.744 63.6591 106.744 63.4815V47.4885C106.744 47.4005 106.761 47.3135 106.793 47.2322C106.826 47.151 106.873 47.0771 106.933 47.0149C106.993 46.9528 107.064 46.9034 107.143 46.8698C107.221 46.8361 107.305 46.8188 107.389 46.8188H113.726C117.943 46.8488 121.246 50.6471 121.246 55.505Z" fill="#343947" fill-opacity="0.1"/>
<path d="M124.333 75.6041C124.263 75.5342 124.209 75.4491 124.177 75.3553C124.145 75.2615 124.134 75.1616 124.146 75.0631C124.155 74.9669 124.187 74.8741 124.238 74.7921C124.289 74.7101 124.359 74.6412 124.442 74.591C127.58 72.5901 130.158 69.8256 131.934 66.5568C133.71 63.2881 134.625 59.6224 134.594 55.9036C134.594 43.8256 125.121 34 113.492 34H94.4081C94.0364 34 93.6797 34.1468 93.4159 34.4085C93.1521 34.6701 93.0026 35.0253 93 35.3966V87.5935C93 87.9666 93.1483 88.3243 93.4124 88.5881C93.6765 88.8518 94.0347 89 94.4081 89H105.004C105.375 88.9974 105.731 88.8481 105.993 88.5846C106.255 88.3211 106.402 87.9649 106.402 87.5935V78.4564C106.402 78.2816 106.471 78.114 106.595 77.9904C106.719 77.8668 106.887 77.7974 107.062 77.7974H108.184C108.269 77.7975 108.353 77.8149 108.431 77.8488C108.509 77.8826 108.579 77.9321 108.637 77.9941L119.646 88.8132L119.823 89H134.594C134.873 88.9996 135.146 88.9161 135.378 88.7603C135.61 88.6045 135.79 88.3834 135.896 88.125C136.001 87.8667 136.027 87.5828 135.971 87.3095C135.915 87.0362 135.778 86.7859 135.579 86.5903L124.333 75.6041ZM120.011 74.414C119.97 74.637 119.984 74.8665 120.053 75.0826C120.122 75.2986 120.242 75.4946 120.404 75.6533L129.946 85.0461C130.042 85.1363 130.107 85.2535 130.133 85.3819C130.16 85.5103 130.146 85.6438 130.094 85.7641C130.049 85.8857 129.966 85.99 129.859 86.0623C129.751 86.1347 129.623 86.1714 129.493 86.1674H121.222C121.049 86.167 120.883 86.1001 120.759 85.9805L109.76 75.1615L109.573 74.9845H104.945C104.574 74.987 104.22 75.135 103.959 75.3964C103.697 75.6577 103.549 76.0115 103.546 76.3811V85.5281C103.544 85.7011 103.473 85.8662 103.35 85.9877C103.226 86.1092 103.06 86.1772 102.886 86.1772H96.3775C96.2922 86.1772 96.2077 86.1604 96.1288 86.1278C96.05 86.0952 95.9783 86.0474 95.918 85.9871C95.8576 85.9268 95.8098 85.8553 95.7771 85.7765C95.7444 85.6978 95.7276 85.6133 95.7276 85.5281V37.4424C95.7263 37.3563 95.7422 37.2709 95.7742 37.191C95.8063 37.1111 95.854 37.0384 95.9145 36.977C95.9749 36.9157 96.047 36.867 96.1265 36.8338C96.206 36.8005 96.2914 36.7834 96.3775 36.7834H113.452C123.536 36.7834 131.738 45.3501 131.738 55.8839C131.78 59.5474 130.771 63.1461 128.83 66.2553C126.89 69.3644 124.1 71.8541 120.788 73.4304C120.591 73.5219 120.417 73.6586 120.282 73.8294C120.147 74.0003 120.054 74.2006 120.011 74.414Z" fill="#343947" fill-opacity="0.1"/>
<path d="M181.593 34.0001H140.377C140.013 34.0027 139.664 34.1507 139.406 34.4121C139.148 34.6734 139.003 35.0272 139 35.3968V46.1273C139 46.4986 139.145 46.8548 139.403 47.1183C139.661 47.3818 140.011 47.5311 140.377 47.5337H153.56C153.73 47.5337 153.893 47.6021 154.013 47.7239C154.133 47.8456 154.2 48.0107 154.2 48.1829V87.5935C154.2 87.9666 154.346 88.3243 154.606 88.5881C154.867 88.8518 155.219 89 155.587 89H166.413C166.779 88.9974 167.129 88.8481 167.387 88.5846C167.645 88.3211 167.79 87.9649 167.79 87.5935V48.1829C167.79 48.0968 167.807 48.0116 167.84 47.9322C167.873 47.8528 167.921 47.7807 167.981 47.7203C168.042 47.6599 168.113 47.6123 168.192 47.5803C168.271 47.5482 168.355 47.5324 168.44 47.5337H181.613C181.795 47.5337 181.975 47.4973 182.144 47.4267C182.312 47.356 182.465 47.2524 182.594 47.1218C182.723 46.9912 182.825 46.8361 182.894 46.6655C182.964 46.4949 183 46.312 183 46.1273V35.3968C182.999 35.2112 182.961 35.0278 182.89 34.857C182.818 34.6862 182.714 34.5314 182.583 34.4016C182.453 34.2718 182.298 34.1695 182.128 34.1006C181.958 34.0317 181.776 33.9975 181.593 34.0001ZM165.006 46.1273V85.5379C165.004 85.711 164.934 85.8761 164.812 85.9976C164.691 86.119 164.527 86.1871 164.356 86.1871H157.566C157.395 86.1871 157.232 86.119 157.11 85.9976C156.988 85.8761 156.919 85.711 156.916 85.5379V46.1273C156.916 45.7542 156.77 45.3965 156.51 45.1327C156.25 44.869 155.897 44.7208 155.529 44.7208H142.395C142.223 44.7208 142.057 44.6514 141.936 44.5278C141.814 44.4042 141.745 44.2366 141.745 44.0618V37.4622C141.745 37.2875 141.814 37.1198 141.936 36.9962C142.057 36.8727 142.223 36.8032 142.395 36.8032H179.566C179.737 36.8058 179.9 36.8764 180.019 36.9997C180.139 37.123 180.206 37.2891 180.206 37.4622V44.0618C180.206 44.2349 180.139 44.401 180.019 44.5243C179.9 44.6476 179.737 44.7182 179.566 44.7208H166.384C166.017 44.7234 165.667 44.8727 165.409 45.1362C165.151 45.3997 165.006 45.7559 165.006 46.1273Z" fill="#343947" fill-opacity="0.1"/>
<path d="M254.501 34.0017H243.339C243.151 34.0017 242.964 34.0384 242.79 34.1098C242.616 34.1812 242.458 34.2857 242.325 34.4175C242.192 34.5493 242.087 34.7056 242.016 34.8776C241.945 35.0495 241.909 35.2336 241.91 35.4193V55.6701C241.93 60.6962 239.984 65.5367 236.476 69.1866C232.969 72.8365 228.169 75.0154 223.074 75.271H220.926C215.827 75.0061 211.026 72.8229 207.513 69.1719C204.001 65.5209 202.045 60.6807 202.05 55.6504V35.4193C202.05 35.046 201.899 34.6879 201.631 34.4239C201.363 34.1599 201 34.0115 200.621 34.0115H189.429C189.05 34.0115 188.687 34.1599 188.419 34.4239C188.151 34.6879 188 35.046 188 35.4193V55.6701C187.994 63.7304 190.946 71.521 196.314 77.6042C197.352 78.7899 198.478 79.8987 199.681 80.9219C201.806 82.7431 204.156 84.2913 206.676 85.5293C208.196 86.2795 209.769 86.9211 211.383 87.449C212.808 87.9145 214.263 88.2829 215.74 88.5516C215.893 88.5772 216.033 88.6555 216.133 88.7726C216.234 88.8897 216.289 89.0381 216.289 89.1915V110.092C216.287 110.264 216.216 110.427 216.093 110.549C215.97 110.67 215.804 110.739 215.63 110.742H206.366C205.987 110.742 205.624 110.89 205.356 111.154C205.088 111.418 204.938 111.776 204.938 112.15V119.592C204.938 119.966 205.088 120.324 205.356 120.588C205.624 120.852 205.987 121 206.366 121H237.693C238.072 121 238.436 120.852 238.704 120.588C238.972 120.324 239.122 119.966 239.122 119.592V112.15C239.122 111.776 238.972 111.418 238.704 111.154C238.436 110.89 238.072 110.742 237.693 110.742H228.43C228.254 110.742 228.086 110.674 227.96 110.552C227.835 110.43 227.763 110.265 227.761 110.092V89.1817C227.763 89.0274 227.821 88.8788 227.923 88.7619C228.025 88.645 228.166 88.5671 228.32 88.5418C236.1 87.0966 243.123 83.0203 248.177 77.0168C253.23 71.0133 255.997 63.4596 256 55.6602V35.4193C256.002 35.2277 255.963 35.0377 255.888 34.8611C255.812 34.6845 255.701 34.525 255.561 34.3922C255.42 34.2595 255.254 34.1564 255.072 34.0893C254.89 34.0221 254.695 33.9923 254.501 34.0017ZM226.951 85.8935C226.432 85.9821 225.892 86.051 225.382 86.1101L224.833 86.1692V112.14C224.833 112.511 224.982 112.868 225.248 113.132C225.514 113.395 225.875 113.545 226.252 113.547H235.515C235.693 113.547 235.863 113.617 235.988 113.741C236.114 113.864 236.185 114.032 236.185 114.207V117.525C236.182 117.698 236.11 117.863 235.985 117.985C235.86 118.106 235.691 118.175 235.515 118.175H208.415C208.24 118.175 208.072 118.106 207.949 117.984C207.825 117.862 207.755 117.697 207.755 117.525V114.178C207.754 114.091 207.77 114.006 207.803 113.926C207.835 113.846 207.884 113.773 207.945 113.712C208.006 113.65 208.08 113.602 208.16 113.568C208.241 113.535 208.328 113.518 208.415 113.518H217.678C218.057 113.518 218.421 113.37 218.689 113.106C218.957 112.842 219.107 112.484 219.107 112.11V86.1889L218.348 86.1003C217.898 86.0412 217.428 85.992 216.969 85.9034C215.361 85.6533 213.777 85.2746 212.232 84.7712C210.754 84.2899 209.315 83.7009 207.925 83.009C205.634 81.8706 203.496 80.4552 201.56 78.7954C200.46 77.8599 199.432 76.8465 198.482 75.7632C193.567 70.1852 190.86 63.047 190.858 55.6602V37.4769C190.857 37.3907 190.873 37.3052 190.905 37.2252C190.938 37.1452 190.986 37.0725 191.047 37.0111C191.109 36.9497 191.182 36.9009 191.263 36.8677C191.343 36.8344 191.43 36.8173 191.517 36.8173H198.512C198.69 36.8173 198.86 36.8868 198.986 37.0105C199.111 37.1342 199.182 37.302 199.182 37.4769V55.6602C199.178 61.4283 201.43 66.976 205.47 71.1507C209.51 75.3253 215.028 77.8058 220.876 78.0768H223.144C228.98 77.791 234.48 75.3034 238.504 71.1297C242.529 66.9561 244.768 61.4167 244.758 55.6602V37.4966C244.761 37.3251 244.831 37.1613 244.954 37.04C245.077 36.9186 245.244 36.8494 245.418 36.8468H252.413C252.5 36.8449 252.586 36.8604 252.667 36.8926C252.748 36.9248 252.821 36.9728 252.882 37.0339C252.946 37.0937 252.996 37.1656 253.03 37.2451C253.065 37.3246 253.082 37.4102 253.082 37.4966V55.6799C253.109 63.063 250.418 70.2052 245.508 75.7829C244.58 76.86 243.578 77.8731 242.51 78.8151C238.148 82.5588 232.805 85.0184 227.091 85.9132L226.951 85.8935Z" fill="#343947" fill-opacity="0.1"/>
<path d="M228.752 27.1984H238.612H239V20.4464V20.0457H228.868C228.525 20.0571 228.189 19.9381 227.925 19.711C227.66 19.484 227.485 19.1647 227.433 18.8135C227.417 18.6243 227.439 18.4336 227.498 18.2537C227.557 18.0737 227.652 17.9084 227.776 17.768C227.9 17.6277 228.05 17.5155 228.218 17.4386C228.387 17.3616 228.568 17.3215 228.752 17.3208H238.777L238.99 17.0804V16.87C238.978 16.1792 238.923 15.4899 238.825 14.8064C238.236 10.7012 236.243 6.95009 233.207 4.23357C230.17 1.51704 226.292 0.0150373 222.276 0H220.724C216.698 0.0168528 212.812 1.52698 209.773 4.2555C206.733 6.98402 204.743 10.7495 204.165 14.8665C204.072 15.5506 204.017 16.2396 204 16.9301V17.3309H214.267C214.611 17.3172 214.948 17.4355 215.213 17.6629C215.478 17.8904 215.652 18.211 215.702 18.5631C215.716 18.7452 215.692 18.9282 215.634 19.1007C215.576 19.2731 215.483 19.4311 215.363 19.5648C215.241 19.7064 215.092 19.8197 214.925 19.8974C214.758 19.9751 214.577 20.0154 214.393 20.0156H204.378H204V26.7777V27.1684H214.267C214.611 27.1569 214.947 27.276 215.211 27.5031C215.476 27.7301 215.65 28.0494 215.702 28.4006C215.72 28.5918 215.698 28.7848 215.639 28.9669C215.58 29.1489 215.483 29.3159 215.357 29.4568C215.231 29.5978 215.077 29.7096 214.906 29.7848C214.735 29.86 214.55 29.8969 214.364 29.8932H204.378H204V55.5189C204 60.1552 205.782 64.6015 208.955 67.8799C212.128 71.1582 216.431 73 220.918 73H222.072C226.56 73 230.864 71.1586 234.038 67.8805C237.213 64.6024 238.997 60.1561 239 55.5189V30.324V29.9233H228.868C228.525 29.9347 228.189 29.8157 227.925 29.5886C227.66 29.3615 227.485 29.0422 227.433 28.6911C227.423 28.5092 227.448 28.3271 227.506 28.1552C227.565 27.9833 227.655 27.825 227.773 27.6893C227.894 27.5421 228.044 27.4225 228.213 27.338C228.381 27.2535 228.565 27.206 228.752 27.1984ZM224.816 27.7294C224.656 28.5324 224.73 29.3663 225.028 30.1259C225.327 30.8855 225.837 31.5366 226.493 31.997C227.214 32.4892 228.063 32.741 228.927 32.7183H236.12C236.167 32.7183 236.211 32.7373 236.244 32.7711C236.277 32.8049 236.295 32.8508 236.295 32.8986V55.579C236.295 59.4766 234.797 63.2147 232.129 65.9707C229.462 68.7268 225.844 70.2751 222.072 70.2751H220.928C217.153 70.2751 213.533 68.7258 210.864 65.9678C208.195 63.2099 206.695 59.4693 206.695 55.569V32.8986C206.695 32.8508 206.714 32.8049 206.746 32.7711C206.779 32.7373 206.824 32.7183 206.87 32.7183H214.209C215.157 32.7394 216.083 32.4205 216.828 31.816C217.574 31.2114 218.095 30.3585 218.301 29.4024C218.459 28.5994 218.385 27.7659 218.086 27.0066C217.788 26.2473 217.279 25.5961 216.623 25.1348C215.898 24.6441 215.046 24.3925 214.18 24.4135H206.87C206.824 24.4135 206.779 24.3945 206.746 24.3607C206.714 24.3268 206.695 24.281 206.695 24.2332V22.9909C206.695 22.9431 206.714 22.8973 206.746 22.8634C206.779 22.8296 206.824 22.8106 206.87 22.8106H214.209C215.156 22.8322 216.08 22.5148 216.826 21.9122C217.572 21.3096 218.093 20.459 218.301 19.5047C218.459 18.6993 218.383 17.8635 218.083 17.1023C217.783 16.3412 217.272 15.6888 216.614 15.2271C215.89 14.7425 215.042 14.4946 214.18 14.5158H207.18C207.153 14.5165 207.127 14.5109 207.103 14.4995C207.079 14.488 207.057 14.471 207.041 14.4498C207.024 14.4285 207.012 14.4036 207.006 14.3768C207 14.3501 207 14.3222 207.006 14.2954C207.668 11.0473 209.395 8.13464 211.894 6.04874C214.393 3.96283 217.512 2.83133 220.724 2.84506H222.276C225.491 2.83319 228.612 3.96933 231.11 6.0613C233.608 8.15327 235.33 11.0726 235.985 14.3255C235.991 14.3523 235.991 14.3801 235.985 14.4069C235.978 14.4336 235.967 14.4586 235.95 14.4798C235.933 14.5011 235.912 14.5181 235.887 14.5295C235.863 14.541 235.837 14.5466 235.81 14.5459H228.907C227.959 14.5229 227.032 14.841 226.286 15.4459C225.54 16.0507 225.02 16.9048 224.816 17.8618C224.657 18.6638 224.731 19.4961 225.028 20.255C225.324 21.014 225.831 21.6659 226.483 22.1294C227.21 22.6143 228.062 22.8621 228.927 22.8407H236.12C236.143 22.8407 236.166 22.8453 236.187 22.8544C236.208 22.8635 236.228 22.8767 236.244 22.8935C236.26 22.9102 236.273 22.9301 236.282 22.952C236.29 22.9739 236.295 22.9973 236.295 23.021V24.2632C236.295 24.311 236.277 24.3569 236.244 24.3907C236.211 24.4245 236.167 24.4435 236.12 24.4435H228.907C227.963 24.4191 227.04 24.7329 226.294 25.3319C225.548 25.9308 225.026 26.7779 224.816 27.7294Z" fill="#343947" fill-opacity="0.1"/>
<path d="M1.99023 120.686V102.342H5.01252V109.719H13.6881V102.342H16.7104V120.686H13.6881V112.581H5.01252V120.686H1.99023Z" fill="#FFFF66"/>
<path d="M31.6446 105.321H32.4466L27.0574 120.685H24.0547L30.5589 102.341H33.4932L40.0072 120.685H37.0045L31.6446 105.321ZM35.8895 116.141H28.2213V113.455H35.9188L35.8895 116.141ZM29.5417 100.777V99.0754L34.5691 96.5869V99.2524L29.5417 100.777Z" fill="#FFFF66"/>
<path d="M47.4121 120.685V102.341H53.8088C54.9396 102.316 56.0637 102.52 57.1147 102.941C58.0228 103.3 58.7935 103.941 59.3154 104.77C59.8692 105.719 60.1407 106.808 60.0978 107.908C60.1482 109.032 59.8547 110.144 59.2567 111.095C58.6814 111.944 57.8913 112.623 56.968 113.062L61.0759 120.724H57.6135L54.0142 113.79H50.4833V120.724L47.4121 120.685ZM50.4833 111.164H53.2317C54.2581 111.26 55.2809 110.946 56.0779 110.288C56.3643 109.988 56.5873 109.633 56.7336 109.245C56.8798 108.856 56.9462 108.441 56.9289 108.026C56.953 107.609 56.8906 107.192 56.7458 106.801C56.601 106.41 56.3769 106.053 56.0877 105.754C55.2996 105.135 54.3056 104.843 53.3099 104.937H50.4833V111.164Z" fill="#FFFF66"/>
<path d="M76.6391 121.049C75.0169 121.077 73.4165 120.669 72.003 119.868C70.6508 119.088 69.5455 117.939 68.8144 116.554C68.0486 114.985 67.6504 113.261 67.6504 111.513C67.6504 109.765 68.0486 108.041 68.8144 106.472C69.5485 105.089 70.6531 103.941 72.003 103.157C73.4291 102.384 75.0239 101.979 76.644 101.979C78.2641 101.979 79.8588 102.384 81.285 103.157C82.6348 103.941 83.7394 105.089 84.4735 106.472C85.233 108.043 85.6276 109.766 85.6276 111.513C85.6276 113.259 85.233 114.983 84.4735 116.554C83.7424 117.939 82.6371 119.088 81.285 119.868C79.8684 120.671 78.2646 121.078 76.6391 121.049ZM76.6391 118.098C77.7692 118.139 78.8858 117.841 79.8472 117.242C80.7171 116.667 81.3978 115.846 81.8033 114.882C82.6771 112.715 82.6771 110.291 81.8033 108.124C81.3977 107.163 80.7168 106.345 79.8472 105.774C78.8681 105.213 77.7608 104.918 76.6342 104.918C75.5075 104.918 74.4003 105.213 73.4212 105.774C72.5516 106.345 71.8707 107.163 71.465 108.124C70.5912 110.291 70.5912 112.715 71.465 114.882C71.8705 115.846 72.5513 116.667 73.4212 117.242C74.385 117.845 75.5049 118.146 76.6391 118.108V118.098Z" fill="#FFFF66"/>
<path d="M92.8242 120.686L95.3281 102.342H97.832L102.409 110.968L106.948 102.342H109.471L111.965 120.686H108.806L107.026 106.473L107.848 106.63L102.409 116.653L96.942 106.64L97.7635 106.502L95.9736 120.686H92.8242Z" fill="#FFFF66"/>
<path d="M125.658 121.047C124.894 121.049 124.131 120.983 123.379 120.85C122.652 120.732 121.933 120.568 121.227 120.359C120.682 120.202 120.149 120.005 119.633 119.768L120.014 116.542C120.572 116.818 121.178 117.073 121.833 117.319C122.511 117.579 123.208 117.786 123.917 117.939C124.636 118.104 125.371 118.186 126.108 118.185C126.938 118.224 127.762 118.026 128.484 117.614C128.774 117.428 129.01 117.168 129.168 116.86C129.326 116.553 129.401 116.209 129.384 115.864C129.406 115.331 129.232 114.809 128.895 114.398C128.488 113.965 127.99 113.629 127.438 113.414C126.792 113.129 125.961 112.824 124.963 112.49C124.044 112.19 123.151 111.815 122.293 111.369C121.534 110.986 120.879 110.422 120.386 109.726C119.879 108.956 119.628 108.042 119.672 107.119C119.645 106.161 119.912 105.217 120.437 104.416C120.962 103.616 121.719 102.997 122.606 102.644C123.756 102.169 124.993 101.945 126.235 101.985C127.326 101.978 128.413 102.107 129.472 102.369C130.339 102.569 131.187 102.845 132.006 103.195L131.693 106.333C130.779 105.867 129.822 105.491 128.837 105.211C127.935 104.963 127.004 104.838 126.069 104.838C125.237 104.796 124.409 104.979 123.672 105.369C123.386 105.529 123.151 105.767 122.994 106.056C122.836 106.345 122.763 106.673 122.782 107.001C122.765 107.489 122.929 107.966 123.242 108.339C123.61 108.723 124.058 109.022 124.553 109.214C125.236 109.501 125.935 109.751 126.646 109.962C127.79 110.307 128.897 110.765 129.952 111.329C130.776 111.755 131.482 112.38 132.006 113.149C132.489 113.947 132.73 114.87 132.7 115.805C132.695 116.437 132.59 117.065 132.387 117.663C132.162 118.313 131.783 118.897 131.282 119.365C130.664 119.935 129.924 120.356 129.12 120.595C127.997 120.929 126.829 121.082 125.658 121.047Z" fill="#FFFF66"/>
<path d="M138.941 120.684L148.673 104.061L149.211 105.045H140.115V102.32H152.83L143.049 118.953L142.521 117.969H152.674V120.694L138.941 120.684Z" fill="#FFFF66"/>
<path d="M160.264 120.684V102.34H171.737V105.222H163.335V109.668H169.917V112.55H163.335V117.802H171.981V120.684H160.264ZM163.765 100.747V99.0451L168.793 96.5566V99.2222L163.765 100.747Z" fill="#FFFF66"/>
<path d="M180.139 120.686V102.342H183.161V120.686H180.139ZM190.174 120.686L183.425 110.978L190.174 102.342H193.754L186.907 110.968L193.754 120.686H190.174Z" fill="#FFFF66"/>
</svg>
