<svg width="75" height="75" viewBox="0 0 75 75" fill="none" xmlns="http://www.w3.org/2000/svg">
<path d="M37.0787 74.2256C57.5567 74.2256 74.1574 57.6097 74.1574 37.1128C74.1574 16.616 57.5567 0 37.0787 0C16.6007 0 0 16.616 0 37.1128C0 57.6097 16.6007 74.2256 37.0787 74.2256Z" fill="#DD5B6D"/>
<path d="M52.714 17.8387L23.5901 46.9894C22.3686 48.212 22.3686 50.1942 23.5901 51.4169L28.5587 56.39C29.7802 57.6126 31.7606 57.6126 32.9821 56.39L62.106 27.2393C63.3275 26.0167 63.3275 24.0345 62.106 22.8119L57.1374 17.8387C55.9159 16.6161 53.9355 16.6161 52.714 17.8387Z" fill="#91BAB4"/>
<path d="M17.0187 30.4615L12.0501 35.4347C10.8286 36.6573 10.8286 38.6396 12.0501 39.8622L28.5457 56.373C29.7672 57.5956 31.7476 57.5956 32.9691 56.373L37.9377 51.3998C39.1592 50.1772 39.1592 48.195 37.9377 46.9723L21.4421 30.4615C20.2206 29.2389 18.2402 29.2389 17.0187 30.4615Z" fill="#274D5B"/>
</svg>
