<svg width="28" height="29" viewBox="0 0 28 29" fill="none" xmlns="http://www.w3.org/2000/svg">
<path d="M24.6253 14.1667C24.6253 13.8408 24.6111 13.5292 24.5828 13.2033L27.2178 11.2058C27.7844 10.7808 27.9403 9.9875 27.5861 9.36417L24.9369 4.78833C24.5828 4.165 23.8178 3.91 23.1661 4.19333L20.1203 5.4825C19.5961 5.11417 19.0436 4.78833 18.4628 4.51917L18.0519 1.24667C17.9669 0.538333 17.3578 0 16.6494 0H11.3653C10.6428 0 10.0336 0.538333 9.94859 1.24667L9.53776 4.51917C8.95693 4.78833 8.40442 5.11417 7.88026 5.4825L4.83442 4.19333C4.18276 3.91 3.41776 4.165 3.06359 4.78833L0.414425 9.37833C0.060258 10.0017 0.216091 10.7808 0.782758 11.22L3.41776 13.2175C3.38943 13.5292 3.37526 13.8408 3.37526 14.1667C3.37526 14.4925 3.38943 14.8042 3.41776 15.13L0.782758 17.1275C0.216091 17.5525 0.060258 18.3458 0.414425 18.9692L3.06359 23.545C3.41776 24.1683 4.18276 24.4233 4.83442 24.14L7.88026 22.8508C8.40442 23.2192 8.95693 23.545 9.53776 23.8142L9.94859 27.0867C10.0336 27.795 10.6428 28.3333 11.3511 28.3333H16.6353C17.3436 28.3333 17.9528 27.795 18.0378 27.0867L18.4486 23.8142C19.0294 23.545 19.5819 23.2192 20.1061 22.8508L23.1519 24.14C23.8036 24.4233 24.5686 24.1683 24.9228 23.545L27.5719 18.9692C27.9261 18.3458 27.7703 17.5667 27.2036 17.1275L24.5686 15.13C24.6111 14.8042 24.6253 14.4925 24.6253 14.1667ZM14.0569 19.125C11.3228 19.125 9.09859 16.9008 9.09859 14.1667C9.09859 11.4325 11.3228 9.20833 14.0569 9.20833C16.7911 9.20833 19.0153 11.4325 19.0153 14.1667C19.0153 16.9008 16.7911 19.125 14.0569 19.125Z" fill="#cfcfcf"/>
</svg>
