<svg width="89" height="133" viewBox="0 0 89 133" fill="none" xmlns="http://www.w3.org/2000/svg">
<g clip-path="url(#clip0_214_1074)">
<path d="M44.5 89.3094C69.0767 89.3094 89 69.3168 89 44.6547C89 19.9926 69.0767 0 44.5 0C19.9233 0 0 19.9926 0 44.6547C0 69.3168 19.9233 89.3094 44.5 89.3094Z" fill="#274D5B"/>
<path d="M63.2661 21.461L28.3131 56.5356C26.8471 58.0067 26.8471 60.3918 28.3131 61.8628L34.2761 67.8466C35.7421 69.3177 38.1189 69.3177 39.5849 67.8466L74.538 32.772C76.0039 31.301 76.0039 28.9159 74.5379 27.4449L68.5749 21.4611C67.1089 19.99 64.7321 19.99 63.2661 21.461Z" fill="#DD5B6D"/>
<path d="M20.4255 36.6534L14.4625 42.6372C12.9965 44.1082 12.9965 46.4933 14.4625 47.9644L34.2597 67.8304C35.7257 69.3015 38.1025 69.3015 39.5684 67.8304L45.5315 61.8466C46.9975 60.3756 46.9975 57.9905 45.5315 56.5194L25.7343 36.6534C24.2683 35.1823 21.8915 35.1823 20.4255 36.6534Z" fill="#91BAB4"/>
<path d="M15.4229 98.5816C16.668 97.9 18.1254 97.5593 19.7951 97.5593C21.6694 97.5372 23.5107 98.0545 25.1011 99.0501C26.6858 100.044 27.9381 101.464 28.8578 103.31C29.7775 105.156 30.2373 107.3 30.2373 109.742C30.2373 112.184 29.7775 114.335 28.8578 116.195C27.9381 118.055 26.6858 119.489 25.1011 120.497C23.5154 121.506 21.6723 122.031 19.7951 122.009C18.1537 122.009 16.7034 121.669 15.4441 120.987C14.4083 120.445 13.5009 119.686 12.784 118.761C12.7636 118.733 12.7351 118.713 12.7027 118.703C12.6702 118.693 12.6354 118.693 12.603 118.704C12.5707 118.714 12.5425 118.735 12.5224 118.762C12.5023 118.79 12.4914 118.823 12.4911 118.857V132.843C12.4911 132.864 12.4869 132.886 12.4787 132.905C12.4705 132.925 12.4586 132.943 12.4435 132.958C12.4283 132.973 12.4104 132.986 12.3906 132.994C12.3709 133.002 12.3498 133.006 12.3284 133.006H5.39516C5.35212 133.006 5.31094 132.988 5.28051 132.958C5.25007 132.927 5.23279 132.886 5.23242 132.843V98.0704C5.23242 98.0271 5.24958 97.9856 5.28009 97.955C5.31061 97.9243 5.35201 97.9071 5.39516 97.9071H12.3284C12.3498 97.907 12.3711 97.911 12.3909 97.9192C12.4107 97.9273 12.4287 97.9393 12.4439 97.9545C12.459 97.9697 12.471 97.9878 12.4791 98.0077C12.4872 98.0276 12.4913 98.0489 12.4911 98.0704V100.75C12.4913 100.784 12.5023 100.818 12.5226 100.845C12.5428 100.873 12.5713 100.894 12.6039 100.904C12.6365 100.915 12.6717 100.915 12.7043 100.904C12.7369 100.893 12.7653 100.873 12.7854 100.845C13.4885 99.9054 14.3889 99.1327 15.4229 98.5816ZM21.3444 105.461C20.8673 104.956 20.2905 104.558 19.6509 104.29C19.0113 104.022 18.323 103.891 17.6302 103.906C16.9421 103.895 16.2595 104.03 15.6269 104.301C14.9942 104.573 14.4257 104.975 13.9584 105.482C12.9538 106.533 12.4515 107.967 12.4515 109.784C12.4515 111.602 12.9538 113.036 13.9584 114.086C14.4257 114.593 14.9942 114.996 15.6269 115.267C16.2595 115.539 16.9421 115.674 17.6302 115.663C18.323 115.672 19.01 115.534 19.6463 115.259C20.2826 114.983 20.854 114.577 21.3232 114.065C22.342 113 22.8513 111.559 22.8513 109.742C22.8513 107.924 22.349 106.497 21.3444 105.461Z" fill="#91BAB4"/>
<path d="M56.1113 111.53H40.0092C39.9865 111.53 39.9639 111.535 39.9431 111.544C39.9223 111.553 39.9036 111.566 39.8883 111.583C39.873 111.6 39.8613 111.62 39.8541 111.642C39.8469 111.663 39.8443 111.686 39.8465 111.709C39.9823 113.098 40.4511 114.167 41.2529 114.916C42.083 115.697 43.1112 116.088 44.3375 116.088C46.1137 116.088 47.3594 115.35 48.0744 113.876C48.0867 113.849 48.1067 113.826 48.1319 113.81C48.157 113.794 48.1863 113.787 48.2159 113.788H55.633C55.6581 113.787 55.6829 113.793 55.7055 113.804C55.7281 113.815 55.7479 113.831 55.7632 113.851C55.7785 113.871 55.7891 113.894 55.794 113.919C55.7989 113.944 55.798 113.969 55.7915 113.994C55.3898 115.465 54.6775 116.833 53.703 118.005C52.6491 119.269 51.3204 120.275 49.819 120.944C48.2626 121.654 46.5222 122.009 44.5979 122.009C42.2774 122.009 40.2116 121.512 38.4004 120.518C36.6049 119.54 35.1305 118.06 34.1556 116.258C33.1368 114.412 32.6274 112.254 32.6274 109.784C32.6274 107.313 33.1255 105.155 34.1216 103.309C35.084 101.505 36.5524 100.024 38.3452 99.0495C40.1545 98.0555 42.2344 97.5586 44.5851 97.5586C46.8773 97.5586 48.9149 98.0413 50.6977 99.0069C52.459 99.9511 53.911 101.386 54.8789 103.139C55.8825 104.928 56.3848 107.015 56.3858 109.4C56.3847 110.064 56.3474 110.728 56.274 111.388C56.2685 111.427 56.249 111.464 56.2191 111.49C56.1892 111.516 56.1509 111.53 56.1113 111.53ZM48.7918 107.483C48.8134 107.483 48.8348 107.479 48.8547 107.471C48.8746 107.462 48.8927 107.45 48.9078 107.435C48.923 107.419 48.9349 107.401 48.9429 107.381C48.9509 107.361 48.9548 107.339 48.9545 107.317C48.9177 106.146 48.4932 105.208 47.681 104.502C46.8321 103.763 45.7708 103.394 44.4974 103.394C43.2805 103.394 42.2547 103.749 41.4199 104.459C40.6256 105.134 40.1196 106.078 39.9017 107.292C39.8978 107.315 39.899 107.339 39.9053 107.362C39.9116 107.385 39.9228 107.407 39.9382 107.425C39.9535 107.443 39.9726 107.458 39.9942 107.468C40.0157 107.478 40.0392 107.483 40.063 107.483H48.7918Z" fill="#91BAB4"/>
<path d="M81.2817 100.351C82.9372 102.154 83.7649 104.631 83.7649 107.784V121.507C83.7649 121.55 83.7478 121.591 83.7173 121.622C83.6867 121.653 83.6454 121.67 83.6022 121.67H76.71C76.6887 121.67 76.6677 121.666 76.648 121.657C76.6283 121.649 76.6105 121.637 76.5955 121.622C76.5805 121.607 76.5686 121.589 76.5606 121.569C76.5526 121.549 76.5485 121.528 76.5487 121.507V108.763C76.5487 107.173 76.1384 105.938 75.3178 105.057C74.4971 104.177 73.3934 103.737 72.0067 103.737C70.6182 103.737 69.5146 104.177 68.6958 105.057C67.877 105.938 67.4667 107.173 67.4648 108.763V121.507C67.4648 121.55 67.4477 121.591 67.4171 121.622C67.3866 121.653 67.3452 121.67 67.302 121.67H60.3688C60.3475 121.67 60.3264 121.666 60.3068 121.657C60.2871 121.649 60.2693 121.637 60.2543 121.622C60.2393 121.607 60.2274 121.589 60.2194 121.569C60.2114 121.549 60.2073 121.528 60.2075 121.507V98.0646C60.2073 98.0432 60.2114 98.022 60.2194 98.0022C60.2274 97.9824 60.2393 97.9644 60.2543 97.9492C60.2693 97.934 60.2871 97.922 60.3068 97.9138C60.3264 97.9056 60.3475 97.9013 60.3688 97.9013H67.302C67.3452 97.9013 67.3866 97.9185 67.4171 97.9491C67.4477 97.9798 67.4648 98.0213 67.4648 98.0646V100.566C67.4659 100.599 67.4766 100.63 67.4958 100.657C67.5149 100.683 67.5415 100.703 67.572 100.714C67.6026 100.724 67.6357 100.726 67.667 100.718C67.6984 100.709 67.7265 100.692 67.7478 100.667C68.4774 99.7742 69.3957 99.0549 70.4362 98.5616C71.7481 97.9358 73.1862 97.6224 74.6385 97.6457C77.4109 97.6457 79.6253 98.5474 81.2817 100.351Z" fill="#91BAB4"/>
</g>
<defs>
<clipPath id="clip0_214_1074">
<rect width="89" height="133" fill="white"/>
</clipPath>
</defs>
</svg>
