<svg width="46" height="46" viewBox="0 0 46 46" fill="none" xmlns="http://www.w3.org/2000/svg">
<g clip-path="url(#clip0_214_1411)">
<path d="M23.0002 3.83203C12.4202 3.83203 3.8335 12.4187 3.8335 22.9987C3.8335 33.5787 12.4202 42.1654 23.0002 42.1654C33.5802 42.1654 42.1668 33.5787 42.1668 22.9987C42.1668 12.4187 33.5802 3.83203 23.0002 3.83203ZM30.6668 24.9154H24.9168V30.6654C24.9168 31.7195 24.0543 32.582 23.0002 32.582C21.946 32.582 21.0835 31.7195 21.0835 30.6654V24.9154H15.3335C14.2793 24.9154 13.4168 24.0529 13.4168 22.9987C13.4168 21.9445 14.2793 21.082 15.3335 21.082H21.0835V15.332C21.0835 14.2779 21.946 13.4154 23.0002 13.4154C24.0543 13.4154 24.9168 14.2779 24.9168 15.332V21.082H30.6668C31.721 21.082 32.5835 21.9445 32.5835 22.9987C32.5835 24.0529 31.721 24.9154 30.6668 24.9154Z" fill="#363636"/>
</g>
<defs>
<clipPath id="clip0_214_1411">
<rect width="46" height="46" fill="white"/>
</clipPath>
</defs>
</svg>
