<svg width="46" height="46" viewBox="0 0 46 46" fill="none" xmlns="http://www.w3.org/2000/svg">
<g clip-path="url(#clip0_214_1354)">
<path d="M22.9998 42.1654C25.1082 42.1654 26.8332 40.4404 26.8332 38.332H19.1665C19.1665 40.4404 20.8915 42.1654 22.9998 42.1654Z" fill="#363636"/>
<path d="M36.4165 32.582H34.4998V19.1654C34.4998 13.8179 30.839 9.3137 25.8748 8.0487V6.70703C25.8748 5.1162 24.5907 3.83203 22.9998 3.83203C21.409 3.83203 20.1248 5.1162 20.1248 6.70703V8.0487C15.1607 9.3137 11.4998 13.8179 11.4998 19.1654V32.582H9.58317C8.529 32.582 7.6665 33.4445 7.6665 34.4987C7.6665 35.5529 8.529 36.4154 9.58317 36.4154H36.4165C37.4707 36.4154 38.3332 35.5529 38.3332 34.4987C38.3332 33.4445 37.4707 32.582 36.4165 32.582ZM26.8332 24.9154H24.9165V26.832C24.9165 27.8862 24.054 28.7487 22.9998 28.7487C21.9457 28.7487 21.0832 27.8862 21.0832 26.832V24.9154H19.1665C18.1123 24.9154 17.2498 24.0529 17.2498 22.9987C17.2498 21.9445 18.1123 21.082 19.1665 21.082H21.0832V19.1654C21.0832 18.1112 21.9457 17.2487 22.9998 17.2487C24.054 17.2487 24.9165 18.1112 24.9165 19.1654V21.082H26.8332C27.8873 21.082 28.7498 21.9445 28.7498 22.9987C28.7498 24.0529 27.8873 24.9154 26.8332 24.9154Z" fill="#363636"/>
</g>
<defs>
<clipPath id="clip0_214_1354">
<rect width="46" height="46" fill="white"/>
</clipPath>
</defs>
</svg>
