<svg width="46" height="46" viewBox="0 0 46 46" fill="none" xmlns="http://www.w3.org/2000/svg">
<g clip-path="url(#clip0_214_1227)">
<path d="M34.5002 24.9173H24.9168V34.5007C24.9168 35.5548 24.0543 36.4173 23.0002 36.4173C21.946 36.4173 21.0835 35.5548 21.0835 34.5007V24.9173H11.5002C10.446 24.9173 9.5835 24.0548 9.5835 23.0007C9.5835 21.9465 10.446 21.084 11.5002 21.084H21.0835V11.5007C21.0835 10.4465 21.946 9.58398 23.0002 9.58398C24.0543 9.58398 24.9168 10.4465 24.9168 11.5007V21.084H34.5002C35.5543 21.084 36.4168 21.9465 36.4168 23.0007C36.4168 24.0548 35.5543 24.9173 34.5002 24.9173Z" fill="#363636"/>
</g>
<defs>
<clipPath id="clip0_214_1227">
<rect width="46" height="46" fill="white"/>
</clipPath>
</defs>
</svg>
