<svg width="46" height="46" viewBox="0 0 46 46" fill="none" xmlns="http://www.w3.org/2000/svg">
<g clip-path="url(#clip0_214_1377)">
<path d="M36.4167 19.1648C36.4167 17.0565 34.6917 15.3315 32.5833 15.3315H24.9167V12.5523C25.2042 12.3798 25.4725 12.2073 25.7025 11.9582C26.45 11.2107 26.8333 10.1948 26.8333 9.23651C26.8333 8.27818 26.45 7.28151 25.7025 6.53401L23.6708 4.50234C23.2875 4.11901 22.6933 4.11901 22.31 4.50234L20.2783 6.53401C19.55 7.28151 19.1667 8.27818 19.1667 9.23651C19.1667 10.1948 19.55 11.2107 20.2975 11.9582C20.5467 12.2073 20.815 12.3798 21.0833 12.5523V15.3315H13.4167C11.3083 15.3315 9.58333 17.0565 9.58333 19.1648V24.9148H36.4167V19.1648ZM36.4167 28.7482H9.58333C7.475 28.7482 5.75 30.4732 5.75 32.5815V40.2482C5.75 41.3023 6.6125 42.1648 7.66667 42.1648H38.3333C39.3875 42.1648 40.25 41.3023 40.25 40.2482V32.5815C40.25 30.4732 38.525 28.7482 36.4167 28.7482Z" fill="#363636"/>
</g>
<defs>
<clipPath id="clip0_214_1377">
<rect width="46" height="46" fill="white"/>
</clipPath>
</defs>
</svg>
