<svg width="46" height="46" viewBox="0 0 46 46" fill="none" xmlns="http://www.w3.org/2000/svg">
<g clip-path="url(#clip0_214_1380)">
<path d="M36.4167 7.66536H34.5V5.7487C34.5 4.69453 33.6375 3.83203 32.5833 3.83203C31.5292 3.83203 30.6667 4.69453 30.6667 5.7487V7.66536H15.3333V5.7487C15.3333 4.69453 14.4708 3.83203 13.4167 3.83203C12.3625 3.83203 11.5 4.69453 11.5 5.7487V7.66536H9.58333C7.45583 7.66536 5.76917 9.39036 5.76917 11.4987L5.75 38.332C5.75 40.4404 7.45583 42.1654 9.58333 42.1654H36.4167C38.525 42.1654 40.25 40.4404 40.25 38.332V11.4987C40.25 9.39036 38.525 7.66536 36.4167 7.66536ZM36.4167 38.332H9.58333V19.1654H36.4167V38.332Z" fill="#363636"/>
</g>
<defs>
<clipPath id="clip0_214_1380">
<rect width="46" height="46" fill="white"/>
</clipPath>
</defs>
</svg>
