<svg width="46" height="46" viewBox="0 0 46 46" fill="none" xmlns="http://www.w3.org/2000/svg">
<g clip-path="url(#clip0_214_1324)">
<path d="M38.3335 7.66797H7.66683C5.5585 7.66797 3.8335 9.39297 3.8335 11.5013V34.5013C3.8335 36.6096 5.5585 38.3346 7.66683 38.3346H38.3335C40.4418 38.3346 42.1668 36.6096 42.1668 34.5013V11.5013C42.1668 9.39297 40.4418 7.66797 38.3335 7.66797ZM15.3335 21.0846H7.66683V11.5013H15.3335V21.0846ZM26.8335 21.0846H19.1668V11.5013H26.8335V21.0846ZM38.3335 21.0846H30.6668V11.5013H38.3335V21.0846ZM15.3335 34.5013H7.66683V24.918H15.3335V34.5013ZM26.8335 34.5013H19.1668V24.918H26.8335V34.5013ZM38.3335 34.5013H30.6668V24.918H38.3335V34.5013Z" fill="#363636"/>
</g>
<defs>
<clipPath id="clip0_214_1324">
<rect width="46" height="46" fill="white"/>
</clipPath>
</defs>
</svg>
