<svg width="46" height="46" viewBox="0 0 46 46" fill="none" xmlns="http://www.w3.org/2000/svg">
<g clip-path="url(#clip0_214_1233)">
<path d="M21.3708 6.51652L14.2408 18.1699C13.455 19.4349 14.375 21.0832 15.87 21.0832H30.1108C31.6058 21.0832 32.5258 19.4349 31.74 18.1699L24.6292 6.53569C23.8817 5.30902 22.1183 5.30902 21.3708 6.51652Z" fill="#363636"/>
<path d="M33.5415 42.166C38.305 42.166 42.1665 38.3045 42.1665 33.541C42.1665 28.7776 38.305 24.916 33.5415 24.916C28.778 24.916 24.9165 28.7776 24.9165 33.541C24.9165 38.3045 28.778 42.166 33.5415 42.166Z" fill="#363636"/>
<path d="M7.66667 41.2083H19.1667C20.2208 41.2083 21.0833 40.3458 21.0833 39.2917V27.7917C21.0833 26.7375 20.2208 25.875 19.1667 25.875H7.66667C6.6125 25.875 5.75 26.7375 5.75 27.7917V39.2917C5.75 40.3458 6.6125 41.2083 7.66667 41.2083Z" fill="#363636"/>
</g>
<defs>
<clipPath id="clip0_214_1233">
<rect width="46" height="46" fill="white"/>
</clipPath>
</defs>
</svg>
