<svg width="26" height="26" viewBox="0 0 26 26" fill="none" xmlns="http://www.w3.org/2000/svg">
<path d="M24.9767 1.12438C24.2322 0.37983 23.0294 0.37983 22.2849 1.12438L12.9495 10.4407L3.614 1.10528C2.86945 0.360739 1.66672 0.360739 0.922179 1.10528C0.177633 1.84983 0.177633 3.05256 0.922179 3.7971L10.2576 13.1326L0.922179 22.468C0.177633 23.2126 0.177633 24.4153 0.922179 25.1598C1.66672 25.9044 2.86945 25.9044 3.614 25.1598L12.9495 15.8244L22.2849 25.1598C23.0294 25.9044 24.2322 25.9044 24.9767 25.1598C25.7213 24.4153 25.7213 23.2126 24.9767 22.468L15.6413 13.1326L24.9767 3.7971C25.7022 3.07165 25.7022 1.84983 24.9767 1.12438Z" fill="#363636"/>
</svg>
