<svg width="46" height="46" viewBox="0 0 46 46" fill="none" xmlns="http://www.w3.org/2000/svg">
<g clip-path="url(#clip0_214_1329)">
<path d="M11.5002 36.4167C11.5002 38.525 13.2252 40.25 15.3335 40.25H30.6668C32.7752 40.25 34.5002 38.525 34.5002 36.4167V13.4167H11.5002V36.4167ZM34.5002 7.66667H29.7085L28.3477 6.30583C28.0027 5.96083 27.5043 5.75 27.006 5.75H18.9943C18.496 5.75 17.9977 5.96083 17.6527 6.30583L16.2918 7.66667H11.5002C10.446 7.66667 9.5835 8.52917 9.5835 9.58333C9.5835 10.6375 10.446 11.5 11.5002 11.5H34.5002C35.5543 11.5 36.4168 10.6375 36.4168 9.58333C36.4168 8.52917 35.5543 7.66667 34.5002 7.66667Z" fill="#363636"/>
</g>
<defs>
<clipPath id="clip0_214_1329">
<rect width="46" height="46" fill="white"/>
</clipPath>
</defs>
</svg>
