<svg width="46" height="46" viewBox="0 0 46 46" fill="none" xmlns="http://www.w3.org/2000/svg">
<g clip-path="url(#clip0_214_1287)">
<path d="M23 24.4375C26.1242 24.4375 28.8842 25.185 31.1267 26.1625C33.1967 27.0825 34.5 29.1525 34.5 31.395V32.5833C34.5 33.6375 33.6375 34.5 32.5833 34.5H13.4167C12.3625 34.5 11.5 33.6375 11.5 32.5833V31.4142C11.5 29.1525 12.8033 27.0825 14.8733 26.1817C17.1158 25.185 19.8758 24.4375 23 24.4375ZM7.66667 24.9167C9.775 24.9167 11.5 23.1917 11.5 21.0833C11.5 18.975 9.775 17.25 7.66667 17.25C5.55833 17.25 3.83333 18.975 3.83333 21.0833C3.83333 23.1917 5.55833 24.9167 7.66667 24.9167ZM9.8325 27.025C9.12333 26.91 8.41417 26.8333 7.66667 26.8333C5.76917 26.8333 3.9675 27.2358 2.33833 27.945C0.92 28.5583 0 29.9383 0 31.4908V32.5833C0 33.6375 0.8625 34.5 1.91667 34.5H8.625V31.4142C8.625 29.8233 9.06583 28.3283 9.8325 27.025ZM38.3333 24.9167C40.4417 24.9167 42.1667 23.1917 42.1667 21.0833C42.1667 18.975 40.4417 17.25 38.3333 17.25C36.225 17.25 34.5 18.975 34.5 21.0833C34.5 23.1917 36.225 24.9167 38.3333 24.9167ZM46 31.4908C46 29.9383 45.08 28.5583 43.6617 27.945C42.0325 27.2358 40.2308 26.8333 38.3333 26.8333C37.5858 26.8333 36.8767 26.91 36.1675 27.025C36.9342 28.3283 37.375 29.8233 37.375 31.4142V34.5H44.0833C45.1375 34.5 46 33.6375 46 32.5833V31.4908ZM23 11.5C26.1817 11.5 28.75 14.0683 28.75 17.25C28.75 20.4317 26.1817 23 23 23C19.8183 23 17.25 20.4317 17.25 17.25C17.25 14.0683 19.8183 11.5 23 11.5Z" fill="#363636"/>
</g>
<defs>
<clipPath id="clip0_214_1287">
<rect width="46" height="46" fill="white"/>
</clipPath>
</defs>
</svg>
