<svg width="46" height="46" viewBox="0 0 46 46" fill="none" xmlns="http://www.w3.org/2000/svg">
<g clip-path="url(#clip0_214_1248)">
<path d="M7.6665 20.125C6.07567 20.125 4.7915 21.4092 4.7915 23C4.7915 24.5908 6.07567 25.875 7.6665 25.875C9.25734 25.875 10.5415 24.5908 10.5415 23C10.5415 21.4092 9.25734 20.125 7.6665 20.125ZM7.6665 8.625C6.07567 8.625 4.7915 9.90917 4.7915 11.5C4.7915 13.0908 6.07567 14.375 7.6665 14.375C9.25734 14.375 10.5415 13.0908 10.5415 11.5C10.5415 9.90917 9.25734 8.625 7.6665 8.625ZM7.6665 31.625C6.07567 31.625 4.7915 32.9283 4.7915 34.5C4.7915 36.0717 6.09484 37.375 7.6665 37.375C9.23817 37.375 10.5415 36.0717 10.5415 34.5C10.5415 32.9283 9.25734 31.625 7.6665 31.625ZM15.3332 36.4167H38.3332C39.3873 36.4167 40.2498 35.5542 40.2498 34.5C40.2498 33.4458 39.3873 32.5833 38.3332 32.5833H15.3332C14.279 32.5833 13.4165 33.4458 13.4165 34.5C13.4165 35.5542 14.279 36.4167 15.3332 36.4167ZM15.3332 24.9167H38.3332C39.3873 24.9167 40.2498 24.0542 40.2498 23C40.2498 21.9458 39.3873 21.0833 38.3332 21.0833H15.3332C14.279 21.0833 13.4165 21.9458 13.4165 23C13.4165 24.0542 14.279 24.9167 15.3332 24.9167ZM13.4165 11.5C13.4165 12.5542 14.279 13.4167 15.3332 13.4167H38.3332C39.3873 13.4167 40.2498 12.5542 40.2498 11.5C40.2498 10.4458 39.3873 9.58333 38.3332 9.58333H15.3332C14.279 9.58333 13.4165 10.4458 13.4165 11.5Z" fill="#363636"/>
</g>
<defs>
<clipPath id="clip0_214_1248">
<rect width="46" height="46" fill="white"/>
</clipPath>
</defs>
</svg>
