<svg width="36" height="24" viewBox="0 0 36 24" fill="none" xmlns="http://www.w3.org/2000/svg">
<path d="M2.81827 23.3622H33.3637C34.4137 23.3622 35.2728 22.5031 35.2728 21.4531C35.2728 20.4031 34.4137 19.544 33.3637 19.544H2.81827C1.76827 19.544 0.90918 20.4031 0.90918 21.4531C0.90918 22.5031 1.76827 23.3622 2.81827 23.3622ZM2.81827 13.8168H33.3637C34.4137 13.8168 35.2728 12.9577 35.2728 11.9077C35.2728 10.8577 34.4137 9.99858 33.3637 9.99858H2.81827C1.76827 9.99858 0.90918 10.8577 0.90918 11.9077C0.90918 12.9577 1.76827 13.8168 2.81827 13.8168ZM0.90918 2.36222C0.90918 3.41222 1.76827 4.27131 2.81827 4.27131H33.3637C34.4137 4.27131 35.2728 3.41222 35.2728 2.36222C35.2728 1.31222 34.4137 0.453125 33.3637 0.453125H2.81827C1.76827 0.453125 0.90918 1.31222 0.90918 2.36222Z" fill="#363636"/>
</svg>
