<svg width="46" height="46" viewBox="0 0 46 46" fill="none" xmlns="http://www.w3.org/2000/svg">
<g clip-path="url(#clip0_214_1339)">
<path d="M9.58345 25.2602V30.646C9.58345 32.0452 10.3501 33.3485 11.5768 34.0193L21.1601 39.2518C22.3101 39.8843 23.6901 39.8843 24.8401 39.2518L34.4235 34.0193C35.6501 33.3485 36.4168 32.0452 36.4168 30.646V25.2602L24.8401 31.5852C23.6901 32.2177 22.3101 32.2177 21.1601 31.5852L9.58345 25.2602ZM21.1601 6.74516L5.00262 15.5618C3.68012 16.2902 3.68012 18.2068 5.00262 18.9352L21.1601 27.7518C22.3101 28.3843 23.6901 28.3843 24.8401 27.7518L40.2501 19.3377V30.6652C40.2501 31.7193 41.1126 32.5818 42.1668 32.5818C43.221 32.5818 44.0835 31.7193 44.0835 30.6652V18.3793C44.0835 17.6702 43.7001 17.0377 43.0868 16.6927L24.8401 6.74516C23.6901 6.13182 22.3101 6.13182 21.1601 6.74516Z" fill="#363636"/>
</g>
<defs>
<clipPath id="clip0_214_1339">
<rect width="46" height="46" fill="white"/>
</clipPath>
</defs>
</svg>
