<svg width="46" height="46" viewBox="0 0 46 46" fill="none" xmlns="http://www.w3.org/2000/svg">
<g clip-path="url(#clip0_214_1399)">
<path d="M22.9998 23.0013C27.2357 23.0013 30.6665 19.5705 30.6665 15.3346C30.6665 11.0988 27.2357 7.66797 22.9998 7.66797C18.764 7.66797 15.3332 11.0988 15.3332 15.3346C15.3332 19.5705 18.764 23.0013 22.9998 23.0013ZM35.2473 27.908C32.0273 26.2596 27.849 24.918 22.9998 24.918C18.1507 24.918 13.9723 26.2596 10.7523 27.908C8.83567 28.8855 7.6665 30.8596 7.6665 33.0063V36.418C7.6665 37.4721 8.529 38.3346 9.58317 38.3346H36.4165C37.4707 38.3346 38.3332 37.4721 38.3332 36.418V33.0063C38.3332 30.8596 37.164 28.8855 35.2473 27.908Z" fill="#363636"/>
</g>
<defs>
<clipPath id="clip0_214_1399">
<rect width="46" height="46" fill="white"/>
</clipPath>
</defs>
</svg>
