<svg width="46" height="46" viewBox="0 0 46 46" fill="none" xmlns="http://www.w3.org/2000/svg">
<g clip-path="url(#clip0_214_1255)">
<path d="M7.66683 7.66667H11.5002V9.58333C11.5002 11.6917 13.2252 13.4167 15.3335 13.4167H26.8335C28.9418 13.4167 30.6668 11.6917 30.6668 9.58333V7.66667H34.5002V17.25H38.3335V7.66667C38.3335 5.55833 36.6085 3.83333 34.5002 3.83333H26.4885C25.6835 1.61 23.5752 0 21.0835 0C18.5918 0 16.4835 1.61 15.6785 3.83333H7.66683C5.5585 3.83333 3.8335 5.55833 3.8335 7.66667V34.5C3.8335 36.6083 5.5585 38.3333 7.66683 38.3333H19.1668V34.5H7.66683V7.66667ZM21.0835 3.83333C22.1377 3.83333 23.0002 4.69583 23.0002 5.75C23.0002 6.80417 22.1377 7.66667 21.0835 7.66667C20.0293 7.66667 19.1668 6.80417 19.1668 5.75C19.1668 4.69583 20.0293 3.83333 21.0835 3.83333Z" fill="#363636"/>
<path d="M39.7712 21.562C38.9853 20.7762 37.682 20.7762 36.8962 21.562L27.8112 30.6662L23.4795 26.3537C22.6937 25.5679 21.4095 25.5679 20.6045 26.3537C19.8187 27.1395 19.8187 28.4429 20.6045 29.2287L26.4503 35.0554C27.1978 35.8029 28.4053 35.8029 29.1528 35.0554L39.752 24.437C40.557 23.6512 40.557 22.3479 39.7712 21.562Z" fill="#363636"/>
</g>
<defs>
<clipPath id="clip0_214_1255">
<rect width="46" height="46" fill="white"/>
</clipPath>
</defs>
</svg>
