<svg width="46" height="46" viewBox="0 0 46 46" fill="none" xmlns="http://www.w3.org/2000/svg">
<g clip-path="url(#clip0_214_1262)">
<path d="M23.0002 17.2493H30.6668C31.721 17.2493 32.5835 16.3868 32.5835 15.3327C32.5835 14.2785 31.721 13.416 30.6668 13.416H23.0002C21.946 13.416 21.0835 14.2785 21.0835 15.3327C21.0835 16.3868 21.946 17.2493 23.0002 17.2493Z" fill="#363636"/>
<path d="M23.0002 24.9173H30.6668C31.721 24.9173 32.5835 24.0548 32.5835 23.0007C32.5835 21.9465 31.721 21.084 30.6668 21.084H23.0002C21.946 21.084 21.0835 21.9465 21.0835 23.0007C21.0835 24.0548 21.946 24.9173 23.0002 24.9173Z" fill="#363636"/>
<path d="M23.0002 32.5833H30.6668C31.721 32.5833 32.5835 31.7208 32.5835 30.6667C32.5835 29.6125 31.721 28.75 30.6668 28.75H23.0002C21.946 28.75 21.0835 29.6125 21.0835 30.6667C21.0835 31.7208 21.946 32.5833 23.0002 32.5833Z" fill="#363636"/>
<path d="M15.3332 17.2493C16.3917 17.2493 17.2498 16.3912 17.2498 15.3327C17.2498 14.2741 16.3917 13.416 15.3332 13.416C14.2746 13.416 13.4165 14.2741 13.4165 15.3327C13.4165 16.3912 14.2746 17.2493 15.3332 17.2493Z" fill="#363636"/>
<path d="M15.3332 24.9173C16.3917 24.9173 17.2498 24.0592 17.2498 23.0007C17.2498 21.9421 16.3917 21.084 15.3332 21.084C14.2746 21.084 13.4165 21.9421 13.4165 23.0007C13.4165 24.0592 14.2746 24.9173 15.3332 24.9173Z" fill="#363636"/>
<path d="M15.3332 32.5833C16.3917 32.5833 17.2498 31.7252 17.2498 30.6667C17.2498 29.6081 16.3917 28.75 15.3332 28.75C14.2746 28.75 13.4165 29.6081 13.4165 30.6667C13.4165 31.7252 14.2746 32.5833 15.3332 32.5833Z" fill="#363636"/>
<path d="M36.4167 5.75H9.58333C7.475 5.75 5.75 7.475 5.75 9.58333V36.4167C5.75 38.525 7.475 40.25 9.58333 40.25H36.4167C38.525 40.25 40.25 38.525 40.25 36.4167V9.58333C40.25 7.475 38.525 5.75 36.4167 5.75ZM36.4167 36.4167H9.58333V9.58333H36.4167V36.4167Z" fill="#363636"/>
</g>
<defs>
<clipPath id="clip0_214_1262">
<rect width="46" height="46" fill="white"/>
</clipPath>
</defs>
</svg>
