<svg width="46" height="46" viewBox="0 0 46 46" fill="none" xmlns="http://www.w3.org/2000/svg">
<g clip-path="url(#clip0_214_1394)">
<path d="M34.4998 15.3346H32.5832V11.5013C32.5832 6.2113 28.2898 1.91797 22.9998 1.91797C17.7098 1.91797 13.4165 6.2113 13.4165 11.5013V15.3346H11.4998C9.3915 15.3346 7.6665 17.0596 7.6665 19.168V38.3346C7.6665 40.443 9.3915 42.168 11.4998 42.168H34.4998C36.6082 42.168 38.3332 40.443 38.3332 38.3346V19.168C38.3332 17.0596 36.6082 15.3346 34.4998 15.3346ZM22.9998 32.5846C20.8915 32.5846 19.1665 30.8596 19.1665 28.7513C19.1665 26.643 20.8915 24.918 22.9998 24.918C25.1082 24.918 26.8332 26.643 26.8332 28.7513C26.8332 30.8596 25.1082 32.5846 22.9998 32.5846ZM17.2498 15.3346V11.5013C17.2498 8.31964 19.8182 5.7513 22.9998 5.7513C26.1815 5.7513 28.7498 8.31964 28.7498 11.5013V15.3346H17.2498Z" fill="#363636"/>
</g>
<defs>
<clipPath id="clip0_214_1394">
<rect width="46" height="46" fill="white"/>
</clipPath>
</defs>
</svg>
