<svg width="46" height="46" viewBox="0 0 46 46" fill="none" xmlns="http://www.w3.org/2000/svg">
<g clip-path="url(#clip0_214_1363)">
<path d="M23.0001 42.1654C25.1084 42.1654 26.8334 40.4404 26.8334 38.332H19.1667C19.1667 40.4404 20.8917 42.1654 23.0001 42.1654ZM34.5001 19.1654C34.5001 13.8179 30.8392 9.3137 25.8751 8.0487V6.70703C25.8751 5.1162 24.5909 3.83203 23.0001 3.83203C21.4092 3.83203 20.1251 5.1162 20.1251 6.70703V8.0487C15.1609 9.3137 11.5001 13.8179 11.5001 19.1654V32.582H9.58339C8.52922 32.582 7.66672 33.4445 7.66672 34.4987C7.66672 35.5529 8.52922 36.4154 9.58339 36.4154H36.4167C37.4709 36.4154 38.3334 35.5529 38.3334 34.4987C38.3334 33.4445 37.4709 32.582 36.4167 32.582H34.5001V19.1654ZM11.7876 6.0362C11.0209 5.26953 9.77505 5.2887 9.02755 6.07453C6.26755 9.00703 4.42755 12.8212 3.94839 17.0379C3.83339 18.1687 4.73422 19.1654 5.86505 19.1654C6.82339 19.1654 7.64756 18.4562 7.76256 17.4979C8.12672 14.1054 9.62172 11.0387 11.8259 8.66203C12.5351 7.9337 12.5159 6.76453 11.7876 6.0362ZM34.2317 6.05536C33.5034 6.7837 33.4842 7.95286 34.1934 8.70036C36.4167 11.0579 37.8926 14.1245 38.2567 17.517C38.3526 18.4754 39.1959 19.1845 40.1542 19.1845C41.3042 19.1845 42.2051 18.1879 42.0709 17.057C41.6109 12.8404 39.7709 9.04536 37.0109 6.11286C36.2442 5.30786 34.9984 5.2887 34.2317 6.05536Z" fill="#363636"/>
</g>
<defs>
<clipPath id="clip0_214_1363">
<rect width="46" height="46" fill="white"/>
</clipPath>
</defs>
</svg>
