<svg width="46" height="46" viewBox="0 0 46 46" fill="none" xmlns="http://www.w3.org/2000/svg">
<g clip-path="url(#clip0_214_1279)">
<path d="M29.804 24.9173C32.1423 24.9173 33.139 22.9815 33.1582 22.9432L39.9623 10.5998C40.4032 9.73732 40.3073 8.98982 39.9432 8.47232C39.5982 7.97398 38.9657 7.66732 38.3332 7.66732C38.314 7.66732 9.98567 7.66732 9.98567 7.66732L8.7015 4.92648C8.39484 4.25565 7.70484 3.83398 6.9765 3.83398H3.83317C2.779 3.83398 1.9165 4.69648 1.9165 5.75065C1.9165 6.80482 2.779 7.66732 3.83317 7.66732H5.74984L12.6498 22.2148L10.0623 26.8915C8.66317 29.4598 10.5032 32.584 13.4165 32.584H34.4998C35.554 32.584 36.4165 31.7215 36.4165 30.6673C36.4165 29.6131 35.554 28.7507 34.4998 28.7507H13.4165L15.5248 24.9173H29.804Z" fill="#363636"/>
<path d="M13.4163 42.1667C15.5334 42.1667 17.2497 40.4504 17.2497 38.3333C17.2497 36.2162 15.5334 34.5 13.4163 34.5C11.2992 34.5 9.58301 36.2162 9.58301 38.3333C9.58301 40.4504 11.2992 42.1667 13.4163 42.1667Z" fill="#363636"/>
<path d="M32.5833 42.1667C34.7004 42.1667 36.4167 40.4504 36.4167 38.3333C36.4167 36.2162 34.7004 34.5 32.5833 34.5C30.4662 34.5 28.75 36.2162 28.75 38.3333C28.75 40.4504 30.4662 42.1667 32.5833 42.1667Z" fill="#363636"/>
</g>
<defs>
<clipPath id="clip0_214_1279">
<rect width="46" height="46" fill="white"/>
</clipPath>
</defs>
</svg>
