<svg width="45" height="46" viewBox="0 0 45 46" fill="none" xmlns="http://www.w3.org/2000/svg">
<g clip-path="url(#clip0_214_1274)">
<path d="M36.3937 14.2032L27.3375 4.94565C26.6437 4.23648 25.6875 3.83398 24.6938 3.83398H11.25C9.1875 3.83398 7.51875 5.55898 7.51875 7.66732L7.5 38.334C7.5 40.4423 9.16875 42.1673 11.2312 42.1673H33.75C35.8125 42.1673 37.5 40.4423 37.5 38.334V16.9248C37.5 15.909 37.1062 14.9315 36.3937 14.2032ZM19.1812 33.1398L15.2062 29.0765C14.475 28.329 14.475 27.1215 15.2062 26.374C15.9375 25.6265 17.1188 25.6265 17.85 26.374L20.4938 29.0765L27.1313 22.2915C27.8625 21.544 29.0438 21.544 29.775 22.2915C30.5063 23.039 30.5063 24.2465 29.775 24.994L21.825 33.1207C21.1125 33.8873 19.9125 33.8873 19.1812 33.1398ZM26.25 17.2507C25.2188 17.2507 24.375 16.3882 24.375 15.334V6.70898L34.6875 17.2507H26.25Z" fill="#363636"/>
</g>
<defs>
<clipPath id="clip0_214_1274">
<rect width="45" height="46" fill="white"/>
</clipPath>
</defs>
</svg>
