<svg width="46" height="46" viewBox="0 0 46 46" fill="none" xmlns="http://www.w3.org/2000/svg">
<g clip-path="url(#clip0_214_1291)">
<path d="M31.1268 14.872C29.4402 13.1854 27.3702 12.1312 25.1852 11.7095C24.0543 11.4795 23.0002 12.4379 23.0002 13.607V22.9987L16.3685 29.6304C15.5443 30.4545 15.621 31.8729 16.5793 32.5437C21.0452 35.5529 27.1785 35.0929 31.146 31.1254C35.631 26.6404 35.631 19.357 31.1268 14.872ZM23.0002 3.83203C12.4202 3.83203 3.8335 12.4187 3.8335 22.9987C3.8335 33.5787 12.4202 42.1654 23.0002 42.1654C33.5802 42.1654 42.1668 33.5787 42.1668 22.9987C42.1668 12.4187 33.5802 3.83203 23.0002 3.83203ZM23.0002 38.332C14.5285 38.332 7.66683 31.4704 7.66683 22.9987C7.66683 14.527 14.5285 7.66536 23.0002 7.66536C31.4718 7.66536 38.3335 14.527 38.3335 22.9987C38.3335 31.4704 31.4718 38.332 23.0002 38.332Z" fill="#363636"/>
</g>
<defs>
<clipPath id="clip0_214_1291">
<rect width="46" height="46" fill="white"/>
</clipPath>
</defs>
</svg>
