<svg width="46" height="46" viewBox="0 0 46 46" fill="none" xmlns="http://www.w3.org/2000/svg">
<g clip-path="url(#clip0_214_1386)">
<path d="M22.981 3.83203C12.401 3.83203 3.8335 12.4187 3.8335 22.9987C3.8335 33.5787 12.401 42.1654 22.981 42.1654C33.5802 42.1654 42.1668 33.5787 42.1668 22.9987C42.1668 12.4187 33.5802 3.83203 22.981 3.83203ZM30.6668 30.6654C29.9193 31.4129 28.7118 31.4129 27.9643 30.6654L21.6585 24.3595C21.2943 23.9954 21.0835 23.5162 21.0835 22.9987V15.332C21.0835 14.2779 21.946 13.4154 23.0002 13.4154C24.0543 13.4154 24.9168 14.2779 24.9168 15.332V22.2129L30.6668 27.9629C31.4143 28.7104 31.4143 29.9179 30.6668 30.6654Z" fill="#363636"/>
</g>
<defs>
<clipPath id="clip0_214_1386">
<rect width="46" height="46" fill="white"/>
</clipPath>
</defs>
</svg>
