<svg width="46" height="46" viewBox="0 0 46 46" fill="none" xmlns="http://www.w3.org/2000/svg">
<g clip-path="url(#clip0_214_1221)">
<path d="M36.4167 5.75H9.58333C7.45583 5.75 5.75 7.475 5.75 9.58333V36.4167C5.75 38.525 7.45583 40.25 9.58333 40.25H36.4167C38.525 40.25 40.25 38.525 40.25 36.4167V9.58333C40.25 7.475 38.525 5.75 36.4167 5.75ZM30.6667 24.9167H24.9167V30.6667C24.9167 31.7208 24.0542 32.5833 23 32.5833C21.9458 32.5833 21.0833 31.7208 21.0833 30.6667V24.9167H15.3333C14.2792 24.9167 13.4167 24.0542 13.4167 23C13.4167 21.9458 14.2792 21.0833 15.3333 21.0833H21.0833V15.3333C21.0833 14.2792 21.9458 13.4167 23 13.4167C24.0542 13.4167 24.9167 14.2792 24.9167 15.3333V21.0833H30.6667C31.7208 21.0833 32.5833 21.9458 32.5833 23C32.5833 24.0542 31.7208 24.9167 30.6667 24.9167Z" fill="#363636"/>
</g>
<defs>
<clipPath id="clip0_214_1221">
<rect width="46" height="46" fill="white"/>
</clipPath>
</defs>
</svg>
