<svg xmlns="http://www.w3.org/2000/svg" version="1.1" xmlns:xlink="http://www.w3.org/1999/xlink" xmlns:svgjs="http://svgjs.dev/svgjs" width="2000" height="262" viewBox="0 0 2000 262"><g transform="matrix(1,0,0,1,-1.2121212121210192,0.9559672894500579)"><svg viewBox="0 0 396 52" data-background-color="#ffffff" preserveAspectRatio="xMidYMid meet" height="262" width="2000" xmlns="http://www.w3.org/2000/svg" xmlns:xlink="http://www.w3.org/1999/xlink"><g id="tight-bounds" transform="matrix(1,0,0,1,0.23999999999995225,-0.18973396584505053)"><svg viewBox="0 0 395.52 52.37946793169007" height="52.37946793169007" width="395.52"><g><svg viewBox="0 0 486.36894321385205 64.41076674767383" height="52.37946793169007" width="395.52"><g><rect width="4.23987548701935" height="47.2502340010308" x="75.50991723725329" y="8.580266373321518" fill="#111111" opacity="1" stroke-width="0" stroke="transparent" fill-opacity="1" class="rect-qz-0" data-fill-palette-color="primary" rx="1%" id="qz-0" data-palette-color="#111111"></rect></g><g transform="matrix(1,0,0,1,90.8489432138521,8.697804268846468)"><svg viewBox="0 0 395.52 47.015158209980896" height="47.015158209980896" width="395.52"><g id="textblocktransform"><svg viewBox="0 0 395.52 47.015158209980896" height="47.015158209980896" width="395.52" id="textblock"><g><svg viewBox="0 0 395.52 47.015158209980896" height="47.015158209980896" width="395.52"><g transform="matrix(1,0,0,1,0,0)"><svg width="395.52" viewBox="1.95 -32.15 354.69 42.160850697217" height="47.015158209980896" data-palette-color="#111111"><path d="M14.99-28.98Q18.82-28.98 21.73-27.23 24.63-25.49 26.23-22.2 27.83-18.92 27.83-14.48L27.83-14.48Q27.83-10.03 26.23-6.76 24.63-3.49 21.73-1.75 18.82 0 14.99 0L14.99 0 3.49 0Q2.66 0 2.31-0.38 1.95-0.76 1.95-1.66L1.95-1.66Q1.95-2.56 2.31-2.94 2.66-3.32 3.49-3.32L3.49-3.32 6.23-3.32 6.23-25.66 3.49-25.66Q2.66-25.66 2.31-26.04 1.95-26.42 1.95-27.32L1.95-27.32Q1.95-28.22 2.31-28.6 2.66-28.98 3.49-28.98L3.49-28.98 14.99-28.98ZM9.89-25.66L9.89-3.32 14.43-3.32Q17.33-3.32 19.48-4.6 21.63-5.88 22.8-8.39 23.97-10.89 23.97-14.48L23.97-14.48Q23.97-18.07 22.8-20.57 21.63-23.07 19.48-24.37 17.33-25.66 14.43-25.66L14.43-25.66 9.89-25.66ZM57.2-22.56Q58.03-22.56 58.38-22.18 58.74-21.8 58.74-20.9L58.74-20.9Q58.74-20 58.38-19.62 58.03-19.24 57.2-19.24L57.2-19.24 55.69-19.24 45.7 1.22Q44.11 4.47 42.6 6.32 41.09 8.18 39.19 9.05 37.3 9.91 34.59 10.01L34.59 10.01Q33.74 10.03 33.27 9.58 32.81 9.13 32.81 7.98L32.81 7.98Q32.81 6.4 34.1 6.32L34.1 6.32Q36.45 6.2 37.83 5.54 39.21 4.88 40.37 3.28 41.53 1.68 43.21-1.71L43.21-1.71 34.27-19.24 32.74-19.24Q31.91-19.24 31.55-19.62 31.2-20 31.2-20.9L31.2-20.9Q31.2-21.8 31.55-22.18 31.91-22.56 32.74-22.56L32.74-22.56 41.38-22.56Q42.21-22.56 42.56-22.18 42.92-21.8 42.92-20.9L42.92-20.9Q42.92-20 42.56-19.62 42.21-19.24 41.38-19.24L41.38-19.24 38.25-19.24 45.14-5.52 51.71-19.24 49.53-19.24Q48.7-19.24 48.35-19.62 48-20 48-20.9L48-20.9Q48-21.8 48.35-22.18 48.7-22.56 49.53-22.56L49.53-22.56 57.2-22.56ZM77.7-23.1Q79.93-23.1 81.56-22.13 83.2-21.17 84.08-19.36 84.96-17.55 84.96-15.14L84.96-15.14 84.96-3.32 86.96-3.32Q87.79-3.32 88.14-2.94 88.5-2.56 88.5-1.66L88.5-1.66Q88.5-0.76 88.14-0.38 87.79 0 86.96 0L86.96 0 79.05 0Q78.22 0 77.86-0.38 77.51-0.76 77.51-1.66L77.51-1.66Q77.51-2.56 77.86-2.94 78.22-3.32 79.05-3.32L79.05-3.32 81.29-3.32 81.29-14.77Q81.29-16.94 80.29-18.21 79.29-19.48 77.34-19.48L77.34-19.48Q75.26-19.48 73.47-18.29 71.67-17.09 70.6-14.99 69.53-12.89 69.53-10.3L69.53-10.3 69.53-3.32 71.77-3.32Q72.6-3.32 72.96-2.94 73.31-2.56 73.31-1.66L73.31-1.66Q73.31-0.76 72.96-0.38 72.6 0 71.77 0L71.77 0 63.86 0Q63.03 0 62.68-0.38 62.32-0.76 62.32-1.66L62.32-1.66Q62.32-2.56 62.68-2.94 63.03-3.32 63.86-3.32L63.86-3.32 65.86-3.32 65.86-19.24 63.37-19.24Q62.54-19.24 62.19-19.62 61.84-20 61.84-20.9L61.84-20.9Q61.84-21.8 62.19-22.18 62.54-22.56 63.37-22.56L63.37-22.56 67.74-22.56Q68.57-22.56 68.93-22.18 69.28-21.8 69.28-20.9L69.28-20.9 69.28-17.97Q70.89-20.46 73.05-21.78 75.21-23.1 77.7-23.1L77.7-23.1ZM105.02-23.1Q109.61-23.1 111.91-21.04 114.2-18.99 114.2-14.97L114.2-14.97 114.2-5.25Q114.2-3.32 115.81-3.32L115.81-3.32 116.67-3.32Q117.5-3.32 117.85-2.94 118.21-2.56 118.21-1.66L118.21-1.66Q118.21-0.76 117.85-0.38 117.5 0 116.67 0L116.67 0 115.1 0Q113.52 0 112.38-0.79 111.25-1.59 110.91-3.13L110.91-3.13Q108.9-1.37 106.57-0.42 104.24 0.54 101.63 0.54L101.63 0.54Q99.16 0.54 97.27-0.31 95.38-1.15 94.3-2.76 93.23-4.37 93.23-6.59L93.23-6.59Q93.23-10.45 95.99-12.29 98.75-14.14 103.12-14.14L103.12-14.14Q107-14.14 110.54-12.89L110.54-12.89 110.54-14.97Q110.54-17.33 109.21-18.44 107.88-19.56 104.92-19.56L104.92-19.56Q103.09-19.56 101.12-19.04 99.14-18.53 97.36-17.63L97.36-17.63Q96.94-17.41 96.6-17.41L96.6-17.41Q95.79-17.41 95.26-18.58L95.26-18.58Q94.99-19.17 94.99-19.56L94.99-19.56Q94.99-20.41 95.89-20.87L95.89-20.87Q97.94-21.95 100.3-22.52 102.65-23.1 105.02-23.1L105.02-23.1ZM103.14-10.69Q100.33-10.69 98.71-9.73 97.09-8.76 97.09-6.67L97.09-6.67Q97.09-4.88 98.32-3.89 99.55-2.91 101.77-2.91L101.77-2.91Q106.63-2.91 110.54-6.93L110.54-6.93 110.54-9.59Q108.88-10.13 106.97-10.41 105.07-10.69 103.14-10.69L103.14-10.69ZM144.3-29.52Q145.3-29.52 145.72-29.15 146.13-28.78 146.13-27.93L146.13-27.93 146.13-19.87Q146.13-19.02 145.72-18.65 145.3-18.29 144.3-18.29L144.3-18.29Q143.3-18.29 142.89-18.65 142.47-19.02 142.47-19.87L142.47-19.87Q142.47-21.53 141.73-22.9 140.98-24.27 139.44-25.09 137.91-25.9 135.63-25.9L135.63-25.9Q133-25.9 130.96-24.51 128.92-23.12 127.79-20.53 126.65-17.94 126.65-14.48L126.65-14.48Q126.65-11.01 127.72-8.44 128.8-5.86 130.78-4.47 132.75-3.08 135.39-3.08L135.39-3.08Q137.81-3.08 140-3.78 142.2-4.49 143.96-5.83L143.96-5.83Q144.37-6.18 144.86-6.18L144.86-6.18Q145.6-6.18 146.16-5.22L146.16-5.22Q146.6-4.49 146.6-3.93L146.6-3.93Q146.6-3.2 145.84-2.66L145.84-2.66Q143.57-1.07 140.9-0.27 138.22 0.54 135.39 0.54L135.39 0.54Q131.58 0.54 128.74-1.33 125.89-3.2 124.34-6.59 122.79-9.99 122.79-14.48L122.79-14.48Q122.79-18.95 124.38-22.35 125.97-25.76 128.84-27.64 131.7-29.52 135.39-29.52L135.39-29.52Q137.69-29.52 139.47-28.74 141.25-27.95 142.47-26.51L142.47-26.51 142.47-27.93Q142.47-28.78 142.89-29.15 143.3-29.52 144.3-29.52L144.3-29.52ZM172.35-23.1Q174.26-23.1 175.92-22.12L175.92-22.12Q176.89-21.53 176.89-20.61L176.89-20.61Q176.89-20.17 176.67-19.58L176.67-19.58Q176.16-18.19 175.26-18.19L175.26-18.19Q174.89-18.19 174.57-18.38L174.57-18.38Q173.38-19.04 172.01-19.04L172.01-19.04Q169.81-19.04 167.59-17.52 165.37-15.99 163.94-13.45 162.51-10.91 162.51-8.06L162.51-8.06 162.51-3.32 170.74-3.32Q171.57-3.32 171.92-2.94 172.28-2.56 172.28-1.66L172.28-1.66Q172.28-0.76 171.92-0.38 171.57 0 170.74 0L170.74 0 155.02 0Q154.19 0 153.83-0.38 153.48-0.76 153.48-1.66L153.48-1.66Q153.48-2.56 153.83-2.94 154.19-3.32 155.02-3.32L155.02-3.32 158.85-3.32 158.85-19.24 155.75-19.24Q154.92-19.24 154.57-19.62 154.21-20 154.21-20.9L154.21-20.9Q154.21-21.8 154.57-22.18 154.92-22.56 155.75-22.56L155.75-22.56 160.73-22.56Q161.56-22.56 161.91-22.18 162.27-21.8 162.27-20.9L162.27-20.9 162.27-15.97Q163.44-18.12 165.1-19.73 166.76-21.34 168.64-22.22 170.52-23.1 172.35-23.1L172.35-23.1ZM194.96-23.1Q199.55-23.1 201.84-21.04 204.14-18.99 204.14-14.97L204.14-14.97 204.14-5.25Q204.14-3.32 205.75-3.32L205.75-3.32 206.6-3.32Q207.43-3.32 207.79-2.94 208.14-2.56 208.14-1.66L208.14-1.66Q208.14-0.76 207.79-0.38 207.43 0 206.6 0L206.6 0 205.04 0Q203.45 0 202.32-0.79 201.18-1.59 200.84-3.13L200.84-3.13Q198.84-1.37 196.51-0.42 194.17 0.54 191.56 0.54L191.56 0.54Q189.1 0.54 187.2-0.31 185.31-1.15 184.24-2.76 183.16-4.37 183.16-6.59L183.16-6.59Q183.16-10.45 185.92-12.29 188.68-14.14 193.05-14.14L193.05-14.14Q196.93-14.14 200.47-12.89L200.47-12.89 200.47-14.97Q200.47-17.33 199.14-18.44 197.81-19.56 194.86-19.56L194.86-19.56Q193.03-19.56 191.05-19.04 189.07-18.53 187.29-17.63L187.29-17.63Q186.87-17.41 186.53-17.41L186.53-17.41Q185.73-17.41 185.19-18.58L185.19-18.58Q184.92-19.17 184.92-19.56L184.92-19.56Q184.92-20.41 185.82-20.87L185.82-20.87Q187.88-21.95 190.23-22.52 192.59-23.1 194.96-23.1L194.96-23.1ZM193.08-10.69Q190.27-10.69 188.64-9.73 187.02-8.76 187.02-6.67L187.02-6.67Q187.02-4.88 188.25-3.89 189.49-2.91 191.71-2.91L191.71-2.91Q196.57-2.91 200.47-6.93L200.47-6.93 200.47-9.59Q198.81-10.13 196.91-10.41 195-10.69 193.08-10.69L193.08-10.69ZM229.38-32.15Q232.65-32.15 235.87-30.91L235.87-30.91Q237.04-30.47 237.04-29.3L237.04-29.3Q237.04-29.03 236.97-28.66L236.97-28.66Q236.63-27.27 235.75-27.27L235.75-27.27Q235.48-27.27 235.16-27.39L235.16-27.39Q232.06-28.59 229.38-28.59L229.38-28.59Q224.45-28.59 224.45-23.29L224.45-23.29 224.45-20.61 232.89-20.61Q233.72-20.61 234.08-20.23 234.43-19.85 234.43-18.95L234.43-18.95Q234.43-18.04 234.08-17.66 233.72-17.29 232.89-17.29L232.89-17.29 224.45-17.29 224.45-3.32 232.89-3.32Q233.72-3.32 234.08-2.94 234.43-2.56 234.43-1.66L234.43-1.66Q234.43-0.76 234.08-0.38 233.72 0 232.89 0L232.89 0 215.95 0Q215.12 0 214.77-0.38 214.41-0.76 214.41-1.66L214.41-1.66Q214.41-2.56 214.77-2.94 215.12-3.32 215.95-3.32L215.95-3.32 220.78-3.32 220.78-17.29 215.95-17.29Q215.12-17.29 214.77-17.66 214.41-18.04 214.41-18.95L214.41-18.95Q214.41-19.85 214.77-20.23 215.12-20.61 215.95-20.61L215.95-20.61 220.78-20.61 220.78-23.61Q220.78-27.64 223.04-29.9 225.3-32.15 229.38-32.15L229.38-32.15ZM251.01-29.52Q252.01-29.52 252.42-29.15 252.84-28.78 252.84-27.93L252.84-27.93 252.84-20.61 262.87-20.61Q263.7-20.61 264.05-20.23 264.41-19.85 264.41-18.95L264.41-18.95Q264.41-18.04 264.05-17.66 263.7-17.29 262.87-17.29L262.87-17.29 252.84-17.29 252.84-8.4Q252.84-5.62 253.8-4.32 254.77-3.03 257.16-3.03L257.16-3.03Q258.79-3.03 260.6-3.69 262.41-4.35 264.09-5.44L264.09-5.44Q264.43-5.69 264.85-5.69L264.85-5.69Q265.68-5.69 266.26-4.57L266.26-4.57Q266.58-3.93 266.58-3.47L266.58-3.47Q266.58-2.69 265.78-2.2L265.78-2.2Q263.87-1 261.53-0.23 259.18 0.54 257.16 0.54L257.16 0.54Q253.01 0.54 251.09-1.62 249.17-3.78 249.17-8.08L249.17-8.08 249.17-17.29 244.22-17.29Q243.39-17.29 243.03-17.66 242.68-18.04 242.68-18.95L242.68-18.95Q242.68-19.85 243.03-20.23 243.39-20.61 244.22-20.61L244.22-20.61 249.17-20.61 249.17-27.93Q249.17-28.78 249.59-29.15 250-29.52 251.01-29.52L251.01-29.52ZM296.29-28.98Q297.12-28.98 297.48-28.6 297.83-28.22 297.83-27.32L297.83-27.32Q297.83-26.42 297.48-26.04 297.12-25.66 296.29-25.66L296.29-25.66 294.53-25.66 294.53-3.32 296.29-3.32Q297.12-3.32 297.48-2.94 297.83-2.56 297.83-1.66L297.83-1.66Q297.83-0.76 297.48-0.38 297.12 0 296.29 0L296.29 0 288.62 0Q287.79 0 287.44-0.38 287.09-0.76 287.09-1.66L287.09-1.66Q287.09-2.56 287.44-2.94 287.79-3.32 288.62-3.32L288.62-3.32 290.87-3.32 290.87-13.28 278.71-13.28 278.71-3.32 280.96-3.32Q281.79-3.32 282.14-2.94 282.5-2.56 282.5-1.66L282.5-1.66Q282.5-0.76 282.14-0.38 281.79 0 280.96 0L280.96 0 273.29 0Q272.46 0 272.11-0.38 271.75-0.76 271.75-1.66L271.75-1.66Q271.75-2.56 272.11-2.94 272.46-3.32 273.29-3.32L273.29-3.32 275.05-3.32 275.05-25.66 273.29-25.66Q272.46-25.66 272.11-26.04 271.75-26.42 271.75-27.32L271.75-27.32Q271.75-28.22 272.11-28.6 272.46-28.98 273.29-28.98L273.29-28.98 280.96-28.98Q281.79-28.98 282.14-28.6 282.5-28.22 282.5-27.32L282.5-27.32Q282.5-26.42 282.14-26.04 281.79-25.66 280.96-25.66L280.96-25.66 278.71-25.66 278.71-16.6 290.87-16.6 290.87-25.66 288.62-25.66Q287.79-25.66 287.44-26.04 287.09-26.42 287.09-27.32L287.09-27.32Q287.09-28.22 287.44-28.6 287.79-28.98 288.62-28.98L288.62-28.98 296.29-28.98ZM322.63-22.56Q323.46-22.56 323.82-22.18 324.17-21.8 324.17-20.9L324.17-20.9 324.17-3.32 326.17-3.32Q327-3.32 327.36-2.94 327.71-2.56 327.71-1.66L327.71-1.66Q327.71-0.76 327.36-0.38 327 0 326.17 0L326.17 0 322.29 0Q321.46 0 321.11-0.37 320.75-0.73 320.75-1.64L320.75-1.64 320.75-4.59Q319.14-2.1 316.98-0.78 314.82 0.54 312.33 0.54L312.33 0.54Q310.11 0.54 308.47-0.43 306.84-1.39 305.96-3.2 305.08-5 305.08-7.42L305.08-7.42 305.08-19.24 303.08-19.24Q302.25-19.24 301.89-19.62 301.54-20 301.54-20.9L301.54-20.9Q301.54-21.8 301.89-22.18 302.25-22.56 303.08-22.56L303.08-22.56 307.2-22.56Q308.03-22.56 308.39-22.18 308.74-21.8 308.74-20.9L308.74-20.9 308.74-7.79Q308.74-5.62 309.74-4.35 310.74-3.08 312.69-3.08L312.69-3.08Q314.77-3.08 316.56-4.27 318.36-5.47 319.43-7.57 320.51-9.67 320.51-12.26L320.51-12.26 320.51-19.24 317.04-19.24Q316.21-19.24 315.86-19.62 315.5-20 315.5-20.9L315.5-20.9Q315.5-21.8 315.86-22.18 316.21-22.56 317.04-22.56L317.04-22.56 322.63-22.56ZM336.81-32.03Q337.64-32.03 338-31.65 338.35-31.27 338.35-30.37L338.35-30.37 338.35-19.07Q341.5-23.1 346.09-23.1L346.09-23.1Q349.12-23.1 351.51-21.67 353.9-20.24 355.27-17.57 356.64-14.89 356.64-11.28L356.64-11.28Q356.64-7.67 355.27-4.99 353.9-2.32 351.51-0.89 349.12 0.54 346.09 0.54L346.09 0.54Q343.7 0.54 341.67-0.54 339.65-1.61 338.11-3.61L338.11-3.61 338.11-1.66Q338.11-0.76 337.75-0.38 337.4 0 336.57 0L336.57 0 332.69 0Q331.86 0 331.5-0.38 331.15-0.76 331.15-1.66L331.15-1.66Q331.15-2.56 331.5-2.94 331.86-3.32 332.69-3.32L332.69-3.32 334.69-3.32 334.69-28.71 332.2-28.71Q331.37-28.71 331.01-29.09 330.66-29.47 330.66-30.37L330.66-30.37Q330.66-31.27 331.01-31.65 331.37-32.03 332.2-32.03L332.2-32.03 336.81-32.03ZM345.85-19.48Q343.67-19.48 341.98-18.51 340.28-17.53 339.32-15.67 338.35-13.82 338.35-11.28L338.35-11.28Q338.35-8.74 339.32-6.88 340.28-5.03 341.98-4.05 343.67-3.08 345.85-3.08L345.85-3.08Q348.02-3.08 349.58-4.11 351.14-5.15 351.96-7.01 352.78-8.86 352.78-11.28L352.78-11.28Q352.78-13.7 351.96-15.55 351.14-17.41 349.58-18.44 348.02-19.48 345.85-19.48L345.85-19.48Z" opacity="1" transform="matrix(1,0,0,1,0,0)" fill="#111111" class="wordmark-text-0" data-fill-palette-color="primary" id="text-0"></path></svg></g></svg></g></svg></g></svg></g><g><svg viewBox="0 0 64.41076674767383 64.41076674767383" height="64.41076674767383" width="64.41076674767383"><g><svg xmlns="http://www.w3.org/2000/svg" version="1.1" viewBox="2.6670000000000016 2.667 58.666 58.666" x="0" y="0" height="64.41076674767383" width="64.41076674767383" class="icon-icon-0" data-fill-palette-color="accent" id="icon-0"><path d="M32 2.667c-16.2 0-29.333 13.067-29.333 29.333 0 16 13.133 29.333 29.333 29.333s29.333-13.333 29.333-29.333c0-16.267-13.133-29.333-29.333-29.333zM16.026 10.401l4.922 6.552c3.096-2.27 6.911-3.62 11.052-3.62 10.309 0 18.667 8.267 18.667 18.667 0 0.653-0.042 1.299-0.109 1.938l7.901 0.995c-0.843 6.933-4.5 13.602-10.495 18.135l-4.703-6.255c-3.132 2.399-7.026 3.854-11.26 3.854-10.309 0-18.667-8.533-18.667-18.667 0-0.839 0.077-1.656 0.182-2.464l-7.99-1.005c0.842-6.933 4.503-13.597 10.5-18.13z" fill="#111111" data-fill-palette-color="accent"></path></svg></g></svg></g></svg></g><defs></defs></svg><rect width="395.52" height="52.37946793169007" fill="none" stroke="none" visibility="hidden"></rect></g></svg></g></svg>