<svg width="342" height="42" viewBox="0 0 342 42" fill="none" xmlns="http://www.w3.org/2000/svg">
<path d="M0.811133 23.4C0.811133 19.9333 1.56113 16.85 3.06113 14.15C4.56113 11.4167 6.64447 9.3 9.31113 7.8C12.0111 6.26666 15.0611 5.5 18.4611 5.5C22.6278 5.5 26.1945 6.6 29.1611 8.8C32.1278 11 34.1111 14 35.1111 17.8H25.7111C25.0111 16.3333 24.0111 15.2167 22.7111 14.45C21.4445 13.6833 19.9945 13.3 18.3611 13.3C15.7278 13.3 13.5945 14.2167 11.9611 16.05C10.3278 17.8833 9.51113 20.3333 9.51113 23.4C9.51113 26.4667 10.3278 28.9167 11.9611 30.75C13.5945 32.5833 15.7278 33.5 18.3611 33.5C19.9945 33.5 21.4445 33.1167 22.7111 32.35C24.0111 31.5833 25.0111 30.4667 25.7111 29H35.1111C34.1111 32.8 32.1278 35.8 29.1611 38C26.1945 40.1667 22.6278 41.25 18.4611 41.25C15.0611 41.25 12.0111 40.5 9.31113 39C6.64447 37.4667 4.56113 35.35 3.06113 32.65C1.56113 29.95 0.811133 26.8667 0.811133 23.4ZM38.6471 27C38.6471 24.1333 39.1804 21.6167 40.2471 19.45C41.3471 17.2833 42.8304 15.6167 44.6971 14.45C46.5637 13.2833 48.6471 12.7 50.9471 12.7C52.9137 12.7 54.6304 13.1 56.0971 13.9C57.5971 14.7 58.7471 15.75 59.5471 17.05V13.1H68.0971V41H59.5471V37.05C58.7137 38.35 57.5471 39.4 56.0471 40.2C54.5804 41 52.8637 41.4 50.8971 41.4C48.6304 41.4 46.5637 40.8167 44.6971 39.65C42.8304 38.45 41.3471 36.7667 40.2471 34.6C39.1804 32.4 38.6471 29.8667 38.6471 27ZM59.5471 27.05C59.5471 24.9167 58.9471 23.2333 57.7471 22C56.5804 20.7667 55.1471 20.15 53.4471 20.15C51.7471 20.15 50.2971 20.7667 49.0971 22C47.9304 23.2 47.3471 24.8667 47.3471 27C47.3471 29.1333 47.9304 30.8333 49.0971 32.1C50.2971 33.3333 51.7471 33.95 53.4471 33.95C55.1471 33.95 56.5804 33.3333 57.7471 32.1C58.9471 30.8667 59.5471 29.1833 59.5471 27.05ZM85.6326 41.4C83.1993 41.4 81.0326 40.9833 79.1326 40.15C77.2326 39.3167 75.7326 38.1833 74.6326 36.75C73.5326 35.2833 72.916 33.65 72.7826 31.85H81.2326C81.3326 32.8167 81.7826 33.6 82.5826 34.2C83.3826 34.8 84.366 35.1 85.5326 35.1C86.5993 35.1 87.416 34.9 87.9826 34.5C88.5826 34.0667 88.8826 33.5167 88.8826 32.85C88.8826 32.05 88.466 31.4667 87.6326 31.1C86.7993 30.7 85.4493 30.2667 83.5826 29.8C81.5826 29.3333 79.916 28.85 78.5826 28.35C77.2493 27.8167 76.0993 27 75.1326 25.9C74.166 24.7667 73.6826 23.25 73.6826 21.35C73.6826 19.75 74.116 18.3 74.9826 17C75.8826 15.6667 77.1826 14.6167 78.8826 13.85C80.616 13.0833 82.666 12.7 85.0326 12.7C88.5326 12.7 91.2826 13.5667 93.2826 15.3C95.316 17.0333 96.4826 19.3333 96.7826 22.2H88.8826C88.7493 21.2333 88.316 20.4667 87.5826 19.9C86.8826 19.3333 85.9493 19.05 84.7826 19.05C83.7826 19.05 83.016 19.25 82.4826 19.65C81.9493 20.0167 81.6826 20.5333 81.6826 21.2C81.6826 22 82.0993 22.6 82.9326 23C83.7993 23.4 85.1326 23.8 86.9326 24.2C88.9993 24.7333 90.6826 25.2667 91.9826 25.8C93.2826 26.3 94.416 27.1333 95.3826 28.3C96.3826 29.4333 96.8993 30.9667 96.9326 32.9C96.9326 34.5333 96.466 36 95.5326 37.3C94.6326 38.5667 93.316 39.5667 91.5826 40.3C89.8826 41.0333 87.8993 41.4 85.6326 41.4ZM128.463 26.6C128.463 27.4 128.413 28.2333 128.313 29.1H108.963C109.097 30.8333 109.647 32.1667 110.613 33.1C111.613 34 112.83 34.45 114.263 34.45C116.397 34.45 117.88 33.55 118.713 31.75H127.813C127.347 33.5833 126.497 35.2333 125.263 36.7C124.063 38.1667 122.547 39.3167 120.713 40.15C118.88 40.9833 116.83 41.4 114.563 41.4C111.83 41.4 109.397 40.8167 107.263 39.65C105.13 38.4833 103.463 36.8167 102.263 34.65C101.063 32.4833 100.463 29.95 100.463 27.05C100.463 24.15 101.047 21.6167 102.213 19.45C103.413 17.2833 105.08 15.6167 107.213 14.45C109.347 13.2833 111.797 12.7 114.563 12.7C117.263 12.7 119.663 13.2667 121.763 14.4C123.863 15.5333 125.497 17.15 126.663 19.25C127.863 21.35 128.463 23.8 128.463 26.6ZM119.713 24.35C119.713 22.8833 119.213 21.7167 118.213 20.85C117.213 19.9833 115.963 19.55 114.463 19.55C113.03 19.55 111.813 19.9667 110.813 20.8C109.847 21.6333 109.247 22.8167 109.013 24.35H119.713ZM154.92 41.4C152.486 41.4 150.32 40.9833 148.42 40.15C146.52 39.3167 145.02 38.1833 143.92 36.75C142.82 35.2833 142.203 33.65 142.07 31.85H150.52C150.62 32.8167 151.07 33.6 151.87 34.2C152.67 34.8 153.653 35.1 154.82 35.1C155.886 35.1 156.703 34.9 157.27 34.5C157.87 34.0667 158.17 33.5167 158.17 32.85C158.17 32.05 157.753 31.4667 156.92 31.1C156.086 30.7 154.736 30.2667 152.87 29.8C150.87 29.3333 149.203 28.85 147.87 28.35C146.536 27.8167 145.386 27 144.42 25.9C143.453 24.7667 142.97 23.25 142.97 21.35C142.97 19.75 143.403 18.3 144.27 17C145.17 15.6667 146.47 14.6167 148.17 13.85C149.903 13.0833 151.953 12.7 154.32 12.7C157.82 12.7 160.57 13.5667 162.57 15.3C164.603 17.0333 165.77 19.3333 166.07 22.2H158.17C158.036 21.2333 157.603 20.4667 156.87 19.9C156.17 19.3333 155.236 19.05 154.07 19.05C153.07 19.05 152.303 19.25 151.77 19.65C151.236 20.0167 150.97 20.5333 150.97 21.2C150.97 22 151.386 22.6 152.22 23C153.086 23.4 154.42 23.8 156.22 24.2C158.286 24.7333 159.97 25.2667 161.27 25.8C162.57 26.3 163.703 27.1333 164.67 28.3C165.67 29.4333 166.186 30.9667 166.22 32.9C166.22 34.5333 165.753 36 164.82 37.3C163.92 38.5667 162.603 39.5667 160.87 40.3C159.17 41.0333 157.186 41.4 154.92 41.4ZM187.001 33.75V41H182.651C179.551 41 177.134 40.25 175.401 38.75C173.667 37.2167 172.801 34.7333 172.801 31.3V20.2H169.401V13.1H172.801V6.3H181.351V13.1H186.951V20.2H181.351V31.4C181.351 32.2333 181.551 32.8333 181.951 33.2C182.351 33.5667 183.017 33.75 183.951 33.75H187.001ZM219.313 13.1V41H210.763V37.2C209.896 38.4333 208.713 39.4333 207.213 40.2C205.746 40.9333 204.113 41.3 202.313 41.3C200.18 41.3 198.296 40.8333 196.663 39.9C195.03 38.9333 193.763 37.55 192.863 35.75C191.963 33.95 191.513 31.8333 191.513 29.4V13.1H200.013V28.25C200.013 30.1167 200.496 31.5667 201.463 32.6C202.43 33.6333 203.73 34.15 205.363 34.15C207.03 34.15 208.346 33.6333 209.313 32.6C210.28 31.5667 210.763 30.1167 210.763 28.25V13.1H219.313ZM223.754 27C223.754 24.1333 224.288 21.6167 225.354 19.45C226.454 17.2833 227.938 15.6167 229.804 14.45C231.671 13.2833 233.754 12.7 236.054 12.7C237.888 12.7 239.554 13.0833 241.054 13.85C242.588 14.6167 243.788 15.65 244.654 16.95V4H253.204V41H244.654V37C243.854 38.3333 242.704 39.4 241.204 40.2C239.738 41 238.021 41.4 236.054 41.4C233.754 41.4 231.671 40.8167 229.804 39.65C227.938 38.45 226.454 36.7667 225.354 34.6C224.288 32.4 223.754 29.8667 223.754 27ZM244.654 27.05C244.654 24.9167 244.054 23.2333 242.854 22C241.688 20.7667 240.254 20.15 238.554 20.15C236.854 20.15 235.404 20.7667 234.204 22C233.038 23.2 232.454 24.8667 232.454 27C232.454 29.1333 233.038 30.8333 234.204 32.1C235.404 33.3333 236.854 33.95 238.554 33.95C240.254 33.95 241.688 33.3333 242.854 32.1C244.054 30.8667 244.654 29.1833 244.654 27.05ZM263.69 10.2C262.19 10.2 260.957 9.76666 259.99 8.9C259.057 8 258.59 6.9 258.59 5.6C258.59 4.26667 259.057 3.16666 259.99 2.3C260.957 1.4 262.19 0.949997 263.69 0.949997C265.157 0.949997 266.357 1.4 267.29 2.3C268.257 3.16666 268.74 4.26667 268.74 5.6C268.74 6.9 268.257 8 267.29 8.9C266.357 9.76666 265.157 10.2 263.69 10.2ZM267.94 13.1V41H259.39V13.1H267.94ZM300.436 26.6C300.436 27.4 300.386 28.2333 300.286 29.1H280.936C281.069 30.8333 281.619 32.1667 282.586 33.1C283.586 34 284.803 34.45 286.236 34.45C288.369 34.45 289.853 33.55 290.686 31.75H299.786C299.319 33.5833 298.469 35.2333 297.236 36.7C296.036 38.1667 294.519 39.3167 292.686 40.15C290.853 40.9833 288.803 41.4 286.536 41.4C283.803 41.4 281.369 40.8167 279.236 39.65C277.103 38.4833 275.436 36.8167 274.236 34.65C273.036 32.4833 272.436 29.95 272.436 27.05C272.436 24.15 273.019 21.6167 274.186 19.45C275.386 17.2833 277.053 15.6167 279.186 14.45C281.319 13.2833 283.769 12.7 286.536 12.7C289.236 12.7 291.636 13.2667 293.736 14.4C295.836 15.5333 297.469 17.15 298.636 19.25C299.836 21.35 300.436 23.8 300.436 26.6ZM291.686 24.35C291.686 22.8833 291.186 21.7167 290.186 20.85C289.186 19.9833 287.936 19.55 286.436 19.55C285.003 19.55 283.786 19.9667 282.786 20.8C281.819 21.6333 281.219 22.8167 280.986 24.35H291.686ZM316.297 41.4C313.863 41.4 311.697 40.9833 309.797 40.15C307.897 39.3167 306.397 38.1833 305.297 36.75C304.197 35.2833 303.58 33.65 303.447 31.85H311.897C311.997 32.8167 312.447 33.6 313.247 34.2C314.047 34.8 315.03 35.1 316.197 35.1C317.263 35.1 318.08 34.9 318.647 34.5C319.247 34.0667 319.547 33.5167 319.547 32.85C319.547 32.05 319.13 31.4667 318.297 31.1C317.463 30.7 316.113 30.2667 314.247 29.8C312.247 29.3333 310.58 28.85 309.247 28.35C307.913 27.8167 306.763 27 305.797 25.9C304.83 24.7667 304.347 23.25 304.347 21.35C304.347 19.75 304.78 18.3 305.647 17C306.547 15.6667 307.847 14.6167 309.547 13.85C311.28 13.0833 313.33 12.7 315.697 12.7C319.197 12.7 321.947 13.5667 323.947 15.3C325.98 17.0333 327.147 19.3333 327.447 22.2H319.547C319.413 21.2333 318.98 20.4667 318.247 19.9C317.547 19.3333 316.613 19.05 315.447 19.05C314.447 19.05 313.68 19.25 313.147 19.65C312.613 20.0167 312.347 20.5333 312.347 21.2C312.347 22 312.763 22.6 313.597 23C314.463 23.4 315.797 23.8 317.597 24.2C319.663 24.7333 321.347 25.2667 322.647 25.8C323.947 26.3 325.08 27.1333 326.047 28.3C327.047 29.4333 327.563 30.9667 327.597 32.9C327.597 34.5333 327.13 36 326.197 37.3C325.297 38.5667 323.98 39.5667 322.247 40.3C320.547 41.0333 318.563 41.4 316.297 41.4Z" fill="#cfcfcf"/>
<path d="M336.828 41.4C335.328 41.4 334.094 40.9667 333.128 40.1C332.194 39.2 331.728 38.1 331.728 36.8C331.728 35.4667 332.194 34.35 333.128 33.45C334.094 32.55 335.328 32.1 336.828 32.1C338.294 32.1 339.494 32.55 340.428 33.45C341.394 34.35 341.878 35.4667 341.878 36.8C341.878 38.1 341.394 39.2 340.428 40.1C339.494 40.9667 338.294 41.4 336.828 41.4Z" fill="#FF8500"/>
</svg>
