<svg width="16" height="23" viewBox="0 0 16 23" fill="none" xmlns="http://www.w3.org/2000/svg">
<path d="M2.61907 11.3929C4.08701 12.4927 5.39329 13.4787 6.70736 14.4564C8.85957 16.0573 11.0439 17.6214 13.1578 19.2661C14.0391 19.9519 14.7807 20.8004 15.5721 21.5872C15.912 21.925 16.2088 22.3597 15.8058 22.7668C15.3585 23.2189 14.8703 22.9343 14.497 22.5826C10.4807 18.7979 5.50877 16.2012 1.09612 12.9088C-0.204159 11.9385 -0.373583 11.1215 0.727369 9.92109C1.06817 9.53628 1.43821 9.17558 1.83451 8.84181C4.71468 6.50016 7.57593 4.13604 10.513 1.85986C11.4561 1.12905 12.6 0.625837 13.6749 0.0571277C13.8582 -0.0396667 14.341 -0.000491851 14.3696 0.0785513C14.4757 0.368767 14.592 0.793277 14.4445 1.00361C13.8638 1.83089 13.2853 2.70037 12.5213 3.36336C10.6772 4.96365 8.72569 6.45258 6.82515 7.99476C5.70722 8.90175 4.60574 9.82681 3.4924 10.739C3.24887 10.9381 2.98676 11.1181 2.61907 11.3929Z" fill="white"/>
</svg>
