<svg width="320" height="42" viewBox="0 0 320 42" fill="none" xmlns="http://www.w3.org/2000/svg">
<path d="M25.523 17C24.8897 15.8333 23.973 14.95 22.773 14.35C21.6064 13.7167 20.223 13.4 18.623 13.4C15.8564 13.4 13.6397 14.3167 11.973 16.15C10.3064 17.95 9.47305 20.3667 9.47305 23.4C9.47305 26.6333 10.3397 29.1667 12.073 31C13.8397 32.8 16.2564 33.7 19.323 33.7C21.423 33.7 23.1897 33.1667 24.623 32.1C26.0897 31.0333 27.1564 29.5 27.823 27.5H16.973V21.2H35.573V29.15C34.9397 31.2833 33.8564 33.2667 32.323 35.1C30.823 36.9333 28.9064 38.4167 26.573 39.55C24.2397 40.6833 21.6064 41.25 18.673 41.25C15.2064 41.25 12.1064 40.5 9.37305 39C6.67305 37.4667 4.55638 35.35 3.02305 32.65C1.52305 29.95 0.773047 26.8667 0.773047 23.4C0.773047 19.9333 1.52305 16.85 3.02305 14.15C4.55638 11.4167 6.67305 9.3 9.37305 7.8C12.073 6.26666 15.1564 5.5 18.623 5.5C22.823 5.5 26.3564 6.51666 29.223 8.55C32.123 10.5833 34.0397 13.4 34.973 17H25.523ZM66.609 26.6C66.609 27.4 66.559 28.2333 66.459 29.1H47.109C47.2423 30.8333 47.7923 32.1667 48.759 33.1C49.759 34 50.9757 34.45 52.409 34.45C54.5423 34.45 56.0257 33.55 56.859 31.75H65.959C65.4923 33.5833 64.6423 35.2333 63.409 36.7C62.209 38.1667 60.6923 39.3167 58.859 40.15C57.0257 40.9833 54.9757 41.4 52.709 41.4C49.9757 41.4 47.5423 40.8167 45.409 39.65C43.2757 38.4833 41.609 36.8167 40.409 34.65C39.209 32.4833 38.609 29.95 38.609 27.05C38.609 24.15 39.1923 21.6167 40.359 19.45C41.559 17.2833 43.2257 15.6167 45.359 14.45C47.4923 13.2833 49.9423 12.7 52.709 12.7C55.409 12.7 57.809 13.2667 59.909 14.4C62.009 15.5333 63.6423 17.15 64.809 19.25C66.009 21.35 66.609 23.8 66.609 26.6ZM57.859 24.35C57.859 22.8833 57.359 21.7167 56.359 20.85C55.359 19.9833 54.109 19.55 52.609 19.55C51.1757 19.55 49.959 19.9667 48.959 20.8C47.9923 21.6333 47.3923 22.8167 47.159 24.35H57.859ZM86.6695 33.75V41H82.3195C79.2195 41 76.8029 40.25 75.0695 38.75C73.3362 37.2167 72.4695 34.7333 72.4695 31.3V20.2H69.0695V13.1H72.4695V6.3H81.0195V13.1H86.6195V20.2H81.0195V31.4C81.0195 32.2333 81.2195 32.8333 81.6195 33.2C82.0195 33.5667 82.6862 33.75 83.6195 33.75H86.6695ZM106.328 10.2C104.828 10.2 103.594 9.76666 102.628 8.9C101.694 8 101.228 6.9 101.228 5.6C101.228 4.26667 101.694 3.16666 102.628 2.3C103.594 1.4 104.828 0.949997 106.328 0.949997C107.794 0.949997 108.994 1.4 109.928 2.3C110.894 3.16666 111.378 4.26667 111.378 5.6C111.378 6.9 110.894 8 109.928 8.9C108.994 9.76666 107.794 10.2 106.328 10.2ZM110.578 13.1V41H102.028V13.1H110.578ZM133.774 12.8C137.04 12.8 139.64 13.8667 141.574 16C143.54 18.1 144.524 21 144.524 24.7V41H136.024V25.85C136.024 23.9833 135.54 22.5333 134.574 21.5C133.607 20.4667 132.307 19.95 130.674 19.95C129.04 19.95 127.74 20.4667 126.774 21.5C125.807 22.5333 125.324 23.9833 125.324 25.85V41H116.774V13.1H125.324V16.8C126.19 15.5667 127.357 14.6 128.824 13.9C130.29 13.1667 131.94 12.8 133.774 12.8ZM176.611 33.75V41H172.261C169.161 41 166.744 40.25 165.011 38.75C163.278 37.2167 162.411 34.7333 162.411 31.3V20.2H159.011V13.1H162.411V6.3H170.961V13.1H176.561V20.2H170.961V31.4C170.961 32.2333 171.161 32.8333 171.561 33.2C171.961 33.5667 172.628 33.75 173.561 33.75H176.611ZM194.073 41.4C191.34 41.4 188.873 40.8167 186.673 39.65C184.507 38.4833 182.79 36.8167 181.523 34.65C180.29 32.4833 179.673 29.95 179.673 27.05C179.673 24.1833 180.307 21.6667 181.573 19.5C182.84 17.3 184.573 15.6167 186.773 14.45C188.973 13.2833 191.44 12.7 194.173 12.7C196.907 12.7 199.373 13.2833 201.573 14.45C203.773 15.6167 205.507 17.3 206.773 19.5C208.04 21.6667 208.673 24.1833 208.673 27.05C208.673 29.9167 208.023 32.45 206.723 34.65C205.457 36.8167 203.707 38.4833 201.473 39.65C199.273 40.8167 196.807 41.4 194.073 41.4ZM194.073 34C195.707 34 197.09 33.4 198.223 32.2C199.39 31 199.973 29.2833 199.973 27.05C199.973 24.8167 199.407 23.1 198.273 21.9C197.173 20.7 195.807 20.1 194.173 20.1C192.507 20.1 191.123 20.7 190.023 21.9C188.923 23.0667 188.373 24.7833 188.373 27.05C188.373 29.2833 188.907 31 189.973 32.2C191.073 33.4 192.44 34 194.073 34ZM240.759 13.1V41H232.209V37.2C231.343 38.4333 230.159 39.4333 228.659 40.2C227.193 40.9333 225.559 41.3 223.759 41.3C221.626 41.3 219.743 40.8333 218.109 39.9C216.476 38.9333 215.209 37.55 214.309 35.75C213.409 33.95 212.959 31.8333 212.959 29.4V13.1H221.459V28.25C221.459 30.1167 221.943 31.5667 222.909 32.6C223.876 33.6333 225.176 34.15 226.809 34.15C228.476 34.15 229.793 33.6333 230.759 32.6C231.726 31.5667 232.209 30.1167 232.209 28.25V13.1H240.759ZM245.201 27.05C245.201 24.15 245.784 21.6167 246.951 19.45C248.151 17.2833 249.801 15.6167 251.901 14.45C254.034 13.2833 256.467 12.7 259.201 12.7C262.701 12.7 265.617 13.6167 267.951 15.45C270.317 17.2833 271.867 19.8667 272.601 23.2H263.501C262.734 21.0667 261.251 20 259.051 20C257.484 20 256.234 20.6167 255.301 21.85C254.367 23.05 253.901 24.7833 253.901 27.05C253.901 29.3167 254.367 31.0667 255.301 32.3C256.234 33.5 257.484 34.1 259.051 34.1C261.251 34.1 262.734 33.0333 263.501 30.9H272.601C271.867 34.1667 270.317 36.7333 267.951 38.6C265.584 40.4667 262.667 41.4 259.201 41.4C256.467 41.4 254.034 40.8167 251.901 39.65C249.801 38.4833 248.151 36.8167 246.951 34.65C245.784 32.4833 245.201 29.95 245.201 27.05ZM294.324 12.8C297.524 12.8 300.091 13.8667 302.024 16C303.958 18.1 304.924 21 304.924 24.7V41H296.424V25.85C296.424 23.9833 295.941 22.5333 294.974 21.5C294.008 20.4667 292.708 19.95 291.074 19.95C289.441 19.95 288.141 20.4667 287.174 21.5C286.208 22.5333 285.724 23.9833 285.724 25.85V41H277.174V4H285.724V16.85C286.591 15.6167 287.774 14.6333 289.274 13.9C290.774 13.1667 292.458 12.8 294.324 12.8Z" fill="#cfcfcf"/>
<path d="M314.866 41.4C313.366 41.4 312.132 40.9667 311.166 40.1C310.232 39.2 309.766 38.1 309.766 36.8C309.766 35.4667 310.232 34.35 311.166 33.45C312.132 32.55 313.366 32.1 314.866 32.1C316.332 32.1 317.532 32.55 318.466 33.45C319.432 34.35 319.916 35.4667 319.916 36.8C319.916 38.1 319.432 39.2 318.466 40.1C317.532 40.9667 316.332 41.4 314.866 41.4Z" fill="#FF8500"/>
</svg>
