<svg width="242" height="55" viewBox="0 0 242 55" fill="none" xmlns="http://www.w3.org/2000/svg">
<path d="M8.78574 34.4H19.9857V41H0.235742V5.9H8.78574V34.4ZM36.7639 41.4C34.0305 41.4 31.5639 40.8167 29.3639 39.65C27.1972 38.4833 25.4805 36.8167 24.2139 34.65C22.9805 32.4833 22.3639 29.95 22.3639 27.05C22.3639 24.1833 22.9972 21.6667 24.2639 19.5C25.5305 17.3 27.2639 15.6167 29.4639 14.45C31.6639 13.2833 34.1305 12.7 36.8639 12.7C39.5972 12.7 42.0639 13.2833 44.2639 14.45C46.4639 15.6167 48.1972 17.3 49.4639 19.5C50.7305 21.6667 51.3639 24.1833 51.3639 27.05C51.3639 29.9167 50.7139 32.45 49.4139 34.65C48.1472 36.8167 46.3972 38.4833 44.1639 39.65C41.9639 40.8167 39.4972 41.4 36.7639 41.4ZM36.7639 34C38.3972 34 39.7805 33.4 40.9139 32.2C42.0805 31 42.6639 29.2833 42.6639 27.05C42.6639 24.8167 42.0972 23.1 40.9639 21.9C39.8639 20.7 38.4972 20.1 36.8639 20.1C35.1972 20.1 33.8139 20.7 32.7139 21.9C31.6139 23.0667 31.0639 24.7833 31.0639 27.05C31.0639 29.2833 31.5972 31 32.6639 32.2C33.7639 33.4 35.1305 34 36.7639 34ZM66.4998 12.7C68.4665 12.7 70.1831 13.1 71.6498 13.9C73.1498 14.7 74.2998 15.75 75.0998 17.05V13.1H83.6498V40.95C83.6498 43.5167 83.1331 45.8333 82.0998 47.9C81.0998 50 79.5498 51.6667 77.4498 52.9C75.3831 54.1333 72.7998 54.75 69.6998 54.75C65.5665 54.75 62.2165 53.7667 59.6498 51.8C57.0831 49.8667 55.6165 47.2333 55.2498 43.9H63.6998C63.9665 44.9667 64.5998 45.8 65.5998 46.4C66.5998 47.0333 67.8331 47.35 69.2998 47.35C71.0665 47.35 72.4665 46.8333 73.4998 45.8C74.5665 44.8 75.0998 43.1833 75.0998 40.95V37C74.2665 38.3 73.1165 39.3667 71.6498 40.2C70.1831 41 68.4665 41.4 66.4998 41.4C64.1998 41.4 62.1165 40.8167 60.2498 39.65C58.3831 38.45 56.8998 36.7667 55.7998 34.6C54.7331 32.4 54.1998 29.8667 54.1998 27C54.1998 24.1333 54.7331 21.6167 55.7998 19.45C56.8998 17.2833 58.3831 15.6167 60.2498 14.45C62.1165 13.2833 64.1998 12.7 66.4998 12.7ZM75.0998 27.05C75.0998 24.9167 74.4998 23.2333 73.2998 22C72.1331 20.7667 70.6998 20.15 68.9998 20.15C67.2998 20.15 65.8498 20.7667 64.6498 22C63.4831 23.2 62.8998 24.8667 62.8998 27C62.8998 29.1333 63.4831 30.8333 64.6498 32.1C65.8498 33.3333 67.2998 33.95 68.9998 33.95C70.6998 33.95 72.1331 33.3333 73.2998 32.1C74.4998 30.8667 75.0998 29.1833 75.0998 27.05ZM102.535 41.4C99.802 41.4 97.3354 40.8167 95.1354 39.65C92.9687 38.4833 91.252 36.8167 89.9854 34.65C88.752 32.4833 88.1354 29.95 88.1354 27.05C88.1354 24.1833 88.7687 21.6667 90.0354 19.5C91.302 17.3 93.0354 15.6167 95.2354 14.45C97.4354 13.2833 99.902 12.7 102.635 12.7C105.369 12.7 107.835 13.2833 110.035 14.45C112.235 15.6167 113.969 17.3 115.235 19.5C116.502 21.6667 117.135 24.1833 117.135 27.05C117.135 29.9167 116.485 32.45 115.185 34.65C113.919 36.8167 112.169 38.4833 109.935 39.65C107.735 40.8167 105.269 41.4 102.535 41.4ZM102.535 34C104.169 34 105.552 33.4 106.685 32.2C107.852 31 108.435 29.2833 108.435 27.05C108.435 24.8167 107.869 23.1 106.735 21.9C105.635 20.7 104.269 20.1 102.635 20.1C100.969 20.1 99.5854 20.7 98.4854 21.9C97.3854 23.0667 96.8354 24.7833 96.8354 27.05C96.8354 29.2833 97.3687 31 98.4354 32.2C99.5354 33.4 100.902 34 102.535 34ZM135.671 20.2H131.071V41H122.521V20.2H119.421V13.1H122.521V12.3C122.521 8.86667 123.505 6.26666 125.471 4.5C127.438 2.7 130.321 1.8 134.121 1.8C134.755 1.8 135.221 1.81666 135.521 1.85V9.1C133.888 9 132.738 9.23333 132.071 9.8C131.405 10.3667 131.071 11.3833 131.071 12.85V13.1H135.671V20.2ZM152.389 41.4C149.656 41.4 147.189 40.8167 144.989 39.65C142.822 38.4833 141.106 36.8167 139.839 34.65C138.606 32.4833 137.989 29.95 137.989 27.05C137.989 24.1833 138.622 21.6667 139.889 19.5C141.156 17.3 142.889 15.6167 145.089 14.45C147.289 13.2833 149.756 12.7 152.489 12.7C155.222 12.7 157.689 13.2833 159.889 14.45C162.089 15.6167 163.822 17.3 165.089 19.5C166.356 21.6667 166.989 24.1833 166.989 27.05C166.989 29.9167 166.339 32.45 165.039 34.65C163.772 36.8167 162.022 38.4833 159.789 39.65C157.589 40.8167 155.122 41.4 152.389 41.4ZM152.389 34C154.022 34 155.406 33.4 156.539 32.2C157.706 31 158.289 29.2833 158.289 27.05C158.289 24.8167 157.722 23.1 156.589 21.9C155.489 20.7 154.122 20.1 152.489 20.1C150.822 20.1 149.439 20.7 148.339 21.9C147.239 23.0667 146.689 24.7833 146.689 27.05C146.689 29.2833 147.222 31 148.289 32.2C149.389 33.4 150.756 34 152.389 34ZM180.075 4V41H171.525V4H180.075ZM190.571 10.2C189.071 10.2 187.838 9.76666 186.871 8.9C185.938 8 185.471 6.9 185.471 5.6C185.471 4.26667 185.938 3.16666 186.871 2.3C187.838 1.4 189.071 0.949997 190.571 0.949997C192.038 0.949997 193.238 1.4 194.171 2.3C195.138 3.16666 195.621 4.26667 195.621 5.6C195.621 6.9 195.138 8 194.171 8.9C193.238 9.76666 192.038 10.2 190.571 10.2ZM194.821 13.1V41H186.271V13.1H194.821ZM213.717 41.4C210.984 41.4 208.517 40.8167 206.317 39.65C204.15 38.4833 202.434 36.8167 201.167 34.65C199.934 32.4833 199.317 29.95 199.317 27.05C199.317 24.1833 199.95 21.6667 201.217 19.5C202.484 17.3 204.217 15.6167 206.417 14.45C208.617 13.2833 211.084 12.7 213.817 12.7C216.55 12.7 219.017 13.2833 221.217 14.45C223.417 15.6167 225.15 17.3 226.417 19.5C227.684 21.6667 228.317 24.1833 228.317 27.05C228.317 29.9167 227.667 32.45 226.367 34.65C225.1 36.8167 223.35 38.4833 221.117 39.65C218.917 40.8167 216.45 41.4 213.717 41.4ZM213.717 34C215.35 34 216.734 33.4 217.867 32.2C219.034 31 219.617 29.2833 219.617 27.05C219.617 24.8167 219.05 23.1 217.917 21.9C216.817 20.7 215.45 20.1 213.817 20.1C212.15 20.1 210.767 20.7 209.667 21.9C208.567 23.0667 208.017 24.7833 208.017 27.05C208.017 29.2833 208.55 31 209.617 32.2C210.717 33.4 212.084 34 213.717 34Z" fill="#cfcfcf"/>
<path d="M236.853 41.4C235.353 41.4 234.12 40.9667 233.153 40.1C232.22 39.2 231.753 38.1 231.753 36.8C231.753 35.4667 232.22 34.35 233.153 33.45C234.12 32.55 235.353 32.1 236.853 32.1C238.32 32.1 239.52 32.55 240.453 33.45C241.42 34.35 241.903 35.4667 241.903 36.8C241.903 38.1 241.42 39.2 240.453 40.1C239.52 40.9667 238.32 41.4 236.853 41.4Z" fill="#FF8500"/>
</svg>
