<svg xmlns="http://www.w3.org/2000/svg" version="1.1" xmlns:xlink="http://www.w3.org/1999/xlink" xmlns:svgjs="http://svgjs.dev/svgjs" width="2000" height="1999" viewBox="0 0 2000 1999"><g transform="matrix(1,0,0,1,-0.431486880466764,-0.4312711370263287)"><svg viewBox="0 0 343 343" data-background-color="#000000" preserveAspectRatio="xMidYMid meet" height="1999" width="2000" xmlns="http://www.w3.org/2000/svg" xmlns:xlink="http://www.w3.org/1999/xlink"><g id="tight-bounds" transform="matrix(1,0,0,1,0.0740000000000407,0.07400000000001228)"><svg viewBox="0 0 342.85155851775386 342.85155851775386" height="342.85155851775386" width="342.85155851775386"><rect width="342.852" height="342.852" fill="url(#a56dcf05-ad59-47ce-9100-0f8f154cf05f)" mask="url(#0e3bbf96-d108-4559-806e-1547169d01c0)" data-fill-palette-color="tertiary"></rect><g><svg></svg></g><g><svg viewBox="0 0 342.85155851775386 342.85155851775386" height="342.85155851775386" width="342.85155851775386"><g><path d="M0 171.426c0-94.676 76.75-171.426 171.426-171.426 94.676 0 171.426 76.75 171.426 171.426 0 94.676-76.75 171.426-171.426 171.426-94.676 0-171.426-76.75-171.426-171.426zM171.426 340.086c93.149 0 168.66-75.512 168.66-168.66 0-93.149-75.512-168.66-168.66-168.661-93.149 0-168.66 75.512-168.661 168.661 0 93.149 75.512 168.66 168.661 168.66z" data-fill-palette-color="tertiary" fill="url(#a56dcf05-ad59-47ce-9100-0f8f154cf05f)" stroke="transparent"></path><ellipse rx="164.56874808852186" ry="164.56874808852186" cx="171.42577925887693" cy="171.42577925887693" fill="url(#a56dcf05-ad59-47ce-9100-0f8f154cf05f)" stroke="transparent" stroke-width="0" fill-opacity="1" data-fill-palette-color="tertiary"></ellipse></g><g transform="matrix(1,0,0,1,64.84655864529837,156.09298657801315)"><svg viewBox="0 0 213.1584412271571 30.665585361727526" height="30.665585361727526" width="213.1584412271571"><g><svg viewBox="0 0 213.1584412271571 30.665585361727526" height="30.665585361727526" width="213.1584412271571"><g><svg viewBox="0 0 213.1584412271571 30.665585361727526" height="30.665585361727526" width="213.1584412271571"><g><svg viewBox="0 0 213.1584412271571 30.665585361727526" height="30.665585361727526" width="213.1584412271571"><g id="textblocktransform"><svg viewBox="0 0 213.1584412271571 30.665585361727526" height="30.665585361727526" width="213.1584412271571" id="textblock"><g><svg viewBox="0 0 213.1584412271571 30.665585361727526" height="30.665585361727526" width="213.1584412271571"><g transform="matrix(1,0,0,1,0,0)"><svg width="213.1584412271571" viewBox="4 -40 326.67 47" height="30.665585361727526" data-palette-color="#000000"><path d="M14.85-5L21.65-5Q23.5-5 24.25-6.05 25-7.1 25-8.4L25-8.4 25-31.3Q25-32.55 24.25-33.6 23.5-34.65 21.65-34.65L21.65-34.65 9.95-34.65 9.9-2.05Q9.9-0.95 9.05-0.3 8.2 0.35 6.95 0.35L6.95 0.35Q4 0.35 4-2.05L4-2.05 4-36.7Q4-38.5 4.93-39.1 5.85-39.7 7.15-39.7L7.15-39.7 22.9-39.7Q24.2-39.7 25.6-39.15 27-38.6 28.3-37.75L28.3-37.75 28.25-37.75Q29.55-36.8 30.25-35.27 30.95-33.75 30.95-31.75L30.95-31.75 30.95-8Q30.95-3.95 28.25-1.95L28.25-1.95Q26.95-1 25.58-0.48 24.2 0.05 22.9 0.05L22.9 0.05 14.5 0.05Q13.65 0.05 13.18-0.65 12.7-1.35 12.7-2.5L12.7-2.5Q12.7-5 14.85-5L14.85-5ZM42.25 7L39.65 7Q37.9 7 37.8 4.65L37.8 4.65Q37.8 2.3 39.65 2.3L39.65 2.3 41.85 2.3Q43.6 2.3 44.15 1.25L44.15 1.25 44.85-0.6 45.1-1.4 35.35-26.95 35.35-26.9Q34.95-28.1 35.52-28.95 36.1-29.8 37.3-30.2L37.3-30.2Q38.2-30.45 38.75-30.45L38.75-30.45Q40.2-30.45 40.55-28.75L40.55-28.75 44.5-18.9 47.85-10.7 53.2-28.65Q53.65-30.45 55.3-30.45L55.3-30.45Q55.7-30.45 56.6-30.2L56.6-30.2Q57.8-29.85 58.32-29.05 58.85-28.25 58.55-27.15L58.55-27.15Q56.3-19.5 53.97-11.75 51.65-4 49.4 3.6L49.4 3.6Q49.15 4.15 48.62 4.73 48.1 5.3 47.25 5.83 46.4 6.35 45.15 6.68 43.9 7 42.25 7L42.25 7ZM68.3-21.75L68.3-2.1Q68.3 0.3 65.55 0.3L65.55 0.3Q62.8 0.3 62.8-2.1L62.8-2.1 62.8-22.2Q62.8-24.25 63.45-25.75 64.09-27.25 65.5-28.2L65.5-28.2Q68.15-30.1 70.8-30.1L70.8-30.1 78.84-30.1Q81.4-30.1 84.15-28.2L84.15-28.2Q86.84-26.3 86.84-22.2L86.84-22.2 86.84-2.1Q86.84 0.3 84.09 0.3L84.09 0.3Q81.34 0.3 81.34-2.1L81.34-2.1 81.34-21.75Q81.34-23.05 80.55-24.25L80.55-24.25 80.59-24.2Q79.95-25.4 77.95-25.4L77.95-25.4 71.7-25.4Q69.65-25.4 69-24.2L69-24.2Q68.3-23.15 68.3-21.75L68.3-21.75ZM107.39 0L100.84 0Q99.29 0 97.89-0.43 96.49-0.85 95.19-1.65L95.19-1.65 95.19-1.6Q92.74-3.15 92.74-7.3L92.74-7.3 92.74-9.75Q92.74-11.8 93.47-13.33 94.19-14.85 95.49-15.75L95.49-15.75 95.44-15.75Q96.69-16.6 98.09-17.03 99.49-17.45 100.79-17.45L100.79-17.45 111.84-17.45 111.84-22.1Q111.84-23.35 111.07-24.38 110.29-25.4 108.44-25.4L108.44-25.4 102.59-25.4Q100.69-25.4 99.97-24.48 99.24-23.55 99.24-22.3L99.24-22.3 99.24-21.9Q99.24-19.3 96.44-19.3L96.44-19.3Q93.64-19.3 93.64-21.9L93.64-21.9 93.64-22.35Q93.64-24.4 94.37-25.8 95.09-27.2 96.34-28.15L96.34-28.15 96.29-28.15Q97.59-29 99.02-29.55 100.44-30.1 101.74-30.1L101.74-30.1 109.34-30.1Q110.59-30.1 112.02-29.55 113.44-29 114.69-28.15L114.69-28.15 114.64-28.15Q115.94-27.2 116.64-25.68 117.34-24.15 117.34-22.15L117.34-22.15 117.34-2.1Q117.34 0.3 114.59 0.3L114.59 0.3Q114.04 0.3 113.57 0.25 113.09 0.2 112.72-0.03 112.34-0.25 112.12-0.68 111.89-1.1 111.89-1.8L111.89-1.8 111.84-12.75 101.74-12.75Q100.64-12.75 100.04-12.5 99.44-12.25 99.09-11.7L99.09-11.7Q98.69-10.85 98.52-10.38 98.34-9.9 98.34-9.3L98.34-9.3 98.34-7.35Q98.34-6.05 99.12-5.38 99.89-4.7 101.79-4.7L101.79-4.7 107.39-4.7Q109.24-4.7 109.24-2.35L109.24-2.35Q109.24-1.35 108.79-0.68 108.34 0 107.39 0L107.39 0ZM151.19-11.3L151.19-8Q151.19-3.95 148.49-1.95L148.49-1.95Q147.19-1 145.81-0.48 144.44 0.05 143.14 0.05L143.14 0.05 132.24 0.05Q130.94 0.05 129.56-0.48 128.19-1 126.89-1.95L126.89-1.95Q125.59-2.95 124.89-4.42 124.19-5.9 124.19-8L124.19-8 124.19-31.75Q124.19-33.75 124.89-35.27 125.59-36.8 126.89-37.75L126.89-37.75 126.84-37.75Q128.14-38.6 129.54-39.15 130.94-39.7 132.24-39.7L132.24-39.7 143.14-39.7Q144.44-39.7 145.84-39.15 147.24-38.6 148.54-37.75L148.54-37.75 148.49-37.75Q149.79-36.8 150.49-35.27 151.19-33.75 151.19-31.75L151.19-31.75 151.19-28.3Q151.19-25.9 148.19-25.9L148.19-25.9Q145.24-25.9 145.24-28.3L145.24-28.3 145.24-31.3Q145.24-32.55 144.49-33.6 143.74-34.65 141.89-34.65L141.89-34.65 133.49-34.65Q131.64-34.65 130.89-33.6 130.14-32.55 130.14-31.3L130.14-31.3 130.14-8.4Q130.14-7.1 130.89-6.05 131.64-5 133.49-5L133.49-5 141.89-5Q143.74-5 144.49-6.05 145.24-7.1 145.24-8.4L145.24-8.4 145.24-11.3Q145.24-13.65 148.19-13.65L148.19-13.65Q151.19-13.65 151.19-11.3L151.19-11.3ZM163.39-22.75L163.39-2.1Q163.39 0.3 160.64 0.3L160.64 0.3Q157.79 0.3 157.79-2.1L157.79-2.1 157.79-22.8Q157.79-26.9 160.24-28.5L160.24-28.5Q162.69-30.1 165.89-30.1L165.89-30.1 171.59-30.1Q173.44-30.1 173.44-27.75L173.44-27.75Q173.54-25.4 171.59-25.4L171.59-25.4 166.29-25.4Q164.49-25.4 163.94-24.7 163.39-24 163.39-22.75L163.39-22.75ZM191.78 0L185.23 0Q183.69 0 182.28-0.43 180.88-0.85 179.58-1.65L179.58-1.65 179.58-1.6Q177.13-3.15 177.13-7.3L177.13-7.3 177.13-9.75Q177.13-11.8 177.86-13.33 178.58-14.85 179.88-15.75L179.88-15.75 179.83-15.75Q181.08-16.6 182.48-17.03 183.88-17.45 185.19-17.45L185.19-17.45 196.23-17.45 196.23-22.1Q196.23-23.35 195.46-24.38 194.69-25.4 192.83-25.4L192.83-25.4 186.98-25.4Q185.08-25.4 184.36-24.48 183.63-23.55 183.63-22.3L183.63-22.3 183.63-21.9Q183.63-19.3 180.83-19.3L180.83-19.3Q178.03-19.3 178.03-21.9L178.03-21.9 178.03-22.35Q178.03-24.4 178.76-25.8 179.48-27.2 180.73-28.15L180.73-28.15 180.69-28.15Q181.98-29 183.41-29.55 184.83-30.1 186.13-30.1L186.13-30.1 193.73-30.1Q194.98-30.1 196.41-29.55 197.83-29 199.08-28.15L199.08-28.15 199.03-28.15Q200.33-27.2 201.03-25.68 201.73-24.15 201.73-22.15L201.73-22.15 201.73-2.1Q201.73 0.3 198.98 0.3L198.98 0.3Q198.44 0.3 197.96 0.25 197.48 0.2 197.11-0.03 196.73-0.25 196.51-0.68 196.28-1.1 196.28-1.8L196.28-1.8 196.23-12.75 186.13-12.75Q185.03-12.75 184.44-12.5 183.83-12.25 183.48-11.7L183.48-11.7Q183.08-10.85 182.91-10.38 182.73-9.9 182.73-9.3L182.73-9.3 182.73-7.35Q182.73-6.05 183.51-5.38 184.28-4.7 186.19-4.7L186.19-4.7 191.78-4.7Q193.63-4.7 193.63-2.35L193.63-2.35Q193.63-1.35 193.19-0.68 192.73 0 191.78 0L191.78 0ZM215.13-25.4L215.13-2.1Q215.13 0.3 212.33 0.3L212.33 0.3Q209.58 0.3 209.58-2.1L209.58-2.1 209.58-25.4 207.18-25.4Q205.38-25.4 205.28-27.75L205.28-27.75Q205.28-30.1 207.18-30.1L207.18-30.1 209.58-30.1 209.58-32.5Q209.58-34.55 210.16-35.98 210.73-37.4 212.03-38.15L212.03-38.15 212.03-38.1Q213.33-38.9 214.71-39.35 216.08-39.8 217.63-39.8L217.63-39.8 218.83-39.8Q220.68-39.8 220.68-37.45L220.68-37.45Q220.78-35.1 218.83-35.1L218.83-35.1 218.03-35.1Q217.08-35.1 216.51-34.93 215.93-34.75 215.63-34.4 215.33-34.05 215.23-33.55 215.13-33.05 215.13-32.45L215.13-32.45 215.13-30.1 218.88-30.1Q220.83-30.1 220.73-27.75L220.73-27.75Q220.73-25.4 218.88-25.4L218.88-25.4 215.13-25.4ZM235.68-25.4L231.53-25.4 231.53-7.2Q231.53-5.9 232.08-5.2 232.63-4.5 234.43-4.5L234.43-4.5 235.73-4.5Q237.68-4.5 237.58-2.2L237.58-2.2Q237.58 0.15 235.73 0.15L235.73 0.15 234.08 0.15Q232.48 0.15 231.08-0.28 229.68-0.7 228.38-1.5L228.38-1.5 228.38-1.45Q225.93-3.05 225.93-7.15L225.93-7.15 225.93-25.4 223.98-25.4Q222.18-25.4 222.08-27.75L222.08-27.75Q222.08-30.1 223.98-30.1L223.98-30.1 225.93-30.1 225.93-35.45Q225.93-37.85 228.78-37.85L228.78-37.85Q231.53-37.85 231.53-35.45L231.53-35.45 231.53-30.1 235.68-30.1Q237.63-30.1 237.53-27.75L237.53-27.75Q237.53-25.4 235.68-25.4L235.68-25.4ZM263.53-2.1L263.53-37.55Q263.53-39.95 266.48-39.95L266.48-39.95Q269.48-39.95 269.48-37.55L269.48-37.55 269.48-2.1Q269.48 0.3 266.48 0.3L266.48 0.3Q263.53 0.3 263.53-2.1L263.53-2.1ZM248.33-37.55L248.33-2.1Q248.33 0.3 245.33 0.3L245.33 0.3Q242.38 0.3 242.38-2.1L242.38-2.1 242.38-37.55Q242.38-39.95 245.33-39.95L245.33-39.95Q248.33-39.95 248.33-37.55L248.33-37.55ZM260.03-20.65L260.03-20.65Q260.03-18.9 258.83-17.7 257.63-16.5 255.88-16.5L255.88-16.5Q254.18-16.5 252.98-17.7 251.78-18.9 251.78-20.65L251.78-20.65Q251.78-22.4 252.98-23.6 254.18-24.8 255.88-24.8L255.88-24.8Q257.63-24.8 258.83-23.6 260.03-22.4 260.03-20.65ZM300.38-28L300.38-7.95Q300.38-5.95 299.67-4.4 298.97-2.85 297.67-1.9L297.67-1.9 297.72-1.9Q296.47-1.05 295.07-0.53 293.67 0 292.38 0L292.38 0 284.32 0Q283.07 0 281.65-0.53 280.22-1.05 278.97-1.9L278.97-1.9 279.02-1.9Q277.72-2.85 277.02-4.4 276.32-5.95 276.32-7.95L276.32-7.95 276.32-28Q276.32-30.4 279.07-30.4L279.07-30.4Q281.82-30.4 281.82-28L281.82-28 281.82-8.35Q281.82-6.95 282.52-5.9L282.52-5.9Q283.17-4.7 285.22-4.7L285.22-4.7 291.47-4.7Q293.47-4.7 294.13-5.9L294.13-5.9 294.07-5.85Q294.88-7.05 294.88-8.35L294.88-8.35 294.88-28Q294.88-30.4 297.63-30.4L297.63-30.4Q300.38-30.4 300.38-28L300.38-28ZM312.12-25.4L312.07-2.1Q312.07-0.9 311.22-0.3 310.37 0.3 309.37 0.3L309.37 0.3Q306.62 0.3 306.62-2.1L306.62-2.1 306.62-37.6Q306.62-40 309.37-40L309.37-40Q312.12-40 312.12-37.6L312.12-37.6 312.12-30.1 322.67-30.1Q325.22-30.1 327.97-28.2L327.97-28.2Q330.67-26.3 330.67-22.2L330.67-22.2 330.67-7.3Q330.67-3.15 328.22-1.6L328.22-1.6Q325.77 0 322.62 0L322.62 0 316.72 0Q314.92 0 314.82-2.35L314.82-2.35Q314.82-4.7 316.72-4.7L316.72-4.7 321.72-4.7Q323.57-4.7 324.37-5.38 325.17-6.05 325.17-7.35L325.17-7.35 325.17-21.75Q325.17-23.05 324.37-24.25L324.37-24.25 324.42-24.2Q323.77-25.4 321.77-25.4L321.77-25.4 312.12-25.4Z" opacity="1" transform="matrix(1,0,0,1,0,0)" fill="#000000" class="wordmark-text-0" data-fill-palette-color="quaternary" id="text-0"></path></svg></g></svg></g></svg></g></svg></g><g></g></svg></g></svg></g></svg></g></svg></g><defs></defs><mask id="0e3bbf96-d108-4559-806e-1547169d01c0"><g id="SvgjsG1475"><svg viewBox="0 0 342.85155851775386 342.85155851775386" height="342.85155851775386" width="342.85155851775386"><g><svg></svg></g><g><svg viewBox="0 0 342.85155851775386 342.85155851775386" height="342.85155851775386" width="342.85155851775386"><g><path d="M0 171.426c0-94.676 76.75-171.426 171.426-171.426 94.676 0 171.426 76.75 171.426 171.426 0 94.676-76.75 171.426-171.426 171.426-94.676 0-171.426-76.75-171.426-171.426zM171.426 340.086c93.149 0 168.66-75.512 168.66-168.66 0-93.149-75.512-168.66-168.66-168.661-93.149 0-168.66 75.512-168.661 168.661 0 93.149 75.512 168.66 168.661 168.66z" fill="white" stroke="transparent"></path><ellipse rx="164.56874808852186" ry="164.56874808852186" cx="171.42577925887693" cy="171.42577925887693" fill="white" stroke="transparent" stroke-width="0" fill-opacity="1"></ellipse></g><g transform="matrix(1,0,0,1,64.84655864529837,156.09298657801315)"><svg viewBox="0 0 213.1584412271571 30.665585361727526" height="30.665585361727526" width="213.1584412271571"><g><svg viewBox="0 0 213.1584412271571 30.665585361727526" height="30.665585361727526" width="213.1584412271571"><g><svg viewBox="0 0 213.1584412271571 30.665585361727526" height="30.665585361727526" width="213.1584412271571"><g><svg viewBox="0 0 213.1584412271571 30.665585361727526" height="30.665585361727526" width="213.1584412271571"><g id="SvgjsG1474"><svg viewBox="0 0 213.1584412271571 30.665585361727526" height="30.665585361727526" width="213.1584412271571" id="SvgjsSvg1473"><g><svg viewBox="0 0 213.1584412271571 30.665585361727526" height="30.665585361727526" width="213.1584412271571"><g transform="matrix(1,0,0,1,0,0)"><svg width="213.1584412271571" viewBox="4 -40 326.67 47" height="30.665585361727526" data-palette-color="#000000"><path d="M14.85-5L21.65-5Q23.5-5 24.25-6.05 25-7.1 25-8.4L25-8.4 25-31.3Q25-32.55 24.25-33.6 23.5-34.65 21.65-34.65L21.65-34.65 9.95-34.65 9.9-2.05Q9.9-0.95 9.05-0.3 8.2 0.35 6.95 0.35L6.95 0.35Q4 0.35 4-2.05L4-2.05 4-36.7Q4-38.5 4.93-39.1 5.85-39.7 7.15-39.7L7.15-39.7 22.9-39.7Q24.2-39.7 25.6-39.15 27-38.6 28.3-37.75L28.3-37.75 28.25-37.75Q29.55-36.8 30.25-35.27 30.95-33.75 30.95-31.75L30.95-31.75 30.95-8Q30.95-3.95 28.25-1.95L28.25-1.95Q26.95-1 25.58-0.48 24.2 0.05 22.9 0.05L22.9 0.05 14.5 0.05Q13.65 0.05 13.18-0.65 12.7-1.35 12.7-2.5L12.7-2.5Q12.7-5 14.85-5L14.85-5ZM42.25 7L39.65 7Q37.9 7 37.8 4.65L37.8 4.65Q37.8 2.3 39.65 2.3L39.65 2.3 41.85 2.3Q43.6 2.3 44.15 1.25L44.15 1.25 44.85-0.6 45.1-1.4 35.35-26.95 35.35-26.9Q34.95-28.1 35.52-28.95 36.1-29.8 37.3-30.2L37.3-30.2Q38.2-30.45 38.75-30.45L38.75-30.45Q40.2-30.45 40.55-28.75L40.55-28.75 44.5-18.9 47.85-10.7 53.2-28.65Q53.65-30.45 55.3-30.45L55.3-30.45Q55.7-30.45 56.6-30.2L56.6-30.2Q57.8-29.85 58.32-29.05 58.85-28.25 58.55-27.15L58.55-27.15Q56.3-19.5 53.97-11.75 51.65-4 49.4 3.6L49.4 3.6Q49.15 4.15 48.62 4.73 48.1 5.3 47.25 5.83 46.4 6.35 45.15 6.68 43.9 7 42.25 7L42.25 7ZM68.3-21.75L68.3-2.1Q68.3 0.3 65.55 0.3L65.55 0.3Q62.8 0.3 62.8-2.1L62.8-2.1 62.8-22.2Q62.8-24.25 63.45-25.75 64.09-27.25 65.5-28.2L65.5-28.2Q68.15-30.1 70.8-30.1L70.8-30.1 78.84-30.1Q81.4-30.1 84.15-28.2L84.15-28.2Q86.84-26.3 86.84-22.2L86.84-22.2 86.84-2.1Q86.84 0.3 84.09 0.3L84.09 0.3Q81.34 0.3 81.34-2.1L81.34-2.1 81.34-21.75Q81.34-23.05 80.55-24.25L80.55-24.25 80.59-24.2Q79.95-25.4 77.95-25.4L77.95-25.4 71.7-25.4Q69.65-25.4 69-24.2L69-24.2Q68.3-23.15 68.3-21.75L68.3-21.75ZM107.39 0L100.84 0Q99.29 0 97.89-0.43 96.49-0.85 95.19-1.65L95.19-1.65 95.19-1.6Q92.74-3.15 92.74-7.3L92.74-7.3 92.74-9.75Q92.74-11.8 93.47-13.33 94.19-14.85 95.49-15.75L95.49-15.75 95.44-15.75Q96.69-16.6 98.09-17.03 99.49-17.45 100.79-17.45L100.79-17.45 111.84-17.45 111.84-22.1Q111.84-23.35 111.07-24.38 110.29-25.4 108.44-25.4L108.44-25.4 102.59-25.4Q100.69-25.4 99.97-24.48 99.24-23.55 99.24-22.3L99.24-22.3 99.24-21.9Q99.24-19.3 96.44-19.3L96.44-19.3Q93.64-19.3 93.64-21.9L93.64-21.9 93.64-22.35Q93.64-24.4 94.37-25.8 95.09-27.2 96.34-28.15L96.34-28.15 96.29-28.15Q97.59-29 99.02-29.55 100.44-30.1 101.74-30.1L101.74-30.1 109.34-30.1Q110.59-30.1 112.02-29.55 113.44-29 114.69-28.15L114.69-28.15 114.64-28.15Q115.94-27.2 116.64-25.68 117.34-24.15 117.34-22.15L117.34-22.15 117.34-2.1Q117.34 0.3 114.59 0.3L114.59 0.3Q114.04 0.3 113.57 0.25 113.09 0.2 112.72-0.03 112.34-0.25 112.12-0.68 111.89-1.1 111.89-1.8L111.89-1.8 111.84-12.75 101.74-12.75Q100.64-12.75 100.04-12.5 99.44-12.25 99.09-11.7L99.09-11.7Q98.69-10.85 98.52-10.38 98.34-9.9 98.34-9.3L98.34-9.3 98.34-7.35Q98.34-6.05 99.12-5.38 99.89-4.7 101.79-4.7L101.79-4.7 107.39-4.7Q109.24-4.7 109.24-2.35L109.24-2.35Q109.24-1.35 108.79-0.68 108.34 0 107.39 0L107.39 0ZM151.19-11.3L151.19-8Q151.19-3.95 148.49-1.95L148.49-1.95Q147.19-1 145.81-0.48 144.44 0.05 143.14 0.05L143.14 0.05 132.24 0.05Q130.94 0.05 129.56-0.48 128.19-1 126.89-1.95L126.89-1.95Q125.59-2.95 124.89-4.42 124.19-5.9 124.19-8L124.19-8 124.19-31.75Q124.19-33.75 124.89-35.27 125.59-36.8 126.89-37.75L126.89-37.75 126.84-37.75Q128.14-38.6 129.54-39.15 130.94-39.7 132.24-39.7L132.24-39.7 143.14-39.7Q144.44-39.7 145.84-39.15 147.24-38.6 148.54-37.75L148.54-37.75 148.49-37.75Q149.79-36.8 150.49-35.27 151.19-33.75 151.19-31.75L151.19-31.75 151.19-28.3Q151.19-25.9 148.19-25.9L148.19-25.9Q145.24-25.9 145.24-28.3L145.24-28.3 145.24-31.3Q145.24-32.55 144.49-33.6 143.74-34.65 141.89-34.65L141.89-34.65 133.49-34.65Q131.64-34.65 130.89-33.6 130.14-32.55 130.14-31.3L130.14-31.3 130.14-8.4Q130.14-7.1 130.89-6.05 131.64-5 133.49-5L133.49-5 141.89-5Q143.74-5 144.49-6.05 145.24-7.1 145.24-8.4L145.24-8.4 145.24-11.3Q145.24-13.65 148.19-13.65L148.19-13.65Q151.19-13.65 151.19-11.3L151.19-11.3ZM163.39-22.75L163.39-2.1Q163.39 0.3 160.64 0.3L160.64 0.3Q157.79 0.3 157.79-2.1L157.79-2.1 157.79-22.8Q157.79-26.9 160.24-28.5L160.24-28.5Q162.69-30.1 165.89-30.1L165.89-30.1 171.59-30.1Q173.44-30.1 173.44-27.75L173.44-27.75Q173.54-25.4 171.59-25.4L171.59-25.4 166.29-25.4Q164.49-25.4 163.94-24.7 163.39-24 163.39-22.75L163.39-22.75ZM191.78 0L185.23 0Q183.69 0 182.28-0.43 180.88-0.85 179.58-1.65L179.58-1.65 179.58-1.6Q177.13-3.15 177.13-7.3L177.13-7.3 177.13-9.75Q177.13-11.8 177.86-13.33 178.58-14.85 179.88-15.75L179.88-15.75 179.83-15.75Q181.08-16.6 182.48-17.03 183.88-17.45 185.19-17.45L185.19-17.45 196.23-17.45 196.23-22.1Q196.23-23.35 195.46-24.38 194.69-25.4 192.83-25.4L192.83-25.4 186.98-25.4Q185.08-25.4 184.36-24.48 183.63-23.55 183.63-22.3L183.63-22.3 183.63-21.9Q183.63-19.3 180.83-19.3L180.83-19.3Q178.03-19.3 178.03-21.9L178.03-21.9 178.03-22.35Q178.03-24.4 178.76-25.8 179.48-27.2 180.73-28.15L180.73-28.15 180.69-28.15Q181.98-29 183.41-29.55 184.83-30.1 186.13-30.1L186.13-30.1 193.73-30.1Q194.98-30.1 196.41-29.55 197.83-29 199.08-28.15L199.08-28.15 199.03-28.15Q200.33-27.2 201.03-25.68 201.73-24.15 201.73-22.15L201.73-22.15 201.73-2.1Q201.73 0.3 198.98 0.3L198.98 0.3Q198.44 0.3 197.96 0.25 197.48 0.2 197.11-0.03 196.73-0.25 196.51-0.68 196.28-1.1 196.28-1.8L196.28-1.8 196.23-12.75 186.13-12.75Q185.03-12.75 184.44-12.5 183.83-12.25 183.48-11.7L183.48-11.7Q183.08-10.85 182.91-10.38 182.73-9.9 182.73-9.3L182.73-9.3 182.73-7.35Q182.73-6.05 183.51-5.38 184.28-4.7 186.19-4.7L186.19-4.7 191.78-4.7Q193.63-4.7 193.63-2.35L193.63-2.35Q193.63-1.35 193.19-0.68 192.73 0 191.78 0L191.78 0ZM215.13-25.4L215.13-2.1Q215.13 0.3 212.33 0.3L212.33 0.3Q209.58 0.3 209.58-2.1L209.58-2.1 209.58-25.4 207.18-25.4Q205.38-25.4 205.28-27.75L205.28-27.75Q205.28-30.1 207.18-30.1L207.18-30.1 209.58-30.1 209.58-32.5Q209.58-34.55 210.16-35.98 210.73-37.4 212.03-38.15L212.03-38.15 212.03-38.1Q213.33-38.9 214.71-39.35 216.08-39.8 217.63-39.8L217.63-39.8 218.83-39.8Q220.68-39.8 220.68-37.45L220.68-37.45Q220.78-35.1 218.83-35.1L218.83-35.1 218.03-35.1Q217.08-35.1 216.51-34.93 215.93-34.75 215.63-34.4 215.33-34.05 215.23-33.55 215.13-33.05 215.13-32.45L215.13-32.45 215.13-30.1 218.88-30.1Q220.83-30.1 220.73-27.75L220.73-27.75Q220.73-25.4 218.88-25.4L218.88-25.4 215.13-25.4ZM235.68-25.4L231.53-25.4 231.53-7.2Q231.53-5.9 232.08-5.2 232.63-4.5 234.43-4.5L234.43-4.5 235.73-4.5Q237.68-4.5 237.58-2.2L237.58-2.2Q237.58 0.15 235.73 0.15L235.73 0.15 234.08 0.15Q232.48 0.15 231.08-0.28 229.68-0.7 228.38-1.5L228.38-1.5 228.38-1.45Q225.93-3.05 225.93-7.15L225.93-7.15 225.93-25.4 223.98-25.4Q222.18-25.4 222.08-27.75L222.08-27.75Q222.08-30.1 223.98-30.1L223.98-30.1 225.93-30.1 225.93-35.45Q225.93-37.85 228.78-37.85L228.78-37.85Q231.53-37.85 231.53-35.45L231.53-35.45 231.53-30.1 235.68-30.1Q237.63-30.1 237.53-27.75L237.53-27.75Q237.53-25.4 235.68-25.4L235.68-25.4ZM263.53-2.1L263.53-37.55Q263.53-39.95 266.48-39.95L266.48-39.95Q269.48-39.95 269.48-37.55L269.48-37.55 269.48-2.1Q269.48 0.3 266.48 0.3L266.48 0.3Q263.53 0.3 263.53-2.1L263.53-2.1ZM248.33-37.55L248.33-2.1Q248.33 0.3 245.33 0.3L245.33 0.3Q242.38 0.3 242.38-2.1L242.38-2.1 242.38-37.55Q242.38-39.95 245.33-39.95L245.33-39.95Q248.33-39.95 248.33-37.55L248.33-37.55ZM260.03-20.65L260.03-20.65Q260.03-18.9 258.83-17.7 257.63-16.5 255.88-16.5L255.88-16.5Q254.18-16.5 252.98-17.7 251.78-18.9 251.78-20.65L251.78-20.65Q251.78-22.4 252.98-23.6 254.18-24.8 255.88-24.8L255.88-24.8Q257.63-24.8 258.83-23.6 260.03-22.4 260.03-20.65ZM300.38-28L300.38-7.95Q300.38-5.95 299.67-4.4 298.97-2.85 297.67-1.9L297.67-1.9 297.72-1.9Q296.47-1.05 295.07-0.53 293.67 0 292.38 0L292.38 0 284.32 0Q283.07 0 281.65-0.53 280.22-1.05 278.97-1.9L278.97-1.9 279.02-1.9Q277.72-2.85 277.02-4.4 276.32-5.95 276.32-7.95L276.32-7.95 276.32-28Q276.32-30.4 279.07-30.4L279.07-30.4Q281.82-30.4 281.82-28L281.82-28 281.82-8.35Q281.82-6.95 282.52-5.9L282.52-5.9Q283.17-4.7 285.22-4.7L285.22-4.7 291.47-4.7Q293.47-4.7 294.13-5.9L294.13-5.9 294.07-5.85Q294.88-7.05 294.88-8.35L294.88-8.35 294.88-28Q294.88-30.4 297.63-30.4L297.63-30.4Q300.38-30.4 300.38-28L300.38-28ZM312.12-25.4L312.07-2.1Q312.07-0.9 311.22-0.3 310.37 0.3 309.37 0.3L309.37 0.3Q306.62 0.3 306.62-2.1L306.62-2.1 306.62-37.6Q306.62-40 309.37-40L309.37-40Q312.12-40 312.12-37.6L312.12-37.6 312.12-30.1 322.67-30.1Q325.22-30.1 327.97-28.2L327.97-28.2Q330.67-26.3 330.67-22.2L330.67-22.2 330.67-7.3Q330.67-3.15 328.22-1.6L328.22-1.6Q325.77 0 322.62 0L322.62 0 316.72 0Q314.92 0 314.82-2.35L314.82-2.35Q314.82-4.7 316.72-4.7L316.72-4.7 321.72-4.7Q323.57-4.7 324.37-5.38 325.17-6.05 325.17-7.35L325.17-7.35 325.17-21.75Q325.17-23.05 324.37-24.25L324.37-24.25 324.42-24.2Q323.77-25.4 321.77-25.4L321.77-25.4 312.12-25.4Z" opacity="1" transform="matrix(1,0,0,1,0,0)" fill="black" class="wordmark-text-0" id="SvgjsPath1472"></path></svg></g></svg></g></svg></g></svg></g><g></g></svg></g></svg></g></svg></g></svg></g><defs><mask></mask></defs></svg><rect width="342.85155851775386" height="342.85155851775386" fill="black" stroke="none" visibility="hidden"></rect></g></mask><linearGradient x1="0.054" x2="0.941" y1="0.5" y2="0.5" id="a56dcf05-ad59-47ce-9100-0f8f154cf05f"><stop stop-color="#9c7945" offset="0"></stop><stop stop-color="#faf3aa" offset="0.498"></stop><stop stop-color="#9c7945" offset="1"></stop></linearGradient></svg><rect width="342.85155851775386" height="342.85155851775386" fill="none" stroke="none" visibility="hidden"></rect></g></svg></g></svg>