<svg width="229" height="42" viewBox="0 0 229 42" fill="none" xmlns="http://www.w3.org/2000/svg">
<path d="M14.26 41.35C11.6933 41.35 9.39329 40.9333 7.35996 40.1C5.32663 39.2667 3.69329 38.0333 2.45996 36.4C1.25996 34.7667 0.626628 32.8 0.559961 30.5H9.65996C9.79329 31.8 10.2433 32.8 11.01 33.5C11.7766 34.1667 12.7766 34.5 14.01 34.5C15.2766 34.5 16.2766 34.2167 17.01 33.65C17.7433 33.05 18.11 32.2333 18.11 31.2C18.11 30.3333 17.81 29.6167 17.21 29.05C16.6433 28.4833 15.9266 28.0167 15.06 27.65C14.2266 27.2833 13.0266 26.8667 11.46 26.4C9.19329 25.7 7.34329 25 5.90996 24.3C4.47663 23.6 3.24329 22.5667 2.20996 21.2C1.17663 19.8333 0.659961 18.05 0.659961 15.85C0.659961 12.5833 1.84329 10.0333 4.20996 8.2C6.57663 6.33333 9.65996 5.4 13.46 5.4C17.3266 5.4 20.4433 6.33333 22.81 8.2C25.1766 10.0333 26.4433 12.6 26.61 15.9H17.36C17.2933 14.7667 16.8766 13.8833 16.11 13.25C15.3433 12.5833 14.36 12.25 13.16 12.25C12.1266 12.25 11.2933 12.5333 10.66 13.1C10.0266 13.6333 9.70996 14.4167 9.70996 15.45C9.70996 16.5833 10.2433 17.4667 11.31 18.1C12.3766 18.7333 14.0433 19.4167 16.31 20.15C18.5766 20.9167 20.41 21.65 21.81 22.35C23.2433 23.05 24.4766 24.0667 25.51 25.4C26.5433 26.7333 27.06 28.45 27.06 30.55C27.06 32.55 26.5433 34.3667 25.51 36C24.51 37.6333 23.0433 38.9333 21.11 39.9C19.1766 40.8667 16.8933 41.35 14.26 41.35ZM58.6217 26.6C58.6217 27.4 58.5717 28.2333 58.4717 29.1H39.1217C39.255 30.8333 39.805 32.1667 40.7717 33.1C41.7717 34 42.9883 34.45 44.4217 34.45C46.555 34.45 48.0383 33.55 48.8717 31.75H57.9717C57.505 33.5833 56.655 35.2333 55.4217 36.7C54.2217 38.1667 52.705 39.3167 50.8717 40.15C49.0383 40.9833 46.9883 41.4 44.7217 41.4C41.9883 41.4 39.555 40.8167 37.4217 39.65C35.2883 38.4833 33.6217 36.8167 32.4217 34.65C31.2217 32.4833 30.6217 29.95 30.6217 27.05C30.6217 24.15 31.205 21.6167 32.3717 19.45C33.5717 17.2833 35.2383 15.6167 37.3717 14.45C39.505 13.2833 41.955 12.7 44.7217 12.7C47.4217 12.7 49.8217 13.2667 51.9217 14.4C54.0217 15.5333 55.655 17.15 56.8217 19.25C58.0217 21.35 58.6217 23.8 58.6217 26.6ZM49.8717 24.35C49.8717 22.8833 49.3717 21.7167 48.3717 20.85C47.3717 19.9833 46.1217 19.55 44.6217 19.55C43.1883 19.55 41.9717 19.9667 40.9717 20.8C40.005 21.6333 39.405 22.8167 39.1717 24.35H49.8717ZM71.6822 17.75C72.6822 16.2167 73.9322 15.0167 75.4322 14.15C76.9322 13.25 78.5989 12.8 80.4322 12.8V21.85H78.0822C75.9489 21.85 74.3489 22.3167 73.2822 23.25C72.2156 24.15 71.6822 25.75 71.6822 28.05V41H63.1322V13.1H71.6822V17.75ZM97.0689 33L103.119 13.1H112.219L102.319 41H91.7689L81.8689 13.1H91.0189L97.0689 33ZM120.118 10.2C118.618 10.2 117.384 9.76666 116.418 8.9C115.484 8 115.018 6.9 115.018 5.6C115.018 4.26667 115.484 3.16666 116.418 2.3C117.384 1.4 118.618 0.949997 120.118 0.949997C121.584 0.949997 122.784 1.4 123.718 2.3C124.684 3.16666 125.168 4.26667 125.168 5.6C125.168 6.9 124.684 8 123.718 8.9C122.784 9.76666 121.584 10.2 120.118 10.2ZM124.368 13.1V41H115.818V13.1H124.368ZM128.864 27.05C128.864 24.15 129.447 21.6167 130.614 19.45C131.814 17.2833 133.464 15.6167 135.564 14.45C137.697 13.2833 140.131 12.7 142.864 12.7C146.364 12.7 149.281 13.6167 151.614 15.45C153.981 17.2833 155.531 19.8667 156.264 23.2H147.164C146.397 21.0667 144.914 20 142.714 20C141.147 20 139.897 20.6167 138.964 21.85C138.031 23.05 137.564 24.7833 137.564 27.05C137.564 29.3167 138.031 31.0667 138.964 32.3C139.897 33.5 141.147 34.1 142.714 34.1C144.914 34.1 146.397 33.0333 147.164 30.9H156.264C155.531 34.1667 153.981 36.7333 151.614 38.6C149.247 40.4667 146.331 41.4 142.864 41.4C140.131 41.4 137.697 40.8167 135.564 39.65C133.464 38.4833 131.814 36.8167 130.614 34.65C129.447 32.4833 128.864 29.95 128.864 27.05ZM187.137 26.6C187.137 27.4 187.087 28.2333 186.987 29.1H167.637C167.771 30.8333 168.321 32.1667 169.287 33.1C170.287 34 171.504 34.45 172.937 34.45C175.071 34.45 176.554 33.55 177.387 31.75H186.487C186.021 33.5833 185.171 35.2333 183.937 36.7C182.737 38.1667 181.221 39.3167 179.387 40.15C177.554 40.9833 175.504 41.4 173.237 41.4C170.504 41.4 168.071 40.8167 165.937 39.65C163.804 38.4833 162.137 36.8167 160.937 34.65C159.737 32.4833 159.137 29.95 159.137 27.05C159.137 24.15 159.721 21.6167 160.887 19.45C162.087 17.2833 163.754 15.6167 165.887 14.45C168.021 13.2833 170.471 12.7 173.237 12.7C175.937 12.7 178.337 13.2667 180.437 14.4C182.537 15.5333 184.171 17.15 185.337 19.25C186.537 21.35 187.137 23.8 187.137 26.6ZM178.387 24.35C178.387 22.8833 177.887 21.7167 176.887 20.85C175.887 19.9833 174.637 19.55 173.137 19.55C171.704 19.55 170.487 19.9667 169.487 20.8C168.521 21.6333 167.921 22.8167 167.687 24.35H178.387ZM202.998 41.4C200.565 41.4 198.398 40.9833 196.498 40.15C194.598 39.3167 193.098 38.1833 191.998 36.75C190.898 35.2833 190.281 33.65 190.148 31.85H198.598C198.698 32.8167 199.148 33.6 199.948 34.2C200.748 34.8 201.731 35.1 202.898 35.1C203.965 35.1 204.781 34.9 205.348 34.5C205.948 34.0667 206.248 33.5167 206.248 32.85C206.248 32.05 205.831 31.4667 204.998 31.1C204.165 30.7 202.815 30.2667 200.948 29.8C198.948 29.3333 197.281 28.85 195.948 28.35C194.615 27.8167 193.465 27 192.498 25.9C191.531 24.7667 191.048 23.25 191.048 21.35C191.048 19.75 191.481 18.3 192.348 17C193.248 15.6667 194.548 14.6167 196.248 13.85C197.981 13.0833 200.031 12.7 202.398 12.7C205.898 12.7 208.648 13.5667 210.648 15.3C212.681 17.0333 213.848 19.3333 214.148 22.2H206.248C206.115 21.2333 205.681 20.4667 204.948 19.9C204.248 19.3333 203.315 19.05 202.148 19.05C201.148 19.05 200.381 19.25 199.848 19.65C199.315 20.0167 199.048 20.5333 199.048 21.2C199.048 22 199.465 22.6 200.298 23C201.165 23.4 202.498 23.8 204.298 24.2C206.365 24.7333 208.048 25.2667 209.348 25.8C210.648 26.3 211.781 27.1333 212.748 28.3C213.748 29.4333 214.265 30.9667 214.298 32.9C214.298 34.5333 213.831 36 212.898 37.3C211.998 38.5667 210.681 39.5667 208.948 40.3C207.248 41.0333 205.265 41.4 202.998 41.4Z" fill="#cfcfcf"/>
<path d="M223.529 41.4C222.029 41.4 220.795 40.9667 219.829 40.1C218.895 39.2 218.429 38.1 218.429 36.8C218.429 35.4667 218.895 34.35 219.829 33.45C220.795 32.55 222.029 32.1 223.529 32.1C224.995 32.1 226.195 32.55 227.129 33.45C228.095 34.35 228.579 35.4667 228.579 36.8C228.579 38.1 228.095 39.2 227.129 40.1C226.195 40.9667 224.995 41.4 223.529 41.4Z" fill="#FF8500"/>
</svg>
